<?xml version="1.0" encoding="utf-8"?>
<!-- Generator: Adobe Illustrator 15.0.0, SVG Export Plug-In . SVG Version: 6.00 Build 0)  -->
<!DOCTYPE svg PUBLIC "-//W3C//DTD SVG 1.1//EN" "http://www.w3.org/Graphics/SVG/1.1/DTD/svg11.dtd">
<svg version="1.1" id="Layer_1" xmlns="http://www.w3.org/2000/svg" xmlns:xlink="http://www.w3.org/1999/xlink" x="0px" y="0px"
	 width="1024px" height="768px" viewBox="0 0 1024 768" enable-background="new 0 0 1024 768" xml:space="preserve">
<path fill="#ffffff" d="M72.022,649.021l11.812,26.069H60.307l-7.262-21.871h-3.323v21.871H29.256v-65.6h23.875
	c17.755,0,26.855,6.474,26.855,21.86C79.986,639.578,77.099,646.053,72.022,649.021z M53.481,625.929h-3.76v12.427h3.76
	c3.938,0,5.162-0.61,5.162-6.214C58.643,626.98,57.596,625.929,53.481,625.929z M82.961,648.058c0-17.75,7.437-27.723,23.965-27.723
	c14.257,0,22.129,7.787,22.129,24.927c0,2.886-0.174,6.214-0.525,8.83h-25.89c0.788,4.46,3.85,6.214,10.233,6.214
	c4.461,0,8.835-0.612,13.036-1.834l2.01,14.604c-4.109,1.572-10.67,2.886-17.406,2.886
	C91.711,675.961,82.961,665.988,82.961,648.058z M111.562,641.935c-0.171-4.982-1.399-6.555-4.461-6.555
	c-3.321,0-4.284,0.962-4.721,6.555H111.562z M166.851,675.09l-1.488-3.679c-2.972,2.888-6.646,4.64-12.068,4.64
	c-12.158,0-19.244-8.749-19.244-28.344c0-17.841,6.912-27.552,18.719-27.552c3.587,0,6.995,1.142,9.882,3.417l0.174-0.179
	l-0.174-6.997v-8.74l18.983-0.883v68.316H166.851z M162.652,638.266c-0.788-1.053-2.186-1.924-4.02-1.924
	c-3.674,0-4.902,2.185-4.902,12.066c0,10.845,0.877,12.77,4.902,12.77c1.833,0,3.323-1.042,4.02-2.536V638.266z M229.833,675.09
	h-26.761v-65.6h27.287c14.958,0,22.567,6.996,22.567,17.229c0,6.646-3.062,11.025-7.959,13.471v0.171
	c6.47,2.364,9.882,7.436,9.882,15.223C254.849,667.302,247.152,675.09,229.833,675.09z M229.662,626.107h-6.825v8.479h6.825
	c2.882,0,3.584-0.871,3.584-4.368C233.246,626.98,232.458,626.107,229.662,626.107z M229.923,649.461h-7.086v9.361h7.347
	c3.236,0,3.938-0.791,3.938-4.73C234.122,650.685,233.505,649.461,229.923,649.461z M305.759,655.323
	c0,14.083-7.606,20.638-23.177,20.638c-15.57,0-23.178-7.085-23.178-20.638v-34.116h18.978v34.026c0,3.238,1.139,4.722,4.29,4.722
	c3.057,0,4.194-1.313,4.194-4.722v-34.026h18.893V655.323z M309.532,675.09v-67.434l19.152-0.883v68.316H309.532z M334.288,675.09
	v-67.434l19.153-0.883v68.316H334.288z M397.62,609.49l9.712,28.163l2.184,6.735h0.261l2.099-6.735l9.882-28.163h22.48v65.6h-18.717
	V653.48l0.176-7.086l-0.266-0.08l-2.185,6.815l-7.347,21.96h-13.12l-7.346-22.04l-2.101-6.825l-0.174,0.09l0.089,7.086v21.689
	h-17.931v-65.6H397.62z M497.425,655.323c0,14.083-7.607,20.638-23.177,20.638s-23.179-7.085-23.179-20.638v-34.116h18.979v34.026
	c0,3.238,1.139,4.722,4.29,4.722c3.057,0,4.194-1.313,4.194-4.722v-34.026h18.894V655.323z M519.388,676.132
	c-6.037,0-11.285-0.872-15.83-2.887l1.659-15.034c4.199,2.005,10.148,2.878,13.82,2.878c2.797,0,4.111-0.873,4.111-2.187
	c0-5.243-20.468-1.572-20.468-20.637c0-9.883,6.475-17.931,21.078-17.931c5.338,0,10.586,1.134,14.784,2.797l-1.313,14.783
	c-4.109-1.483-10.059-2.274-13.471-2.274c-2.184,0-3.057,0.61-3.057,1.834c0,5.161,19.94,1.925,19.94,19.855
	C540.642,668.705,534.607,676.132,519.388,676.132z M556.742,618.672c-6.826,0-10.057-2.014-10.057-7.086
	c0-4.721,3.23-7.168,10.057-7.168c6.996,0,9.969,2.447,9.969,7.168C566.711,616.226,563.738,618.672,556.742,618.672z
	 M547.031,675.09v-53.442l19.418-0.791v54.233H547.031z M606.861,637.564c-2.1-0.521-4.461-0.873-6.385-0.873
	c-7.607,0-9.621,2.798-9.621,12.157c0,8.049,3.586,11.808,9.186,11.808c2.621,0,4.895-0.44,7.08-1.053l1.228,14.083
	c-2.886,1.573-7.171,2.445-12.423,2.445c-15.916,0-24.75-9.271-24.75-27.372c0-17.84,7.521-28.336,25.017-28.336
	c3.849,0,8.743,0.693,11.631,1.836L606.861,637.564z M662.23,665.116h-14.693l-1.924,9.974H624.1l18.627-65.6h25.103l19.067,65.6
	h-22.741L662.23,665.116z M653.662,634.587l-2.799,14.003h8.221l-2.711-13.912l-1.139-7.086h-0.26L653.662,634.587z
	 M721.799,637.564c-2.1-0.521-4.459-0.873-6.383-0.873c-7.608,0-9.623,2.798-9.623,12.157c0,8.049,3.589,11.808,9.186,11.808
	c2.622,0,4.897-0.44,7.082-1.053l1.229,14.083c-2.888,1.573-7.172,2.445-12.424,2.445c-15.916,0-24.752-9.271-24.752-27.372
	c0-17.84,7.521-28.336,25.018-28.336c3.848,0,8.745,0.693,11.631,1.836L721.799,637.564z M756.357,671.24
	c-3.146,3.059-7.261,4.721-12.332,4.721c-9.885,0-16.093-6.214-16.093-18.371c0-10.054,7.171-17.31,18.106-17.31
	c3.146,0,5.156,0.341,7.256,0.782v-0.782c0-2.716-1.664-4.64-7.256-4.64c-5.604,0-8.575,0.791-13.386,2.535l-1.487-14.514
	c5.25-2.193,11.635-3.327,18.545-3.327c16.879,0,22.391,7.167,22.391,22.562v32.193H757.58L756.357,671.24z M753.295,653.219
	c-1.047-0.261-2.1-0.439-3.584-0.439c-2.624,0-3.938,1.312-3.938,4.641c0,2.886,1.223,4.109,3.412,4.109
	c2.186,0,4.109-1.135,4.109-3.589V653.219z M809.894,675.09l-1.489-3.679c-2.973,2.888-6.645,4.64-12.066,4.64
	c-12.158,0-19.244-8.749-19.244-28.344c0-17.841,6.91-27.552,18.717-27.552c3.589,0,6.996,1.142,9.883,3.417l0.176-0.179
	l-0.176-6.997v-8.74l18.982-0.883v68.316H809.894z M805.693,638.266c-0.787-1.053-2.185-1.924-4.02-1.924
	c-3.674,0-4.9,2.185-4.9,12.066c0,10.845,0.875,12.77,4.9,12.77c1.835,0,3.322-1.042,4.02-2.536V638.266z M829.316,648.058
	c0-17.75,7.436-27.723,23.963-27.723c14.258,0,22.131,7.787,22.131,24.927c0,2.886-0.175,6.214-0.525,8.83h-25.889
	c0.787,4.46,3.848,6.214,10.232,6.214c4.461,0,8.836-0.612,13.034-1.834l2.011,14.604c-4.109,1.572-10.67,2.886-17.404,2.886
	C838.064,675.961,829.316,665.988,829.316,648.058z M857.916,641.935c-0.172-4.982-1.398-6.555-4.46-6.555
	c-3.323,0-4.285,0.962-4.721,6.555H857.916z M934.715,675.09v-33.938c0-3.407-1.398-4.991-4.02-4.991
	c-2.887,0-4.025,1.584-4.025,4.991v33.938h-18.982v-33.938c0-3.499-1.133-4.991-4.109-4.991c-1.748,0-3.062,0.791-3.934,1.925
	v37.004h-18.982v-53.532l13.735-0.781l2.622,4.189c3.588-3.058,8.048-4.891,12.508-4.891c5.857,0,9.972,2.005,12.859,6.204
	c3.674-4.281,8.309-6.124,13.816-6.124c10.322,0,17.494,7.086,17.494,20.736v34.198H934.715z M973.822,673.165l0.176-0.53
	l-20.903-51.428h21.429l8.133,30.79h0.262l1.052-6.996l4.37-23.794h20.03l-15.831,51.606c-3.588,11.808-11.02,16.969-21.779,16.969
	c-3.498,0-6.735-0.44-9.621-1.574l1.402-12.507c1.749,0.61,3.058,0.871,4.721,0.871
	C970.409,676.572,972.774,675.871,973.822,673.165z M22.736,495.873c4.119,1.776,7.383-1.003,10.157-3.687
	c2.338-3.854,6.029-7.14,6.699-11.65c-1.178-2.837-4.704-5.53-7.473-3.771c-3.933,6.366-16.662,6.272-13.137,16.164
	C20.228,493.958,21.163,495.716,22.736,495.873z M8.519,498.135c-5.306,3.179-5.12,9.288-4.883,15.003
	c-0.089,3.602-4.281,5.535-3.763,9.37c3.93,1.358,7.63,3.539,11.964,3.777c2.442-7.28,4.042-14.995,6.043-22.544l-6.786-6.672
	C10.093,497.069,9.347,497.797,8.519,498.135z M977.229,488.737c-3.749-4.02-9.29-6.843-11.231-11.973
	c-3.313-7.873-1.766-18.447-9.379-23.974c-7.021-1.408-15.242,0.261-20.637-5.27c-2.9-2.685-4.086-6.551-2.995-10.48
	c4.421-9.465,7.208-20.524,4.852-31.93c0.454-3.709-4.37-7.713,0-10.82c13.323,3.617,30.821,4.957,42.74-2.654
	c11.058-7.327,18.768-18.63,18.003-32.282c-2.899-18.952-15.903-34.029-31.072-47.597c-1.934-1.694-3.498-3.457-3.35-5.957
	c0.355-1.425,0.503-3.188,2.181-3.763c7.952-0.505,15.665-1.603,22.529-4.851c12.1-6.637,15.256-19.938,13.497-33.044
	c-0.49-0.834-0.413-2.504-1.825-2.248c-3.357,3.514-7.225,5.51-11.302,7.126c-15.278,2.075-29.676,6.025-40.82,18.005
	c-3.797,4.703-4.201,13.246-1.188,18.354c9.387,18.022,31.329,28.916,36.346,48.772c2.855,8.56-0.899,16.194-7.445,21.709
	c-9.985,6.223-24.136,5.112-34.166,0c-23.816-12.049-43.761-33.534-70.076-39.388c-15.266-1.839-28.169-9.222-39.823-19.864
	c-9.882-7.612-22.696-8.708-34.095-12.738c-10.494-11.056-22.939-17.435-36.045-22.459c-7.346-3.27-16.586-2.265-22.863-8.29
	c-4.145-6.208-10.467-11.741-16.414-15.754c-8.692-4.943-20.998-8.929-30.695-4.473c-21.56-35.017-52.996-63.301-90.408-80.98
	V78.719l-136.288,28.564v49.476c-57.348,12.73-106.036,48.697-135.59,97.523c-5.812,0.198-11.5,1.467-16.28,4.226
	c-15.917,14.029-35.705,18.952-54.399,26.593c-10.395,5.104-16.918,16.771-27.309,21.789c-14.245-0.245-26.824,3.45-37.143,12.737
	c-8.525,9.979-18.676,17.6-30.745,19.864c-21.542,0.663-39.313,9.961-54.794,25.154c-15.179,9.709-30.011,22.519-49.875,18.349
	c-7.473-2.021-14.663-8.804-17.266-16.099c-4.708-15.593,4.878-28.416,16.514-38.292c11.052-9.896,26.729-19.947,23.295-36.708
	c-2.604-14.255-18.448-17.024-30.017-19.56c-11.981-0.223-21.208-6.927-30.744-12.705c-2.271,3.525-3.112,7.536-2.68,11.976
	c0.921,11.061,9.959,22.465,20.618,25.894c6.934,3.95,16.434-1.671,22.877,3.374c1.911,1.828,1.161,3.745,0.751,6.016
	c-12.994,13.148-32.691,26.141-35.96,44.598c-2.6,14.828,2.68,28.728,14.248,38.292c12.576,9.71,32.854,11.896,47.611,5.265
	c1.753-0.668,4.09-0.553,5.282,1.436l1.488,20.269c0.764,9.463,8.314,16.518,7.144,26.242c-4.702,5.283-11.145,7.797-16.927,11.316
	l-14.995,1.507c-4.186,3.273-5.799,8.313-7.144,13.079c-0.494,10.809-12.729,17.333-20.611,22.54
	c-2.779,5.435-7.795,13.002-14.998,12.741c-5.019,5.764-5.369,13.497-7.118,20.605c6.856,0.688,13.309,3.44,20.601,1.853
	c8.965-1.938,10.066-11.641,14.995-17.58c5.88-6.15,13.757,0.661,20.287-1.546c8.3-4.097,16.366-9.119,23.223-16.808
	c15.759-7.984,33.681,4.739,48.77-3.798c6.699-7.779,17.782-6.435,22.88-16.093c2.762-7.445,8.305-13.74,9.398-21.779
	c-1.61-1.601-3.112-3.439-5.274-3.763c-1.775,3.443-3.957,6.609-5.962,9.815c-9.558,15.727-26.464,20.435-43.163,22.106
	c-22.13-0.508-42.155,3.939-56.656,22.126h-1.519c-0.994-0.328-1.574-0.836-1.831-1.934c7.63-13.488,21.357-23.132,36.045-25.155
	c23.039-2.227,48.861-2.828,61.508-25.471c8.116-12.14,5.706-28.647,9.302-42.736c0.162-1.665,1.264-3.098,3.013-3.023
	c0.939,0.409,2.347,0.682,2.697,1.934c-1.609,11.575-2.203,24.14,1.84,34.869c7.198,9.536,21.271,4.349,30.745,2.6
	c18.033-3.857,34.031,5.705,52.478,1.848c2.007-0.926,3.755-2.104,2.999-4.869c-0.736-4.031-3.173-7.288-2.266-11.982
	c0.604-1.335,1.935-2.257,3.454-2.257c2.761,1.502,2.256,5.026,3.364,7.531c7.27,21.279,38.612,20.12,40.46,45.01
	c-2.77,9.133-12.571,12.585-20.597,14.563c-14.941,3.448-18.209-14.725-26.681-22.44c-7.36-4.541-17.174-1.151-25.042,0
	c-2.005,0.756-2.689,2.783-2.266,4.856l8.956,14.58c3.277,6.961,12.068-1.245,15.768,5.693c3.435,7.544,10.722,16.608,19.864,16.869
	c13.735-2.873,25.956-8.912,38.626-14.258c4.874-6.285,14.163-1.758,20.287-5.301c0.121-0.05,0.225-0.131,0.341-0.184
	c38.684,51.979,100.489,85.785,170.112,85.785c70.183,0,132.402-34.351,171.029-87.04c3.32,1.214,8.285-0.545,11.771,1.114
	c6.884,10.14,18.775,9.564,28.604,13.493c6.941,2.334,13.734,6.304,21.698,5.292c7.53-2.279,12.148-10.224,12.72-17.688
	c2.432-3.62,8.47-0.413,11.239-4.113c3.323-5.176,7.712-9.713,9.812-15.341c-3.192-4.506-9.812-2.263-14.663-3.413
	c-1.169,0.508-3.2,0.409-4.132,0.409l-0.314-0.409c-10.822-0.684-10.996,11.712-16.542,17.643c-2.075,2.473-5.354,2.132-8.245,2.625
	c-8.84-3.201-22.57-4.445-23.223-16.854c3.403-7.28,11.209-13.741,17.598-18.768c7.262-1.408,13.87-5.364,18.748-11.986
	c3.769-3.431,2.259-11.07,8.966-11.304c3.013,4.772,0,10.895-2.261,15.408c12.59,1.448,24.813-0.647,36.485-2.666
	c17.824-4.29,34.585,5.444,51.684-1.083c8.637-4.308,9.218-14.031,10.144-22.47l-0.424-0.417l0.424-0.348
	c-0.09-4.505-1.24-8.534-1.838-12.814c-0.275-1.934-1.098-4.602,0.331-6.369c1.345-0.759,2.271-0.588,3.333,0.438
	c7.13,15.911,3.867,36.18,12.746,51.359c6.186,12.903,18.852,22.116,33.029,22.871c0.588,0.104,1.186-0.827,1.492,0
	c22.643-4.519,42.421,4.519,55.918,21.698v1.183c-0.841,0.841-1.583,1.951-3.021,1.506c-2.521-3.26-5.871-4.604-8.613-7.558
	c-12.527-12.045-30.633-12.796-48.034-10.79c-17.929,0.503-34.552-14.59-40.837-30.422c-1.512-1.601-1.403-5.025-4.164-4.86
	c-0.846,0.594-1.102,1.484-1.436,2.271c1.094,11.718,2.689,23.124,10.807,31.824c7.705,3.786,13.734,11.487,22.551,12.436
	c12.334-2.949,26.797-1.627,37.871,3.323c8.724,3.358,15.795,10.822,23.627,16.109c4.447,2.163,10.409,1.075,14.25-1.844
	c9.993-2.684,11.59,9.209,18.361,13.903c5.719,4.36,14.086,2.504,21.393,2.926l1.15-0.665c-0.994-6.884-2.418-13.573-5.273-19.522
	C986.969,504.591,982.09,495.05,977.229,488.737z M691.914,295.696c1.139,3.019,2.207,6.069,3.196,9.158
	c-0.493,0.432-0.97,0.866-1.388,1.289c-9.236,6.949-17.612,16.498-22.536,25.893h-0.782
	C669.73,317.271,679.77,304.367,691.914,295.696z M478.531,139.812l109.912-22.21l0.092,48.72
	c-23.97-9.417-50.02-14.644-77.289-14.644c-11.133,0-22.072,0.875-32.747,2.536L478.531,139.812z M349.767,320.038
	c1.997,7.037,2.762,15.923,0.738,23.228l-1.079,0.746c-1.079-1.757-1.079-4.004-1.519-6.033c-1.502-8.87-5.449-16.841-10.458-24.378
	c-0.171-1.515,0-3.01,1.079-4.116c1.344-0.16,2.936-0.744,4.104,0C346.323,312.159,347.906,316.36,349.767,320.038z
	 M709.812,437.374l-15.025,20.286l-2.153,4.515c-2.095,4.388-0.774,10.638-1.188,15.35c-3.69-1.951-3.921-6.542-5.246-10.139
	c-3.463-14.509,10.862-22.549,15.724-34.121c-3.176-1.347-6.049-3.42-9.703-3.764c-7.658,9.208-12.158,19.684-18.03,29.656
	c-0.337,2.635-0.188,5.153,0.202,7.617c-34.256,54.062-94.545,90.075-163.146,90.075c-65.825,0-123.955-33.182-158.827-83.615
	c1.78-3.461,3.139-7.081,2.604-11.46c-0.149-7.823-7.531-12.661-10.126-19.531c-1.493-3.534-2.936-7.39-4.861-10.474
	c-4.032-1.601-9.225-3.46-13.155-0.344c4.859,10.313,11.15,20.017,16.164,30.349c1.2,8.529-3.507,15.669-9.389,21.761
	c-0.835,0.868-1.986,0.113-2.67-0.746c1.835-6.19,4.281-12.554,3.786-19.108c-5.875-11.394-13.663-21.941-19.458-33.431
	c0.175-2.033,0.827-4.278,2.944-5.2c5.872-2.844,13.483-1.748,18.013-6.776c5.543-9.554,9.377-19.789,10.466-31.11
	c0.693-0.558,1.264-1.486,2.275-1.16c1.079,0.659,1.079,1.753,1.493,2.68c2.19,12.654-1.42,23.886-7.099,33.688
	c-0.854,1.181-0.094,2.433,0.719,3.439c4.223,1.832,8.661-0.346,12.765-0.76c7.698-5.523,18.741-3.098,27.395-6.359
	c0,0.901,1.511,1.085,1.093,2.176c-4.353,4.76-6.276,10.745-7.463,16.93c-5.188,5.867-13.152,10.634-13.152,18.772
	c1.345,3.34,4.271,0,6.38,0c1.426,0,2.261,1.587,1.911,2.936c-2.005,3.754-6.02,6.69-6.02,11.303c2,4.933,0,12.675,6.767,14.6
	c15.512,2.752,26.667-9.667,42.339-8.966c11.906,3.009,22.122-2.441,29.99-11.321c2.194-1.187,4.034,0.575,6.053,1.169
	c8.456,8.966,18.263,14.339,29.664,16.097c3.536,0.49,7.964,0.85,11.232-0.337c0.756-0.832,0.256-2.267-0.404-3.03
	c-8.39-3.278-16.618-7.955-22.894-15.76c-3.534-9.693-8.22-19.091-15.345-27.381c-0.571-0.518-0.571-1.861,0.332-2.192
	c8.044,1.923,14.837,10.061,18.439,17.187c6.534,10.031,16.349,18.349,28.848,17.274c1.488-0.423,3.773-0.274,3.34-2.621
	c-19.099-5.94-22.202-26.641-37.142-37.883c-7.263-18.102-13.817-36.438-17.167-56.219c-0.495-18.024-10.642-32.171-21.815-45.747
	c-17.58-26.658-45.151-41.827-68.171-61.534l-7.558-4.086c-1.195-0.72-2.5-1.327-3.809-1.92
	c26.42-40.267,67.457-70.095,115.528-81.89v59.131c-3.416-1.574-4.973-1.547-7.278-1.547c-23.138,0-43.434,21.55-43.434,35.873
	c0,9.739,7.698,15.381,17.981,15.381c11.303,0,24.945-5.901,34.948-16.395c7.954-8.459,10.765-16.908,10.765-32.042l0.206-63.134
	c10.665-1.832,21.617-2.844,32.8-2.844c27.474,0,53.607,5.807,77.296,16.2l0.005,19.956c-3.407-1.555-4.973-1.542-7.292-1.542
	c-23.119,0-43.406,21.525-43.406,35.877c0,9.748,7.701,15.39,17.976,15.39c11.312,0,24.927-5.901,34.94-16.395
	c7.952-8.478,10.781-16.917,10.781-32.046v-14.953c31.04,16.499,57.082,41.201,75.18,71.226
	c-24.352,18.263-50.177,32.943-73.027,54.489c-16,14.925-24.548,33.001-29.66,52.554c-11.975,34.194-14.734,75.416-50.963,96.376
	c-0.244,1.093,0.246,1.907,1.083,2.586c8.138,1.609,16.946-0.238,22.562-7.127c5.449-8.614,12.076-16.748,19.846-24.374h1.52
	c2.842,0.581,0.494,3.018,0.766,4.528c-10.918,10.386-11.094,25.884-25.562,34.112c-1.622,1.425-5.781,3.849-2.939,6.011
	c16.006,1.677,27.736-10.125,38.955-20.277l2.283-0.332c6.362,3.943,11.146,12.413,19.521,10.484
	c16.682-4.6,28.064,5.786,41.555,10.125c4.027,1.776,7.059-1.321,9.811-3.754c5.881-4.105,2.854-11.551,2.602-17.27l1.098-1.075
	c2.77-0.323,6.197,2.343,8.296-0.755c0.927-7.554-5.526-12.917-8.637-19.108c-1.673-12.326-15.841-19.459-18.003-31.527
	c0.67-0.506,1.15-1.414,1.898-1.499c5.723,3.358,10.416,8.975,16.104,12.319c8.637,4.359,19.027,4.184,29.265,4.525
	c1.582-0.342,1.582-1.916,1.48-3.365c-5.338-11.98-9.855-24.378-8.957-39.033c0.912-4.456-0.993-11.155,4.446-12.758
	c1.327,0.351,1.511,1.841,2.249,2.688c0.696,13.079,0.953,26.473,6.801,37.469c3.176,7.881,11.588,12.416,17.932,17.249
	C710.482,430.513,711.239,434.433,709.812,437.374z M425.514,391.637c-1.916-0.939-4.254-0.848-5.949,0.746l-6.029,7.105
	c-2.005-0.912-1.021-4.183-0.733-5.928c2.158-5.457,5.18-10.651,7.104-16.179c1.021-1.688,3.427-1.187,4.861-0.767
	c5.854,3.772,6.956,10.705,12.719,15.021c4.542,6.083,7.392,15.233,3.454,22.542c-1.161,0.069-2.6,1.575-3.454,0
	C438.34,404.702,432.811,397.053,425.514,391.637z M412.803,452.387c3.166-2.847,6.421-6.552,11.2-4.465l0.764,2.949
	c0.508,2.841-0.67,5.022-1.831,7.117c-3.959,1.098-8.056,2.778-12.417,1.516C409.431,456.806,412.039,454.733,412.803,452.387z
	 M618.291,397.232c-0.842-1.008-1.193-2.531-2.591-2.941c-5.458-1.33-9.487,3.19-13.503,6.385
	c-6.617,4.026-8.551,10.728-10.133,17.25c-0.424,1.174-1.686,0.515-2.596,0.765c-3.371-3.334,0-7.541,0-11.328
	c3.359-11.399,16.263-17.761,22.469-28.051c6.609-0.27,7.428,7.294,10.557,11.207c0.827,3.189,4.924,7.202,0.745,10.158
	C620.982,401.107,618.951,399.18,618.291,397.232z M618.704,459.504c-2.752,0.845-5.599,0-8.278-0.347
	c-3.12-1.668-3.268-5.269-4.123-8.286c0.67-0.985,0.158-2.846,1.512-3.35c3.771,0.243,7.373,1.663,9.738,4.51
	C618.547,454.306,620.543,456.999,618.704,459.504z M1018.91,503.408c-1.381-2.162-2.96-4.424-5.284-5.611
	c-3.776-1.924-6.124,2.676-8.214,4.87c-0.607,5.705,2.23,10.97,3.331,16.482c0.737,2.616-0.153,6.317,2.275,7.882l11.204-3.35
	l0.432-2.994C1018.145,516.227,1020.676,508.961,1018.91,503.408z M991.137,476.44l-2.662-0.449
	c-1.768,1.628-5.796,2.684-4.896,6.057c3.895,5.188,6.574,13.73,13.957,14.599c2.392-1.106,5.439-1.704,6.671-4.46
	c0.37-1.947,1.282-3.611,0-5.287L991.137,476.44z M734.92,464.018l-0.293,0.337c-2.68-0.835-6.029,0.167-8.642-0.674
	c-2.847,3.705-4.77,8.232-3.776,13.084c1.687,3.017,5.273,3.093,7.883,4.536c2.84,0.158,6.953,1.488,8.973-1.178
	c2.006-4.784,3.589-9.738,4.501-15.004c-0.665-0.841-1.501-1.268-2.566-1.102C738.861,463.933,736.535,464.189,734.92,464.018z
	 M300.97,477.187c0.508-1.848-0.912-2.859-1.416-4.181c-1.835-3.71-2.689-7.729-4.938-11.231
	c-4.765-0.181-10.223,0.162-14.998,1.151l-0.36-0.414c-1.318,0.684-3.013,0.252-4.515,0.414c-0.75,0.517-1.074,1.264-1.074,2.193
	c6.524,3.849,8.121,11.065,11.645,16.929C291.021,484.97,296.461,480.465,300.97,477.187z"/>
</svg>
