<?xml version="1.0" encoding="utf-8"?>
<!-- Generator: Adobe Illustrator 15.0.0, SVG Export Plug-In . SVG Version: 6.00 Build 0)  -->
<!DOCTYPE svg PUBLIC "-//W3C//DTD SVG 1.1//EN" "http://www.w3.org/Graphics/SVG/1.1/DTD/svg11.dtd">
<svg version="1.1" id="Layer_1" xmlns="http://www.w3.org/2000/svg" xmlns:xlink="http://www.w3.org/1999/xlink" x="0px" y="0px"
	 width="1024px" height="768px" viewBox="0 0 1024 768" enable-background="new 0 0 1024 768" xml:space="preserve">
<path fill="#ffffff" d="M58.403,215.718c6.659,3.794,15.784-1.605,21.974,3.241c1.835,1.755,1.113,3.598,0.72,5.779
	c-12.481,12.63-31.403,25.11-34.542,42.839c-2.496,14.243,2.573,27.595,13.686,36.783c12.08,9.329,31.558,11.426,45.732,5.057
	c1.684-0.641,3.93-0.532,5.075,1.379l1.429,19.469c0.734,9.089,7.986,15.865,6.864,25.206c-4.518,5.075-10.708,7.49-16.262,10.872
	l-14.403,1.446c-4.02,3.144-5.571,7.986-6.862,12.564c-0.474,10.382-12.227,16.649-19.797,21.65
	c-2.67,5.222-7.49,12.49-14.409,12.24c-4.82,5.537-5.156,12.966-6.836,19.794c6.586,0.66,12.783,3.303,19.789,1.778
	c8.611-1.861,9.67-11.182,14.403-16.887c5.65-5.909,13.216,0.634,19.487-1.486c7.974-3.934,15.72-8.758,22.307-16.145
	c15.138-7.669,32.353,4.554,46.848-3.647c6.435-7.473,17.081-6.182,21.979-15.458c2.651-7.152,7.976-13.199,9.025-20.919
	c-1.546-1.538-2.989-3.306-5.066-3.616c-1.705,3.31-3.801,6.35-5.726,9.429c-9.182,15.107-25.421,19.629-41.461,21.236
	c-21.259-0.489-40.494,3.782-54.423,21.252h-1.458c-0.955-0.315-1.512-0.803-1.758-1.856c7.329-12.957,20.514-22.221,34.625-24.163
	c22.129-2.139,46.932-2.716,59.081-24.466c7.796-11.663,5.481-27.518,8.936-41.053c0.157-1.6,1.213-2.975,2.894-2.902
	c0.903,0.393,2.255,0.653,2.591,1.856c-1.546,11.12-2.115,23.188,1.767,33.494c6.916,9.162,20.433,4.178,29.533,2.496
	c17.323-3.705,32.688,5.481,50.41,1.775c1.926-0.89,3.606-2.021,2.88-4.677c-0.708-3.871-3.049-7-2.177-11.509
	c0.579-1.282,1.856-2.168,3.316-2.168c2.653,1.443,2.168,4.828,3.23,7.234c6.985,20.442,37.091,19.327,38.867,43.236
	c-2.661,8.771-12.076,12.087-19.785,13.988c-14.352,3.313-17.493-14.144-25.628-21.555c-7.071-4.361-16.498-1.107-24.057,0
	c-1.925,0.726-2.582,2.673-2.177,4.665l8.603,14.007c3.149,6.685,11.592-1.196,15.146,5.468
	c3.301,7.246,10.301,15.953,19.082,16.203c13.193-2.76,24.932-8.561,37.104-13.695c4.682-6.038,13.604-1.688,19.486-5.092
	c0.116-0.047,0.216-0.126,0.328-0.178c37.16,49.932,96.527,82.405,163.405,82.405c67.418,0,127.182-32.996,164.286-83.608
	c3.191,1.165,7.959-0.523,11.307,1.069c6.613,9.738,18.036,9.188,27.477,12.962c6.668,2.241,13.193,6.054,20.844,5.083
	c7.232-2.19,11.67-9.821,12.218-16.99c2.335-3.477,8.136-0.396,10.798-3.951c3.189-4.971,7.406-9.329,9.424-14.738
	c-3.067-4.327-9.424-2.172-14.086-3.277c-1.121,0.488-3.074,0.393-3.967,0.393l-0.305-0.393
	c-10.395-0.657-10.562,11.251-15.889,16.946c-1.994,2.375-5.144,2.048-7.92,2.523c-8.492-3.075-21.682-4.271-22.308-16.193
	c3.271-6.991,10.767-13.197,16.905-18.027c6.974-1.351,13.322-5.15,18.01-11.515c3.617-3.294,2.168-10.632,8.611-10.856
	c2.895,4.585,0,10.463-2.172,14.8c12.092,1.391,23.836-0.621,35.047-2.562c17.119-4.12,33.221,5.229,49.645-1.041
	c8.297-4.137,8.854-13.477,9.744-21.583l-0.406-0.398l0.406-0.334c-0.086-4.329-1.192-8.198-1.766-12.311
	c-0.265-1.856-1.054-4.42,0.318-6.116c1.291-0.731,2.182-0.567,3.201,0.417c6.85,15.286,3.715,34.754,12.243,49.335
	c5.943,12.396,18.11,21.245,31.728,21.971c0.564,0.098,1.139-0.795,1.434,0c21.748-4.34,40.748,4.34,53.713,20.842v1.138
	c-0.809,0.807-1.52,1.873-2.902,1.446c-2.422-3.133-5.641-4.424-8.273-7.261c-12.033-11.569-29.426-12.292-46.14-10.365
	c-17.224,0.483-33.19-14.014-39.229-29.22c-1.452-1.538-1.349-4.83-3.999-4.669c-0.812,0.57-1.059,1.425-1.377,2.18
	c1.049,11.256,2.582,22.212,10.379,30.569c7.4,3.637,13.193,11.035,21.662,11.945c11.847-2.832,25.74-1.562,36.377,3.192
	c8.379,3.227,15.172,10.396,22.696,15.476c4.271,2.075,9.997,1.031,13.687-1.771c9.602-2.579,11.133,8.846,17.639,13.355
	c5.494,4.188,13.531,2.404,20.549,2.81l1.105-0.638c-0.953-6.612-2.324-13.039-5.066-18.755
	c-8.682-0.322-13.366-9.487-18.035-15.551c-3.602-3.861-8.922-6.573-10.787-11.501c-3.184-7.562-1.698-17.72-9.01-23.029
	c-6.748-1.351-14.643,0.252-19.824-5.061c-2.785-2.579-3.926-6.292-2.877-10.067c4.246-9.091,6.924-19.716,4.66-30.672
	c0.436-3.562-4.197-7.409,0-10.393c12.797,3.474,29.606,4.763,41.056-2.549c10.62-7.04,18.026-17.896,17.292-31.01
	c-2.785-18.205-15.275-32.688-29.848-45.72c-1.856-1.628-3.359-3.321-3.217-5.723c0.342-1.368,0.482-3.061,2.095-3.614
	c7.64-0.486,15.046-1.54,21.642-4.66c11.623-6.375,14.653-19.152,12.966-31.742c-0.471-0.801-0.398-2.406-1.753-2.159
	c-3.227,3.375-6.941,5.293-10.857,6.846c-14.676,1.992-28.506,5.786-39.212,17.294c-3.646,4.518-4.034,12.724-1.142,17.63
	c9.02,17.312,30.095,27.776,34.914,46.849c2.742,8.222-0.863,15.555-7.151,20.854c-9.593,5.976-23.185,4.909-32.819,0
	c-22.876-11.577-42.035-32.213-67.314-37.836c-14.662-1.767-27.057-8.858-38.251-19.081c-9.494-7.312-21.802-8.363-32.751-12.236
	c-10.08-10.62-22.034-16.749-34.624-21.574c-7.058-3.141-15.933-2.175-21.96-7.962c-3.982-5.965-10.055-11.279-15.77-15.133
	c-8.348-4.749-20.169-8.578-29.484-4.297c-20.709-33.636-50.906-60.806-86.845-77.788V5.563L468.005,33.001v47.524
	c-55.089,12.229-101.857,46.778-130.245,93.679c-5.585,0.19-11.047,1.41-15.638,4.061c-15.29,13.474-34.297,18.203-52.255,25.544
	c-9.986,4.901-16.251,16.109-26.232,20.929c-13.683-0.235-25.768,3.314-35.68,12.236c-8.188,9.585-17.94,16.905-29.532,19.08
	c-20.692,0.638-37.764,9.569-52.634,24.164c-14.58,9.325-28.828,21.629-47.908,17.624c-7.179-1.941-14.084-8.457-16.586-15.462
	c-4.521-14.979,4.687-27.296,15.864-36.783c10.616-9.506,25.677-19.161,22.375-35.262c-2.499-13.692-17.72-16.353-28.833-18.789
	c-11.509-0.215-20.371-6.654-29.531-12.203c-2.182,3.385-2.989,7.238-2.575,11.503C39.482,201.469,48.163,212.424,58.403,215.718z
	 M685.723,213.985c1.092,2.9,2.119,5.831,3.071,8.798c-0.476,0.415-0.935,0.831-1.336,1.237
	c-8.87,6.675-16.917,15.849-21.646,24.873h-0.751C664.414,234.71,674.058,222.314,685.723,213.985z M480.753,64.248l105.579-21.335
	l0.086,46.799c-23.023-9.046-48.047-14.066-74.241-14.066c-10.694,0-21.2,0.84-31.455,2.436L480.753,64.248z M346.268,227.229
	c1.291-0.153,2.82-0.715,3.944,0c3.546,2.569,5.066,6.605,6.854,10.138c1.917,6.759,2.651,15.295,0.708,22.311l-1.038,0.718
	c-1.036-1.689-1.036-3.847-1.458-5.797c-1.443-8.519-5.235-16.177-10.046-23.417C345.068,229.728,345.232,228.292,346.268,227.229z
	 M326.798,338.24c5.64-2.733,12.952-1.682,17.301-6.509c5.326-9.179,9.01-19.009,10.054-29.886c0.666-0.535,1.214-1.427,2.186-1.114
	c1.036,0.633,1.036,1.684,1.434,2.575c2.103,12.154-1.365,22.943-6.819,32.358c-0.82,1.134-0.091,2.337,0.689,3.305
	c4.056,1.76,8.319-0.333,12.263-0.729c7.393-5.307,18.001-2.977,26.314-6.11c0,0.867,1.452,1.043,1.05,2.091
	c-4.182,4.571-6.029,10.322-7.169,16.262c-4.985,5.637-12.633,10.215-12.633,18.032c1.291,3.21,4.103,0,6.128,0
	c1.369,0,2.172,1.526,1.836,2.82c-1.925,3.607-5.783,6.428-5.783,10.858c1.922,4.736,0,12.175,6.5,14.024
	c14.9,2.643,25.615-9.288,40.672-8.612c11.435,2.889,21.248-2.346,28.807-10.876c2.106-1.14,3.874,0.555,5.812,1.124
	c8.124,8.612,17.542,13.772,28.495,15.462c3.396,0.471,7.65,0.817,10.789-0.324c0.726-0.8,0.247-2.177-0.388-2.911
	c-8.06-3.149-15.963-7.64-21.991-15.136c-3.396-9.312-7.895-18.338-14.742-26.304c-0.548-0.497-0.548-1.786,0.321-2.105
	c7.726,1.846,14.252,9.665,17.711,16.508c6.274,9.636,15.703,17.627,27.709,16.594c1.431-0.405,3.625-0.264,3.209-2.518
	c-18.347-5.706-21.326-25.589-35.678-36.388c-6.976-17.389-13.273-35.002-16.489-54.004c-0.476-17.312-10.224-30.9-20.956-43.941
	c-16.887-25.607-43.371-40.178-65.482-59.108l-7.261-3.926c-1.148-0.69-2.401-1.274-3.658-1.844
	c25.377-38.68,64.795-67.332,110.974-78.662v56.8c-3.284-1.512-4.778-1.486-6.993-1.486c-22.224,0-41.72,20.7-41.72,34.458
	c0,9.355,7.393,14.775,17.27,14.775c10.858,0,23.962-5.669,33.571-15.749c7.64-8.126,10.339-16.242,10.339-30.779l0.198-60.645
	c10.244-1.76,20.766-2.732,31.506-2.732c26.393,0,51.495,5.578,74.25,15.561l0.005,19.169c-3.273-1.495-4.776-1.481-7.005-1.481
	c-22.208,0-41.695,20.676-41.695,34.462c0,9.363,7.397,14.784,17.269,14.784c10.864,0,23.942-5.668,33.561-15.749
	c7.64-8.143,10.356-16.25,10.356-30.782v-14.363c29.819,15.848,54.833,39.576,72.216,68.417
	c-23.391,17.543-48.197,31.645-70.146,52.34c-15.372,14.336-23.583,31.7-28.493,50.48c-11.501,32.847-14.152,72.443-48.954,92.578
	c-0.233,1.05,0.237,1.831,1.041,2.482c7.817,1.548,16.277-0.228,21.673-6.843c5.234-8.275,11.6-16.089,19.062-23.413h1.46
	c2.73,0.557,0.476,2.897,0.734,4.349c-10.485,9.977-10.655,24.863-24.554,32.768c-1.558,1.369-5.553,3.696-2.822,5.774
	c15.373,1.61,26.642-9.727,37.416-19.478l2.195-0.32c6.111,3.789,10.707,11.924,18.752,10.072
	c16.023-4.418,26.959,5.559,39.914,9.727c3.871,1.705,6.781-1.271,9.426-3.607c5.648-3.942,2.742-11.096,2.5-16.587l1.055-1.034
	c2.66-0.311,5.95,2.251,7.967-0.724c0.89-7.257-5.307-12.409-8.297-18.356c-1.605-11.84-15.215-18.692-17.292-30.284
	c0.644-0.486,1.104-1.358,1.822-1.439c5.499,3.225,10.008,8.621,15.47,11.833c8.297,4.187,18.279,4.02,28.113,4.347
	c1.52-0.328,1.52-1.841,1.42-3.234c-5.126-11.507-9.467-23.415-8.604-37.494c0.878-4.278-0.955-10.715,4.271-12.254
	c1.274,0.336,1.451,1.769,2.16,2.584c0.669,12.562,0.916,25.429,6.535,35.99c3.049,7.572,11.128,11.927,17.223,16.57
	c1.378,2.758,2.104,6.522,0.734,9.348l-14.434,19.487l-2.068,4.337c-2.014,4.215-0.744,10.218-1.141,14.745
	c-3.547-1.875-3.766-6.285-5.039-9.739c-3.327-13.938,10.434-21.661,15.102-32.777c-3.048-1.294-5.81-3.284-9.32-3.615
	c-7.354,8.845-11.677,18.908-17.318,28.486c-0.324,2.531-0.182,4.951,0.194,7.316c-32.905,51.931-90.816,86.524-156.714,86.524
	c-63.229,0-119.067-31.872-152.564-80.317c1.71-3.325,3.015-6.802,2.501-11.01c-0.143-7.514-7.234-12.161-9.727-18.761
	c-1.433-3.394-2.82-7.099-4.668-10.06c-3.875-1.538-8.862-3.324-12.637-0.331c4.668,9.908,10.709,19.228,15.526,29.151
	c1.153,8.195-3.368,15.052-9.017,20.905c-0.803,0.833-1.91,0.107-2.566-0.717c1.763-5.948,4.113-12.059,3.637-18.356
	c-5.646-10.944-13.125-21.076-18.692-32.113C324.139,341.281,324.765,339.125,326.798,338.24z M429.826,306.145
	c-1.841-0.903-4.087-0.815-5.714,0.717l-5.792,6.826c-1.927-0.879-0.981-4.02-0.705-5.695c2.074-5.243,4.977-10.232,6.824-15.541
	c0.981-1.622,3.291-1.141,4.67-0.738c5.623,3.624,6.681,10.284,12.218,14.431c4.361,5.843,7.1,14.631,3.316,21.652
	c-1.114,0.067-2.496,1.513-3.316,0C442.147,318.693,436.834,311.347,429.826,306.145z M417.615,364.498
	c3.041-2.734,6.167-6.293,10.76-4.289l0.734,2.832c0.488,2.73-0.645,4.825-1.758,6.838c-3.804,1.053-7.74,2.668-11.928,1.455
	C414.376,368.744,416.882,366.753,417.615,364.498z M615.001,311.519c-0.809-0.969-1.145-2.432-2.487-2.825
	c-5.244-1.277-9.113,3.063-12.969,6.133c-6.357,3.866-8.216,10.304-9.736,16.57c-0.404,1.125-1.619,0.493-2.492,0.732
	c-3.239-3.201,0-7.241,0-10.882c3.227-10.949,15.622-17.058,21.582-26.945c6.35-0.259,7.135,7.008,10.141,10.766
	c0.795,3.063,4.729,6.919,0.718,9.758C617.588,315.242,615.635,313.388,615.001,311.519z M615.397,371.334
	c-2.643,0.812-5.376,0-7.95-0.333c-2.997-1.601-3.141-5.061-3.961-7.96c0.645-0.945,0.152-2.734,1.451-3.216
	c3.623,0.232,7.083,1.598,9.355,4.332C615.248,366.342,617.164,368.93,615.397,371.334z"/>
</svg>
