<?xml version="1.0" encoding="utf-8"?>
<!-- Generator: Adobe Illustrator 18.1.0, SVG Export Plug-In . SVG Version: 6.00 Build 0)  -->
<svg version="1.1" id="Layer_1" xmlns="http://www.w3.org/2000/svg" xmlns:xlink="http://www.w3.org/1999/xlink" x="0px" y="0px"
	 viewBox="21 180.3 456 197.7" enable-background="new 21 180.3 456 197.7" xml:space="preserve">
<g>
	<polygon fill="#00283d" points="311,347.5 309.6,360.1 309.4,363.4 309.3,363.4 308.9,360.2 307.1,347.5 298.1,347.5 296.5,360.2 296.2,363.4 
		296.1,363.4 295.8,360.2 294.3,347.5 285.6,347.5 290.7,372.1 301.3,372.1 302.5,361.5 302.7,358.2 302.9,358.2 303.1,361.5 
		304.2,372.1 314.8,372.1 319.4,347.5 	"/>
	<g>
		<path fill="#00283d" d="M274.2,347.1c-7.6,0-11,4.6-11,12.7c0,8.2,4,12.8,12.6,12.8c3.1,0,6.1-0.6,8-1.3l-0.9-6.7c-1.9,0.6-3.9,0.8-6,0.8
			c-2.9,0-4.3-0.8-4.7-2.8h11.8c0.2-1.2,0.2-2.7,0.2-4C284.4,350.7,280.8,347.1,274.2,347.1 M272.2,357c0.2-2.6,0.6-3,2.2-3
			c1.4,0,2,0.7,2,3H272.2z"/>
	</g>
	<polygon fill="#00283d" points="252,342.1 251.9,351.9 252,355.1 251.9,355.2 243.7,342.1 236,342.1 236,372.1 244.2,372.1 244.2,361.2 244.2,358 
		244.3,357.9 246,360.7 253.6,372.1 260.2,372.1 260.2,342.1 	"/>
	<polygon fill="#00283d" points="398.1,341.3 398.1,372.1 406.8,372.1 406.8,362.4 408.7,362.4 411.4,372.1 420.8,372.1 416.1,358.7 420.7,347.5 
		411.5,347.5 408.7,355.7 406.8,355.7 406.8,340.9 	"/>
	<polygon fill="#00283d" points="346.3,342.1 343.7,351.2 342.9,354.3 342.8,354.3 341.9,351.2 339.1,342.1 328.7,342.1 337.9,363.4 337.9,372.1 
		347.5,372.1 347.5,363.4 356.5,342.1 	"/>
	<g>
		<path fill="#00283d" d="M387,350.3h-0.1l-0.6-2.9l-7,0.3v24.5h8.7v-12.6c0-2.8,1.5-4.3,4-4.3c1,0,2,0.2,2.8,0.4l0.5-8.3c-0.6-0.2-1.6-0.4-2.7-0.4
			C390.4,347.1,388.4,348,387,350.3"/>
		<path fill="#00283d" d="M365,347c-7.7,0-11.2,3.7-11.2,12.9c0,9.3,3.5,12.8,11.2,12.8c7.8,0,11.2-3.5,11.2-12.8C376.2,350.7,372.8,347,365,347
			 M365,366c-1.7,0-2.3-0.8-2.3-6c0-5.3,0.6-6.1,2.2-6.1c1.7,0,2.2,0.8,2.2,6.1C367.2,365.1,366.7,366,365,366"/>
		<path fill="#00283d" d="M215.6,372.1v-30.9l8.8-0.4v31.3H215.6z M204.3,362.1c-0.5-0.1-1-0.2-1.6-0.2c-1.2,0-1.8,0.6-1.8,2.1
			c0,1.3,0.6,1.9,1.6,1.9c1,0,1.9-0.5,1.9-1.6V362.1z M205.7,370.3c-1.4,1.4-3.3,2.2-5.6,2.2c-4.5,0-7.4-2.8-7.4-8.4
			c0-4.6,3.3-7.9,8.3-7.9c1.4,0,2.4,0.2,3.3,0.4v-0.4c0-1.2-0.8-2.1-3.3-2.1s-3.9,0.4-6.1,1.2l-0.7-6.6c2.4-1,5.3-1.5,8.5-1.5
			c7.7,0,10.2,3.3,10.2,10.3v14.7h-6.6L205.7,370.3z M192.4,347.4l-7.5,24.7h-10.3l-7.4-24.7h9.4l2.5,12.7l0.6,3.2h0.1l0.6-3.2
			l2.6-12.7H192.4z M156.7,372.1v-24.5l8.9-0.4v24.8H156.7z M161.2,346.3c-3.1,0-4.6-0.9-4.6-3.2c0-2.2,1.5-3.3,4.6-3.3
			c3.2,0,4.6,1.1,4.6,3.3C165.7,345.2,164.4,346.3,161.2,346.3 M150.3,353.6v10.5c0,1.2,0.5,1.7,2,1.7c0.5,0,1.3-0.1,1.6-0.2
			l0.4,6.1c-0.8,0.4-2.7,0.8-4.7,0.8c-5.4,0-8-3.2-8-8.1v-10.7h-1.8v-6.2h2.3l1.4-5l6.8-0.6v5.6h4.4v6.2L150.3,353.6L150.3,353.6z
			 M129.2,372.6c-2.8,0-5.2-0.4-7.2-1.3l0.8-6.9c1.9,0.9,4.6,1.3,6.3,1.3c1.3,0,1.9-0.4,1.9-1c0-2.4-9.4-0.7-9.4-9.4
			c0-4.5,3-8.2,9.6-8.2c2.4,0,4.8,0.5,6.8,1.3l-0.6,6.8c-1.9-0.7-4.6-1-6.2-1c-1,0-1.4,0.3-1.4,0.8c0,2.4,9.1,0.9,9.1,9.1
			C138.9,369.2,136.2,372.6,129.2,372.6 M111.6,356.9c-0.1-2.3-0.6-3-2-3c-1.5,0-2,0.4-2.2,3H111.6z M98.5,359.7
			c0-8.1,3.4-12.7,11-12.7c6.5,0,10.1,3.6,10.1,11.4c0,1.3-0.1,2.8-0.2,4h-11.8c0.4,2,1.8,2.8,4.7,2.8c2,0,4-0.3,6-0.8l0.9,6.7
			c-1.9,0.7-4.9,1.3-8,1.3C102.5,372.5,98.5,367.9,98.5,359.7 M87.1,350.2v3.8h8.6l-0.1,7.7h-8.5v10.3h-9.4v-30h19.7l0.1,8.2
			L87.1,350.2L87.1,350.2z"/>
	</g>
</g>
<g>
	<path fill="#00283d" d="M457.5,329.5l0.1-0.2l-9.6-23.5h9.8l3.7,14.1h0.1l0.5-3.2l2-10.9h9.2l-7.2,23.6c-1.6,5.4-5,7.8-10,7.8
		c-1.6,0-3.1-0.2-4.4-0.7l0.6-5.7c0.8,0.3,1.4,0.4,2.2,0.4C455.9,331,457,330.7,457.5,329.5 M439.6,330.3v-15.5
		c0-1.6-0.6-2.3-1.8-2.3c-1.3,0-1.8,0.7-1.8,2.3v15.5h-8.7v-15.5c0-1.6-0.5-2.3-1.9-2.3c-0.8,0-1.4,0.4-1.8,0.9v16.9h-8.7v-24.5
		l6.3-0.4l1.2,1.9c1.6-1.4,3.7-2.2,5.7-2.2c2.7,0,4.6,0.9,5.9,2.8c1.7-2,3.8-2.8,6.3-2.8c4.7,0,8,3.2,8,9.5v15.6L439.6,330.3
		L439.6,330.3z M404.5,315.2c-0.1-2.3-0.6-3-2-3c-1.5,0-2,0.4-2.2,3H404.5z M391.4,318c0-8.1,3.4-12.7,11-12.7
		c6.5,0,10.1,3.6,10.1,11.4c0,1.3-0.1,2.8-0.2,4h-11.8c0.4,2,1.8,2.8,4.7,2.8c2,0,4-0.3,6-0.8l0.9,6.7c-1.9,0.7-4.9,1.3-8,1.3
		C395.4,330.7,391.4,326.2,391.4,318 M380.6,313.5c-0.4-0.5-1-0.9-1.8-0.9c-1.7,0-2.2,1-2.2,5.5c0,5,0.4,5.8,2.2,5.8
		c0.8,0,1.5-0.5,1.8-1.2V313.5z M382.5,330.3l-0.7-1.7c-1.4,1.3-3,2.1-5.5,2.1c-5.6,0-8.8-4-8.8-13c0-8.2,3.2-12.6,8.6-12.6
		c1.6,0,3.2,0.5,4.5,1.6l0.1-0.1l-0.1-3.2v-4l8.7-0.4v31.2L382.5,330.3L382.5,330.3z M356.7,320.3c-0.5-0.1-1-0.2-1.6-0.2
		c-1.2,0-1.8,0.6-1.8,2.1c0,1.3,0.6,1.9,1.6,1.9c1,0,1.9-0.5,1.9-1.6L356.7,320.3L356.7,320.3z M358.1,328.6
		c-1.4,1.4-3.3,2.2-5.6,2.2c-4.5,0-7.4-2.8-7.4-8.4c0-4.6,3.3-7.9,8.3-7.9c1.4,0,2.4,0.2,3.3,0.4v-0.4c0-1.2-0.8-2.1-3.3-2.1
		c-2.6,0-3.9,0.4-6.1,1.2l-0.7-6.6c2.4-1,5.3-1.5,8.5-1.5c7.7,0,10.2,3.3,10.2,10.3v14.7h-6.6L358.1,328.6z M342.3,313.2
		c-1-0.2-2-0.4-2.9-0.4c-3.5,0-4.4,1.3-4.4,5.6c0,3.7,1.6,5.4,4.2,5.4c1.2,0,2.2-0.2,3.2-0.5l0.6,6.4c-1.3,0.7-3.3,1.1-5.7,1.1
		c-7.3,0-11.3-4.2-11.3-12.5c0-8.2,3.4-12.9,11.4-12.9c1.8,0,4,0.3,5.3,0.8L342.3,313.2z M311.1,311.8l-1.3,6.4h3.8l-1.2-6.4
		l-0.5-3.2h-0.1L311.1,311.8z M315.1,325.8h-6.7l-0.9,4.6h-9.8l8.5-30h11.5l8.7,30h-10.4L315.1,325.8z M289.8,313.2
		c-1-0.2-2-0.4-2.9-0.4c-3.5,0-4.4,1.3-4.4,5.6c0,3.7,1.6,5.4,4.2,5.4c1.2,0,2.2-0.2,3.2-0.5l0.6,6.4c-1.3,0.7-3.3,1.1-5.7,1.1
		c-7.3,0-11.3-4.2-11.3-12.5c0-8.2,3.4-12.9,11.4-12.9c1.8,0,4,0.3,5.3,0.8L289.8,313.2z M262.4,330.3v-24.4l8.9-0.4v24.8
		L262.4,330.3L262.4,330.3z M266.8,304.6c-3.1,0-4.6-0.9-4.6-3.2c0-2.2,1.5-3.3,4.6-3.3c3.2,0,4.6,1.1,4.6,3.3
		C271.4,303.4,270,304.6,266.8,304.6 M249.8,330.8c-2.8,0-5.2-0.4-7.2-1.3l0.8-6.9c1.9,0.9,4.6,1.3,6.3,1.3c1.3,0,1.9-0.4,1.9-1
		c0-2.4-9.4-0.7-9.4-9.4c0-4.5,3-8.2,9.6-8.2c2.4,0,4.8,0.5,6.8,1.3l-0.6,6.8c-1.9-0.7-4.6-1-6.2-1c-1,0-1.4,0.3-1.4,0.8
		c0,2.4,9.1,0.9,9.1,9.1C259.5,327.4,256.7,330.8,249.8,330.8 M239.7,321.3c0,6.4-3.5,9.4-10.6,9.4c-7.1,0-10.6-3.2-10.6-9.4v-15.6
		h8.7v15.5c0,1.5,0.5,2.2,2,2.2c1.4,0,1.9-0.6,1.9-2.2v-15.5h8.6L239.7,321.3L239.7,321.3z M194.1,300.4l4.4,12.9l1,3.1h0.1l1-3.1
		l4.5-12.9h10.3v30h-8.6v-9.9l0.1-3.2l-0.1,0l-1,3.1l-3.4,10h-6l-3.4-10.1l-1-3.1l-0.1,0l0,3.2v9.9h-8.2v-30H194.1z M165.2,330.3
		v-30.8l8.8-0.4v31.2L165.2,330.3L165.2,330.3z M153.9,330.3v-30.8l8.8-0.4v31.2L153.9,330.3L153.9,330.3z M152.2,321.3
		c0,6.4-3.5,9.4-10.6,9.4c-7.1,0-10.6-3.2-10.6-9.4v-15.6h8.7v15.5c0,1.5,0.5,2.2,2,2.2c1.4,0,1.9-0.6,1.9-2.2v-15.5h8.6
		L152.2,321.3L152.2,321.3z M117.5,318.6h-3.2v4.3h3.4c1.5,0,1.8-0.4,1.8-2.2C119.4,319.2,119.1,318.6,117.5,318.6 M117.4,308h-3.1
		v3.9h3.1c1.3,0,1.6-0.4,1.6-2C119,308.4,118.7,308,117.4,308 M117.5,330.3h-12.2v-30h12.5c6.8,0,10.3,3.2,10.3,7.9
		c0,3-1.4,5-3.6,6.2v0.1c3,1.1,4.5,3.4,4.5,7C128.9,326.8,125.4,330.3,117.5,330.3 M86.8,313.5c-0.4-0.5-1-0.9-1.8-0.9
		c-1.7,0-2.2,1-2.2,5.5c0,5,0.4,5.8,2.2,5.8c0.8,0,1.5-0.5,1.8-1.2V313.5z M88.7,330.3l-0.7-1.7c-1.4,1.3-3,2.1-5.5,2.1
		c-5.6,0-8.8-4-8.8-13c0-8.2,3.2-12.6,8.6-12.6c1.6,0,3.2,0.5,4.5,1.6l0.1-0.1l-0.1-3.2v-4l8.7-0.4v31.2L88.7,330.3L88.7,330.3z
		 M63.4,315.2c-0.1-2.3-0.6-3-2-3c-1.5,0-2,0.4-2.2,3H63.4z M50.3,318c0-8.1,3.4-12.7,11-12.7c6.5,0,10.1,3.6,10.1,11.4
		c0,1.3-0.1,2.8-0.2,4H59.3c0.4,2,1.8,2.8,4.7,2.8c2,0,4-0.3,6-0.8l0.9,6.7c-1.9,0.7-4.9,1.3-8,1.3C54.3,330.7,50.3,326.2,50.3,318
		 M36.9,307.9h-1.7v5.7h1.7c1.8,0,2.4-0.3,2.4-2.8C39.2,308.4,38.7,307.9,36.9,307.9 M45.3,318.4l5.4,11.9H40l-3.3-10h-1.5v10h-9.4
		v-30h10.9c8.1,0,12.3,3,12.3,10C49,314.1,47.7,317.1,45.3,318.4"/>
	<path fill="#00283d" d="M204.5,261.8c0.1-0.4-0.2-0.6-0.3-0.9c-0.4-0.8-0.6-1.6-1-2.3c-1,0-2.1,0-3.1,0.2l-0.1-0.1c-0.3,0.1-0.6,0.1-0.9,0.1
		c-0.2,0.1-0.2,0.3-0.2,0.4c1.3,0.8,1.7,2.3,2.4,3.5C202.4,263.4,203.6,262.5,204.5,261.8 M293.3,259.1L293.3,259.1
		c-0.6-0.1-1.3,0.1-1.8-0.1c-0.6,0.8-1,1.7-0.8,2.7c0.3,0.6,1.1,0.6,1.6,0.9c0.6,0,1.4,0.3,1.8-0.2c0.4-1,0.7-2,0.9-3.1
		c-0.1-0.2-0.3-0.3-0.5-0.2C294.1,259.1,293.6,259.2,293.3,259.1 M345.7,261.7l-0.5-0.1c-0.4,0.3-1.2,0.5-1,1.2
		c0.8,1.1,1.3,2.8,2.9,3c0.5-0.2,1.1-0.3,1.4-0.9c0.1-0.4,0.3-0.7,0-1.1L345.7,261.7z M351.3,267.2c-0.3-0.4-0.6-0.9-1.1-1.1
		c-0.8-0.4-1.3,0.5-1.7,1c-0.1,1.2,0.5,2.2,0.7,3.4c0.1,0.5,0,1.3,0.5,1.6l2.3-0.7l0.1-0.6C351.2,269.8,351.7,268.3,351.3,267.2
		 M269.5,258.2c-0.6,0.2-1.1,0-1.7-0.1c-0.6-0.3-0.7-1.1-0.8-1.7c0.1-0.2,0-0.6,0.3-0.7c0.8,0,1.5,0.3,2,0.9
		C269.5,257.1,269.9,257.7,269.5,258.2 M269.4,245.5c-0.2-0.2-0.2-0.5-0.5-0.6c-1.1-0.3-1.9,0.7-2.8,1.3c-1.4,0.8-1.7,2.2-2.1,3.5
		c-0.1,0.2-0.3,0.1-0.5,0.2c-0.7-0.7,0-1.5,0-2.3c0.7-2.3,3.3-3.6,4.6-5.7c1.4-0.1,1.5,1.5,2.2,2.3c0.2,0.7,1,1.5,0.2,2.1
		C269.9,246.3,269.5,245.9,269.4,245.5 M227.4,256.8c0.6-0.6,1.3-1.3,2.3-0.9l0.2,0.6c0.1,0.6-0.1,1-0.4,1.5
		c-0.8,0.2-1.6,0.6-2.5,0.3C226.7,257.7,227.2,257.2,227.4,256.8 M230,244.3c-0.4-0.2-0.9-0.2-1.2,0.2l-1.2,1.5
		c-0.4-0.2-0.2-0.9-0.2-1.2c0.4-1.1,1.1-2.2,1.5-3.3c0.2-0.3,0.7-0.2,1-0.2c1.2,0.8,1.4,2.2,2.6,3.1c0.9,1.2,1.5,3.1,0.7,4.6
		c-0.2,0-0.5,0.3-0.7,0C232.6,247,231.5,245.4,230,244.3 M288.1,253.7l-3.1,4.2l-0.4,0.9c-0.4,0.9-0.2,2.2-0.2,3.1
		c-0.8-0.4-0.8-1.3-1.1-2.1c-0.7-3,2.2-4.6,3.2-7c-0.6-0.3-1.2-0.7-2-0.8c-1.6,1.9-2.5,4-3.7,6.1c-0.1,0.5,0,1.1,0,1.6
		c-7,11.1-19.3,18.4-33.4,18.4c-13.5,0-25.4-6.8-32.5-17.1c0.4-0.7,0.6-1.4,0.5-2.3c0-1.6-1.5-2.6-2.1-4c-0.3-0.7-0.6-1.5-1-2.1
		c-0.8-0.3-1.9-0.7-2.7-0.1c1,2.1,2.3,4.1,3.3,6.2c0.2,1.7-0.7,3.2-1.9,4.5c-0.2,0.2-0.4,0-0.5-0.2c0.4-1.3,0.9-2.6,0.8-3.9
		c-1.2-2.3-2.8-4.5-4-6.8c0-0.4,0.2-0.9,0.6-1.1c1.2-0.6,2.8-0.4,3.7-1.4c1.1-2,1.9-4,2.1-6.4c0.1-0.1,0.3-0.3,0.5-0.2
		c0.2,0.1,0.2,0.4,0.3,0.5c0.4,2.6-0.3,4.9-1.5,6.9c-0.2,0.2,0,0.5,0.1,0.7c0.9,0.4,1.8-0.1,2.6-0.2c1.6-1.1,3.8-0.6,5.6-1.3
		c0,0.2,0.3,0.2,0.2,0.4c-0.9,1-1.3,2.2-1.5,3.5c-1.1,1.2-2.7,2.2-2.7,3.8c0.3,0.7,0.9,0,1.3,0c0.3,0,0.5,0.3,0.4,0.6
		c-0.4,0.8-1.2,1.4-1.2,2.3c0.4,1,0,2.6,1.4,3c3.2,0.6,5.5-2,8.7-1.8c2.4,0.6,4.5-0.5,6.1-2.3c0.4-0.2,0.8,0.1,1.2,0.2
		c1.7,1.8,3.7,2.9,6.1,3.3c0.7,0.1,1.6,0.2,2.3-0.1c0.2-0.2,0.1-0.5-0.1-0.6c-1.7-0.7-3.4-1.6-4.7-3.2c-0.7-2-1.7-3.9-3.1-5.6
		c-0.1-0.1-0.1-0.4,0.1-0.4c1.6,0.4,3,2.1,3.8,3.5c1.3,2.1,3.3,3.8,5.9,3.5c0.3-0.1,0.8-0.1,0.7-0.5c-3.9-1.2-4.5-5.4-7.6-7.7
		c-1.5-3.7-2.8-7.5-3.5-11.5c-0.1-3.7-2.2-6.6-4.5-9.4c-3.6-5.5-9.2-8.6-13.9-12.6l-1.5-0.8c-0.2-0.1-0.5-0.3-0.8-0.4
		c5.4-8.2,13.8-14.3,23.6-16.8v12.1c-0.7-0.3-1-0.3-1.5-0.3c-4.7,0-8.9,4.4-8.9,7.3c0,2,1.6,3.1,3.7,3.1c2.3,0,5.1-1.2,7.1-3.4
		c1.6-1.7,2.2-3.5,2.2-6.6l0-12.9c2.2-0.4,4.4-0.6,6.7-0.6c5.6,0,11,1.2,15.8,3.3l0,4.1c-0.7-0.3-1-0.3-1.5-0.3
		c-4.7,0-8.9,4.4-8.9,7.3c0,2,1.6,3.1,3.7,3.1c2.3,0,5.1-1.2,7.1-3.4c1.6-1.7,2.2-3.5,2.2-6.6v-3.1c6.4,3.4,11.7,8.4,15.4,14.6
		c-5,3.7-10.3,6.7-14.9,11.1c-3.3,3.1-5,6.8-6.1,10.8c-2.4,7-3,15.4-10.4,19.7c-0.1,0.2,0.1,0.4,0.2,0.5c1.7,0.3,3.5,0,4.6-1.5
		c1.1-1.8,2.5-3.4,4.1-5h0.3c0.6,0.1,0.1,0.6,0.2,0.9c-2.2,2.1-2.3,5.3-5.2,7c-0.3,0.3-1.2,0.8-0.6,1.2c3.3,0.3,5.7-2.1,8-4.1
		l0.5-0.1c1.3,0.8,2.3,2.5,4,2.1c3.4-0.9,5.7,1.2,8.5,2.1c0.8,0.4,1.4-0.3,2-0.8c1.2-0.8,0.6-2.4,0.5-3.5l0.2-0.2
		c0.6-0.1,1.3,0.5,1.7-0.2c0.2-1.5-1.1-2.6-1.8-3.9c-0.3-2.5-3.2-4-3.7-6.4c0.1-0.1,0.2-0.3,0.4-0.3c1.2,0.7,2.1,1.8,3.3,2.5
		c1.8,0.9,3.9,0.9,6,0.9c0.3-0.1,0.3-0.4,0.3-0.7c-1.1-2.4-2-5-1.8-8c0.2-0.9-0.2-2.3,0.9-2.6c0.3,0.1,0.3,0.4,0.5,0.6
		c0.1,2.7,0.2,5.4,1.4,7.7c0.6,1.6,2.4,2.5,3.7,3.5C288.3,252.3,288.4,253.1,288.1,253.7 M214.5,229.7c0.4,1.4,0.6,3.3,0.2,4.8
		l-0.2,0.2c-0.2-0.4-0.2-0.8-0.3-1.2c-0.3-1.8-1.1-3.4-2.1-5c0-0.3,0-0.6,0.2-0.8c0.3,0,0.6-0.2,0.8,0
		C213.8,228.1,214.1,228.9,214.5,229.7 M240.8,192.8l22.5-4.5l0,10c-4.9-1.9-10.2-3-15.8-3c-2.3,0-4.5,0.2-6.7,0.5L240.8,192.8z
		 M284.5,224.7c0.2,0.6,0.5,1.2,0.7,1.9c-0.1,0.1-0.2,0.2-0.3,0.3c-1.9,1.4-3.6,3.4-4.6,5.3h-0.2C279.9,229.1,282,226.5,284.5,224.7
		 M342.8,264.2c-0.8-0.8-1.9-1.4-2.3-2.4c-0.7-1.6-0.4-3.8-1.9-4.9c-1.4-0.3-3.1,0.1-4.2-1.1c-0.6-0.5-0.8-1.3-0.6-2.1
		c0.9-1.9,1.5-4.2,1-6.5c0.1-0.8-0.9-1.6,0-2.2c2.7,0.7,6.3,1,8.7-0.5c2.3-1.5,3.8-3.8,3.7-6.6c-0.6-3.9-3.3-7-6.4-9.7
		c-0.4-0.3-0.7-0.7-0.7-1.2c0.1-0.3,0.1-0.7,0.4-0.8c1.6-0.1,3.2-0.3,4.6-1c2.5-1.4,3.1-4.1,2.8-6.8c-0.1-0.2-0.1-0.5-0.4-0.5
		c-0.7,0.7-1.5,1.1-2.3,1.5c-3.1,0.4-6.1,1.2-8.4,3.7c-0.8,1-0.9,2.7-0.2,3.8c1.9,3.7,6.4,5.9,7.4,10c0.6,1.8-0.2,3.3-1.5,4.4
		c-2,1.3-4.9,1-7,0c-4.9-2.5-9-6.9-14.3-8.1c-3.1-0.4-5.8-1.9-8.1-4.1c-2-1.6-4.6-1.8-7-2.6c-2.1-2.3-4.7-3.6-7.4-4.6
		c-1.5-0.7-3.4-0.5-4.7-1.7c-0.8-1.3-2.1-2.4-3.4-3.2c-1.8-1-4.3-1.8-6.3-0.9c-4.4-7.2-10.8-12.9-18.5-16.6v-19.1l-27.9,5.8v10.1
		c-11.7,2.6-21.7,10-27.7,19.9c-1.2,0-2.4,0.3-3.3,0.9c-3.3,2.9-7.3,3.9-11.1,5.4c-2.1,1-3.5,3.4-5.6,4.5c-2.9,0-5.5,0.7-7.6,2.6
		c-1.7,2-3.8,3.6-6.3,4.1c-4.4,0.1-8,2-11.2,5.1c-3.1,2-6.1,4.6-10.2,3.8c-1.5-0.4-3-1.8-3.5-3.3c-1-3.2,1-5.8,3.4-7.8
		c2.3-2,5.5-4.1,4.8-7.5c-0.5-2.9-3.8-3.5-6.1-4c-2.5,0-4.3-1.4-6.3-2.6c-0.5,0.7-0.6,1.5-0.5,2.4c0.2,2.3,2,4.6,4.2,5.3
		c1.4,0.8,3.4-0.3,4.7,0.7c0.4,0.4,0.2,0.8,0.2,1.2c-2.7,2.7-6.7,5.3-7.4,9.1c-0.5,3,0.5,5.9,2.9,7.8c2.6,2,6.7,2.4,9.7,1.1
		c0.4-0.1,0.8-0.1,1.1,0.3l0.3,4.1c0.2,1.9,1.7,3.4,1.5,5.4c-1,1.1-2.3,1.6-3.5,2.3l-3.1,0.3c-0.9,0.7-1.2,1.7-1.5,2.7
		c-0.1,2.2-2.6,3.5-4.2,4.6c-0.6,1.1-1.6,2.7-3.1,2.6c-1,1.2-1.1,2.8-1.5,4.2c1.4,0.1,2.7,0.7,4.2,0.4c1.8-0.4,2.1-2.4,3.1-3.6
		c1.2-1.3,2.8,0.1,4.1-0.3c1.7-0.8,3.3-1.9,4.8-3.4c3.2-1.6,6.9,1,10-0.8c1.4-1.6,3.6-1.3,4.7-3.3c0.6-1.5,1.7-2.8,1.9-4.5
		c-0.3-0.3-0.6-0.7-1.1-0.8c-0.4,0.7-0.8,1.4-1.2,2c-2,3.2-5.4,4.2-8.8,4.5c-4.5-0.1-8.6,0.8-11.6,4.5h-0.3
		c-0.2-0.1-0.3-0.2-0.4-0.4c1.6-2.8,4.4-4.7,7.4-5.1c4.7-0.5,10-0.6,12.6-5.2c1.7-2.5,1.2-5.9,1.9-8.7c0-0.3,0.3-0.6,0.6-0.6
		c0.2,0.1,0.5,0.1,0.6,0.4c-0.3,2.4-0.5,4.9,0.4,7.1c1.5,1.9,4.4,0.9,6.3,0.5c3.7-0.8,7,1.2,10.7,0.4c0.4-0.2,0.8-0.4,0.6-1
		c-0.2-0.8-0.6-1.5-0.5-2.4c0.1-0.3,0.4-0.5,0.7-0.5c0.6,0.3,0.5,1,0.7,1.5c1.5,4.4,7.9,4.1,8.3,9.2c-0.6,1.9-2.6,2.6-4.2,3
		c-3.1,0.7-3.7-3-5.5-4.6c-1.5-0.9-3.5-0.2-5.1,0c-0.4,0.2-0.5,0.6-0.5,1l1.8,3c0.7,1.4,2.5-0.3,3.2,1.2c0.7,1.5,2.2,3.4,4.1,3.5
		c2.8-0.6,5.3-1.8,7.9-2.9c1-1.3,2.9-0.4,4.1-1.1c0,0,0,0,0.1,0c7.9,10.6,20.6,17.5,34.8,17.5c14.4,0,27.1-7,35-17.8
		c0.7,0.2,1.7-0.1,2.4,0.2c1.4,2.1,3.8,2,5.9,2.8c1.4,0.5,2.8,1.3,4.4,1.1c1.5-0.5,2.5-2.1,2.6-3.6c0.5-0.7,1.7-0.1,2.3-0.8
		c0.7-1.1,1.6-2,2-3.1c-0.7-0.9-2-0.5-3-0.7c-0.2,0.1-0.7,0.1-0.8,0.1l-0.1-0.1c-2.2-0.1-2.3,2.4-3.4,3.6c-0.4,0.5-1.1,0.4-1.7,0.5
		c-1.8-0.7-4.6-0.9-4.8-3.4c0.7-1.5,2.3-2.8,3.6-3.8c1.5-0.3,2.8-1.1,3.8-2.5c0.8-0.7,0.5-2.3,1.8-2.3c0.6,1,0,2.2-0.5,3.2
		c2.6,0.3,5.1-0.1,7.5-0.5c3.6-0.9,7.1,1.1,10.6-0.2c1.8-0.9,1.9-2.9,2.1-4.6l-0.1-0.1l0.1-0.1c0-0.9-0.3-1.7-0.4-2.6
		c-0.1-0.4-0.2-0.9,0.1-1.3c0.3-0.2,0.5-0.1,0.7,0.1c1.5,3.3,0.8,7.4,2.6,10.5c1.3,2.6,3.9,4.5,6.8,4.7c0.1,0,0.2-0.2,0.3,0
		c4.6-0.9,8.7,0.9,11.4,4.4v0.2c-0.2,0.2-0.3,0.4-0.6,0.3c-0.5-0.7-1.2-0.9-1.8-1.5c-2.6-2.5-6.3-2.6-9.8-2.2
		c-3.7,0.1-7.1-3-8.4-6.2c-0.3-0.3-0.3-1-0.9-1c-0.2,0.1-0.2,0.3-0.3,0.5c0.2,2.4,0.5,4.7,2.2,6.5c1.6,0.8,2.8,2.3,4.6,2.5
		c2.5-0.6,5.5-0.3,7.7,0.7c1.8,0.7,3.2,2.2,4.8,3.3c0.9,0.4,2.1,0.2,2.9-0.4c2-0.5,2.4,1.9,3.8,2.8c1.2,0.9,2.9,0.5,4.4,0.6l0.2-0.1
		c-0.2-1.4-0.5-2.8-1.1-4C344.8,267.4,343.8,265.5,342.8,264.2 M144.7,266.1c-1.1,0.6-1,1.9-1,3.1c0,0.7-0.9,1.1-0.8,1.9
		c0.8,0.3,1.6,0.7,2.4,0.8c0.5-1.5,0.8-3.1,1.2-4.6l-1.4-1.4C145,265.9,144.8,266,144.7,266.1 M147.6,265.6c0.8,0.4,1.5-0.2,2.1-0.8
		c0.5-0.8,1.2-1.5,1.4-2.4c-0.2-0.6-1-1.1-1.5-0.8c-0.8,1.3-3.4,1.3-2.7,3.3C147.1,265.3,147.2,265.6,147.6,265.6"/>
</g>
</svg>
