<?xml version="1.0" encoding="UTF-8"?>
<svg xmlns="http://www.w3.org/2000/svg" xmlns:xlink="http://www.w3.org/1999/xlink" version="1.2" >
<font id="Clan Pro Narrow News Italic">
<font-face  font-family="Clan Pro" units-per-em="1000" ascent="787" descent="-213" font-style="italic" font-weight="475" font-stretch="semi-condensed" slope="-8" cap-height="750" x-height="597" underline-position="-65" underline-thickness="70" />
<missing-glyph  horiz-adv-x="552" d="M19 0 L533 0 L533 750 L19 750 L19 0 Z M74 55 L74 695 L478 695 L478 55 L74 55 Z " />
<glyph glyph-name=".null" d="" />
<glyph glyph-name="CR" unicode="&#xd;" horiz-adv-x="291" d="" />
<glyph glyph-name="space" unicode="&#x20;" horiz-adv-x="291" d="" />
<glyph glyph-name="exclam" unicode="&#x21;" horiz-adv-x="276" d="M148 196 L242 750 L143 750 L80 196 L148 196 Z M102 93 C60 93 35 69 35 30 C35 1 53 -11 87 -11 C131 -11 154 12 154 52 C154 78 137 93 102 93 L102 93 Z " />
<glyph glyph-name="quotedbl" unicode="&#x22;" horiz-adv-x="349" d="M271 771 L251 539 L310 539 L362 771 L271 771 Z M104 771 L84 539 L143 539 L195 771 L104 771 Z " />
<glyph glyph-name="numbersign" unicode="&#x23;" horiz-adv-x="591" d="M49 293 L39 227 L137 227 L79 0 L150 0 L208 227 L311 227 L254 0 L323 0 L381 227 L514 227 L524 293 L399 293 L444 463 L549 463 L558 529 L460 529 L518 750 L448 750 L391 529 L288 529 L345 750 L274 750 L217 529 L83 529 L74 463 L201 463 L154 293 L49 293 Z M272 463 L375 463 L329 293 L225 293 L272 463 Z " />
<glyph glyph-name="dollar" unicode="&#x24;" horiz-adv-x="591" d="M420 822 L363 826 L345 761 C183 757 78 675 78 535 C78 431 165 392 249 355 L181 63 C124 70 72 91 29 119 C20 88 15 67 7 38 C42 12 102 -5 164 -11 L148 -80 L200 -85 L221 -13 C381 -10 468 56 489 201 C491 213 491 224 491 235 C491 345 407 389 323 424 L385 681 C430 677 473 666 511 650 L530 727 C503 741 456 753 404 758 L420 822 Z M295 335 C357 307 408 274 408 210 C408 109 339 62 232 61 L295 335 Z M333 684 L280 442 C217 469 165 496 165 553 C165 626 220 683 333 684 L333 684 Z " />
<glyph glyph-name="percent" unicode="&#x25;" horiz-adv-x="655" d="M233 763 C139 763 93 714 75 590 C72 570 71 552 71 536 C71 453 108 418 184 418 C271 418 323 467 340 590 C343 612 345 631 345 648 C345 733 306 763 233 763 L233 763 Z M225 710 C262 710 282 696 282 641 C282 627 281 610 278 591 C264 495 239 472 192 472 C155 472 135 487 135 540 C135 554 136 571 139 591 C152 687 178 710 225 710 L225 710 Z M531 733 L66 54 L115 17 L579 695 L531 733 Z M477 339 C383 339 337 289 320 165 C317 145 316 127 316 110 C316 28 351 -8 427 -8 C520 -8 589 57 589 221 C589 308 550 339 477 339 L477 339 Z M469 284 C506 284 526 270 526 215 C526 201 525 184 522 165 C508 69 483 46 436 46 C399 46 379 61 379 114 C379 128 380 145 383 165 C396 261 422 284 469 284 L469 284 Z " />
<glyph glyph-name="ampersand" unicode="&#x26;" horiz-adv-x="642" d="M342 762 C213 762 142 680 142 572 C142 527 158 475 183 419 C96 352 15 269 15 144 C15 57 62 -12 182 -12 C275 -12 355 34 418 98 C460 56 504 19 546 -9 L591 68 C552 94 512 128 476 164 C530 239 567 321 580 377 L503 377 C487 325 459 268 425 217 C370 277 323 342 287 404 C396 486 486 551 486 650 C486 718 433 762 342 762 L342 762 Z M369 148 C321 99 265 65 207 65 C147 65 109 99 109 160 C109 238 157 298 219 351 C259 282 312 211 369 148 L369 148 Z M330 696 C370 696 396 676 396 640 C396 575 332 525 255 470 C236 511 227 549 227 580 C227 655 277 696 330 696 L330 696 Z " />
<glyph glyph-name="quotesingle" unicode="&#x27;" horiz-adv-x="191" d="M108 771 L88 539 L147 539 L199 771 L108 771 Z " />
<glyph glyph-name="parenleft" unicode="&#x28;" horiz-adv-x="309" d="M293 799 C163 647 75 453 75 212 C75 80 107 -40 162 -129 L237 -124 C189 -27 162 83 162 207 C162 425 238 630 366 794 L293 799 Z " />
<glyph glyph-name="parenright" unicode="&#x29;" horiz-adv-x="309" d="M66 794 C115 696 141 583 141 462 C141 236 59 34 -62 -124 L9 -129 C141 14 228 238 228 463 C228 593 197 701 140 799 L66 794 Z " />
<glyph glyph-name="asterisk" unicode="&#x2a;" horiz-adv-x="342" d="M210 792 L188 683 L90 712 L66 667 L163 631 L86 538 L119 512 L207 601 L266 512 L307 540 L256 631 L362 667 L353 712 L246 683 L257 792 L210 792 Z " />
<glyph glyph-name="plus" unicode="&#x2b;" horiz-adv-x="545" d="M480 302 L480 380 L310 380 L310 554 L229 554 L229 380 L63 380 L63 302 L229 302 L229 131 L310 131 L310 302 L480 302 Z " />
<glyph glyph-name="comma" unicode="&#x2c;" horiz-adv-x="232" d="M80 100 C37 100 11 70 11 31 C11 5 27 -10 52 -10 L53 -10 C38 -48 18 -86 -4 -121 L25 -139 C80 -78 130 0 130 50 C130 81 114 100 80 100 L80 100 Z " />
<glyph glyph-name="hyphen" unicode="&#x2d;" horiz-adv-x="369" d="M65 375 L56 311 L299 311 L308 375 L65 375 Z " />
<glyph glyph-name="period" unicode="&#x2e;" horiz-adv-x="234" d="M81 101 C36 101 12 75 12 31 C12 2 29 -11 65 -11 C108 -11 133 15 133 57 C133 85 116 101 81 101 L81 101 Z " />
<glyph glyph-name="slash" unicode="&#x2f;" horiz-adv-x="401" d="M383 797 L-59 -125 L17 -125 L461 797 L383 797 Z " />
<glyph glyph-name="zero" unicode="0" horiz-adv-x="591" d="M540 375 C548 434 553 484 553 528 C553 699 488 759 352 759 C179 759 95 665 54 375 C46 318 42 267 42 224 C42 54 106 -10 243 -10 C413 -10 500 91 540 375 L540 375 Z M447 376 C411 119 357 65 255 65 C177 65 134 96 134 224 C134 264 138 314 147 376 C183 630 238 682 341 682 C418 682 460 652 460 527 C460 487 456 438 447 376 L447 376 Z " />
<glyph glyph-name="one" unicode="1" horiz-adv-x="591" d="M112 0 L446 0 L454 64 L338 64 L435 752 L380 752 L163 613 L163 535 L287 609 C299 616 310 623 321 631 L323 629 C319 617 317 602 315 589 L241 64 L120 64 L112 0 Z " />
<glyph glyph-name="two" unicode="2" horiz-adv-x="591" d="M349 758 C261 758 181 723 124 678 L139 607 C192 648 257 678 322 678 C412 678 449 635 449 575 C449 427 242 245 36 60 L28 0 L468 0 L482 79 L156 79 L156 82 C383 274 548 430 548 597 C548 700 479 758 349 758 L349 758 Z " />
<glyph glyph-name="three" unicode="3" horiz-adv-x="591" d="M341 758 C254 758 175 723 121 679 L136 610 C190 653 251 680 323 680 C404 680 451 652 451 588 C451 486 384 432 229 432 L220 365 C362 365 418 331 418 255 C418 147 351 67 230 67 C160 67 105 85 57 118 L29 46 C73 16 134 -8 222 -8 C397 -8 489 84 509 224 C511 236 512 248 512 259 C512 335 470 379 397 400 L397 402 C478 429 541 494 541 604 C541 705 467 758 341 758 L341 758 Z " />
<glyph glyph-name="four" unicode="4" horiz-adv-x="591" d="M520 167 L534 243 L448 243 L519 750 L404 750 L36 226 L36 167 L350 167 L327 0 L414 0 L437 167 L520 167 Z M364 243 L138 243 L137 245 C145 255 153 264 161 276 L406 634 C414 645 422 658 429 669 L431 668 C428 655 425 640 423 627 L364 243 Z " />
<glyph glyph-name="five" unicode="5" horiz-adv-x="591" d="M541 750 L169 750 L92 394 L122 359 C164 381 223 397 281 397 C370 397 414 365 414 287 C414 275 413 263 411 249 C394 125 339 67 229 67 C162 67 115 86 67 119 L40 46 C88 11 149 -8 228 -8 C392 -8 482 81 507 257 C509 274 511 291 511 306 C511 419 445 471 320 471 C275 471 229 464 187 449 L186 450 C189 460 192 474 195 489 L234 669 L534 669 L541 750 Z " />
<glyph glyph-name="six" unicode="6" horiz-adv-x="591" d="M336 477 C273 477 209 453 158 413 L157 414 C192 600 268 680 400 680 C449 680 486 672 526 656 L545 731 C500 750 455 758 400 758 C214 758 97 635 57 351 C50 302 47 259 47 222 C47 48 120 -8 248 -8 C398 -8 491 76 517 259 C520 278 521 296 521 313 C521 424 460 477 336 477 L336 477 Z M308 407 C389 407 427 377 427 302 C427 289 426 275 424 260 C405 126 349 67 258 67 C179 67 141 106 141 222 C141 253 143 290 149 333 C188 379 257 407 308 407 L308 407 Z " />
<glyph glyph-name="seven" unicode="7" horiz-adv-x="591" d="M591 749 L122 749 L105 665 L489 665 L490 663 C482 652 475 642 469 631 L95 0 L201 0 L580 675 L591 749 Z " />
<glyph glyph-name="eight" unicode="8" horiz-adv-x="591" d="M353 758 C192 758 109 673 109 534 C109 464 143 425 189 398 L189 396 C90 350 32 267 32 157 C32 45 99 -9 245 -9 C401 -9 492 60 512 204 C514 217 515 229 515 241 C515 325 466 366 407 392 L407 394 C494 439 543 514 543 610 C543 707 483 758 353 758 L353 758 Z M257 63 C163 63 123 94 123 167 C123 266 181 322 262 363 C363 326 423 296 423 221 C423 107 346 63 257 63 L257 63 Z M342 688 C420 688 458 658 458 592 C458 513 419 463 337 421 C264 447 197 471 197 545 C197 637 254 688 342 688 L342 688 Z " />
<glyph glyph-name="nine" unicode="9" horiz-adv-x="591" d="M341 758 C185 758 101 675 80 527 C77 510 76 493 76 478 C76 370 138 306 268 306 C331 306 389 324 438 362 L440 360 C403 147 333 68 206 68 C154 68 115 77 75 96 L51 24 C97 1 140 -8 204 -8 C384 -8 493 103 537 413 C542 451 545 486 545 517 C545 684 472 758 341 758 L341 758 Z M448 447 C407 397 353 378 294 378 C208 378 168 419 168 494 C168 624 233 682 328 682 C407 682 454 639 454 524 C454 501 452 476 448 447 L448 447 Z " />
<glyph glyph-name="colon" unicode="&#x3a;" horiz-adv-x="234" d="M145 562 C100 562 77 536 77 492 C77 463 94 450 130 450 C173 450 198 476 198 517 C198 546 180 562 145 562 L145 562 Z M81 101 C36 101 12 75 12 31 C12 2 29 -11 65 -11 C108 -11 133 15 133 57 C133 85 116 101 81 101 L81 101 Z " />
<glyph glyph-name="semicolon" unicode="&#x3b;" horiz-adv-x="237" d="M148 562 C103 562 80 536 80 492 C80 463 97 450 133 450 C176 450 201 476 201 517 C201 546 183 562 148 562 L148 562 Z M82 100 C39 100 13 70 13 31 C13 5 29 -10 54 -10 L55 -10 C40 -48 20 -86 -2 -121 L27 -139 C82 -78 132 0 132 50 C132 81 116 100 82 100 L82 100 Z " />
<glyph glyph-name="less" unicode="&#x3c;" horiz-adv-x="545" d="M463 487 L463 574 L80 360 L80 317 L463 110 L463 195 L227 319 C214 326 200 333 188 338 L188 340 C196 343 206 348 222 357 L463 487 Z " />
<glyph glyph-name="equal" unicode="&#x3d;" horiz-adv-x="545" d="M473 389 L473 457 L70 457 L70 389 L473 389 Z M473 217 L473 286 L70 286 L70 217 L473 217 Z " />
<glyph glyph-name="greater" unicode="&#x3e;" horiz-adv-x="545" d="M80 110 L464 317 L464 360 L80 574 L80 487 L317 358 C329 351 342 345 355 339 L355 337 C342 332 332 327 320 321 L80 195 L80 110 Z " />
<glyph glyph-name="question" unicode="&#x3f;" horiz-adv-x="462" d="M287 762 C203 762 126 729 75 683 L100 616 C146 656 199 682 263 682 C326 682 363 657 363 599 C363 503 292 442 181 369 L163 196 L233 196 L257 340 C376 410 458 496 458 625 C458 713 401 762 287 762 L287 762 Z M185 93 C141 93 117 69 117 29 C117 1 134 -11 170 -11 C213 -11 236 12 236 52 C236 78 219 93 185 93 L185 93 Z " />
<glyph glyph-name="at" unicode="&#x40;" horiz-adv-x="805" d="M448 563 C325 563 205 405 205 243 C205 160 246 121 308 121 C365 121 413 152 447 198 L449 197 C456 146 491 121 544 121 C642 121 738 208 766 406 C770 432 771 457 771 481 C771 663 669 784 486 784 C198 784 36 514 36 237 C36 21 150 -103 361 -103 C492 -103 595 -60 666 -3 L650 44 C593 -5 504 -51 368 -51 C179 -51 93 64 93 243 C93 491 228 731 477 731 C637 731 715 627 715 475 C715 453 713 430 710 406 C688 252 628 182 561 182 C522 182 507 205 507 238 C507 254 511 274 517 294 L594 553 L545 557 L526 521 L524 521 C512 548 485 563 448 563 L448 563 Z M448 305 C430 235 384 187 337 187 C302 187 282 209 282 256 C282 378 367 500 442 500 C470 500 488 490 496 464 L448 305 Z " />
<glyph glyph-name="A" unicode="A" horiz-adv-x="641" d="M465 0 L574 0 L434 750 L316 750 L-33 0 L70 0 L151 187 L437 187 L465 0 Z M365 679 C366 665 368 652 370 638 L426 261 L183 261 L348 641 C354 654 359 666 363 679 L365 679 Z " />
<glyph glyph-name="B" unicode="B" horiz-adv-x="621" d="M388 750 L142 750 L37 0 L292 0 C464 0 549 95 549 256 C549 336 510 380 444 397 L444 399 C514 422 572 486 572 603 C572 702 511 750 388 750 L388 750 Z M181 356 L339 356 C416 356 452 325 452 256 C452 119 387 76 303 76 L141 76 L181 356 Z M225 673 L374 673 C442 673 476 649 476 585 C476 476 427 424 343 424 L190 424 L225 673 Z " />
<glyph glyph-name="C" unicode="C" horiz-adv-x="546" d="M408 762 C204 762 96 648 58 383 C51 336 48 293 48 255 C48 68 128 -13 295 -13 C354 -13 419 5 463 27 L462 101 C421 81 373 68 319 68 C205 68 149 113 149 258 C149 293 152 335 159 383 C192 612 262 681 403 681 C455 681 505 669 537 652 L559 729 C525 747 463 762 408 762 L408 762 Z " />
<glyph glyph-name="D" unicode="D" horiz-adv-x="666" d="M142 750 L37 0 L268 0 C467 0 576 100 615 378 C621 423 625 464 625 500 C625 680 544 750 371 750 L142 750 Z M227 668 L359 668 C469 668 522 631 522 496 C522 463 519 424 513 379 C479 136 409 82 277 82 L145 82 L227 668 Z " />
<glyph glyph-name="E" unicode="E" horiz-adv-x="560" d="M145 80 L183 354 L458 354 L469 429 L194 429 L228 670 L549 670 L557 750 L142 750 L37 0 L467 0 L481 80 L145 80 Z " />
<glyph glyph-name="F" unicode="F" horiz-adv-x="533" d="M547 668 L557 750 L143 750 L37 0 L134 0 L182 342 L449 342 L461 420 L193 420 L227 668 L547 668 Z " />
<glyph glyph-name="G" unicode="G" horiz-adv-x="614" d="M561 399 L473 399 L429 86 C395 74 358 68 317 68 C201 68 148 114 148 251 C148 286 151 326 158 373 C192 615 264 682 414 682 C474 682 529 669 573 648 L595 727 C551 748 484 762 421 762 C206 762 96 652 57 372 C50 326 47 285 47 248 C47 65 129 -13 309 -13 C383 -13 459 2 508 26 L561 399 Z " />
<glyph glyph-name="H" unicode="H" horiz-adv-x="679" d="M543 0 L648 750 L550 750 L505 430 L194 430 L239 750 L142 750 L37 0 L134 0 L183 349 L494 349 L445 0 L543 0 Z " />
<glyph glyph-name="I" unicode="I" horiz-adv-x="295" d="M48 0 L148 0 L253 750 L153 750 L48 0 Z " />
<glyph glyph-name="J" unicode="J" horiz-adv-x="490" d="M458 750 L359 750 L287 235 C270 111 215 68 117 68 C76 68 30 78 0 101 L-18 25 C15 3 67 -11 120 -11 C270 -11 360 54 386 236 L458 750 Z " />
<glyph glyph-name="K" unicode="K" horiz-adv-x="635" d="M561 0 L373 396 L653 750 L539 750 L287 429 L194 429 L239 750 L142 750 L37 0 L134 0 L183 353 L276 353 L442 0 L561 0 Z " />
<glyph glyph-name="L" unicode="L" horiz-adv-x="516" d="M146 81 L240 750 L142 750 L37 0 L441 0 L455 81 L146 81 Z " />
<glyph glyph-name="M" unicode="M" horiz-adv-x="827" d="M142 750 L37 0 L122 0 L197 540 C199 553 200 568 201 581 L203 581 L327 0 L396 0 L685 586 L687 585 C683 572 680 557 678 544 L602 0 L690 0 L795 750 L685 750 L400 176 C393 163 388 151 383 139 L381 139 C380 151 377 164 374 179 L252 750 L142 750 Z " />
<glyph glyph-name="N" unicode="N" horiz-adv-x="684" d="M547 0 L652 750 L567 750 L492 216 C490 203 489 188 489 175 L487 175 L231 750 L142 750 L37 0 L122 0 L199 552 C201 565 202 580 203 593 L205 593 L476 0 L547 0 Z " />
<glyph glyph-name="O" unicode="O" horiz-adv-x="670" d="M617 375 C625 428 628 475 628 516 C628 693 556 762 392 762 C191 762 97 658 57 375 C50 324 46 279 46 239 C46 59 120 -13 283 -13 C485 -13 577 90 617 375 L617 375 Z M516 375 C482 129 424 67 294 67 C194 67 146 104 146 236 C146 274 150 320 158 375 C193 622 251 682 380 682 C481 682 528 647 528 517 C528 479 524 431 516 375 L516 375 Z " />
<glyph glyph-name="P" unicode="P" horiz-adv-x="593" d="M142 750 L37 0 L134 0 L175 292 L301 292 C474 292 553 365 575 521 C578 543 580 563 580 581 C580 701 513 750 365 750 L142 750 Z M228 672 L354 672 C439 672 479 646 479 567 C479 553 477 538 475 521 C459 407 416 367 311 367 L185 367 L228 672 Z " />
<glyph glyph-name="Q" unicode="Q" horiz-adv-x="670" d="M617 375 C625 428 628 475 628 516 C628 693 556 762 392 762 C191 762 97 658 57 375 C50 324 46 278 46 238 C46 64 115 -8 266 -13 L372 -151 L492 -122 L360 -4 C509 19 583 130 617 375 L617 375 Z M516 375 C482 129 424 67 294 67 C194 67 146 104 146 236 C146 274 150 320 158 375 C193 622 251 682 380 682 C481 682 528 647 528 517 C528 479 524 431 516 375 L516 375 Z " />
<glyph glyph-name="R" unicode="R" horiz-adv-x="600" d="M142 750 L37 0 L134 0 L179 325 L307 325 L417 0 L531 0 L400 341 C497 359 565 439 565 591 C565 700 501 750 367 750 L142 750 Z M228 673 L358 673 C430 673 465 648 465 578 C465 439 401 398 315 398 L189 398 L228 673 Z " />
<glyph glyph-name="S" unicode="S" horiz-adv-x="515" d="M334 762 C168 762 76 659 76 526 C76 330 363 372 363 222 C363 123 297 68 200 68 C131 68 75 87 27 121 L0 41 C49 8 114 -13 191 -13 C343 -13 437 68 457 209 C459 221 460 232 460 243 C460 447 171 403 171 546 C171 619 222 681 329 681 C384 681 433 668 482 647 L506 724 C461 748 400 762 334 762 L334 762 Z " />
<glyph glyph-name="T" unicode="T" horiz-adv-x="528" d="M557 668 L566 750 L72 750 L58 668 L258 668 L165 0 L263 0 L356 668 L557 668 Z " />
<glyph glyph-name="U" unicode="U" horiz-adv-x="664" d="M645 750 L548 750 L478 251 C460 124 401 69 292 69 C198 69 152 108 152 200 C152 215 153 233 156 251 L226 750 L129 750 L59 254 C56 231 54 210 54 190 C54 49 134 -13 280 -13 C447 -13 549 68 575 254 L645 750 Z " />
<glyph glyph-name="V" unicode="V" horiz-adv-x="625" d="M560 750 L294 130 C289 118 283 104 279 92 L277 92 C276 105 274 120 272 133 L181 750 L74 750 L206 0 L320 0 L661 750 L560 750 Z " />
<glyph glyph-name="W" unicode="W" horiz-adv-x="913" d="M460 750 L242 129 C237 116 233 102 230 90 L228 90 C228 103 228 118 227 131 L199 750 L99 750 L155 0 L274 0 L484 616 L496 655 L498 655 C498 642 499 627 500 614 L539 0 L659 0 L925 750 L828 750 L625 131 L614 92 L612 92 L610 133 L567 750 L460 750 Z " />
<glyph glyph-name="X" unicode="X" horiz-adv-x="629" d="M638 750 L527 750 L349 480 C342 469 334 457 328 446 L326 446 C323 458 317 472 313 484 L211 750 L95 750 L247 391 L-16 0 L97 0 L287 297 C294 308 302 320 308 332 L310 332 C314 319 318 306 323 294 L434 0 L545 0 L386 388 L638 750 Z " />
<glyph glyph-name="Y" unicode="Y" horiz-adv-x="605" d="M74 750 L240 255 L205 0 L304 0 L339 255 L641 750 L534 750 L324 378 C317 366 310 353 305 342 L303 342 C301 354 297 367 293 381 L184 750 L74 750 Z " />
<glyph glyph-name="Z" unicode="Z" horiz-adv-x="555" d="M456 0 L469 81 L119 81 L118 83 C126 92 134 102 142 113 L553 681 L563 750 L110 750 L95 668 L440 668 L441 666 C432 656 423 646 416 636 L-1 62 L-9 0 L456 0 Z " />
<glyph glyph-name="bracketleft" unicode="&#x5b;" horiz-adv-x="303" d="M19 -126 L231 -126 L240 -64 L111 -64 L223 734 L351 734 L360 797 L149 797 L19 -126 Z " />
<glyph glyph-name="backslash" unicode="&#x5c;" horiz-adv-x="349" d="M70 797 L211 -125 L284 -125 L143 797 L70 797 Z " />
<glyph glyph-name="bracketright" unicode="&#x5d;" horiz-adv-x="303" d="M278 797 L67 797 L58 734 L187 734 L75 -64 L-53 -64 L-62 -126 L148 -126 L278 797 Z " />
<glyph glyph-name="asciicircum" unicode="&#x5e;" horiz-adv-x="591" d="M485 476 L560 476 L357 806 L294 806 L88 476 L165 476 L324 733 L485 476 Z " />
<glyph glyph-name="underscore" unicode="&#x5f;" horiz-adv-x="397" d="M-36 -45 L-44 -100 L311 -100 L319 -45 L-36 -45 Z " />
<glyph glyph-name="grave" unicode="&#x60;" horiz-adv-x="373" d="M310 666 L268 806 L160 806 L240 666 L310 666 Z " />
<glyph glyph-name="a" unicode="a" horiz-adv-x="548" d="M360 605 C161 605 24 446 24 175 C24 43 77 -9 177 -9 C246 -9 310 20 356 82 L358 81 C356 68 356 53 356 40 L357 0 L428 0 L511 597 L500 597 C451 597 421 605 360 605 L360 605 Z M207 64 C147 64 116 94 116 182 C116 206 118 235 123 269 C149 449 227 531 347 531 C371 531 391 529 411 527 L370 239 C354 129 288 64 207 64 L207 64 Z " />
<glyph glyph-name="b" unicode="b" horiz-adv-x="552" d="M360 606 C293 606 233 580 188 527 L187 528 C190 540 192 555 194 568 L226 799 L135 793 L31 54 C81 16 152 -10 228 -10 C377 -10 469 85 499 297 C505 343 509 383 509 417 C509 557 456 606 360 606 L360 606 Z M326 531 C383 531 416 504 416 405 C416 376 413 341 407 299 C382 124 327 63 232 63 C192 63 154 75 127 95 L163 354 C179 466 247 531 326 531 L326 531 Z " />
<glyph glyph-name="c" unicode="c" horiz-adv-x="448" d="M308 606 C159 606 65 508 36 300 C31 262 28 229 28 199 C28 47 95 -10 204 -10 C277 -10 333 14 381 62 L355 116 C321 83 281 64 230 64 C162 64 120 95 120 203 C120 229 123 261 128 297 C152 464 211 529 311 529 C352 529 378 522 409 507 L443 572 C404 595 361 606 308 606 L308 606 Z " />
<glyph glyph-name="d" unicode="d" horiz-adv-x="550" d="M313 606 C147 606 26 475 26 181 C26 40 79 -9 175 -9 C244 -9 307 19 352 77 L354 76 C354 63 354 48 355 35 L358 0 L428 0 L540 799 L448 793 L420 591 C388 600 353 606 313 606 L313 606 Z M207 64 C151 64 119 90 119 187 C119 215 121 249 127 289 C151 459 212 531 315 531 C353 531 383 526 409 516 L370 239 C354 129 287 64 207 64 L207 64 Z " />
<glyph glyph-name="e" unicode="e" horiz-adv-x="473" d="M304 607 C156 607 65 506 36 300 C31 264 28 231 28 202 C28 47 99 -9 209 -9 C292 -9 357 20 403 63 L377 118 C339 83 290 65 234 65 C160 65 119 95 119 201 C119 218 120 238 122 259 C363 295 455 372 455 489 C455 559 405 607 304 607 L304 607 Z M294 537 C348 537 374 512 374 476 C374 404 308 349 130 324 C155 470 204 537 294 537 L294 537 Z " />
<glyph glyph-name="f" unicode="f" horiz-adv-x="335" d="M42 529 L120 529 L46 0 L137 0 L211 529 L349 529 L362 593 L220 593 C237 717 288 737 377 737 L381 803 C218 803 152 750 129 593 L54 593 L42 529 Z " />
<glyph glyph-name="g" unicode="g" horiz-adv-x="546" d="M509 597 L476 597 C438 597 400 605 352 605 C160 605 41 457 41 214 C41 77 100 33 193 33 C259 33 313 59 349 112 L351 111 L348 92 C330 -42 266 -80 169 -80 C126 -80 84 -68 44 -48 L23 -115 C65 -137 120 -151 175 -151 C315 -151 414 -86 439 93 L509 597 Z M226 105 C167 105 133 130 133 221 C133 420 222 533 343 533 C371 533 391 531 410 529 L374 277 C358 167 303 105 226 105 L226 105 Z " />
<glyph glyph-name="h" unicode="h" horiz-adv-x="556" d="M444 0 L498 391 C501 414 503 434 503 453 C503 558 454 607 360 607 C290 607 231 580 189 529 L187 530 C190 542 192 557 194 570 L226 799 L135 792 L24 0 L114 0 L163 352 C179 463 245 529 328 529 C384 529 412 507 412 440 C412 425 411 408 408 389 L354 0 L444 0 Z " />
<glyph glyph-name="i" unicode="i" horiz-adv-x="251" d="M121 0 L205 599 L113 594 L30 0 L121 0 Z M186 797 C143 797 119 776 119 738 C119 711 137 701 172 701 C213 701 237 719 237 758 C237 783 221 797 186 797 L186 797 Z " />
<glyph glyph-name="j" unicode="j" horiz-adv-x="269" d="M223 599 L132 594 L61 89 C44 -33 4 -71 -84 -87 L-86 -151 C48 -135 128 -73 151 90 L223 599 Z M204 797 C161 797 137 776 137 738 C137 711 155 701 190 701 C231 701 255 719 255 758 C255 783 239 797 204 797 L204 797 Z " />
<glyph glyph-name="k" unicode="k" horiz-adv-x="551" d="M114 0 L144 218 C171 412 272 529 361 529 C401 529 416 508 416 478 C416 410 351 327 229 285 C255 118 355 2 481 -7 L500 63 C419 79 358 153 326 255 C442 312 507 409 507 500 C507 566 472 607 394 607 C317 607 239 561 181 475 L179 476 C182 488 184 503 186 516 L226 799 L135 792 L24 0 L114 0 Z " />
<glyph glyph-name="l" unicode="l" horiz-adv-x="238" d="M114 0 L226 799 L135 792 L24 0 L114 0 Z " />
<glyph glyph-name="m" unicode="m" horiz-adv-x="817" d="M317 0 L408 0 L457 350 C473 462 528 528 603 528 C650 528 673 505 673 442 C673 425 671 406 668 383 L615 0 L705 0 L758 383 C761 409 764 435 764 455 C764 558 721 607 637 607 C565 607 504 572 462 508 L460 509 C447 575 406 607 340 607 C273 607 217 578 176 524 L174 525 C175 538 175 552 175 565 L175 599 L103 594 L20 0 L111 0 L160 351 C176 462 230 528 305 528 C352 528 375 506 375 443 C375 426 373 406 370 383 L317 0 Z " />
<glyph glyph-name="n" unicode="n" horiz-adv-x="552" d="M349 0 L440 0 L494 391 C497 413 498 433 498 452 C498 558 450 607 356 607 C281 607 219 576 176 519 L173 520 C174 533 174 547 174 560 L174 599 L102 594 L19 0 L110 0 L159 352 C175 464 240 529 323 529 C379 529 407 507 407 439 C407 424 406 407 403 388 L349 0 Z " />
<glyph glyph-name="o" unicode="o" horiz-adv-x="535" d="M292 533 C364 533 400 503 400 403 C400 374 397 340 391 299 C365 115 319 61 224 61 C153 61 119 91 119 189 C119 218 122 253 128 296 C154 479 199 533 292 533 L292 533 Z M305 607 C143 607 66 516 36 300 C30 258 27 221 27 188 C27 49 83 -10 213 -10 C375 -10 452 81 482 297 C488 339 491 376 491 409 C491 548 435 607 305 607 L305 607 Z " />
<glyph glyph-name="p" unicode="p" horiz-adv-x="548" d="M356 607 C284 607 220 577 175 516 L173 517 C173 530 174 544 174 557 L175 600 L103 595 L-1 -144 L90 -144 L114 28 C149 4 195 -10 249 -10 C382 -10 465 85 495 297 C501 343 505 384 505 418 C505 559 452 607 356 607 L356 607 Z M323 532 C378 532 412 504 412 404 C412 375 409 341 403 299 C379 129 325 64 230 64 C188 64 150 77 124 99 L160 354 C176 464 243 532 323 532 L323 532 Z " />
<glyph glyph-name="q" unicode="q" horiz-adv-x="548" d="M360 605 C161 605 24 446 24 175 C24 43 77 -9 177 -9 C241 -9 301 17 346 70 L348 68 C344 56 342 41 340 28 L316 -144 L407 -144 L511 597 L486 597 C444 597 416 605 360 605 L360 605 Z M207 64 C147 64 116 94 116 182 C116 206 118 235 123 269 C149 450 227 532 347 532 C371 532 391 530 411 528 L371 248 C354 133 290 64 207 64 L207 64 Z " />
<glyph glyph-name="r" unicode="r" horiz-adv-x="400" d="M350 606 C282 606 219 569 174 484 L172 485 L174 525 L176 599 L103 594 L20 0 L111 0 L151 288 C172 443 247 517 332 517 C355 517 372 514 388 505 L414 592 C399 600 375 606 350 606 L350 606 Z " />
<glyph glyph-name="s" unicode="s" horiz-adv-x="438" d="M275 607 C143 607 60 535 60 427 C60 275 287 292 287 174 C287 110 244 64 165 64 C116 64 65 81 30 114 L-2 48 C35 14 98 -9 163 -9 C297 -9 376 70 376 194 C376 352 148 334 148 441 C148 495 196 532 263 532 C304 532 347 523 380 505 L415 570 C379 593 326 607 275 607 L275 607 Z " />
<glyph glyph-name="t" unicode="t" horiz-adv-x="373" d="M45 525 L122 525 L74 181 C71 160 70 141 70 124 C70 33 110 -7 188 -7 C230 -7 268 7 298 26 L295 91 C272 77 246 67 221 67 C182 67 161 90 161 144 C161 156 162 169 164 184 L212 525 L355 525 L369 594 L222 594 L245 759 L174 748 L136 594 L59 594 L45 525 Z " />
<glyph glyph-name="u" unicode="u" horiz-adv-x="541" d="M512 596 L421 596 L364 187 C352 105 306 66 229 66 C161 66 127 96 127 157 C127 166 127 176 129 187 L187 599 L95 594 L38 188 C36 173 35 158 35 145 C35 45 95 -11 218 -11 C359 -11 437 59 455 188 L512 596 Z " />
<glyph glyph-name="v" unicode="v" horiz-adv-x="537" d="M486 609 L401 588 C407 559 411 524 411 486 C411 219 256 74 210 74 C182 74 144 123 144 247 C144 280 147 318 153 362 L187 599 L95 594 L62 362 C56 323 54 288 54 256 C54 66 139 -10 190 -10 C263 -10 500 145 500 486 C500 531 495 572 486 609 L486 609 Z " />
<glyph glyph-name="w" unicode="w" horiz-adv-x="812" d="M761 609 L676 588 C682 560 685 527 685 491 C685 209 539 77 504 77 C476 77 442 128 442 246 C442 280 445 318 451 363 L483 595 L392 595 L363 386 C334 176 226 78 199 78 C176 78 145 126 145 241 C145 275 147 316 154 363 L187 599 L95 594 L63 363 C57 322 55 285 55 251 C55 69 130 -10 176 -10 C212 -10 305 47 372 179 L373 179 C389 45 448 -10 487 -10 C557 -10 775 152 775 486 C775 531 770 572 761 609 L761 609 Z " />
<glyph glyph-name="x" unicode="x" horiz-adv-x="546" d="M74 0 L230 224 C237 234 248 250 252 258 L254 258 C258 245 263 232 268 220 L353 0 L457 0 L323 305 L532 597 L434 597 L295 393 C287 382 280 370 273 359 L271 359 C267 371 262 385 257 397 L176 599 L73 595 L201 314 L-26 0 L74 0 Z " />
<glyph glyph-name="y" unicode="y" horiz-adv-x="531" d="M424 597 C381 414 321 268 255 153 L253 153 C251 166 248 180 245 193 L157 599 L58 592 L188 69 C145 11 99 -34 33 -81 L65 -147 C285 -7 434 275 513 597 L424 597 Z " />
<glyph glyph-name="z" unicode="z" horiz-adv-x="488" d="M459 535 L467 597 L98 597 L85 525 L357 525 L358 523 C349 513 341 503 333 493 L10 62 L2 0 L387 0 L398 71 L112 71 L111 73 C120 82 128 92 136 103 L459 535 Z " />
<glyph glyph-name="braceleft" unicode="&#x7b;" horiz-adv-x="347" d="M249 438 C261 520 254 573 265 652 C272 703 302 734 369 734 L395 734 L404 801 L382 801 C249 801 196 748 184 662 C172 581 179 517 168 437 C162 394 131 363 87 357 L81 319 C118 314 141 288 141 252 C141 248 141 243 140 239 C129 159 104 95 92 14 C91 4 90 -6 90 -14 C90 -83 134 -124 252 -124 L274 -124 L283 -58 L257 -58 C198 -58 176 -34 176 6 C176 11 176 18 177 24 C188 103 209 156 221 239 C222 245 222 251 222 257 C222 294 206 322 178 337 L178 339 C217 356 243 392 249 438 L249 438 Z " />
<glyph glyph-name="bar" unicode="&#x7c;" horiz-adv-x="264" d="M96 -173 L166 -173 L166 814 L96 814 L96 -173 Z " />
<glyph glyph-name="braceright" unicode="&#x7d;" horiz-adv-x="347" d="M92 239 C80 156 87 103 76 24 C69 -28 39 -58 -28 -58 L-53 -58 L-62 -124 L-41 -124 C92 -124 144 -72 156 14 C168 95 161 159 172 239 C178 282 210 313 254 319 L260 357 C222 362 199 388 199 424 C199 428 199 432 200 437 C211 517 236 581 248 662 C249 672 250 682 250 690 C250 759 207 801 89 801 L67 801 L58 734 L84 734 C143 734 165 709 165 670 C165 664 165 658 164 652 C153 573 132 520 120 438 C119 431 119 425 119 419 C119 382 134 353 162 339 L162 337 C123 320 98 284 92 239 L92 239 Z " />
<glyph glyph-name="asciitilde" unicode="&#x7e;" horiz-adv-x="591" d="M165 635 C173 671 195 693 233 693 C290 693 347 624 418 624 C487 624 529 670 538 761 L483 761 C475 724 455 703 417 703 C359 703 301 772 230 772 C159 772 120 726 110 635 L165 635 Z " />
<glyph glyph-name="uni00A0" unicode="&#xa0;" horiz-adv-x="291" d="" />
<glyph glyph-name="exclamdown" unicode="&#xa1;" horiz-adv-x="275" d="M119 470 L21 -134 L117 -134 L190 470 L119 470 Z M180 671 C137 671 114 647 114 609 C114 583 130 568 165 568 C209 568 233 591 233 631 C233 659 215 671 180 671 L180 671 Z " />
<glyph glyph-name="cent" unicode="&#xa2;" horiz-adv-x="591" d="M366 729 L340 605 C205 595 120 496 93 300 C88 263 85 229 85 199 C85 60 141 1 232 -8 L207 -139 L277 -139 L303 -7 C356 0 400 23 438 62 L412 116 C378 83 338 64 287 64 C219 64 177 95 177 203 C177 229 180 261 185 297 C209 464 268 529 368 529 C409 529 435 522 466 507 L500 572 C472 588 443 598 409 603 L436 729 L366 729 Z " />
<glyph glyph-name="sterling" unicode="&#xa3;" horiz-adv-x="591" d="M75 339 L140 339 L140 313 C140 208 105 107 17 75 L11 -5 C110 4 183 8 270 8 C346 8 412 3 490 -6 L506 78 C446 85 386 90 321 90 C246 90 186 86 127 74 L126 76 C191 117 229 196 229 311 L229 339 L446 339 L456 410 L224 410 C220 442 216 474 216 505 C216 602 263 678 398 678 C452 678 503 663 535 645 L559 724 C521 745 466 760 398 760 C193 760 122 642 122 510 C122 475 127 443 132 410 L81 410 L75 339 Z " />
<glyph glyph-name="currency" unicode="&#xa4;" horiz-adv-x="591" d="M316 518 C283 518 252 508 225 492 L170 556 L115 508 L169 444 C143 412 127 372 127 330 C127 306 132 285 142 266 L72 204 L113 156 L182 216 C205 199 236 189 270 189 C304 189 336 199 366 217 L418 156 L474 205 L421 267 C446 298 460 337 460 377 C460 401 454 424 444 444 L517 508 L476 557 L402 492 C378 508 349 518 316 518 L316 518 Z M308 458 C361 458 398 420 398 370 C398 305 341 251 279 251 C226 251 188 289 188 340 C188 404 245 458 308 458 L308 458 Z " />
<glyph glyph-name="yen" unicode="&#xa5;" horiz-adv-x="591" d="M120 332 L112 275 L236 275 L229 222 L105 222 L97 166 L221 166 L198 0 L299 0 L322 166 L444 166 L452 222 L330 222 L337 275 L459 275 L467 332 L366 332 L612 750 L507 750 L311 368 C304 355 299 343 294 331 L292 331 C290 344 287 358 284 371 L196 750 L88 750 L220 332 L120 332 Z " />
<glyph glyph-name="brokenbar" unicode="&#xa6;" horiz-adv-x="264" d="M96 377 L166 377 L166 814 L96 814 L96 377 Z M96 -164 L166 -164 L166 277 L96 277 L96 -164 Z " />
<glyph glyph-name="section" unicode="&#xa7;" horiz-adv-x="510" d="M332 791 C199 791 105 725 105 615 C105 569 130 534 166 504 C86 464 53 393 53 328 C53 152 319 128 319 22 C319 -37 268 -73 191 -73 C137 -73 86 -61 40 -31 L23 -97 C62 -126 128 -142 187 -142 C320 -142 412 -76 412 35 C412 81 386 115 351 145 C431 184 466 254 466 320 C466 497 199 520 199 626 C199 685 250 722 327 722 C382 722 432 709 478 680 L496 746 C457 775 391 791 332 791 L332 791 Z M227 460 C325 398 377 366 377 299 C377 252 348 211 290 189 C190 250 142 283 142 347 C142 395 168 437 227 460 L227 460 Z " />
<glyph glyph-name="dieresis" unicode="&#xa8;" horiz-adv-x="348" d="M162 796 C130 796 112 774 112 738 C112 715 125 705 150 705 C182 705 202 723 202 760 C202 783 188 796 162 796 L162 796 Z M313 796 C281 796 262 774 262 738 C262 715 276 705 301 705 C333 705 353 723 353 760 C353 783 339 796 313 796 L313 796 Z " />
<glyph glyph-name="copyright" unicode="&#xa9;" horiz-adv-x="894" d="M506 771 C271 771 54 564 54 324 C54 134 198 -13 396 -13 C628 -13 847 193 847 433 C847 623 704 771 506 771 L506 771 Z M498 720 C673 720 796 591 796 427 C796 215 606 35 401 35 C225 35 106 168 106 332 C106 539 290 720 498 720 L498 720 Z M494 635 C315 635 199 488 199 335 C199 206 285 117 422 117 C486 117 552 144 593 173 C593 194 593 215 592 236 C554 212 505 196 455 196 C350 196 294 257 294 346 C294 465 374 557 503 557 C545 557 592 544 621 526 L638 591 C609 614 558 635 494 635 L494 635 Z " />
<glyph glyph-name="ordfeminine" unicode="&#xaa;" horiz-adv-x="428" d="M316 819 C163 819 65 697 65 507 C65 414 105 375 179 375 C228 375 273 396 304 440 L306 439 L309 382 L371 382 L432 812 L411 812 C379 812 356 819 316 819 L316 819 Z M307 757 C320 757 332 756 344 755 L317 564 C306 487 263 439 208 439 C166 439 146 459 146 518 C146 622 186 757 307 757 L307 757 Z " />
<glyph glyph-name="guillemotleft" unicode="&#xab;" horiz-adv-x="580" d="M511 442 L520 512 L223 329 L222 321 L468 138 L478 208 L313 325 L511 442 Z M309 442 L318 512 L21 329 L20 321 L266 138 L276 208 L111 325 L309 442 Z " />
<glyph glyph-name="logicalnot" unicode="&#xac;" horiz-adv-x="591" d="M415 305 L415 159 L490 159 L490 380 L99 380 L99 305 L415 305 Z " />
<glyph glyph-name="uni00AD" unicode="&#xad;" horiz-adv-x="369" d="M65 375 L56 311 L299 311 L308 375 L65 375 Z " />
<glyph glyph-name="registered" unicode="&#xae;" horiz-adv-x="427" d="M281 833 C179 833 81 743 81 636 C81 552 145 488 232 488 C336 488 431 579 431 685 C431 769 367 833 281 833 L281 833 Z M278 805 C349 805 401 752 401 682 C401 593 323 516 237 516 C164 516 110 570 110 640 C110 730 193 805 278 805 L278 805 Z M197 763 L169 565 L210 565 L221 644 L260 644 L288 565 L333 565 L301 649 C330 658 345 686 345 715 C345 744 327 763 278 763 L197 763 Z M233 731 L273 731 C296 731 305 723 305 708 C305 688 293 671 269 671 L225 671 L233 731 Z " />
<glyph glyph-name="macron" unicode="&#xaf;" horiz-adv-x="354" d="M368 768 L104 768 L97 713 L361 713 L368 768 Z " />
<glyph glyph-name="degree" unicode="&#xb0;" horiz-adv-x="335" d="M232 817 C154 817 89 750 89 673 C89 614 133 567 197 567 C271 567 340 634 340 708 C340 770 295 817 232 817 L232 817 Z M226 772 C267 772 296 743 296 703 C296 652 252 612 204 612 C162 612 134 640 134 678 C134 729 173 772 226 772 L226 772 Z " />
<glyph glyph-name="plusminus" unicode="&#xb1;" horiz-adv-x="591" d="M499 341 L499 415 L333 415 L333 581 L252 581 L252 415 L90 415 L90 341 L252 341 L252 185 L333 185 L333 341 L499 341 Z M497 79 L497 145 L89 145 L89 79 L497 79 Z " />
<glyph glyph-name="twosuperior" unicode="&#xb2;" horiz-adv-x="324" d="M240 895 C188 895 142 877 106 855 L116 805 C148 826 181 841 217 841 C265 841 281 821 281 792 C281 722 178 636 63 538 L58 496 L311 496 L319 550 L146 550 L146 553 C265 643 352 718 352 806 C352 861 315 895 240 895 L240 895 Z " />
<glyph glyph-name="threesuperior" unicode="&#xb3;" horiz-adv-x="324" d="M237 895 C189 895 141 878 110 854 L119 808 C152 831 184 843 225 843 C267 843 292 828 292 798 C292 752 260 727 176 727 L170 681 C246 681 274 666 274 629 C274 579 242 541 180 541 C141 541 110 551 83 569 L62 521 C92 501 126 491 174 491 C279 491 337 547 337 631 C337 671 316 693 278 704 L278 706 C322 722 354 754 354 811 C354 866 310 895 237 895 L237 895 Z " />
<glyph glyph-name="acute" unicode="&#xb4;" horiz-adv-x="373" d="M274 806 L188 666 L259 666 L384 806 L274 806 Z " />
<glyph glyph-name="mu" unicode="&#xb5;" horiz-adv-x="564" d="M203 -6 C272 -6 336 30 377 88 L379 87 C377 74 377 59 377 46 L378 -4 L442 2 L525 597 L435 597 L384 228 C370 129 291 68 215 68 C159 68 133 98 133 154 C133 162 134 173 135 184 L193 597 L103 597 L-2 -150 L87 -143 C91 -82 96 -17 103 50 L105 50 C123 7 162 -6 203 -6 L203 -6 Z " />
<glyph glyph-name="paragraph" unicode="&#xb6;" horiz-adv-x="610" d="M182 -148 L298 679 L457 679 L341 -148 L422 -148 L538 679 L609 679 L623 750 L230 750 C130 750 71 690 71 612 C71 545 119 511 193 508 L101 -148 L182 -148 Z " />
<glyph glyph-name="periodcentered" unicode="&#xb7;" horiz-adv-x="261" d="M137 401 C92 401 68 376 68 332 C68 302 85 289 121 289 C164 289 189 315 189 357 C189 385 172 401 137 401 L137 401 Z " />
<glyph glyph-name="cedilla" unicode="&#xb8;" horiz-adv-x="373" d="M40 -189 L127 -189 L189 6 L127 6 L40 -189 Z " />
<glyph glyph-name="onesuperior" unicode="&#xb9;" horiz-adv-x="248" d="M264 892 L221 892 L101 813 L101 757 L152 787 C163 793 175 802 186 810 L188 808 C185 795 183 781 181 768 L143 496 L209 496 L264 892 Z " />
<glyph glyph-name="ordmasculine" unicode="&#xba;" horiz-adv-x="415" d="M407 596 C411 626 413 652 413 675 C413 780 369 819 274 819 C159 819 98 761 75 596 C71 568 69 543 69 521 C69 414 116 375 211 375 C326 375 384 431 407 596 L407 596 Z M156 596 C174 720 202 753 264 753 C311 753 333 734 333 669 C333 649 331 625 327 596 C310 473 281 439 220 439 C172 439 150 459 150 524 C150 544 152 568 156 596 L156 596 Z " />
<glyph glyph-name="guillemotright" unicode="&#xbb;" horiz-adv-x="580" d="M239 138 L537 321 L538 329 L291 512 L282 442 L445 325 L249 208 L239 138 Z M37 138 L335 321 L336 329 L89 512 L80 442 L243 325 L47 208 L37 138 Z " />
<glyph glyph-name="onequarter" unicode="&#xbc;" horiz-adv-x="799" d="M671 83 L680 132 L637 132 L674 394 L595 394 L383 122 L382 83 L570 83 L559 0 L619 0 L630 83 L671 83 Z M578 132 L451 132 C461 143 469 152 478 164 L586 303 C594 313 603 326 610 337 L612 336 C609 323 606 308 604 295 L578 132 Z M306 752 L263 752 L143 673 L143 617 L194 647 C205 653 217 662 228 670 L230 668 C227 655 225 641 223 628 L185 356 L251 356 L306 752 Z M652 750 L82 0 L150 0 L720 750 L652 750 Z " />
<glyph glyph-name="onehalf" unicode="&#xbd;" horiz-adv-x="799" d="M606 399 C554 399 508 381 472 359 L482 309 C514 330 547 345 583 345 C631 345 647 325 647 296 C647 226 544 140 429 42 L424 0 L677 0 L685 54 L512 54 L512 57 C631 147 718 222 718 310 C718 365 681 399 606 399 L606 399 Z M306 752 L263 752 L143 673 L143 617 L194 647 C205 653 217 662 228 670 L230 668 C227 655 225 641 223 628 L185 356 L251 356 L306 752 Z M641 750 L71 0 L139 0 L709 750 L641 750 Z " />
<glyph glyph-name="threequarters" unicode="&#xbe;" horiz-adv-x="799" d="M238 755 C190 755 142 738 111 714 L120 668 C153 691 185 703 226 703 C268 703 293 688 293 658 C293 612 261 587 177 587 L171 541 C247 541 275 526 275 489 C275 439 243 401 181 401 C142 401 111 411 84 429 L63 381 C93 361 127 351 175 351 C280 351 338 407 338 491 C338 531 317 553 279 564 L279 566 C323 582 355 614 355 671 C355 726 311 755 238 755 L238 755 Z M671 83 L680 132 L637 132 L674 394 L595 394 L383 122 L382 83 L570 83 L559 0 L619 0 L630 83 L671 83 Z M578 132 L451 132 C461 143 469 152 478 164 L586 303 C594 313 603 326 610 337 L612 336 C609 323 606 308 604 295 L578 132 Z M661 750 L91 0 L159 0 L729 750 L661 750 Z " />
<glyph glyph-name="questiondown" unicode="&#xbf;" horiz-adv-x="440" d="M167 -100 C251 -100 328 -67 378 -22 L354 47 C308 7 255 -19 191 -19 C129 -19 91 6 91 63 C91 159 164 218 274 293 L292 465 L221 465 L195 321 C76 250 -4 164 -4 36 C-4 -52 53 -100 167 -100 L167 -100 Z M284 672 C241 672 218 648 218 609 C218 583 234 568 269 568 C313 568 338 591 338 631 C338 660 320 672 284 672 L284 672 Z " />
<glyph glyph-name="Agrave" unicode="&#xc0;" horiz-adv-x="641" d="M465 0 L574 0 L434 750 L316 750 L-33 0 L70 0 L151 187 L437 187 L465 0 Z M365 679 C366 665 368 652 370 638 L426 261 L183 261 L348 641 C354 654 359 666 363 679 L365 679 Z M423 795 L364 908 L251 908 L348 795 L423 795 Z " />
<glyph glyph-name="Aacute" unicode="&#xc1;" horiz-adv-x="641" d="M465 0 L574 0 L434 750 L316 750 L-33 0 L70 0 L151 187 L437 187 L465 0 Z M365 679 C366 665 368 652 370 638 L426 261 L183 261 L348 641 C354 654 359 666 363 679 L365 679 Z M418 908 L330 795 L404 795 L539 908 L418 908 Z " />
<glyph glyph-name="Acircumflex" unicode="&#xc2;" horiz-adv-x="641" d="M465 0 L574 0 L434 750 L316 750 L-33 0 L70 0 L151 187 L437 187 L465 0 Z M365 679 C366 665 368 652 370 638 L426 261 L183 261 L348 641 C354 654 359 666 363 679 L365 679 Z M339 909 L220 795 L304 795 L382 873 L439 795 L525 795 L434 909 L339 909 Z " />
<glyph glyph-name="Atilde" unicode="&#xc3;" horiz-adv-x="641" d="M465 0 L574 0 L434 750 L316 750 L-33 0 L70 0 L151 187 L437 187 L465 0 Z M365 679 C366 665 368 652 370 638 L426 261 L183 261 L348 641 C354 654 359 666 363 679 L365 679 Z M292 798 C301 826 315 845 333 845 C366 845 391 785 444 785 C493 785 527 826 539 885 L496 885 C485 852 472 837 454 837 C420 837 396 899 343 899 C293 899 259 858 246 798 L292 798 Z " />
<glyph glyph-name="Adieresis" unicode="&#xc4;" horiz-adv-x="641" d="M465 0 L574 0 L434 750 L316 750 L-33 0 L70 0 L151 187 L437 187 L465 0 Z M365 679 C366 665 368 652 370 638 L426 261 L183 261 L348 641 C354 654 359 666 363 679 L365 679 Z M304 889 C272 889 253 870 253 835 C253 811 266 803 292 803 C324 803 343 820 343 855 C343 877 330 889 304 889 L304 889 Z M480 889 C448 889 429 870 429 835 C429 811 442 803 468 803 C500 803 519 820 519 855 C519 877 506 889 480 889 L480 889 Z " />
<glyph glyph-name="Aring" unicode="&#xc5;" horiz-adv-x="641" d="M390 878 C318 878 284 839 284 786 C284 763 292 746 309 736 L-33 0 L70 0 L151 187 L437 187 L465 0 L574 0 L436 738 C463 753 478 778 478 814 C478 852 450 878 390 878 L390 878 Z M365 679 C366 665 368 652 370 638 L426 261 L183 261 L348 641 C353 654 359 666 363 679 L365 679 Z M387 837 C415 837 426 825 426 806 C426 778 409 762 376 762 C346 762 334 773 334 792 C334 819 351 837 387 837 L387 837 Z " />
<glyph glyph-name="AE" unicode="&#xc6;" horiz-adv-x="947" d="M941 670 L949 750 L463 750 L-12 0 L102 0 L213 188 L480 188 L469 0 L853 0 L867 80 L572 80 L586 354 L843 354 L854 428 L591 428 L604 670 L941 670 Z M485 262 L258 262 L488 648 C495 660 502 671 509 684 L511 684 L485 262 Z " />
<glyph glyph-name="Ccedilla" unicode="&#xc7;" horiz-adv-x="546" d="M177 -189 L264 -189 L321 -12 C373 -7 426 8 463 27 L462 101 C421 81 373 68 319 68 C205 68 149 113 149 258 C149 293 152 335 159 383 C192 612 262 681 403 681 C455 681 505 669 537 652 L559 729 C525 747 463 762 408 762 C204 762 96 648 58 383 C51 336 48 293 48 255 C48 83 115 0 256 -11 L177 -189 Z " />
<glyph glyph-name="Egrave" unicode="&#xc8;" horiz-adv-x="560" d="M145 80 L183 354 L458 354 L469 429 L194 429 L228 670 L549 670 L557 750 L142 750 L37 0 L467 0 L481 80 L145 80 Z M410 795 L351 908 L238 908 L335 795 L410 795 Z " />
<glyph glyph-name="Eacute" unicode="&#xc9;" horiz-adv-x="560" d="M145 80 L183 354 L458 354 L469 429 L194 429 L228 670 L549 670 L557 750 L142 750 L37 0 L467 0 L481 80 L145 80 Z M386 908 L298 795 L372 795 L507 908 L386 908 Z " />
<glyph glyph-name="Ecircumflex" unicode="&#xca;" horiz-adv-x="560" d="M145 80 L183 354 L458 354 L469 429 L194 429 L228 670 L549 670 L557 750 L142 750 L37 0 L467 0 L481 80 L145 80 Z M327 909 L208 795 L292 795 L370 873 L427 795 L513 795 L422 909 L327 909 Z " />
<glyph glyph-name="Edieresis" unicode="&#xcb;" horiz-adv-x="560" d="M145 80 L183 354 L458 354 L469 429 L194 429 L228 670 L549 670 L557 750 L142 750 L37 0 L467 0 L481 80 L145 80 Z M282 889 C250 889 231 870 231 835 C231 811 244 803 270 803 C302 803 321 820 321 855 C321 877 308 889 282 889 L282 889 Z M458 889 C426 889 407 870 407 835 C407 811 420 803 446 803 C478 803 497 820 497 855 C497 877 484 889 458 889 L458 889 Z " />
<glyph glyph-name="Igrave" unicode="&#xcc;" horiz-adv-x="295" d="M48 0 L148 0 L253 750 L153 750 L48 0 Z M258 795 L199 908 L86 908 L183 795 L258 795 Z " />
<glyph glyph-name="Iacute" unicode="&#xcd;" horiz-adv-x="295" d="M48 0 L148 0 L253 750 L153 750 L48 0 Z M247 908 L159 795 L233 795 L368 908 L247 908 Z " />
<glyph glyph-name="Icircumflex" unicode="&#xce;" horiz-adv-x="295" d="M48 0 L148 0 L253 750 L153 750 L48 0 Z M177 909 L58 795 L142 795 L220 873 L277 795 L363 795 L272 909 L177 909 Z " />
<glyph glyph-name="Idieresis" unicode="&#xcf;" horiz-adv-x="295" d="M48 0 L148 0 L253 750 L153 750 L48 0 Z M133 889 C101 889 82 870 82 835 C82 811 95 803 121 803 C153 803 172 820 172 855 C172 877 159 889 133 889 L133 889 Z M309 889 C277 889 258 870 258 835 C258 811 271 803 297 803 C329 803 348 820 348 855 C348 877 335 889 309 889 L309 889 Z " />
<glyph glyph-name="Eth" unicode="&#xd0;" horiz-adv-x="675" d="M150 750 L104 422 L39 422 L31 363 L96 363 L45 0 L276 0 C475 0 584 100 623 378 C629 423 633 464 633 500 C633 680 552 750 379 750 L150 750 Z M235 668 L367 668 C477 668 530 631 530 496 C530 463 527 424 521 379 C487 136 417 82 285 82 L153 82 L193 363 L289 363 L297 422 L201 422 L235 668 Z " />
<glyph glyph-name="Ntilde" unicode="&#xd1;" horiz-adv-x="684" d="M547 0 L652 750 L567 750 L492 216 C490 203 489 188 489 175 L487 175 L231 750 L142 750 L37 0 L122 0 L199 552 C201 565 202 580 203 593 L205 593 L476 0 L547 0 Z M310 798 C319 826 333 845 351 845 C384 845 409 785 462 785 C511 785 545 826 557 885 L514 885 C503 852 490 837 472 837 C438 837 414 899 361 899 C311 899 277 858 264 798 L310 798 Z " />
<glyph glyph-name="Ograve" unicode="&#xd2;" horiz-adv-x="670" d="M617 375 C625 428 628 475 628 516 C628 693 556 762 392 762 C191 762 97 658 57 375 C50 324 46 279 46 239 C46 59 120 -13 283 -13 C485 -13 577 90 617 375 L617 375 Z M516 375 C482 129 424 67 294 67 C194 67 146 104 146 236 C146 274 150 320 158 375 C193 622 251 682 380 682 C481 682 528 647 528 517 C528 479 524 431 516 375 L516 375 Z M455 795 L396 908 L283 908 L380 795 L455 795 Z " />
<glyph glyph-name="Oacute" unicode="&#xd3;" horiz-adv-x="670" d="M617 375 C625 428 628 475 628 516 C628 693 556 762 392 762 C191 762 97 658 57 375 C50 324 46 279 46 239 C46 59 120 -13 283 -13 C485 -13 577 90 617 375 L617 375 Z M516 375 C482 129 424 67 294 67 C194 67 146 104 146 236 C146 274 150 320 158 375 C193 622 251 682 380 682 C481 682 528 647 528 517 C528 479 524 431 516 375 L516 375 Z M428 908 L340 795 L414 795 L549 908 L428 908 Z " />
<glyph glyph-name="Ocircumflex" unicode="&#xd4;" horiz-adv-x="670" d="M617 375 C625 428 628 475 628 516 C628 693 556 762 392 762 C191 762 97 658 57 375 C50 324 46 279 46 239 C46 59 120 -13 283 -13 C485 -13 577 90 617 375 L617 375 Z M516 375 C482 129 424 67 294 67 C194 67 146 104 146 236 C146 274 150 320 158 375 C193 622 251 682 380 682 C481 682 528 647 528 517 C528 479 524 431 516 375 L516 375 Z M365 909 L246 795 L330 795 L408 873 L465 795 L551 795 L460 909 L365 909 Z " />
<glyph glyph-name="Otilde" unicode="&#xd5;" horiz-adv-x="670" d="M617 375 C625 428 628 475 628 516 C628 693 556 762 392 762 C191 762 97 658 57 375 C50 324 46 279 46 239 C46 59 120 -13 283 -13 C485 -13 577 90 617 375 L617 375 Z M516 375 C482 129 424 67 294 67 C194 67 146 104 146 236 C146 274 150 320 158 375 C193 622 251 682 380 682 C481 682 528 647 528 517 C528 479 524 431 516 375 L516 375 Z M294 798 C303 826 317 845 335 845 C368 845 393 785 446 785 C495 785 529 826 541 885 L498 885 C487 852 474 837 456 837 C422 837 398 899 345 899 C295 899 261 858 248 798 L294 798 Z " />
<glyph glyph-name="Odieresis" unicode="&#xd6;" horiz-adv-x="670" d="M617 375 C625 428 628 475 628 516 C628 693 556 762 392 762 C191 762 97 658 57 375 C50 324 46 279 46 239 C46 59 120 -13 283 -13 C485 -13 577 90 617 375 L617 375 Z M516 375 C482 129 424 67 294 67 C194 67 146 104 146 236 C146 274 150 320 158 375 C193 622 251 682 380 682 C481 682 528 647 528 517 C528 479 524 431 516 375 L516 375 Z M322 889 C290 889 271 870 271 835 C271 811 284 803 310 803 C342 803 361 820 361 855 C361 877 348 889 322 889 L322 889 Z M498 889 C466 889 447 870 447 835 C447 811 460 803 486 803 C518 803 537 820 537 855 C537 877 524 889 498 889 L498 889 Z " />
<glyph glyph-name="multiply" unicode="&#xd7;" horiz-adv-x="545" d="M460 201 L325 337 L462 473 L408 527 L273 391 L137 527 L83 473 L219 337 L84 201 L137 148 L272 284 L408 148 L460 201 Z " />
<glyph glyph-name="Oslash" unicode="&#xd8;" horiz-adv-x="671" d="M39 -13 L95 54 C134 8 196 -13 284 -13 C486 -13 578 90 618 375 C625 427 629 473 629 513 C629 560 624 599 614 632 L693 719 L649 760 L585 690 C548 740 485 762 393 762 C191 762 97 657 57 375 C50 324 46 278 46 238 C46 187 52 144 64 110 L-6 28 L39 -13 Z M160 375 C194 617 252 676 381 676 C449 676 492 659 513 607 L150 196 C149 210 149 225 149 242 C149 279 152 322 160 375 L160 375 Z M515 375 C481 134 425 73 296 73 C229 73 186 89 165 138 L527 548 C526 490 523 432 515 375 L515 375 Z " />
<glyph glyph-name="Ugrave" unicode="&#xd9;" horiz-adv-x="664" d="M645 750 L548 750 L478 251 C460 124 401 69 292 69 C198 69 152 108 152 200 C152 215 153 233 156 251 L226 750 L129 750 L59 254 C56 231 54 210 54 190 C54 49 134 -13 280 -13 C447 -13 549 68 575 254 L645 750 Z M447 795 L388 908 L275 908 L372 795 L447 795 Z " />
<glyph glyph-name="Uacute" unicode="&#xda;" horiz-adv-x="664" d="M645 750 L548 750 L478 251 C460 124 401 69 292 69 C198 69 152 108 152 200 C152 215 153 233 156 251 L226 750 L129 750 L59 254 C56 231 54 210 54 190 C54 49 134 -13 280 -13 C447 -13 549 68 575 254 L645 750 Z M424 908 L336 795 L410 795 L545 908 L424 908 Z " />
<glyph glyph-name="Ucircumflex" unicode="&#xdb;" horiz-adv-x="664" d="M645 750 L548 750 L478 251 C460 124 401 69 292 69 C198 69 152 108 152 200 C152 215 153 233 156 251 L226 750 L129 750 L59 254 C56 231 54 210 54 190 C54 49 134 -13 280 -13 C447 -13 549 68 575 254 L645 750 Z M361 909 L242 795 L326 795 L404 873 L461 795 L547 795 L456 909 L361 909 Z " />
<glyph glyph-name="Udieresis" unicode="&#xdc;" horiz-adv-x="664" d="M645 750 L548 750 L478 251 C460 124 401 69 292 69 C198 69 152 108 152 200 C152 215 153 233 156 251 L226 750 L129 750 L59 254 C56 231 54 210 54 190 C54 49 134 -13 280 -13 C447 -13 549 68 575 254 L645 750 Z M318 889 C286 889 267 870 267 835 C267 811 280 803 306 803 C338 803 357 820 357 855 C357 877 344 889 318 889 L318 889 Z M494 889 C462 889 443 870 443 835 C443 811 456 803 482 803 C514 803 533 820 533 855 C533 877 520 889 494 889 L494 889 Z " />
<glyph glyph-name="Yacute" unicode="&#xdd;" horiz-adv-x="605" d="M74 750 L240 255 L205 0 L304 0 L339 255 L641 750 L534 750 L324 378 C317 366 310 353 305 342 L303 342 C301 354 297 367 293 381 L184 750 L74 750 Z M396 908 L308 795 L382 795 L517 908 L396 908 Z " />
<glyph glyph-name="Thorn" unicode="&#xde;" horiz-adv-x="592" d="M220 615 L239 750 L142 750 L37 0 L134 0 L155 156 L265 156 C453 156 534 230 556 386 C559 407 560 426 560 444 C560 566 490 615 330 615 L220 615 Z M208 537 L319 537 C417 537 459 511 459 431 C459 418 458 403 456 387 C439 266 387 232 276 232 L165 232 L208 537 Z " />
<glyph glyph-name="germandbls" unicode="&#xdf;" horiz-adv-x="582" d="M41 89 C24 -33 -15 -71 -104 -87 L-106 -151 C28 -135 108 -74 132 89 L194 520 C211 637 256 689 339 689 C385 689 413 667 413 635 C413 546 255 486 255 407 C255 324 427 297 427 189 C427 108 360 70 285 70 C240 70 198 83 172 105 L155 29 C187 3 242 -8 289 -8 C415 -8 522 68 522 202 C522 339 354 371 354 422 C354 471 503 534 503 644 C503 712 445 763 352 763 C207 763 124 674 101 513 L41 89 Z " />
<glyph glyph-name="agrave" unicode="&#xe0;" horiz-adv-x="548" d="M360 605 C161 605 24 446 24 175 C24 43 77 -9 177 -9 C246 -9 310 20 356 82 L358 81 C356 68 356 53 356 40 L357 0 L428 0 L511 597 L500 597 C451 597 421 605 360 605 L360 605 Z M207 64 C147 64 116 94 116 182 C116 206 118 235 123 269 C149 449 227 531 347 531 C371 531 391 529 411 527 L370 239 C354 129 288 64 207 64 L207 64 Z M423 666 L381 806 L273 806 L353 666 L423 666 Z " />
<glyph glyph-name="aacute" unicode="&#xe1;" horiz-adv-x="548" d="M360 605 C161 605 24 446 24 175 C24 43 77 -9 177 -9 C246 -9 310 20 356 82 L358 81 C356 68 356 53 356 40 L357 0 L428 0 L511 597 L500 597 C451 597 421 605 360 605 L360 605 Z M207 64 C147 64 116 94 116 182 C116 206 118 235 123 269 C149 449 227 531 347 531 C371 531 391 529 411 527 L370 239 C354 129 288 64 207 64 L207 64 Z M395 806 L309 666 L380 666 L505 806 L395 806 Z " />
<glyph glyph-name="acircumflex" unicode="&#xe2;" horiz-adv-x="548" d="M360 605 C161 605 24 446 24 175 C24 43 77 -9 177 -9 C246 -9 310 20 356 82 L358 81 C356 68 356 53 356 40 L357 0 L428 0 L511 597 L500 597 C451 597 421 605 360 605 L360 605 Z M207 64 C147 64 116 94 116 182 C116 206 118 235 123 269 C149 449 227 531 347 531 C371 531 391 529 411 527 L370 239 C354 129 288 64 207 64 L207 64 Z M325 806 L211 666 L280 666 L334 735 C342 745 350 757 358 768 L360 768 C365 756 371 742 377 731 L411 666 L481 666 L404 806 L325 806 Z " />
<glyph glyph-name="atilde" unicode="&#xe3;" horiz-adv-x="548" d="M360 605 C161 605 24 446 24 175 C24 43 77 -9 177 -9 C246 -9 310 20 356 82 L358 81 C356 68 356 53 356 40 L357 0 L428 0 L511 597 L500 597 C451 597 421 605 360 605 L360 605 Z M207 64 C147 64 116 94 116 182 C116 206 118 235 123 269 C149 449 227 531 347 531 C371 531 391 529 411 527 L370 239 C354 129 288 64 207 64 L207 64 Z M426 676 C474 676 510 720 524 789 L471 789 C461 752 449 733 430 733 C396 733 381 798 325 798 C278 798 241 754 226 685 L279 685 C290 722 303 741 321 741 C355 741 371 676 426 676 L426 676 Z " />
<glyph glyph-name="adieresis" unicode="&#xe4;" horiz-adv-x="548" d="M360 605 C161 605 24 446 24 175 C24 43 77 -9 177 -9 C246 -9 310 20 356 82 L358 81 C356 68 356 53 356 40 L357 0 L428 0 L511 597 L500 597 C451 597 421 605 360 605 L360 605 Z M207 64 C147 64 116 94 116 182 C116 206 118 235 123 269 C149 449 227 531 347 531 C371 531 391 529 411 527 L370 239 C354 129 288 64 207 64 L207 64 Z M297 796 C265 796 247 774 247 738 C247 715 260 705 285 705 C317 705 337 723 337 760 C337 783 323 796 297 796 L297 796 Z M448 796 C416 796 397 774 397 738 C397 715 411 705 436 705 C468 705 488 723 488 760 C488 783 474 796 448 796 L448 796 Z " />
<glyph glyph-name="aring" unicode="&#xe5;" horiz-adv-x="548" d="M360 605 C161 605 24 446 24 175 C24 43 77 -9 177 -9 C246 -9 310 20 356 82 L358 81 C356 68 356 53 356 40 L357 0 L428 0 L511 597 L500 597 C451 597 421 605 360 605 L360 605 Z M207 64 C147 64 116 94 116 182 C116 206 118 235 123 269 C149 449 227 531 347 531 C371 531 391 529 411 527 L370 239 C354 129 288 64 207 64 L207 64 Z M367 821 C297 821 259 783 259 732 C259 691 290 670 346 670 C411 670 453 701 453 756 C453 794 424 821 367 821 L367 821 Z M363 785 C393 785 406 771 406 751 C406 722 386 705 352 705 C321 705 306 718 306 739 C306 765 326 785 363 785 L363 785 Z " />
<glyph glyph-name="ae" unicode="&#xe6;" horiz-adv-x="815" d="M354 605 C173 605 24 467 24 174 C24 42 76 -9 175 -9 C264 -9 342 35 386 128 L388 128 C404 28 461 -9 551 -9 C634 -9 700 20 745 63 L719 118 C681 83 633 65 577 65 C502 65 460 96 460 204 C460 220 461 237 463 256 C702 291 797 374 797 486 C797 560 744 607 646 607 C576 607 522 584 483 538 L481 539 L488 584 C453 594 414 605 354 605 L354 605 Z M207 64 C147 64 117 93 117 180 C117 206 120 237 125 274 C150 449 227 534 350 534 C373 534 392 531 411 529 L370 239 C354 129 288 64 207 64 L207 64 Z M640 537 C692 537 715 513 715 477 C715 406 655 350 472 324 C499 478 553 537 640 537 L640 537 Z " />
<glyph glyph-name="ccedilla" unicode="&#xe7;" horiz-adv-x="448" d="M103 -189 L190 -189 L248 -7 C301 1 343 24 381 62 L355 116 C321 83 281 64 230 64 C162 64 120 95 120 203 C120 229 123 261 128 297 C152 464 211 529 311 529 C352 529 378 522 409 507 L443 572 C404 595 361 606 308 606 C159 606 65 508 36 300 C31 262 28 228 28 198 C28 56 86 -2 183 -9 L103 -189 Z " />
<glyph glyph-name="egrave" unicode="&#xe8;" horiz-adv-x="473" d="M304 607 C156 607 65 506 36 300 C31 264 28 231 28 202 C28 47 99 -9 209 -9 C292 -9 357 20 403 63 L377 118 C339 83 290 65 234 65 C160 65 119 95 119 201 C119 218 120 238 122 259 C363 295 455 372 455 489 C455 559 405 607 304 607 L304 607 Z M294 537 C348 537 374 512 374 476 C374 404 308 349 130 324 C155 470 204 537 294 537 L294 537 Z M360 666 L318 806 L210 806 L290 666 L360 666 Z " />
<glyph glyph-name="eacute" unicode="&#xe9;" horiz-adv-x="473" d="M304 607 C156 607 65 506 36 300 C31 264 28 231 28 202 C28 47 99 -9 209 -9 C292 -9 357 20 403 63 L377 118 C339 83 290 65 234 65 C160 65 119 95 119 201 C119 218 120 238 122 259 C363 295 455 372 455 489 C455 559 405 607 304 607 L304 607 Z M294 537 C348 537 374 512 374 476 C374 404 308 349 130 324 C155 470 204 537 294 537 L294 537 Z M340 806 L254 666 L325 666 L450 806 L340 806 Z " />
<glyph glyph-name="ecircumflex" unicode="&#xea;" horiz-adv-x="473" d="M304 607 C156 607 65 506 36 300 C31 264 28 231 28 202 C28 47 99 -9 209 -9 C292 -9 357 20 403 63 L377 118 C339 83 290 65 234 65 C160 65 119 95 119 201 C119 218 120 238 122 259 C363 295 455 372 455 489 C455 559 405 607 304 607 L304 607 Z M294 537 C348 537 374 512 374 476 C374 404 308 349 130 324 C155 470 204 537 294 537 L294 537 Z M281 806 L167 666 L236 666 L290 735 C298 745 306 757 314 768 L316 768 C321 756 327 742 333 731 L367 666 L437 666 L360 806 L281 806 Z " />
<glyph glyph-name="edieresis" unicode="&#xeb;" horiz-adv-x="473" d="M304 607 C156 607 65 506 36 300 C31 264 28 231 28 202 C28 47 99 -9 209 -9 C292 -9 357 20 403 63 L377 118 C339 83 290 65 234 65 C160 65 119 95 119 201 C119 218 120 238 122 259 C363 295 455 372 455 489 C455 559 405 607 304 607 L304 607 Z M294 537 C348 537 374 512 374 476 C374 404 308 349 130 324 C155 470 204 537 294 537 L294 537 Z M240 796 C208 796 190 774 190 738 C190 715 203 705 228 705 C260 705 280 723 280 760 C280 783 266 796 240 796 L240 796 Z M391 796 C359 796 340 774 340 738 C340 715 354 705 379 705 C411 705 431 723 431 760 C431 783 417 796 391 796 L391 796 Z " />
<glyph glyph-name="igrave" unicode="&#xec;" horiz-adv-x="251" d="M122 0 L206 599 L113 594 L30 0 L122 0 Z M211 666 L169 806 L61 806 L141 666 L211 666 Z " />
<glyph glyph-name="iacute" unicode="&#xed;" horiz-adv-x="251" d="M122 0 L206 599 L113 594 L30 0 L122 0 Z M214 806 L128 666 L199 666 L324 806 L214 806 Z " />
<glyph glyph-name="icircumflex" unicode="&#xee;" horiz-adv-x="251" d="M122 0 L206 599 L113 594 L30 0 L122 0 Z M150 806 L36 666 L105 666 L159 735 C167 745 175 757 183 768 L185 768 C190 756 196 742 202 731 L236 666 L306 666 L229 806 L150 806 Z " />
<glyph glyph-name="idieresis" unicode="&#xef;" horiz-adv-x="251" d="M122 0 L206 599 L113 594 L30 0 L122 0 Z M110 796 C78 796 60 774 60 738 C60 715 73 705 98 705 C130 705 150 723 150 760 C150 783 136 796 110 796 L110 796 Z M261 796 C229 796 210 774 210 738 C210 715 224 705 249 705 C281 705 301 723 301 760 C301 783 287 796 261 796 L261 796 Z " />
<glyph glyph-name="eth" unicode="&#xf0;" horiz-adv-x="558" d="M478 766 L449 805 L366 745 C344 769 320 790 295 806 L225 765 C253 745 280 724 303 700 L218 639 L249 605 L335 665 C367 626 392 582 410 535 L408 534 C376 559 335 571 285 571 C143 571 62 489 34 290 C29 254 27 222 27 194 C27 36 107 -11 224 -11 C394 -11 471 82 511 336 C514 354 515 373 515 391 C515 509 465 624 398 709 L478 766 Z M296 496 C378 496 418 453 418 366 C418 350 417 334 414 315 C388 134 334 63 236 63 C163 63 121 90 121 197 C121 222 123 252 128 287 C150 442 198 496 296 496 L296 496 Z " />
<glyph glyph-name="ntilde" unicode="&#xf1;" horiz-adv-x="552" d="M349 0 L440 0 L494 391 C497 413 498 433 498 452 C498 558 450 607 356 607 C281 607 219 576 176 519 L173 520 C174 533 174 547 174 560 L174 599 L102 594 L19 0 L110 0 L159 352 C175 464 240 529 323 529 C379 529 407 507 407 439 C407 424 406 407 403 388 L349 0 Z M384 676 C432 676 468 720 482 789 L429 789 C419 752 407 733 388 733 C354 733 339 798 283 798 C236 798 199 754 184 685 L237 685 C248 722 261 741 279 741 C313 741 329 676 384 676 L384 676 Z " />
<glyph glyph-name="ograve" unicode="&#xf2;" horiz-adv-x="535" d="M292 533 C364 533 400 503 400 403 C400 374 397 340 391 299 C365 115 319 61 224 61 C153 61 119 91 119 189 C119 218 122 253 128 296 C154 479 199 533 292 533 L292 533 Z M305 607 C143 607 66 516 36 300 C30 258 27 221 27 188 C27 49 83 -10 213 -10 C375 -10 452 81 482 297 C488 339 491 376 491 409 C491 548 435 607 305 607 L305 607 Z M366 666 L324 806 L216 806 L296 666 L366 666 Z " />
<glyph glyph-name="oacute" unicode="&#xf3;" horiz-adv-x="535" d="M292 533 C364 533 400 503 400 403 C400 374 397 340 391 299 C365 115 319 61 224 61 C153 61 119 91 119 189 C119 218 122 253 128 296 C154 479 199 533 292 533 L292 533 Z M305 607 C143 607 66 516 36 300 C30 258 27 221 27 188 C27 49 83 -10 213 -10 C375 -10 452 81 482 297 C488 339 491 376 491 409 C491 548 435 607 305 607 L305 607 Z M344 806 L258 666 L329 666 L454 806 L344 806 Z " />
<glyph glyph-name="ocircumflex" unicode="&#xf4;" horiz-adv-x="535" d="M292 533 C364 533 400 503 400 403 C400 374 397 340 391 299 C365 115 319 61 224 61 C153 61 119 91 119 189 C119 218 122 253 128 296 C154 479 199 533 292 533 L292 533 Z M305 607 C143 607 66 516 36 300 C30 258 27 221 27 188 C27 49 83 -10 213 -10 C375 -10 452 81 482 297 C488 339 491 376 491 409 C491 548 435 607 305 607 L305 607 Z M293 806 L179 666 L248 666 L302 735 C310 745 318 757 326 768 L328 768 C333 756 339 742 345 731 L379 666 L449 666 L372 806 L293 806 Z " />
<glyph glyph-name="otilde" unicode="&#xf5;" horiz-adv-x="535" d="M292 533 C364 533 400 503 400 403 C400 374 397 340 391 299 C365 115 319 61 224 61 C153 61 119 91 119 189 C119 218 122 253 128 296 C154 479 199 533 292 533 L292 533 Z M305 607 C143 607 66 516 36 300 C30 258 27 221 27 188 C27 49 83 -10 213 -10 C375 -10 452 81 482 297 C488 339 491 376 491 409 C491 548 435 607 305 607 L305 607 Z M378 676 C426 676 462 720 476 789 L423 789 C413 752 401 733 382 733 C348 733 333 798 277 798 C230 798 193 754 178 685 L231 685 C242 722 255 741 273 741 C307 741 323 676 378 676 L378 676 Z " />
<glyph glyph-name="odieresis" unicode="&#xf6;" horiz-adv-x="535" d="M292 533 C364 533 400 503 400 403 C400 374 397 340 391 299 C365 115 319 61 224 61 C153 61 119 91 119 189 C119 218 122 253 128 296 C154 479 199 533 292 533 L292 533 Z M305 607 C143 607 66 516 36 300 C30 258 27 221 27 188 C27 49 83 -10 213 -10 C375 -10 452 81 482 297 C488 339 491 376 491 409 C491 548 435 607 305 607 L305 607 Z M253 796 C221 796 203 774 203 738 C203 715 216 705 241 705 C273 705 293 723 293 760 C293 783 279 796 253 796 L253 796 Z M404 796 C372 796 353 774 353 738 C353 715 367 705 392 705 C424 705 444 723 444 760 C444 783 430 796 404 796 L404 796 Z " />
<glyph glyph-name="divide" unicode="&#xf7;" horiz-adv-x="545" d="M272 549 C234 549 209 531 209 497 C209 458 233 446 272 446 C310 446 334 463 334 497 C334 530 311 549 272 549 L272 549 Z M272 235 C234 235 209 218 209 183 C209 146 232 133 272 133 C311 133 334 149 334 183 C332 220 303 235 272 235 L272 235 Z M486 301 L486 381 L57 381 L57 301 L486 301 Z " />
<glyph glyph-name="oslash" unicode="&#xf8;" horiz-adv-x="535" d="M305 607 C143 607 66 516 36 300 C30 257 27 219 27 186 C27 149 31 117 39 91 L-13 30 L22 -4 L65 44 C94 7 143 -10 213 -10 C375 -10 452 81 482 297 C488 338 491 374 491 406 C491 444 487 476 478 503 L531 566 L496 600 L454 551 C424 589 376 607 305 607 L305 607 Z M391 299 C365 115 319 61 224 61 C172 61 139 77 126 124 L400 417 C400 378 396 341 391 299 L391 299 Z M292 533 C344 533 377 517 392 470 L119 179 L119 190 C119 223 123 257 128 296 C154 479 199 533 292 533 L292 533 Z " />
<glyph glyph-name="ugrave" unicode="&#xf9;" horiz-adv-x="541" d="M512 596 L421 596 L364 187 C352 105 306 66 229 66 C161 66 127 96 127 157 C127 166 127 176 129 187 L187 599 L95 594 L38 188 C36 173 35 158 35 145 C35 45 95 -11 218 -11 C359 -11 437 59 455 188 L512 596 Z M371 666 L329 806 L221 806 L301 666 L371 666 Z " />
<glyph glyph-name="uacute" unicode="&#xfa;" horiz-adv-x="541" d="M512 596 L421 596 L364 187 C352 105 306 66 229 66 C161 66 127 96 127 157 C127 166 127 176 129 187 L187 599 L95 594 L38 188 C36 173 35 158 35 145 C35 45 95 -11 218 -11 C359 -11 437 59 455 188 L512 596 Z M347 806 L261 666 L332 666 L457 806 L347 806 Z " />
<glyph glyph-name="ucircumflex" unicode="&#xfb;" horiz-adv-x="541" d="M512 596 L421 596 L364 187 C352 105 306 66 229 66 C161 66 127 96 127 157 C127 166 127 176 129 187 L187 599 L95 594 L38 188 C36 173 35 158 35 145 C35 45 95 -11 218 -11 C359 -11 437 59 455 188 L512 596 Z M292 806 L178 666 L247 666 L301 735 C309 745 317 757 325 768 L327 768 C332 756 338 742 344 731 L378 666 L448 666 L371 806 L292 806 Z " />
<glyph glyph-name="udieresis" unicode="&#xfc;" horiz-adv-x="541" d="M512 596 L421 596 L364 187 C352 105 306 66 229 66 C161 66 127 96 127 157 C127 166 127 176 129 187 L187 599 L95 594 L38 188 C36 173 35 158 35 145 C35 45 95 -11 218 -11 C359 -11 437 59 455 188 L512 596 Z M252 796 C220 796 202 774 202 738 C202 715 215 705 240 705 C272 705 292 723 292 760 C292 783 278 796 252 796 L252 796 Z M403 796 C371 796 352 774 352 738 C352 715 366 705 391 705 C423 705 443 723 443 760 C443 783 429 796 403 796 L403 796 Z " />
<glyph glyph-name="yacute" unicode="&#xfd;" horiz-adv-x="531" d="M424 597 C381 414 321 268 255 153 L253 153 C251 166 248 180 245 193 L157 599 L58 592 L188 69 C145 11 99 -34 33 -81 L65 -147 C285 -7 434 275 513 597 L424 597 Z M343 806 L257 666 L328 666 L453 806 L343 806 Z " />
<glyph glyph-name="thorn" unicode="&#xfe;" horiz-adv-x="552" d="M360 606 C293 606 233 580 188 528 L187 529 C190 541 192 556 194 569 L226 799 L135 792 L3 -144 L93 -144 L112 -10 C114 3 116 18 117 31 L119 32 C152 5 198 -9 253 -9 C386 -9 469 85 499 297 C505 343 509 383 509 417 C509 558 456 606 360 606 L360 606 Z M327 531 C382 531 416 504 416 404 C416 375 413 341 407 299 C383 130 330 65 235 65 C192 65 154 79 128 101 L162 346 C178 461 245 531 327 531 L327 531 Z " />
<glyph glyph-name="ydieresis" unicode="&#xff;" horiz-adv-x="531" d="M424 597 C381 414 321 268 255 153 L253 153 C251 166 248 180 245 193 L157 599 L58 592 L188 69 C145 11 99 -34 33 -81 L65 -147 C285 -7 434 275 513 597 L424 597 Z M252 796 C220 796 202 774 202 738 C202 715 215 705 240 705 C272 705 292 723 292 760 C292 783 278 796 252 796 L252 796 Z M403 796 C371 796 352 774 352 738 C352 715 366 705 391 705 C423 705 443 723 443 760 C443 783 429 796 403 796 L403 796 Z " />
<glyph glyph-name="Amacron" unicode="&#x100;" horiz-adv-x="641" d="M465 0 L574 0 L434 750 L316 750 L-33 0 L70 0 L151 187 L437 187 L465 0 Z M365 679 C366 665 368 652 370 638 L426 261 L183 261 L348 641 C354 654 359 666 363 679 L365 679 Z M516 862 L251 862 L244 815 L509 815 L516 862 Z " />
<glyph glyph-name="amacron" unicode="&#x101;" horiz-adv-x="548" d="M360 605 C161 605 24 446 24 175 C24 43 77 -9 177 -9 C246 -9 310 20 356 82 L358 81 C356 68 356 53 356 40 L357 0 L428 0 L511 597 L500 597 C451 597 421 605 360 605 L360 605 Z M207 64 C147 64 116 94 116 182 C116 206 118 235 123 269 C149 449 227 531 347 531 C371 531 391 529 411 527 L370 239 C354 129 288 64 207 64 L207 64 Z M490 768 L226 768 L219 713 L483 713 L490 768 Z " />
<glyph glyph-name="Abreve" unicode="&#x102;" horiz-adv-x="641" d="M465 0 L574 0 L434 750 L316 750 L-33 0 L70 0 L151 187 L437 187 L465 0 Z M365 679 C366 665 368 652 370 638 L426 261 L183 261 L348 641 C354 654 359 666 363 679 L365 679 Z M464 910 C457 859 425 840 381 840 C343 840 313 855 313 896 C313 901 313 905 314 910 L246 910 C245 902 244 895 244 888 C244 825 286 792 374 792 C471 792 523 835 533 910 L464 910 Z " />
<glyph glyph-name="abreve" unicode="&#x103;" horiz-adv-x="548" d="M360 605 C161 605 24 446 24 175 C24 43 77 -9 177 -9 C246 -9 310 20 356 82 L358 81 C356 68 356 53 356 40 L357 0 L428 0 L511 597 L500 597 C451 597 421 605 360 605 L360 605 Z M207 64 C147 64 116 94 116 182 C116 206 118 235 123 269 C149 449 227 531 347 531 C371 531 391 529 411 527 L370 239 C354 129 288 64 207 64 L207 64 Z M437 806 C427 738 396 707 356 707 C322 707 300 729 300 777 C300 786 300 796 302 806 L240 806 C238 792 237 779 237 767 C237 697 272 658 349 658 C438 658 487 713 500 806 L437 806 Z " />
<glyph glyph-name="Aogonek" unicode="&#x104;" horiz-adv-x="641" d="M465 0 L476 0 C438 -22 411 -63 411 -107 C411 -150 441 -177 503 -177 C536 -177 565 -168 591 -154 L589 -107 C571 -117 554 -121 534 -121 C500 -121 485 -106 485 -82 C485 -46 519 0 560 0 L574 0 L434 750 L316 750 L-33 0 L70 0 L151 187 L437 187 L465 0 Z M365 679 C366 665 368 652 370 638 L426 261 L182 261 L348 641 C353 654 359 666 363 679 L365 679 Z " />
<glyph glyph-name="aogonek" unicode="&#x105;" horiz-adv-x="548" d="M371 -175 C404 -175 433 -167 459 -153 L458 -107 C440 -116 422 -121 401 -121 C368 -121 355 -107 355 -86 C355 -52 378 -19 424 0 L428 0 L511 597 L500 597 C451 597 421 605 360 605 C161 605 24 446 24 175 C24 43 77 -9 177 -9 C246 -9 310 20 356 82 L358 81 C356 68 356 53 356 40 L357 6 C310 -22 282 -65 282 -109 C282 -147 307 -175 371 -175 L371 -175 Z M207 64 C147 64 116 94 116 182 C116 206 118 235 123 269 C149 449 227 531 347 531 C371 531 391 529 411 527 L370 239 C354 129 288 64 207 64 L207 64 Z " />
<glyph glyph-name="Cacute" unicode="&#x106;" horiz-adv-x="546" d="M408 762 C204 762 96 648 58 383 C51 336 48 293 48 255 C48 68 128 -13 295 -13 C354 -13 419 5 463 27 L462 101 C421 81 373 68 319 68 C205 68 149 113 149 258 C149 293 152 335 159 383 C192 612 262 681 403 681 C455 681 505 669 537 652 L559 729 C525 747 463 762 408 762 L408 762 Z M423 908 L335 795 L409 795 L544 908 L423 908 Z " />
<glyph glyph-name="cacute" unicode="&#x107;" horiz-adv-x="448" d="M308 606 C159 606 65 508 36 300 C31 262 28 229 28 199 C28 47 95 -10 204 -10 C277 -10 333 14 381 62 L355 116 C321 83 281 64 230 64 C162 64 120 95 120 203 C120 229 123 261 128 297 C152 464 211 529 311 529 C352 529 378 522 409 507 L443 572 C404 595 361 606 308 606 L308 606 Z M337 806 L251 666 L322 666 L447 806 L337 806 Z " />
<glyph glyph-name="Ccircumflex" unicode="&#x108;" horiz-adv-x="546" d="M408 762 C204 762 96 648 58 383 C51 336 48 293 48 255 C48 68 128 -13 295 -13 C354 -13 419 5 463 27 L462 101 C421 81 373 68 319 68 C205 68 149 113 149 258 C149 293 152 335 159 383 C192 612 262 681 403 681 C455 681 505 669 537 652 L559 729 C525 747 463 762 408 762 L408 762 Z M358 909 L239 795 L323 795 L401 873 L458 795 L544 795 L453 909 L358 909 Z " />
<glyph glyph-name="ccircumflex" unicode="&#x109;" horiz-adv-x="448" d="M308 606 C159 606 65 508 36 300 C31 262 28 229 28 199 C28 47 95 -10 204 -10 C277 -10 333 14 381 62 L355 116 C321 83 281 64 230 64 C162 64 120 95 120 203 C120 229 123 261 128 297 C152 464 211 529 311 529 C352 529 378 522 409 507 L443 572 C404 595 361 606 308 606 L308 606 Z M280 806 L166 666 L235 666 L289 735 C297 745 305 757 313 768 L315 768 C320 756 326 742 332 731 L366 666 L436 666 L359 806 L280 806 Z " />
<glyph glyph-name="Cdotaccent" unicode="&#x10a;" horiz-adv-x="546" d="M408 762 C204 762 96 648 58 383 C51 336 48 293 48 255 C48 68 128 -13 295 -13 C354 -13 419 5 463 27 L462 101 C421 81 373 68 319 68 C205 68 149 113 149 258 C149 293 152 335 159 383 C192 612 262 681 403 681 C455 681 505 669 537 652 L559 729 C525 747 463 762 408 762 L408 762 Z M405 889 C358 889 338 871 338 836 C338 811 354 801 393 801 C439 801 459 818 459 854 C459 877 443 889 405 889 L405 889 Z " />
<glyph glyph-name="cdotaccent" unicode="&#x10b;" horiz-adv-x="448" d="M308 606 C159 606 65 508 36 300 C31 262 28 229 28 199 C28 47 95 -10 204 -10 C277 -10 333 14 381 62 L355 116 C321 83 281 64 230 64 C162 64 120 95 120 203 C120 229 123 261 128 297 C152 464 211 529 311 529 C352 529 378 522 409 507 L443 572 C404 595 361 606 308 606 L308 606 Z M329 797 C286 797 262 776 262 738 C262 711 280 701 315 701 C356 701 380 719 380 758 C380 783 364 797 329 797 L329 797 Z " />
<glyph glyph-name="Ccaron" unicode="&#x10c;" horiz-adv-x="546" d="M408 762 C204 762 96 648 58 383 C51 336 48 293 48 255 C48 68 128 -13 295 -13 C354 -13 419 5 463 27 L462 101 C421 81 373 68 319 68 C205 68 149 113 149 258 C149 293 152 335 159 383 C192 612 262 681 403 681 C455 681 505 669 537 652 L559 729 C525 747 463 762 408 762 L408 762 Z M453 795 L573 909 L490 909 L410 830 L354 909 L269 909 L357 795 L453 795 Z " />
<glyph glyph-name="ccaron" unicode="&#x10d;" horiz-adv-x="448" d="M308 606 C159 606 65 508 36 300 C31 262 28 229 28 199 C28 47 95 -10 204 -10 C277 -10 333 14 381 62 L355 116 C321 83 281 64 230 64 C162 64 120 95 120 203 C120 229 123 261 128 297 C152 464 211 529 311 529 C352 529 378 522 409 507 L443 572 C404 595 361 606 308 606 L308 606 Z M338 666 L454 806 L383 806 L328 733 C320 722 312 711 305 700 L303 700 C298 712 294 723 287 737 L254 806 L184 806 L259 666 L338 666 Z " />
<glyph glyph-name="Dcaron" unicode="&#x10e;" horiz-adv-x="666" d="M142 750 L37 0 L268 0 C467 0 576 100 615 378 C621 423 625 464 625 500 C625 680 544 750 371 750 L142 750 Z M227 668 L359 668 C469 668 522 631 522 496 C522 463 519 424 513 379 C479 136 409 82 277 82 L145 82 L227 668 Z M392 795 L512 909 L429 909 L349 830 L293 909 L208 909 L296 795 L392 795 Z " />
<glyph glyph-name="dcaron" unicode="&#x10f;" horiz-adv-x="550" d="M313 606 C147 606 26 475 26 181 C26 40 79 -9 175 -9 C244 -9 307 19 352 77 L354 76 C354 63 354 48 355 35 L358 0 L428 0 L540 799 L448 793 L420 591 C388 600 353 606 313 606 L313 606 Z M207 64 C151 64 119 90 119 187 C119 215 121 249 127 289 C151 459 212 531 315 531 C353 531 383 526 409 516 L370 239 C354 129 287 64 207 64 L207 64 Z M660 807 C623 807 605 786 605 761 C605 743 618 731 639 731 C628 707 613 685 597 660 L620 648 C662 689 703 736 703 770 C703 791 690 807 660 807 L660 807 Z " />
<glyph glyph-name="Dcroat" unicode="&#x110;" horiz-adv-x="675" d="M150 750 L104 422 L39 422 L31 363 L96 363 L45 0 L276 0 C475 0 584 100 623 378 C629 423 633 464 633 500 C633 680 552 750 379 750 L150 750 Z M235 668 L367 668 C477 668 530 631 530 496 C530 463 527 424 521 379 C487 136 417 82 285 82 L153 82 L193 363 L289 363 L297 422 L201 422 L235 668 Z " />
<glyph glyph-name="dcroat" unicode="&#x111;" horiz-adv-x="570" d="M313 606 C147 606 26 475 26 181 C26 40 79 -9 175 -9 C244 -9 307 19 352 77 L354 76 C354 63 354 48 355 35 L358 0 L428 0 L521 664 L588 664 L595 714 L528 714 L540 799 L448 793 L437 714 L344 714 L337 664 L430 664 L420 591 C388 600 353 606 313 606 L313 606 Z M207 64 C151 64 119 90 119 187 C119 215 121 249 127 289 C151 459 212 531 315 531 C353 531 383 526 409 516 L370 239 C354 129 287 64 207 64 L207 64 Z " />
<glyph glyph-name="Emacron" unicode="&#x112;" horiz-adv-x="560" d="M145 80 L183 354 L458 354 L469 429 L194 429 L228 670 L549 670 L557 750 L142 750 L37 0 L467 0 L481 80 L145 80 Z M496 862 L231 862 L224 815 L489 815 L496 862 Z " />
<glyph glyph-name="emacron" unicode="&#x113;" horiz-adv-x="473" d="M304 607 C156 607 65 506 36 300 C31 264 28 231 28 202 C28 47 99 -9 209 -9 C292 -9 357 20 403 63 L377 118 C339 83 290 65 234 65 C160 65 119 95 119 201 C119 218 120 238 122 259 C363 295 455 372 455 489 C455 559 405 607 304 607 L304 607 Z M294 537 C348 537 374 512 374 476 C374 404 308 349 130 324 C155 470 204 537 294 537 L294 537 Z M447 768 L183 768 L176 713 L440 713 L447 768 Z " />
<glyph glyph-name="Ebreve" unicode="&#x114;" horiz-adv-x="560" d="M145 80 L183 354 L458 354 L469 429 L194 429 L228 670 L549 670 L557 750 L142 750 L37 0 L467 0 L481 80 L145 80 Z M451 910 C444 859 412 840 368 840 C330 840 300 855 300 896 C300 901 300 905 301 910 L233 910 C232 902 231 895 231 888 C231 825 273 792 361 792 C458 792 510 835 520 910 L451 910 Z " />
<glyph glyph-name="ebreve" unicode="&#x115;" horiz-adv-x="473" d="M304 607 C156 607 65 506 36 300 C31 264 28 231 28 202 C28 47 99 -9 209 -9 C292 -9 357 20 403 63 L377 118 C339 83 290 65 234 65 C160 65 119 95 119 201 C119 218 120 238 122 259 C363 295 455 372 455 489 C455 559 405 607 304 607 L304 607 Z M294 537 C348 537 374 512 374 476 C374 404 308 349 130 324 C155 470 204 537 294 537 L294 537 Z M389 806 C379 738 348 707 308 707 C274 707 252 729 252 777 C252 786 252 796 254 806 L192 806 C190 792 189 779 189 767 C189 697 224 658 301 658 C390 658 439 713 452 806 L389 806 Z " />
<glyph glyph-name="Edotaccent" unicode="&#x116;" horiz-adv-x="560" d="M145 80 L183 354 L458 354 L469 429 L194 429 L228 670 L549 670 L557 750 L142 750 L37 0 L467 0 L481 80 L145 80 Z M372 889 C325 889 305 871 305 836 C305 811 321 801 360 801 C406 801 426 818 426 854 C426 877 410 889 372 889 L372 889 Z " />
<glyph glyph-name="edotaccent" unicode="&#x117;" horiz-adv-x="473" d="M304 607 C156 607 65 506 36 300 C31 264 28 231 28 202 C28 47 99 -9 209 -9 C292 -9 357 20 403 63 L377 118 C339 83 290 65 234 65 C160 65 119 95 119 201 C119 218 120 238 122 259 C363 295 455 372 455 489 C455 559 405 607 304 607 L304 607 Z M294 537 C348 537 374 512 374 476 C374 404 308 349 130 324 C155 470 204 537 294 537 L294 537 Z M331 797 C288 797 264 776 264 738 C264 711 282 701 317 701 C358 701 382 719 382 758 C382 783 366 797 331 797 L331 797 Z " />
<glyph glyph-name="Eogonek" unicode="&#x118;" horiz-adv-x="560" d="M145 80 L183 354 L458 354 L469 429 L194 429 L228 670 L549 670 L557 750 L142 750 L37 0 L343 0 C305 -22 278 -63 278 -107 C278 -150 308 -177 370 -177 C403 -177 432 -168 458 -154 L456 -107 C438 -117 421 -121 401 -121 C367 -121 352 -106 352 -82 C352 -46 386 0 427 0 L467 0 L481 80 L145 80 Z " />
<glyph glyph-name="eogonek" unicode="&#x119;" horiz-adv-x="473" d="M212 -175 C245 -175 274 -167 300 -153 L300 -107 C282 -116 264 -121 243 -121 C210 -121 196 -107 196 -86 C196 -60 209 -37 235 -19 C252 -7 268 -4 288 0 C334 11 373 35 403 63 L377 118 C339 83 290 65 234 65 C160 65 119 95 119 201 C119 218 120 238 122 259 C363 295 455 372 455 489 C455 559 405 607 304 607 C156 607 65 506 36 300 C31 264 28 232 28 203 C28 57 91 -1 190 -6 C149 -33 123 -67 123 -109 C123 -147 148 -175 212 -175 L212 -175 Z M294 537 C348 537 374 512 374 476 C374 404 308 349 130 324 C155 470 204 537 294 537 L294 537 Z " />
<glyph glyph-name="Ecaron" unicode="&#x11a;" horiz-adv-x="560" d="M145 80 L183 354 L458 354 L469 429 L194 429 L228 670 L549 670 L557 750 L142 750 L37 0 L467 0 L481 80 L145 80 Z M394 795 L514 909 L431 909 L351 830 L295 909 L210 909 L298 795 L394 795 Z " />
<glyph glyph-name="ecaron" unicode="&#x11b;" horiz-adv-x="473" d="M304 607 C156 607 65 506 36 300 C31 264 28 231 28 202 C28 47 99 -9 209 -9 C292 -9 357 20 403 63 L377 118 C339 83 290 65 234 65 C160 65 119 95 119 201 C119 218 120 238 122 259 C363 295 455 372 455 489 C455 559 405 607 304 607 L304 607 Z M294 537 C348 537 374 512 374 476 C374 404 308 349 130 324 C155 470 204 537 294 537 L294 537 Z M341 666 L457 806 L386 806 L331 733 C323 722 315 711 308 700 L306 700 C301 712 297 723 290 737 L257 806 L187 806 L262 666 L341 666 Z " />
<glyph glyph-name="Gcircumflex" unicode="&#x11c;" horiz-adv-x="614" d="M561 399 L473 399 L429 86 C395 74 358 68 317 68 C201 68 148 114 148 251 C148 286 151 326 158 373 C192 615 264 682 414 682 C474 682 529 669 573 648 L595 727 C551 748 484 762 421 762 C206 762 96 652 57 372 C50 326 47 285 47 248 C47 65 129 -13 309 -13 C383 -13 459 2 508 26 L561 399 Z M374 909 L255 795 L339 795 L417 873 L474 795 L560 795 L469 909 L374 909 Z " />
<glyph glyph-name="gcircumflex" unicode="&#x11d;" horiz-adv-x="546" d="M509 597 L476 597 C438 597 400 605 352 605 C160 605 41 457 41 214 C41 77 100 33 193 33 C259 33 313 59 349 112 L351 111 L348 92 C330 -42 266 -80 169 -80 C126 -80 84 -68 44 -48 L23 -115 C65 -137 120 -151 175 -151 C315 -151 414 -86 439 93 L509 597 Z M226 105 C167 105 133 130 133 221 C133 420 222 533 343 533 C371 533 391 531 410 529 L374 277 C358 167 303 105 226 105 L226 105 Z M323 806 L209 666 L278 666 L332 735 C340 745 348 757 356 768 L358 768 C363 756 369 742 375 731 L409 666 L479 666 L402 806 L323 806 Z " />
<glyph glyph-name="Gbreve" unicode="&#x11e;" horiz-adv-x="614" d="M561 399 L473 399 L429 86 C395 74 358 68 317 68 C201 68 148 114 148 251 C148 286 151 326 158 373 C192 615 264 682 414 682 C474 682 529 669 573 648 L595 727 C551 748 484 762 421 762 C206 762 96 652 57 372 C50 326 47 285 47 248 C47 65 129 -13 309 -13 C383 -13 459 2 508 26 L561 399 Z M498 910 C491 859 459 840 415 840 C377 840 347 855 347 896 C347 901 347 905 348 910 L280 910 C279 902 278 895 278 888 C278 825 320 792 408 792 C505 792 557 835 567 910 L498 910 Z " />
<glyph glyph-name="gbreve" unicode="&#x11f;" horiz-adv-x="546" d="M509 597 L476 597 C438 597 400 605 352 605 C160 605 41 457 41 214 C41 77 100 33 193 33 C259 33 313 59 349 112 L351 111 L348 92 C330 -42 266 -80 169 -80 C126 -80 84 -68 44 -48 L23 -115 C65 -137 120 -151 175 -151 C315 -151 414 -86 439 93 L509 597 Z M226 105 C167 105 133 130 133 221 C133 420 222 533 343 533 C371 533 391 531 410 529 L374 277 C358 167 303 105 226 105 L226 105 Z M430 806 C420 738 389 707 349 707 C315 707 293 729 293 777 C293 786 293 796 295 806 L233 806 C231 792 230 779 230 767 C230 697 265 658 342 658 C431 658 480 713 493 806 L430 806 Z " />
<glyph glyph-name="Gdotaccent" unicode="&#x120;" horiz-adv-x="614" d="M561 399 L473 399 L429 86 C395 74 358 68 317 68 C201 68 148 114 148 251 C148 286 151 326 158 373 C192 615 264 682 414 682 C474 682 529 669 573 648 L595 727 C551 748 484 762 421 762 C206 762 96 652 57 372 C50 326 47 285 47 248 C47 65 129 -13 309 -13 C383 -13 459 2 508 26 L561 399 Z M425 889 C378 889 358 871 358 836 C358 811 374 801 413 801 C459 801 479 818 479 854 C479 877 463 889 425 889 L425 889 Z " />
<glyph glyph-name="gdotaccent" unicode="&#x121;" horiz-adv-x="546" d="M509 597 L476 597 C438 597 400 605 352 605 C160 605 41 457 41 214 C41 77 100 33 193 33 C259 33 313 59 349 112 L351 111 L348 92 C330 -42 266 -80 169 -80 C126 -80 84 -68 44 -48 L23 -115 C65 -137 120 -151 175 -151 C315 -151 414 -86 439 93 L509 597 Z M226 105 C167 105 133 130 133 221 C133 420 222 533 343 533 C371 533 391 531 410 529 L374 277 C358 167 303 105 226 105 L226 105 Z M383 797 C340 797 316 776 316 738 C316 711 334 701 369 701 C410 701 434 719 434 758 C434 783 418 797 383 797 L383 797 Z " />
<glyph glyph-name="Gcommaaccent" unicode="&#x122;" horiz-adv-x="614" d="M561 399 L473 399 L429 86 C395 74 358 68 317 68 C201 68 148 114 148 251 C148 286 151 326 158 373 C192 615 264 682 414 682 C474 682 529 669 573 648 L595 727 C551 748 484 762 421 762 C206 762 96 652 57 372 C50 326 47 285 47 248 C47 65 129 -13 309 -13 C383 -13 459 2 508 26 L561 399 Z M302 -40 C257 -40 239 -60 239 -84 C239 -102 254 -114 280 -114 C269 -138 254 -162 237 -186 L257 -197 C307 -156 354 -107 354 -75 C354 -54 339 -40 302 -40 L302 -40 Z " />
<glyph glyph-name="gcommaaccent" unicode="&#x123;" horiz-adv-x="546" d="M509 597 L476 597 C438 597 400 605 352 605 C160 605 41 457 41 214 C41 77 100 33 193 33 C259 33 313 59 349 112 L351 111 L348 92 C330 -42 266 -80 169 -80 C126 -80 84 -68 44 -48 L23 -115 C65 -137 120 -151 175 -151 C315 -151 414 -86 439 93 L509 597 Z M226 105 C167 105 133 130 133 221 C133 420 222 533 343 533 C371 533 391 531 410 529 L374 277 C358 167 303 105 226 105 L226 105 Z M358 666 C395 666 411 686 411 711 C411 729 399 741 377 741 C388 765 404 788 420 813 L398 824 C354 782 314 733 314 702 C314 681 329 666 358 666 L358 666 Z " />
<glyph glyph-name="Hcircumflex" unicode="&#x124;" horiz-adv-x="679" d="M543 0 L648 750 L550 750 L505 430 L194 430 L239 750 L142 750 L37 0 L134 0 L183 349 L494 349 L445 0 L543 0 Z M363 909 L244 795 L328 795 L406 873 L463 795 L549 795 L458 909 L363 909 Z " />
<glyph glyph-name="hcircumflex" unicode="&#x125;" horiz-adv-x="556" d="M444 0 L498 391 C501 414 503 434 503 453 C503 558 454 607 360 607 C290 607 231 580 189 529 L187 530 C190 542 192 557 194 570 L226 799 L135 792 L24 0 L114 0 L163 352 C179 463 245 529 328 529 C384 529 412 507 412 440 C412 425 411 408 408 389 L354 0 L444 0 Z M159 947 L40 833 L124 833 L202 911 L259 833 L345 833 L254 947 L159 947 Z " />
<glyph glyph-name="Hbar" unicode="&#x126;" horiz-adv-x="679" d="M543 0 L621 556 L681 556 L688 610 L628 610 L648 750 L550 750 L530 610 L219 610 L239 750 L142 750 L122 610 L71 610 L64 556 L115 556 L37 0 L134 0 L183 349 L494 349 L445 0 L543 0 Z M194 430 L212 556 L523 556 L505 430 L194 430 Z " />
<glyph glyph-name="hbar" unicode="&#x127;" horiz-adv-x="561" d="M119 0 L167 347 C183 459 249 524 331 524 C387 524 416 502 416 436 C416 421 415 404 412 384 L359 0 L449 0 L503 386 C506 408 508 429 508 448 C508 553 458 602 364 602 C295 602 235 575 192 525 L191 526 C194 538 196 553 198 566 L211 655 L309 655 L316 706 L218 706 L231 799 L140 792 L128 706 L63 706 L56 655 L121 655 L29 0 L119 0 Z " />
<glyph glyph-name="Itilde" unicode="&#x128;" horiz-adv-x="295" d="M48 0 L148 0 L253 750 L153 750 L48 0 Z M118 798 C127 826 141 845 159 845 C192 845 217 785 270 785 C319 785 353 826 365 885 L322 885 C311 852 298 837 280 837 C246 837 222 899 169 899 C119 899 85 858 72 798 L118 798 Z " />
<glyph glyph-name="itilde" unicode="&#x129;" horiz-adv-x="251" d="M122 0 L206 599 L113 594 L30 0 L122 0 Z M232 676 C280 676 316 720 330 789 L277 789 C267 752 255 733 236 733 C202 733 187 798 131 798 C84 798 47 754 32 685 L85 685 C96 722 109 741 127 741 C161 741 177 676 232 676 L232 676 Z " />
<glyph glyph-name="Imacron" unicode="&#x12a;" horiz-adv-x="295" d="M48 0 L148 0 L253 750 L153 750 L48 0 Z M349 862 L84 862 L77 815 L342 815 L349 862 Z " />
<glyph glyph-name="imacron" unicode="&#x12b;" horiz-adv-x="251" d="M122 0 L206 599 L113 594 L30 0 L122 0 Z M313 768 L49 768 L42 713 L306 713 L313 768 Z " />
<glyph glyph-name="Ibreve" unicode="&#x12c;" horiz-adv-x="295" d="M48 0 L148 0 L253 750 L153 750 L48 0 Z M298 910 C291 859 259 840 215 840 C177 840 147 855 147 896 C147 901 147 905 148 910 L80 910 C79 902 78 895 78 888 C78 825 120 792 208 792 C305 792 357 835 367 910 L298 910 Z " />
<glyph glyph-name="ibreve" unicode="&#x12d;" horiz-adv-x="251" d="M122 0 L206 599 L113 594 L30 0 L122 0 Z M255 806 C245 738 214 707 174 707 C140 707 118 729 118 777 C118 786 118 796 120 806 L58 806 C56 792 55 779 55 767 C55 697 90 658 167 658 C256 658 305 713 318 806 L255 806 Z " />
<glyph glyph-name="Iogonek" unicode="&#x12e;" horiz-adv-x="295" d="M48 0 L56 0 C18 -22 -9 -63 -9 -107 C-9 -150 21 -177 83 -177 C116 -177 145 -168 171 -154 L169 -107 C151 -117 134 -121 114 -121 C80 -121 65 -106 65 -82 C65 -47 96 -2 137 0 L148 0 L253 750 L153 750 L48 0 Z " />
<glyph glyph-name="iogonek" unicode="&#x12f;" horiz-adv-x="251" d="M56 -175 C89 -175 118 -167 144 -153 L143 -107 C125 -116 107 -121 86 -121 C53 -121 40 -107 40 -86 C40 -52 71 -9 121 0 L205 599 L113 594 L30 0 L43 0 C-4 -26 -33 -65 -33 -109 C-33 -147 -8 -175 56 -175 L56 -175 Z M186 797 C143 797 119 776 119 738 C119 711 137 701 172 701 C213 701 237 719 237 758 C237 783 221 797 186 797 L186 797 Z " />
<glyph glyph-name="Idotaccent" unicode="&#x130;" horiz-adv-x="295" d="M48 0 L148 0 L253 750 L153 750 L48 0 Z M222 889 C175 889 155 871 155 836 C155 811 171 801 210 801 C256 801 276 818 276 854 C276 877 260 889 222 889 L222 889 Z " />
<glyph glyph-name="dotlessi" unicode="&#x131;" horiz-adv-x="251" d="M122 0 L206 599 L113 594 L30 0 L122 0 Z " />
<glyph glyph-name="IJ" unicode="&#x132;" horiz-adv-x="771" d="M48 0 L148 0 L253 750 L153 750 L48 0 Z M740 750 L641 750 L569 235 C552 111 497 68 399 68 C358 68 312 78 282 101 L264 25 C297 3 349 -11 402 -11 C552 -11 642 54 668 236 L740 750 Z " />
<glyph glyph-name="ij" unicode="&#x133;" horiz-adv-x="506" d="M121 0 L205 599 L113 594 L30 0 L121 0 Z M460 599 L369 594 L298 89 C281 -33 241 -71 152 -87 L150 -151 C285 -135 365 -73 388 90 L460 599 Z M186 797 C143 797 119 776 119 738 C119 711 137 701 172 701 C213 701 237 719 237 758 C237 783 221 797 186 797 L186 797 Z M441 797 C398 797 374 776 374 738 C374 711 392 701 427 701 C468 701 492 719 492 758 C492 783 476 797 441 797 L441 797 Z " />
<glyph glyph-name="Jcircumflex" unicode="&#x134;" horiz-adv-x="490" d="M458 750 L359 750 L287 235 C270 111 215 68 117 68 C76 68 30 78 0 101 L-18 25 C15 3 67 -11 120 -11 C270 -11 360 54 386 236 L458 750 Z M372 909 L253 795 L337 795 L415 873 L472 795 L558 795 L467 909 L372 909 Z " />
<glyph glyph-name="jcircumflex" unicode="&#x135;" horiz-adv-x="269" d="M223 599 L132 594 L61 89 C44 -33 4 -71 -84 -87 L-86 -151 C48 -135 128 -73 151 90 L223 599 Z M160 806 L46 666 L115 666 L169 735 C177 745 185 757 193 768 L195 768 C200 756 206 742 212 731 L246 666 L316 666 L239 806 L160 806 Z " />
<glyph glyph-name="Kcommaaccent" unicode="&#x136;" horiz-adv-x="635" d="M561 0 L373 396 L653 750 L539 750 L287 429 L194 429 L239 750 L142 750 L37 0 L134 0 L183 353 L276 353 L442 0 L561 0 Z M268 -40 C223 -40 205 -60 205 -84 C205 -102 220 -114 246 -114 C235 -138 220 -162 203 -186 L223 -197 C273 -156 320 -107 320 -75 C320 -54 305 -40 268 -40 L268 -40 Z " />
<glyph glyph-name="kcommaaccent" unicode="&#x137;" horiz-adv-x="551" d="M114 0 L144 218 C171 412 272 529 361 529 C401 529 416 508 416 478 C416 410 351 327 229 285 C255 118 355 2 481 -7 L500 63 C419 79 358 153 326 255 C442 312 507 409 507 500 C507 566 472 607 394 607 C317 607 239 561 181 475 L179 476 C182 488 184 503 186 516 L226 799 L135 792 L24 0 L114 0 Z M239 -40 C194 -40 176 -60 176 -84 C176 -102 191 -114 217 -114 C206 -138 191 -162 174 -186 L194 -197 C244 -156 291 -107 291 -75 C291 -54 276 -40 239 -40 L239 -40 Z " />
<glyph glyph-name="kgreenlandic" unicode="&#x138;" horiz-adv-x="506" d="M111 0 L148 269 C150 282 152 297 153 310 L155 310 C199 151 316 13 441 -7 L461 63 C386 82 285 199 241 313 C347 380 464 510 502 597 L413 597 C366 512 246 392 159 345 L158 345 C161 358 163 372 165 386 L195 600 L103 594 L20 0 L111 0 Z " />
<glyph glyph-name="Lacute" unicode="&#x139;" horiz-adv-x="516" d="M146 81 L240 750 L142 750 L37 0 L441 0 L455 81 L146 81 Z M267 908 L179 795 L253 795 L388 908 L267 908 Z " />
<glyph glyph-name="lacute" unicode="&#x13a;" horiz-adv-x="238" d="M114 0 L226 799 L135 792 L24 0 L114 0 Z M226 927 L138 814 L212 814 L347 927 L226 927 Z " />
<glyph glyph-name="Lcommaaccent" unicode="&#x13b;" horiz-adv-x="516" d="M146 81 L240 750 L142 750 L37 0 L441 0 L455 81 L146 81 Z M236 -40 C191 -40 173 -60 173 -84 C173 -102 188 -114 214 -114 C203 -138 188 -162 171 -186 L191 -197 C241 -156 288 -107 288 -75 C288 -54 273 -40 236 -40 L236 -40 Z " />
<glyph glyph-name="lcommaaccent" unicode="&#x13c;" horiz-adv-x="238" d="M114 0 L226 799 L135 792 L24 0 L114 0 Z M62 -40 C17 -40 -1 -60 -1 -84 C-1 -102 14 -114 40 -114 C29 -138 14 -162 -3 -186 L17 -197 C67 -156 114 -107 114 -75 C114 -54 99 -40 62 -40 L62 -40 Z " />
<glyph glyph-name="Lcaron" unicode="&#x13d;" horiz-adv-x="516" d="M146 81 L240 750 L142 750 L37 0 L441 0 L455 81 L146 81 Z M426 782 C389 782 371 761 371 736 C371 718 384 706 405 706 C394 682 379 660 363 635 L386 623 C428 664 469 711 469 745 C469 766 456 782 426 782 L426 782 Z " />
<glyph glyph-name="lcaron" unicode="&#x13e;" horiz-adv-x="238" d="M114 0 L226 799 L135 792 L24 0 L114 0 Z M342 807 C305 807 287 786 287 761 C287 743 300 731 321 731 C310 707 295 685 279 660 L302 648 C344 689 385 736 385 770 C385 791 372 807 342 807 L342 807 Z " />
<glyph glyph-name="Ldot" unicode="&#x13f;" horiz-adv-x="516" d="M146 81 L240 750 L142 750 L37 0 L441 0 L455 81 L146 81 Z M409 464 C367 464 345 440 345 398 C345 371 361 359 395 359 C436 359 458 383 458 423 C458 449 442 464 409 464 L409 464 Z " />
<glyph glyph-name="ldot" unicode="&#x140;" horiz-adv-x="351" d="M115 0 L227 799 L136 792 L25 0 L115 0 Z M310 445 C269 445 247 422 247 381 C247 354 263 343 296 343 C335 343 358 367 358 405 C358 431 342 445 310 445 L310 445 Z " />
<glyph glyph-name="Lslash" unicode="&#x141;" horiz-adv-x="539" d="M170 81 L207 345 L414 441 L417 521 L218 427 L264 750 L166 750 L115 385 L31 345 L28 269 L103 304 L61 0 L465 0 L479 81 L170 81 Z " />
<glyph glyph-name="lslash" unicode="&#x142;" horiz-adv-x="321" d="M40 377 L126 423 L67 0 L157 0 L221 460 L314 511 L323 583 L232 535 L269 799 L178 792 L137 497 L50 452 L40 377 Z " />
<glyph glyph-name="Nacute" unicode="&#x143;" horiz-adv-x="684" d="M547 0 L652 750 L567 750 L492 216 C490 203 489 188 489 175 L487 175 L231 750 L142 750 L37 0 L122 0 L199 552 C201 565 202 580 203 593 L205 593 L476 0 L547 0 Z M440 908 L352 795 L426 795 L561 908 L440 908 Z " />
<glyph glyph-name="nacute" unicode="&#x144;" horiz-adv-x="552" d="M349 0 L440 0 L494 391 C497 413 498 433 498 452 C498 558 450 607 356 607 C281 607 219 576 176 519 L173 520 C174 533 174 547 174 560 L174 599 L102 594 L19 0 L110 0 L159 352 C175 464 240 529 323 529 C379 529 407 507 407 439 C407 424 406 407 403 388 L349 0 Z M349 806 L263 666 L334 666 L459 806 L349 806 Z " />
<glyph glyph-name="Ncommaaccent" unicode="&#x145;" horiz-adv-x="684" d="M547 0 L652 750 L567 750 L492 216 C490 203 489 188 489 175 L487 175 L231 750 L142 750 L37 0 L122 0 L199 552 C201 565 202 580 203 593 L205 593 L476 0 L547 0 Z M291 -40 C246 -40 228 -60 228 -84 C228 -102 243 -114 269 -114 C258 -138 243 -162 226 -186 L246 -197 C296 -156 343 -107 343 -75 C343 -54 328 -40 291 -40 L291 -40 Z " />
<glyph glyph-name="ncommaaccent" unicode="&#x146;" horiz-adv-x="552" d="M349 0 L440 0 L494 391 C497 413 498 433 498 452 C498 558 450 607 356 607 C281 607 219 576 176 519 L173 520 C174 533 174 547 174 560 L174 599 L102 594 L19 0 L110 0 L159 352 C175 464 240 529 323 529 C379 529 407 507 407 439 C407 424 406 407 403 388 L349 0 Z M230 -40 C185 -40 167 -60 167 -84 C167 -102 182 -114 208 -114 C197 -138 182 -162 165 -186 L185 -197 C235 -156 282 -107 282 -75 C282 -54 267 -40 230 -40 L230 -40 Z " />
<glyph glyph-name="Ncaron" unicode="&#x147;" horiz-adv-x="684" d="M547 0 L652 750 L567 750 L492 216 C490 203 489 188 489 175 L487 175 L231 750 L142 750 L37 0 L122 0 L199 552 C201 565 202 580 203 593 L205 593 L476 0 L547 0 Z M450 795 L570 909 L487 909 L407 830 L351 909 L266 909 L354 795 L450 795 Z " />
<glyph glyph-name="ncaron" unicode="&#x148;" horiz-adv-x="552" d="M349 0 L440 0 L494 391 C497 413 498 433 498 452 C498 558 450 607 356 607 C281 607 219 576 176 519 L173 520 C174 533 174 547 174 560 L174 599 L102 594 L19 0 L110 0 L159 352 C175 464 240 529 323 529 C379 529 407 507 407 439 C407 424 406 407 403 388 L349 0 Z M351 666 L467 806 L396 806 L341 733 C333 722 325 711 318 700 L316 700 C311 712 307 723 300 737 L267 806 L197 806 L272 666 L351 666 Z " />
<glyph glyph-name="napostrophe" unicode="&#x149;" horiz-adv-x="552" d="M349 0 L440 0 L494 391 C497 413 498 433 498 452 C498 558 450 607 356 607 C281 607 219 576 176 519 L173 520 C174 533 174 547 174 560 L174 599 L102 594 L19 0 L110 0 L159 352 C175 464 240 529 323 529 C379 529 407 507 407 439 C407 424 406 407 403 388 L349 0 Z M94 807 C57 807 39 786 39 761 C39 743 52 731 73 731 C62 707 47 685 31 660 L54 648 C96 689 137 736 137 770 C137 791 124 807 94 807 L94 807 Z " />
<glyph glyph-name="Eng" unicode="&#x14a;" horiz-adv-x="684" d="M652 750 L567 750 L492 216 C490 203 489 188 489 175 L487 175 L231 750 L142 750 L37 0 L122 0 L199 552 C201 565 202 580 203 593 L205 593 L465 29 C451 -34 424 -68 368 -68 C346 -68 319 -60 300 -50 L286 -110 C308 -123 343 -132 380 -132 C474 -132 535 -82 555 58 L652 750 Z " />
<glyph glyph-name="eng" unicode="&#x14b;" horiz-adv-x="552" d="M220 -87 L218 -150 C350 -134 429 -73 452 90 L494 391 C497 413 498 433 498 452 C498 558 450 607 356 607 C281 607 219 576 176 519 L173 520 C174 533 174 547 174 560 L174 599 L102 594 L19 0 L110 0 L159 352 C175 463 240 528 323 528 C379 528 407 506 407 439 C407 424 406 407 403 388 L361 89 C343 -35 306 -71 220 -87 L220 -87 Z " />
<glyph glyph-name="Omacron" unicode="&#x14c;" horiz-adv-x="670" d="M617 375 C625 428 628 475 628 516 C628 693 556 762 392 762 C191 762 97 658 57 375 C50 324 46 279 46 239 C46 59 120 -13 283 -13 C485 -13 577 90 617 375 L617 375 Z M516 375 C482 129 424 67 294 67 C194 67 146 104 146 236 C146 274 150 320 158 375 C193 622 251 682 380 682 C481 682 528 647 528 517 C528 479 524 431 516 375 L516 375 Z M534 862 L269 862 L262 815 L527 815 L534 862 Z " />
<glyph glyph-name="omacron" unicode="&#x14d;" horiz-adv-x="535" d="M292 533 C364 533 400 503 400 403 C400 374 397 340 391 299 C365 115 319 61 224 61 C153 61 119 91 119 189 C119 218 122 253 128 296 C154 479 199 533 292 533 L292 533 Z M305 607 C143 607 66 516 36 300 C30 258 27 221 27 188 C27 49 83 -10 213 -10 C375 -10 452 81 482 297 C488 339 491 376 491 409 C491 548 435 607 305 607 L305 607 Z M459 768 L195 768 L188 713 L452 713 L459 768 Z " />
<glyph glyph-name="Obreve" unicode="&#x14e;" horiz-adv-x="670" d="M617 375 C625 428 628 475 628 516 C628 693 556 762 392 762 C191 762 97 658 57 375 C50 324 46 279 46 239 C46 59 120 -13 283 -13 C485 -13 577 90 617 375 L617 375 Z M516 375 C482 129 424 67 294 67 C194 67 146 104 146 236 C146 274 150 320 158 375 C193 622 251 682 380 682 C481 682 528 647 528 517 C528 479 524 431 516 375 L516 375 Z M485 910 C478 859 446 840 402 840 C364 840 334 855 334 896 C334 901 334 905 335 910 L267 910 C266 902 265 895 265 888 C265 825 307 792 395 792 C492 792 544 835 554 910 L485 910 Z " />
<glyph glyph-name="obreve" unicode="&#x14f;" horiz-adv-x="535" d="M292 533 C364 533 400 503 400 403 C400 374 397 340 391 299 C365 115 319 61 224 61 C153 61 119 91 119 189 C119 218 122 253 128 296 C154 479 199 533 292 533 L292 533 Z M305 607 C143 607 66 516 36 300 C30 258 27 221 27 188 C27 49 83 -10 213 -10 C375 -10 452 81 482 297 C488 339 491 376 491 409 C491 548 435 607 305 607 L305 607 Z M399 806 C389 738 358 707 318 707 C284 707 262 729 262 777 C262 786 262 796 264 806 L202 806 C200 792 199 779 199 767 C199 697 234 658 311 658 C400 658 449 713 462 806 L399 806 Z " />
<glyph glyph-name="Ohungarumlaut" unicode="&#x150;" horiz-adv-x="670" d="M617 375 C625 428 628 475 628 516 C628 693 556 762 392 762 C191 762 97 658 57 375 C50 324 46 279 46 239 C46 59 120 -13 283 -13 C485 -13 577 90 617 375 L617 375 Z M516 375 C482 129 424 67 294 67 C194 67 146 104 146 236 C146 274 150 320 158 375 C193 622 251 682 380 682 C481 682 528 647 528 517 C528 479 524 431 516 375 L516 375 Z M364 910 L295 796 L355 796 L461 910 L364 910 Z M515 910 L422 796 L489 796 L615 910 L515 910 Z " />
<glyph glyph-name="ohungarumlaut" unicode="&#x151;" horiz-adv-x="535" d="M292 533 C364 533 400 503 400 403 C400 374 397 340 391 299 C365 115 319 61 224 61 C153 61 119 91 119 189 C119 218 122 253 128 296 C154 479 199 533 292 533 L292 533 Z M305 607 C143 607 66 516 36 300 C30 258 27 221 27 188 C27 49 83 -10 213 -10 C375 -10 452 81 482 297 C488 339 491 376 491 409 C491 548 435 607 305 607 L305 607 Z M291 806 L208 666 L268 666 L388 806 L291 806 Z M441 806 L345 666 L413 666 L539 806 L441 806 Z " />
<glyph glyph-name="OE" unicode="&#x152;" horiz-adv-x="983" d="M891 0 L904 80 L568 80 L606 354 L881 354 L892 428 L617 428 L651 670 L972 670 L980 750 L574 750 L568 705 C566 692 564 677 563 664 L561 664 C531 733 466 762 374 762 C191 762 97 658 57 375 C50 323 46 277 46 237 C46 58 117 -13 264 -13 C358 -13 430 18 481 91 L483 90 C480 77 477 62 476 49 L469 0 L891 0 Z M514 375 C480 130 424 68 294 68 C194 68 147 105 147 237 C147 275 150 321 158 375 C193 621 251 680 381 680 C481 680 526 645 526 518 C526 479 522 432 514 375 L514 375 Z " />
<glyph glyph-name="oe" unicode="&#x153;" horiz-adv-x="828" d="M305 607 C143 607 66 516 36 300 C30 258 27 221 27 188 C27 49 83 -10 213 -10 C304 -10 366 23 407 98 L409 98 C430 20 485 -9 564 -9 C647 -9 713 20 759 63 L733 118 C695 83 646 65 590 65 C516 65 473 97 473 205 C473 220 474 237 476 256 C716 291 811 374 811 486 C811 560 758 607 659 607 C572 607 509 571 467 498 L465 498 C446 574 395 607 305 607 L305 607 Z M292 532 C364 532 399 502 399 402 C399 374 397 340 391 299 C365 116 319 62 225 62 C153 62 119 91 119 189 C119 218 122 254 128 296 C154 478 199 532 292 532 L292 532 Z M654 536 C706 536 729 511 729 474 C729 404 667 348 485 323 C511 476 566 536 654 536 L654 536 Z " />
<glyph glyph-name="Racute" unicode="&#x154;" horiz-adv-x="600" d="M142 750 L37 0 L134 0 L179 325 L307 325 L417 0 L531 0 L400 341 C497 359 565 439 565 591 C565 700 501 750 367 750 L142 750 Z M228 673 L358 673 C430 673 465 648 465 578 C465 439 401 398 315 398 L189 398 L228 673 Z M371 908 L283 795 L357 795 L492 908 L371 908 Z " />
<glyph glyph-name="racute" unicode="&#x155;" horiz-adv-x="400" d="M350 606 C282 606 219 569 174 484 L172 485 L174 525 L176 599 L103 594 L20 0 L111 0 L151 288 C172 443 247 517 332 517 C355 517 372 514 388 505 L414 592 C399 600 375 606 350 606 L350 606 Z M274 806 L188 666 L259 666 L384 806 L274 806 Z " />
<glyph glyph-name="Rcommaaccent" unicode="&#x156;" horiz-adv-x="600" d="M142 750 L37 0 L134 0 L179 325 L307 325 L417 0 L531 0 L400 341 C497 359 565 439 565 591 C565 700 501 750 367 750 L142 750 Z M228 673 L358 673 C430 673 465 648 465 578 C465 439 401 398 315 398 L189 398 L228 673 Z M252 -40 C207 -40 189 -60 189 -84 C189 -102 204 -114 230 -114 C219 -138 204 -162 187 -186 L207 -197 C257 -156 304 -107 304 -75 C304 -54 289 -40 252 -40 L252 -40 Z " />
<glyph glyph-name="rcommaaccent" unicode="&#x157;" horiz-adv-x="400" d="M350 606 C282 606 219 569 174 484 L172 485 L174 525 L176 599 L103 594 L20 0 L111 0 L151 288 C172 443 247 517 332 517 C355 517 372 514 388 505 L414 592 C399 600 375 606 350 606 L350 606 Z M59 -40 C14 -40 -4 -60 -4 -84 C-4 -102 11 -114 37 -114 C26 -138 11 -162 -6 -186 L14 -197 C64 -156 111 -107 111 -75 C111 -54 96 -40 59 -40 L59 -40 Z " />
<glyph glyph-name="Rcaron" unicode="&#x158;" horiz-adv-x="600" d="M142 750 L37 0 L134 0 L179 325 L307 325 L417 0 L531 0 L400 341 C497 359 565 439 565 591 C565 700 501 750 367 750 L142 750 Z M228 673 L358 673 C430 673 465 648 465 578 C465 439 401 398 315 398 L189 398 L228 673 Z M371 795 L491 909 L408 909 L328 830 L272 909 L187 909 L275 795 L371 795 Z " />
<glyph glyph-name="rcaron" unicode="&#x159;" horiz-adv-x="400" d="M354 606 C286 606 223 569 178 484 L176 485 L178 525 L180 599 L107 594 L24 0 L115 0 L155 288 C176 443 251 517 336 517 C359 517 376 514 392 505 L418 592 C403 600 379 606 354 606 L354 606 Z M290 666 L406 806 L335 806 L280 733 C272 722 264 711 257 700 L255 700 C250 712 246 723 239 737 L206 806 L136 806 L211 666 L290 666 Z " />
<glyph glyph-name="Sacute" unicode="&#x15a;" horiz-adv-x="515" d="M334 762 C168 762 76 659 76 526 C76 330 363 372 363 222 C363 123 297 68 200 68 C131 68 75 87 27 121 L0 41 C49 8 114 -13 191 -13 C343 -13 437 68 457 209 C459 221 460 232 460 243 C460 447 171 403 171 546 C171 619 222 681 329 681 C384 681 433 668 482 647 L506 724 C461 748 400 762 334 762 L334 762 Z M359 908 L271 795 L345 795 L480 908 L359 908 Z " />
<glyph glyph-name="sacute" unicode="&#x15b;" horiz-adv-x="438" d="M275 607 C143 607 60 535 60 427 C60 275 287 292 287 174 C287 110 244 64 165 64 C116 64 65 81 30 114 L-2 48 C35 14 98 -9 163 -9 C297 -9 376 70 376 194 C376 352 148 334 148 441 C148 495 196 532 263 532 C304 532 347 523 380 505 L415 570 C379 593 326 607 275 607 L275 607 Z M302 806 L216 666 L287 666 L412 806 L302 806 Z " />
<glyph glyph-name="Scircumflex" unicode="&#x15c;" horiz-adv-x="515" d="M334 762 C168 762 76 659 76 526 C76 330 363 372 363 222 C363 123 297 68 200 68 C131 68 75 87 27 121 L0 41 C49 8 114 -13 191 -13 C343 -13 437 68 457 209 C459 221 460 232 460 243 C460 447 171 403 171 546 C171 619 222 681 329 681 C384 681 433 668 482 647 L506 724 C461 748 400 762 334 762 L334 762 Z M305 909 L186 795 L270 795 L348 873 L405 795 L491 795 L400 909 L305 909 Z " />
<glyph glyph-name="scircumflex" unicode="&#x15d;" horiz-adv-x="438" d="M275 607 C143 607 60 535 60 427 C60 275 287 292 287 174 C287 110 244 64 165 64 C116 64 65 81 30 114 L-2 48 C35 14 98 -9 163 -9 C297 -9 376 70 376 194 C376 352 148 334 148 441 C148 495 196 532 263 532 C304 532 347 523 380 505 L415 570 C379 593 326 607 275 607 L275 607 Z M246 806 L132 666 L201 666 L255 735 C263 745 271 757 279 768 L281 768 C286 756 292 742 298 731 L332 666 L402 666 L325 806 L246 806 Z " />
<glyph glyph-name="Scedilla" unicode="&#x15e;" horiz-adv-x="515" d="M90 -189 L177 -189 L234 -10 C360 3 439 82 457 209 C459 221 460 232 460 243 C460 447 171 403 171 546 C171 619 222 681 329 681 C384 681 433 668 482 647 L506 724 C461 748 400 762 334 762 C168 762 76 659 76 526 C76 330 363 372 363 222 C363 123 297 68 200 68 C131 68 75 87 27 121 L0 41 C44 11 101 -9 169 -12 L90 -189 Z " />
<glyph glyph-name="scedilla" unicode="&#x15f;" horiz-adv-x="438" d="M52 -189 L139 -189 L197 -7 C309 3 376 81 376 194 C376 352 149 334 149 441 C149 495 196 532 263 532 C304 532 347 523 380 505 L415 570 C379 593 326 607 275 607 C143 607 60 535 60 427 C60 275 288 292 288 174 C288 110 244 64 165 64 C116 64 65 81 30 114 L-2 48 C29 19 79 -2 134 -7 L52 -189 Z " />
<glyph glyph-name="Scaron" unicode="&#x160;" horiz-adv-x="515" d="M334 762 C168 762 76 659 76 526 C76 330 363 372 363 222 C363 123 297 68 200 68 C131 68 75 87 27 121 L0 41 C49 8 114 -13 191 -13 C343 -13 437 68 457 209 C459 221 460 232 460 243 C460 447 171 403 171 546 C171 619 222 681 329 681 C384 681 433 668 482 647 L506 724 C461 748 400 762 334 762 L334 762 Z M389 795 L509 909 L426 909 L346 830 L290 909 L205 909 L293 795 L389 795 Z " />
<glyph glyph-name="scaron" unicode="&#x161;" horiz-adv-x="438" d="M275 607 C143 607 60 535 60 427 C60 275 287 292 287 174 C287 110 244 64 165 64 C116 64 65 81 30 114 L-2 48 C35 14 98 -9 163 -9 C297 -9 376 70 376 194 C376 352 148 334 148 441 C148 495 196 532 263 532 C304 532 347 523 380 505 L415 570 C379 593 326 607 275 607 L275 607 Z M315 666 L431 806 L360 806 L305 733 C297 722 289 711 282 700 L280 700 C275 712 271 723 264 737 L231 806 L161 806 L236 666 L315 666 Z " />
<glyph glyph-name="Tcommaaccent" unicode="&#x162;" horiz-adv-x="528" d="M99 -189 L186 -189 L246 0 L263 0 L356 668 L557 668 L566 750 L72 750 L58 668 L258 668 L165 0 L183 0 L99 -189 Z " />
<glyph glyph-name="tcommaaccent" unicode="&#x163;" horiz-adv-x="373" d="M75 -189 L162 -189 L221 -4 C250 1 276 12 298 26 L295 91 C272 77 246 67 221 67 C182 67 161 90 161 144 C161 156 162 169 164 184 L212 525 L355 525 L369 594 L222 594 L245 759 L174 748 L136 594 L59 594 L45 525 L122 525 L74 181 C71 160 70 141 70 124 C70 46 99 5 157 -5 L75 -189 Z " />
<glyph glyph-name="Tcaron" unicode="&#x164;" horiz-adv-x="528" d="M557 668 L566 750 L72 750 L58 668 L258 668 L165 0 L263 0 L356 668 L557 668 Z M367 795 L487 909 L404 909 L324 830 L268 909 L183 909 L271 795 L367 795 Z " />
<glyph glyph-name="tcaron" unicode="&#x165;" horiz-adv-x="373" d="M45 525 L122 525 L74 181 C71 160 70 141 70 124 C70 33 110 -7 188 -7 C230 -7 268 7 298 26 L295 91 C272 77 246 67 221 67 C182 67 161 90 161 144 C161 156 162 169 164 184 L212 525 L355 525 L369 594 L222 594 L245 759 L174 748 L136 594 L59 594 L45 525 Z M434 807 C397 807 379 786 379 761 C379 743 392 731 413 731 C402 707 387 685 371 660 L394 648 C436 689 477 736 477 770 C477 791 464 807 434 807 L434 807 Z " />
<glyph glyph-name="Tbar" unicode="&#x166;" horiz-adv-x="528" d="M557 668 L566 750 L72 750 L58 668 L258 668 L235 499 L123 499 L114 437 L226 437 L165 0 L263 0 L324 437 L453 437 L462 499 L333 499 L356 668 L557 668 Z " />
<glyph glyph-name="tbar" unicode="&#x167;" horiz-adv-x="373" d="M48 530 L123 530 L111 445 L43 445 L30 382 L102 382 L74 181 C71 161 70 142 70 125 C70 34 111 -7 189 -7 C231 -7 269 7 298 26 L296 91 C273 77 247 67 222 67 C183 67 162 90 162 144 C162 156 163 169 165 184 L193 382 L328 382 L341 445 L202 445 L214 530 L356 530 L370 594 L223 594 L246 759 L175 748 L137 594 L62 594 L48 530 Z " />
<glyph glyph-name="Utilde" unicode="&#x168;" horiz-adv-x="664" d="M645 750 L548 750 L478 251 C460 124 401 69 292 69 C198 69 152 108 152 200 C152 215 153 233 156 251 L226 750 L129 750 L59 254 C56 231 54 210 54 190 C54 49 134 -13 280 -13 C447 -13 549 68 575 254 L645 750 Z M298 798 C307 826 321 845 339 845 C372 845 397 785 450 785 C499 785 533 826 545 885 L502 885 C491 852 478 837 460 837 C426 837 402 899 349 899 C299 899 265 858 252 798 L298 798 Z " />
<glyph glyph-name="utilde" unicode="&#x169;" horiz-adv-x="541" d="M512 596 L421 596 L364 187 C352 105 306 66 229 66 C161 66 127 96 127 157 C127 166 127 176 129 187 L187 599 L95 594 L38 188 C36 173 35 158 35 145 C35 45 95 -11 218 -11 C359 -11 437 59 455 188 L512 596 Z M378 676 C426 676 462 720 476 789 L423 789 C413 752 401 733 382 733 C348 733 333 798 277 798 C230 798 193 754 178 685 L231 685 C242 722 255 741 273 741 C307 741 323 676 378 676 L378 676 Z " />
<glyph glyph-name="Umacron" unicode="&#x16a;" horiz-adv-x="664" d="M645 750 L548 750 L478 251 C460 124 401 69 292 69 C198 69 152 108 152 200 C152 215 153 233 156 251 L226 750 L129 750 L59 254 C56 231 54 210 54 190 C54 49 134 -13 280 -13 C447 -13 549 68 575 254 L645 750 Z M533 862 L268 862 L261 815 L526 815 L533 862 Z " />
<glyph glyph-name="umacron" unicode="&#x16b;" horiz-adv-x="541" d="M512 596 L421 596 L364 187 C352 105 306 66 229 66 C161 66 127 96 127 157 C127 166 127 176 129 187 L187 599 L95 594 L38 188 C36 173 35 158 35 145 C35 45 95 -11 218 -11 C359 -11 437 59 455 188 L512 596 Z M454 768 L190 768 L183 713 L447 713 L454 768 Z " />
<glyph glyph-name="Ubreve" unicode="&#x16c;" horiz-adv-x="664" d="M645 750 L548 750 L478 251 C460 124 401 69 292 69 C198 69 152 108 152 200 C152 215 153 233 156 251 L226 750 L129 750 L59 254 C56 231 54 210 54 190 C54 49 134 -13 280 -13 C447 -13 549 68 575 254 L645 750 Z M483 910 C476 859 444 840 400 840 C362 840 332 855 332 896 C332 901 332 905 333 910 L265 910 C264 902 263 895 263 888 C263 825 305 792 393 792 C490 792 542 835 552 910 L483 910 Z " />
<glyph glyph-name="ubreve" unicode="&#x16d;" horiz-adv-x="541" d="M512 596 L421 596 L364 187 C352 105 306 66 229 66 C161 66 127 96 127 157 C127 166 127 176 129 187 L187 599 L95 594 L38 188 C36 173 35 158 35 145 C35 45 95 -11 218 -11 C359 -11 437 59 455 188 L512 596 Z M399 806 C389 738 358 707 318 707 C284 707 262 729 262 777 C262 786 262 796 264 806 L202 806 C200 792 199 779 199 767 C199 697 234 658 311 658 C400 658 449 713 462 806 L399 806 Z " />
<glyph glyph-name="Uring" unicode="&#x16e;" horiz-adv-x="664" d="M645 750 L548 750 L478 251 C460 124 401 69 292 69 C198 69 152 108 152 200 C152 215 153 233 156 251 L226 750 L129 750 L59 254 C56 231 54 210 54 190 C54 49 134 -13 280 -13 C447 -13 549 68 575 254 L645 750 Z M401 871 C329 871 295 832 295 779 C295 737 323 717 380 717 C449 717 489 749 489 807 C489 845 461 871 401 871 L401 871 Z M398 830 C426 830 437 818 437 799 C437 771 420 755 387 755 C357 755 345 766 345 785 C345 812 362 830 398 830 L398 830 Z " />
<glyph glyph-name="uring" unicode="&#x16f;" horiz-adv-x="541" d="M512 596 L421 596 L364 187 C352 105 306 66 229 66 C161 66 127 96 127 157 C127 166 127 176 129 187 L187 599 L95 594 L38 188 C36 173 35 158 35 145 C35 45 95 -11 218 -11 C359 -11 437 59 455 188 L512 596 Z M337 821 C267 821 229 783 229 732 C229 691 260 670 316 670 C381 670 423 701 423 756 C423 794 394 821 337 821 L337 821 Z M333 785 C363 785 376 771 376 751 C376 722 356 705 322 705 C291 705 276 718 276 739 C276 765 296 785 333 785 L333 785 Z " />
<glyph glyph-name="Uhungarumlaut" unicode="&#x170;" horiz-adv-x="664" d="M645 750 L548 750 L478 251 C460 124 401 69 292 69 C198 69 152 108 152 200 C152 215 153 233 156 251 L226 750 L129 750 L59 254 C56 231 54 210 54 190 C54 49 134 -13 280 -13 C447 -13 549 68 575 254 L645 750 Z M351 910 L282 796 L342 796 L448 910 L351 910 Z M502 910 L409 796 L476 796 L602 910 L502 910 Z " />
<glyph glyph-name="uhungarumlaut" unicode="&#x171;" horiz-adv-x="541" d="M512 596 L421 596 L364 187 C352 105 306 66 229 66 C161 66 127 96 127 157 C127 166 127 176 129 187 L187 599 L95 594 L38 188 C36 173 35 158 35 145 C35 45 95 -11 218 -11 C359 -11 437 59 455 188 L512 596 Z M286 806 L203 666 L263 666 L383 806 L286 806 Z M436 806 L340 666 L408 666 L534 806 L436 806 Z " />
<glyph glyph-name="Uogonek" unicode="&#x172;" horiz-adv-x="664" d="M328 -175 C361 -175 390 -167 416 -153 L415 -107 C397 -116 379 -121 358 -121 C325 -121 312 -107 312 -86 C312 -42 352 -10 388 1 C491 31 555 112 575 254 L645 750 L548 750 L478 251 C460 124 401 69 292 69 C198 69 152 108 152 200 C152 215 153 233 156 251 L226 750 L129 750 L59 254 C56 231 54 210 54 190 C54 49 134 -13 280 -13 L294 -13 C260 -38 239 -73 239 -109 C239 -147 264 -175 328 -175 L328 -175 Z " />
<glyph glyph-name="uogonek" unicode="&#x173;" horiz-adv-x="541" d="M233 -175 C266 -175 295 -167 321 -153 L320 -107 C302 -116 284 -121 263 -121 C230 -121 217 -107 217 -86 C217 -43 252 -12 289 -4 C385 16 440 82 455 188 L512 596 L421 596 L364 187 C352 105 306 66 229 66 C161 66 127 96 127 157 C127 166 127 176 129 187 L187 599 L95 594 L38 188 C36 173 35 159 35 146 C35 50 89 -6 203 -8 C167 -35 144 -70 144 -109 C144 -147 169 -175 233 -175 L233 -175 Z " />
<glyph glyph-name="Wcircumflex" unicode="&#x174;" horiz-adv-x="913" d="M460 750 L242 129 C237 116 233 102 230 90 L228 90 C228 103 228 118 227 131 L199 750 L99 750 L155 0 L274 0 L484 616 L496 655 L498 655 C498 642 499 627 500 614 L539 0 L659 0 L925 750 L828 750 L625 131 L614 92 L612 92 L610 133 L567 750 L460 750 Z M477 909 L358 795 L442 795 L520 873 L577 795 L663 795 L572 909 L477 909 Z " />
<glyph glyph-name="wcircumflex" unicode="&#x175;" horiz-adv-x="812" d="M416 806 L302 666 L371 666 L425 735 C433 745 441 757 449 768 L451 768 C456 756 462 742 468 731 L502 666 L572 666 L495 806 L416 806 Z M761 609 L676 588 C682 560 685 527 685 491 C685 209 539 77 504 77 C476 77 442 128 442 246 C442 280 445 318 451 363 L483 595 L392 595 L363 386 C334 176 226 78 199 78 C176 78 145 126 145 241 C145 275 147 316 154 363 L187 599 L95 594 L63 363 C57 322 55 285 55 251 C55 69 130 -10 176 -10 C212 -10 305 47 372 179 L373 179 C389 45 448 -10 487 -10 C557 -10 775 152 775 486 C775 531 770 572 761 609 L761 609 Z " />
<glyph glyph-name="Ycircumflex" unicode="&#x176;" horiz-adv-x="605" d="M74 750 L240 255 L205 0 L304 0 L339 255 L641 750 L534 750 L324 378 C317 366 310 353 305 342 L303 342 C301 354 297 367 293 381 L184 750 L74 750 Z M330 909 L211 795 L295 795 L373 873 L430 795 L516 795 L425 909 L330 909 Z " />
<glyph glyph-name="ycircumflex" unicode="&#x177;" horiz-adv-x="531" d="M424 597 C381 414 321 268 255 153 L253 153 C251 166 248 180 245 193 L157 599 L58 592 L188 69 C145 11 99 -34 33 -81 L65 -147 C285 -7 434 275 513 597 L424 597 Z M284 806 L170 666 L239 666 L293 735 C301 745 309 757 317 768 L319 768 C324 756 330 742 336 731 L370 666 L440 666 L363 806 L284 806 Z " />
<glyph glyph-name="Ydieresis" unicode="&#x178;" horiz-adv-x="605" d="M74 750 L240 255 L205 0 L304 0 L339 255 L641 750 L534 750 L324 378 C317 366 310 353 305 342 L303 342 C301 354 297 367 293 381 L184 750 L74 750 Z M291 889 C259 889 240 870 240 835 C240 811 253 803 279 803 C311 803 330 820 330 855 C330 877 317 889 291 889 L291 889 Z M467 889 C435 889 416 870 416 835 C416 811 429 803 455 803 C487 803 506 820 506 855 C506 877 493 889 467 889 L467 889 Z " />
<glyph glyph-name="Zacute" unicode="&#x179;" horiz-adv-x="555" d="M456 0 L469 81 L119 81 L118 83 C126 92 134 102 142 113 L553 681 L563 750 L110 750 L95 668 L440 668 L441 666 C432 656 423 646 416 636 L-1 62 L-9 0 L456 0 Z M373 908 L285 795 L359 795 L494 908 L373 908 Z " />
<glyph glyph-name="zacute" unicode="&#x17a;" horiz-adv-x="488" d="M459 535 L467 597 L98 597 L85 525 L357 525 L358 523 C349 513 341 503 333 493 L10 62 L2 0 L387 0 L398 71 L112 71 L111 73 C120 82 128 92 136 103 L459 535 Z M320 806 L234 666 L305 666 L430 806 L320 806 Z " />
<glyph glyph-name="Zdotaccent" unicode="&#x17b;" horiz-adv-x="555" d="M456 0 L469 81 L119 81 L118 83 C126 92 134 102 142 113 L553 681 L563 750 L110 750 L95 668 L440 668 L441 666 C432 656 423 646 416 636 L-1 62 L-9 0 L456 0 Z M360 889 C313 889 293 871 293 836 C293 811 309 801 348 801 C394 801 414 818 414 854 C414 877 398 889 360 889 L360 889 Z " />
<glyph glyph-name="zdotaccent" unicode="&#x17c;" horiz-adv-x="488" d="M459 535 L467 597 L98 597 L85 525 L357 525 L358 523 C349 513 341 503 333 493 L10 62 L2 0 L387 0 L398 71 L112 71 L111 73 C120 82 128 92 136 103 L459 535 Z M312 797 C269 797 245 776 245 738 C245 711 263 701 298 701 C339 701 363 719 363 758 C363 783 347 797 312 797 L312 797 Z " />
<glyph glyph-name="Zcaron" unicode="&#x17d;" horiz-adv-x="555" d="M456 0 L469 81 L119 81 L118 83 C126 92 134 102 142 113 L553 681 L563 750 L110 750 L95 668 L440 668 L441 666 C432 656 423 646 416 636 L-1 62 L-9 0 L456 0 Z M395 795 L515 909 L432 909 L352 830 L296 909 L211 909 L299 795 L395 795 Z " />
<glyph glyph-name="zcaron" unicode="&#x17e;" horiz-adv-x="488" d="M459 535 L467 597 L98 597 L85 525 L357 525 L358 523 C349 513 341 503 333 493 L10 62 L2 0 L387 0 L398 71 L112 71 L111 73 C120 82 128 92 136 103 L459 535 Z M322 666 L438 806 L367 806 L312 733 C304 722 296 711 289 700 L287 700 C282 712 278 723 271 737 L238 806 L168 806 L243 666 L322 666 Z " />
<glyph glyph-name="longs" unicode="&#x17f;" horiz-adv-x="280" d="M42 529 L119 529 L58 89 C41 -33 1 -71 -87 -87 L-89 -151 C45 -135 126 -73 149 90 L220 592 C238 717 287 737 377 737 L381 803 C218 803 151 750 128 593 L54 593 L42 529 Z " />
<glyph glyph-name="uni018F" unicode="&#x18f;" horiz-adv-x="669" d="M66 413 C53 353 46 289 46 230 C46 56 119 -13 282 -13 C486 -13 577 95 616 375 C622 418 625 457 625 492 C625 687 532 761 368 761 C281 761 206 745 150 721 L151 646 C202 667 270 681 344 681 C463 681 524 639 524 490 C524 467 523 441 520 413 L66 413 Z M294 67 C193 67 146 106 146 231 C146 262 149 300 155 343 L510 343 C475 123 417 67 294 67 L294 67 Z " />
<glyph glyph-name="florin" unicode="&#x192;" horiz-adv-x="374" d="M10 -145 L242 528 L369 528 L393 596 L266 596 L283 650 C297 696 329 722 378 722 C396 722 413 718 428 713 L455 772 C438 779 409 784 381 784 C285 784 218 734 192 652 L174 596 L117 596 L94 528 L151 528 L-80 -145 L10 -145 Z " />
<glyph glyph-name="uni01B5" unicode="&#x1b5;" horiz-adv-x="555" d="M456 0 L469 81 L119 81 L118 83 C126 92 134 102 142 113 L322 362 L487 362 L499 421 L365 421 L553 681 L563 750 L110 750 L95 668 L440 668 L441 666 C432 656 423 646 416 636 L260 421 L92 421 L79 362 L217 362 L-1 62 L-9 0 L456 0 Z " />
<glyph glyph-name="uni01B6" unicode="&#x1b6;" horiz-adv-x="488" d="M459 535 L467 597 L98 597 L85 525 L357 525 L358 523 C349 513 341 503 333 493 L214 335 L90 335 L79 280 L173 280 L10 62 L2 0 L387 0 L398 71 L112 71 L111 73 C120 82 128 92 136 103 L268 280 L396 280 L408 335 L309 335 L459 535 Z " />
<glyph glyph-name="Aringacute" unicode="&#x1fa;" horiz-adv-x="641" d="M439 947 L378 868 C313 864 283 827 283 777 C283 755 290 739 306 729 L-33 0 L70 0 L151 187 L437 187 L465 0 L574 0 L437 731 C463 746 477 771 477 805 C477 826 468 843 450 855 L560 947 L439 947 Z M365 679 C366 665 368 652 370 638 L426 261 L182 261 L348 641 C353 654 359 666 363 679 L365 679 Z M386 828 C414 828 425 816 425 797 C425 769 408 753 375 753 C345 753 333 764 333 783 C333 810 350 828 386 828 L386 828 Z " />
<glyph glyph-name="aringacute" unicode="&#x1fb;" horiz-adv-x="548" d="M459 910 L394 804 C324 803 287 765 287 715 C287 674 318 653 374 653 C439 653 481 684 481 739 C481 758 473 775 458 786 L569 910 L459 910 Z M391 768 C421 768 434 754 434 734 C434 705 414 688 380 688 C349 688 334 701 334 722 C334 748 354 768 391 768 L391 768 Z M360 605 C161 605 24 446 24 175 C24 43 77 -9 177 -9 C246 -9 310 20 356 82 L358 81 C356 68 356 53 356 40 L357 0 L428 0 L511 597 L500 597 C451 597 421 605 360 605 L360 605 Z M207 64 C147 64 116 94 116 182 C116 206 118 235 123 269 C149 449 227 531 347 531 C371 531 391 529 411 527 L370 239 C354 129 288 64 207 64 L207 64 Z " />
<glyph glyph-name="AEacute" unicode="&#x1fc;" horiz-adv-x="947" d="M941 670 L949 750 L463 750 L-12 0 L102 0 L213 188 L480 188 L469 0 L853 0 L867 80 L572 80 L586 354 L843 354 L854 428 L591 428 L604 670 L941 670 Z M485 262 L258 262 L488 648 C495 660 502 671 509 684 L511 684 L485 262 Z M699 908 L611 795 L685 795 L820 908 L699 908 Z " />
<glyph glyph-name="aeacute" unicode="&#x1fd;" horiz-adv-x="815" d="M354 605 C173 605 24 467 24 174 C24 42 76 -9 175 -9 C264 -9 342 35 386 128 L388 128 C404 28 461 -9 551 -9 C634 -9 700 20 745 63 L719 118 C681 83 633 65 577 65 C502 65 460 96 460 204 C460 220 461 237 463 256 C702 291 797 374 797 486 C797 560 744 607 646 607 C576 607 522 584 483 538 L481 539 L488 584 C453 594 414 605 354 605 L354 605 Z M207 64 C147 64 117 93 117 180 C117 206 120 237 125 274 C150 449 227 534 350 534 C373 534 392 531 411 529 L370 239 C354 129 288 64 207 64 L207 64 Z M640 537 C692 537 715 513 715 477 C715 406 655 350 472 324 C499 478 553 537 640 537 L640 537 Z M497 806 L411 666 L482 666 L607 806 L497 806 Z " />
<glyph glyph-name="Oslashacute" unicode="&#x1fe;" horiz-adv-x="671" d="M437 908 L349 795 L423 795 L558 908 L437 908 Z M39 -13 L95 54 C134 8 196 -13 284 -13 C486 -13 578 90 618 375 C625 427 629 473 629 513 C629 560 624 599 614 632 L693 719 L649 760 L585 690 C548 740 485 762 393 762 C191 762 97 657 57 375 C50 324 46 278 46 238 C46 187 52 144 64 110 L-6 28 L39 -13 Z M160 375 C194 617 252 676 381 676 C449 676 492 659 513 607 L150 196 C149 210 149 225 149 242 C149 279 152 322 160 375 L160 375 Z M515 375 C481 134 425 73 296 73 C229 73 186 89 165 138 L527 548 C526 490 523 432 515 375 L515 375 Z " />
<glyph glyph-name="oslashacute" unicode="&#x1ff;" horiz-adv-x="535" d="M360 806 L274 666 L345 666 L470 806 L360 806 Z M305 607 C143 607 66 516 36 300 C30 257 27 219 27 186 C27 149 31 117 39 91 L-13 30 L22 -4 L65 44 C94 7 143 -10 213 -10 C375 -10 452 81 482 297 C488 338 491 374 491 406 C491 444 487 476 478 503 L531 566 L496 600 L454 551 C424 589 376 607 305 607 L305 607 Z M391 299 C365 115 319 61 224 61 C172 61 139 77 126 124 L400 417 C400 378 396 341 391 299 L391 299 Z M292 533 C344 533 377 517 392 470 L119 179 L119 190 C119 223 123 257 128 296 C154 479 199 533 292 533 L292 533 Z " />
<glyph glyph-name="Scommaaccent" unicode="&#x218;" horiz-adv-x="515" d="M334 762 C168 762 76 659 76 526 C76 330 363 372 363 222 C363 123 297 68 200 68 C131 68 75 87 27 121 L0 41 C49 8 114 -13 191 -13 C343 -13 437 68 457 209 C459 221 460 232 460 243 C460 447 171 403 171 546 C171 619 222 681 329 681 C384 681 433 668 482 647 L506 724 C461 748 400 762 334 762 L334 762 Z M192 -40 C147 -40 129 -60 129 -84 C129 -102 144 -114 170 -114 C159 -138 144 -162 127 -186 L147 -197 C197 -156 244 -107 244 -75 C244 -54 229 -40 192 -40 L192 -40 Z " />
<glyph glyph-name="scommaaccent" unicode="&#x219;" horiz-adv-x="438" d="M275 607 C143 607 60 535 60 427 C60 275 287 292 287 174 C287 110 244 64 165 64 C116 64 65 81 30 114 L-2 48 C35 14 98 -9 163 -9 C297 -9 376 70 376 194 C376 352 148 334 148 441 C148 495 196 532 263 532 C304 532 347 523 380 505 L415 570 C379 593 326 607 275 607 L275 607 Z M170 -40 C125 -40 107 -60 107 -84 C107 -102 122 -114 148 -114 C137 -138 122 -162 105 -186 L125 -197 C175 -156 222 -107 222 -75 C222 -54 207 -40 170 -40 L170 -40 Z " />
<glyph glyph-name="uni021A" unicode="&#x21a;" horiz-adv-x="528" d="M557 668 L566 750 L72 750 L58 668 L258 668 L165 0 L263 0 L356 668 L557 668 Z M207 -40 C162 -40 144 -60 144 -84 C144 -102 159 -114 185 -114 C174 -138 159 -162 142 -186 L162 -197 C212 -156 259 -107 259 -75 C259 -54 244 -40 207 -40 L207 -40 Z " />
<glyph glyph-name="uni021B" unicode="&#x21b;" horiz-adv-x="373" d="M45 525 L122 525 L74 181 C71 160 70 141 70 124 C70 33 110 -7 188 -7 C230 -7 268 7 298 26 L295 91 C272 77 246 67 221 67 C182 67 161 90 161 144 C161 156 162 169 164 184 L212 525 L355 525 L369 594 L222 594 L245 759 L174 748 L136 594 L59 594 L45 525 Z M168 -40 C123 -40 105 -60 105 -84 C105 -102 120 -114 146 -114 C135 -138 120 -162 103 -186 L123 -197 C173 -156 220 -107 220 -75 C220 -54 205 -40 168 -40 L168 -40 Z " />
<glyph glyph-name="uni0237" unicode="&#x237;" horiz-adv-x="269" d="M223 599 L132 594 L61 89 C44 -33 4 -71 -84 -87 L-86 -151 C48 -135 128 -73 151 90 L223 599 Z " />
<glyph glyph-name="uni0259" unicode="&#x259;" horiz-adv-x="473" d="M170 -9 C318 -9 409 91 438 297 C443 333 446 366 446 395 C446 550 375 607 265 607 C182 607 116 578 71 534 L97 479 C135 514 184 532 239 532 C314 532 356 500 356 389 L356 366 C102 328 20 227 20 114 C20 38 66 -9 170 -9 L170 -9 Z M180 60 C125 60 101 84 101 125 C101 194 155 274 350 302 L350 301 C326 135 275 60 180 60 L180 60 Z " />
<glyph glyph-name="uni02BB" unicode="&#x2bb;" horiz-adv-x="217" d="M140 583 C181 583 207 611 207 651 C207 677 192 693 167 693 C181 730 202 769 223 804 L195 822 C140 761 89 684 89 633 C89 602 106 583 140 583 L140 583 Z " />
<glyph glyph-name="afii57929" unicode="&#x2bc;" horiz-adv-x="217" d="M170 792 C126 792 102 761 102 722 C102 696 117 682 142 682 L143 682 C128 644 109 606 87 571 L115 553 C170 612 221 691 221 740 C221 772 204 792 170 792 L170 792 Z " />
<glyph glyph-name="circumflex" unicode="&#x2c6;" horiz-adv-x="354" d="M200 806 L86 666 L155 666 L209 735 C217 745 225 757 233 768 L235 768 C240 756 246 742 252 731 L286 666 L356 666 L279 806 L200 806 Z " />
<glyph glyph-name="caron" unicode="&#x2c7;" horiz-adv-x="354" d="M260 666 L376 806 L305 806 L250 733 C242 722 234 711 227 700 L225 700 C220 712 216 723 209 737 L176 806 L106 806 L181 666 L260 666 Z " />
<glyph glyph-name="breve" unicode="&#x2d8;" horiz-adv-x="354" d="M307 806 C297 738 266 707 226 707 C192 707 170 729 170 777 C170 786 170 796 172 806 L110 806 C108 792 107 779 107 767 C107 697 142 658 219 658 C308 658 357 713 370 806 L307 806 Z " />
<glyph glyph-name="dotaccent" unicode="&#x2d9;" horiz-adv-x="373" d="M249 797 C206 797 182 776 182 738 C182 711 200 701 235 701 C276 701 300 719 300 758 C300 783 284 797 249 797 L249 797 Z " />
<glyph glyph-name="ring" unicode="&#x2da;" horiz-adv-x="354" d="M243 821 C173 821 135 783 135 732 C135 691 166 670 222 670 C287 670 329 701 329 756 C329 794 300 821 243 821 L243 821 Z M239 785 C269 785 282 771 282 751 C282 722 262 705 228 705 C197 705 182 718 182 739 C182 765 202 785 239 785 L239 785 Z " />
<glyph glyph-name="ogonek" unicode="&#x2db;" horiz-adv-x="373" d="M158 -175 C191 -175 220 -167 246 -153 L245 -107 C227 -116 209 -121 188 -121 C155 -121 142 -107 142 -86 C142 -52 165 -19 211 0 L175 14 C113 -9 69 -56 69 -109 C69 -147 94 -175 158 -175 L158 -175 Z " />
<glyph glyph-name="tilde" unicode="&#x2dc;" horiz-adv-x="373" d="M297 676 C345 676 381 720 395 789 L342 789 C332 752 320 733 301 733 C267 733 252 798 196 798 C149 798 112 754 97 685 L150 685 C161 722 174 741 192 741 C226 741 242 676 297 676 L297 676 Z " />
<glyph glyph-name="hungarumlaut" unicode="&#x2dd;" horiz-adv-x="354" d="M207 806 L124 666 L184 666 L304 806 L207 806 Z M357 806 L261 666 L329 666 L455 806 L357 806 Z " />
<glyph glyph-name="uni0394" unicode="&#x394;" horiz-adv-x="681" d="M428 754 L362 754 L-9 0 L590 0 L428 754 Z M379 618 C381 605 382 593 385 578 L476 70 L120 71 L361 581 C367 593 372 605 377 618 L379 618 Z " />
<glyph glyph-name="uni03A9" unicode="&#x3a9;" horiz-adv-x="671" d="M391 761 C215 761 104 662 71 434 C68 411 66 387 66 365 C66 251 107 150 194 77 L193 74 L16 74 L6 0 L251 0 L265 104 C205 168 167 254 167 361 C167 383 169 406 172 430 C198 613 260 682 380 682 C478 682 526 636 526 519 C526 338 448 198 333 104 L319 0 L565 0 L575 74 L397 74 L397 77 C556 187 627 353 627 525 C627 691 543 761 391 761 L391 761 Z " />
<glyph glyph-name="uni03BC" unicode="&#x3bc;" horiz-adv-x="564" d="M203 -6 C272 -6 336 30 377 88 L379 87 C377 74 377 59 377 46 L378 -4 L442 2 L525 597 L435 597 L384 228 C370 129 291 68 215 68 C159 68 133 98 133 154 C133 162 134 173 135 184 L193 597 L103 597 L-2 -150 L87 -143 C91 -82 96 -17 103 50 L105 50 C123 7 162 -6 203 -6 L203 -6 Z " />
<glyph glyph-name="pi" unicode="&#x3c0;" horiz-adv-x="615" d="M368 141 C365 123 364 107 364 93 C364 21 399 -4 500 -4 L509 62 C469 62 455 73 455 110 C455 119 455 129 457 141 L511 522 L595 522 L605 597 L195 597 C125 597 79 585 50 565 L64 498 C85 513 112 520 150 522 L77 0 L166 0 L239 522 L422 522 L368 141 Z " />
<glyph glyph-name="Wgrave" unicode="&#x1e80;" horiz-adv-x="913" d="M460 750 L242 129 C237 116 233 102 230 90 L228 90 C228 103 228 118 227 131 L199 750 L99 750 L155 0 L274 0 L484 616 L496 655 L498 655 C498 642 499 627 500 614 L539 0 L659 0 L925 750 L828 750 L625 131 L614 92 L612 92 L610 133 L567 750 L460 750 Z M563 795 L504 908 L391 908 L488 795 L563 795 Z " />
<glyph glyph-name="wgrave" unicode="&#x1e81;" horiz-adv-x="812" d="M487 666 L445 806 L337 806 L417 666 L487 666 Z M761 609 L676 588 C682 560 685 527 685 491 C685 209 539 77 504 77 C476 77 442 128 442 246 C442 280 445 318 451 363 L483 595 L392 595 L363 386 C334 176 226 78 199 78 C176 78 145 126 145 241 C145 275 147 316 154 363 L187 599 L95 594 L63 363 C57 322 55 285 55 251 C55 69 130 -10 176 -10 C212 -10 305 47 372 179 L373 179 C389 45 448 -10 487 -10 C557 -10 775 152 775 486 C775 531 770 572 761 609 L761 609 Z " />
<glyph glyph-name="Wacute" unicode="&#x1e82;" horiz-adv-x="913" d="M460 750 L242 129 C237 116 233 102 230 90 L228 90 C228 103 228 118 227 131 L199 750 L99 750 L155 0 L274 0 L484 616 L496 655 L498 655 C498 642 499 627 500 614 L539 0 L659 0 L925 750 L828 750 L625 131 L614 92 L612 92 L610 133 L567 750 L460 750 Z M563 908 L475 795 L549 795 L684 908 L563 908 Z " />
<glyph glyph-name="wacute" unicode="&#x1e83;" horiz-adv-x="812" d="M485 806 L399 666 L470 666 L595 806 L485 806 Z M761 609 L676 588 C682 560 685 527 685 491 C685 209 539 77 504 77 C476 77 442 128 442 246 C442 280 445 318 451 363 L483 595 L392 595 L363 386 C334 176 226 78 199 78 C176 78 145 126 145 241 C145 275 147 316 154 363 L187 599 L95 594 L63 363 C57 322 55 285 55 251 C55 69 130 -10 176 -10 C212 -10 305 47 372 179 L373 179 C389 45 448 -10 487 -10 C557 -10 775 152 775 486 C775 531 770 572 761 609 L761 609 Z " />
<glyph glyph-name="Wdieresis" unicode="&#x1e84;" horiz-adv-x="913" d="M460 750 L242 129 C237 116 233 102 230 90 L228 90 C228 103 228 118 227 131 L199 750 L99 750 L155 0 L274 0 L484 616 L496 655 L498 655 C498 642 499 627 500 614 L539 0 L659 0 L925 750 L828 750 L625 131 L614 92 L612 92 L610 133 L567 750 L460 750 Z M442 889 C410 889 391 870 391 835 C391 811 404 803 430 803 C462 803 481 820 481 855 C481 877 468 889 442 889 L442 889 Z M618 889 C586 889 567 870 567 835 C567 811 580 803 606 803 C638 803 657 820 657 855 C657 877 644 889 618 889 L618 889 Z " />
<glyph glyph-name="wdieresis" unicode="&#x1e85;" horiz-adv-x="812" d="M386 796 C354 796 336 774 336 738 C336 715 349 705 374 705 C406 705 426 723 426 760 C426 783 412 796 386 796 L386 796 Z M537 796 C505 796 486 774 486 738 C486 715 500 705 525 705 C557 705 577 723 577 760 C577 783 563 796 537 796 L537 796 Z M761 609 L676 588 C682 560 685 527 685 491 C685 209 539 77 504 77 C476 77 442 128 442 246 C442 280 445 318 451 363 L483 595 L392 595 L363 386 C334 176 226 78 199 78 C176 78 145 126 145 241 C145 275 147 316 154 363 L187 599 L95 594 L63 363 C57 322 55 285 55 251 C55 69 130 -10 176 -10 C212 -10 305 47 372 179 L373 179 C389 45 448 -10 487 -10 C557 -10 775 152 775 486 C775 531 770 572 761 609 L761 609 Z " />
<glyph glyph-name="uni1E8A" unicode="&#x1e8a;" horiz-adv-x="629" d="M638 750 L527 750 L349 480 C342 469 334 457 328 446 L326 446 C323 458 317 472 313 484 L211 750 L95 750 L247 391 L-16 0 L97 0 L287 297 C294 308 302 320 308 332 L310 332 C314 319 318 306 323 294 L434 0 L545 0 L386 388 L638 750 Z M389 889 C342 889 322 871 322 836 C322 811 338 801 377 801 C423 801 443 818 443 854 C443 877 427 889 389 889 L389 889 Z " />
<glyph glyph-name="uni1E8B" unicode="&#x1e8b;" horiz-adv-x="546" d="M74 0 L230 224 C237 234 248 250 252 258 L254 258 C258 245 263 232 268 220 L353 0 L457 0 L323 305 L532 597 L434 597 L295 393 C287 382 280 370 273 359 L271 359 C267 371 262 385 257 397 L176 599 L73 595 L201 314 L-26 0 L74 0 Z M336 797 C293 797 269 776 269 738 C269 711 287 701 322 701 C363 701 387 719 387 758 C387 783 371 797 336 797 L336 797 Z " />
<glyph glyph-name="Ygrave" unicode="&#x1ef2;" horiz-adv-x="605" d="M74 750 L240 255 L205 0 L304 0 L339 255 L641 750 L534 750 L324 378 C317 366 310 353 305 342 L303 342 C301 354 297 367 293 381 L184 750 L74 750 Z M421 795 L362 908 L249 908 L346 795 L421 795 Z " />
<glyph glyph-name="ygrave" unicode="&#x1ef3;" horiz-adv-x="531" d="M424 597 C381 414 321 268 255 153 L253 153 C251 166 248 180 245 193 L157 599 L58 592 L188 69 C145 11 99 -34 33 -81 L65 -147 C285 -7 434 275 513 597 L424 597 Z M360 666 L318 806 L210 806 L290 666 L360 666 Z " />
<glyph glyph-name="uni2007" unicode="&#x2007;" horiz-adv-x="591" d="" />
<glyph glyph-name="uni2008" unicode="&#x2008;" horiz-adv-x="234" d="" />
<glyph glyph-name="uni200B" unicode="&#x200b;" d="" />
<glyph glyph-name="endash" unicode="&#x2013;" horiz-adv-x="490" d="M66 375 L57 311 L419 311 L428 375 L66 375 Z " />
<glyph glyph-name="emdash" unicode="&#x2014;" horiz-adv-x="659" d="M66 375 L57 311 L588 311 L597 375 L66 375 Z " />
<glyph glyph-name="quoteleft" unicode="&#x2018;" horiz-adv-x="217" d="M140 583 C181 583 207 611 207 651 C207 677 192 693 167 693 C181 730 202 769 223 804 L195 822 C140 761 89 684 89 633 C89 602 106 583 140 583 L140 583 Z " />
<glyph glyph-name="quoteright" unicode="&#x2019;" horiz-adv-x="217" d="M170 792 C126 792 102 761 102 722 C102 696 117 682 142 682 L143 682 C128 644 109 606 87 571 L115 553 C170 612 221 691 221 740 C221 772 204 792 170 792 L170 792 Z " />
<glyph glyph-name="quotesinglbase" unicode="&#x201a;" horiz-adv-x="217" d="M73 100 C30 100 4 70 4 31 C4 5 20 -10 45 -10 L46 -10 C31 -48 11 -86 -11 -121 L18 -139 C73 -78 123 0 123 50 C123 81 107 100 73 100 L73 100 Z " />
<glyph glyph-name="quotedblleft" unicode="&#x201c;" horiz-adv-x="387" d="M140 583 C181 583 207 611 207 651 C207 677 192 693 167 693 C181 730 202 769 223 804 L195 822 C140 761 89 684 89 633 C89 602 106 583 140 583 L140 583 Z M311 583 C352 583 378 611 378 651 C378 677 363 693 338 693 C352 730 373 769 394 804 L366 822 C311 761 260 684 260 633 C260 602 277 583 311 583 L311 583 Z " />
<glyph glyph-name="quotedblright" unicode="&#x201d;" horiz-adv-x="387" d="M170 791 C127 791 101 761 101 722 C101 696 117 681 142 681 L143 681 C128 643 109 605 87 570 L115 552 C171 613 220 691 220 741 C220 772 204 791 170 791 L170 791 Z M340 791 C297 791 271 761 271 722 C271 696 287 681 312 681 L313 681 C298 643 279 605 257 570 L285 552 C341 613 390 691 390 741 C390 772 374 791 340 791 L340 791 Z " />
<glyph glyph-name="quotedblbase" unicode="&#x201e;" horiz-adv-x="387" d="M243 100 C200 100 174 70 174 31 C174 5 190 -10 215 -10 L216 -10 C201 -48 181 -86 159 -121 L188 -139 C243 -78 293 0 293 50 C293 81 277 100 243 100 L243 100 Z M73 100 C30 100 4 70 4 31 C4 5 20 -10 45 -10 L46 -10 C31 -48 11 -86 -11 -121 L18 -139 C73 -78 123 0 123 50 C123 81 107 100 73 100 L73 100 Z " />
<glyph glyph-name="dagger" unicode="&#x2020;" horiz-adv-x="468" d="M74 601 L63 522 L218 528 L116 -140 L207 -140 L294 528 L451 522 L462 601 L303 594 L338 793 L247 793 L227 594 L74 601 Z " />
<glyph glyph-name="daggerdbl" unicode="&#x2021;" horiz-adv-x="468" d="M396 132 L237 126 L294 528 L451 523 L462 601 L303 594 L338 793 L247 793 L227 594 L74 601 L63 523 L218 528 L162 126 L8 132 L-3 54 L152 60 L116 -141 L207 -141 L228 60 L385 54 L396 132 Z " />
<glyph glyph-name="bullet" unicode="&#x2022;" horiz-adv-x="383" d="M202 453 C108 453 53 401 53 294 C53 227 90 195 166 195 C260 195 316 245 316 355 C316 421 278 453 202 453 L202 453 Z " />
<glyph glyph-name="ellipsis" unicode="&#x2026;" horiz-adv-x="608" d="M457 101 C412 101 388 75 388 31 C388 2 405 -11 441 -11 C484 -11 509 15 509 57 C509 85 492 101 457 101 L457 101 Z M273 101 C228 101 204 75 204 31 C204 2 221 -11 257 -11 C300 -11 325 15 325 57 C325 85 308 101 273 101 L273 101 Z M81 101 C36 101 12 75 12 31 C12 2 29 -11 65 -11 C108 -11 133 15 133 57 C133 85 116 101 81 101 L81 101 Z " />
<glyph glyph-name="perthousand" unicode="&#x2030;" horiz-adv-x="951" d="M233 763 C139 763 93 714 75 590 C72 570 71 552 71 536 C71 453 108 418 184 418 C271 418 324 467 341 590 C344 611 346 630 346 647 C346 733 306 763 233 763 L233 763 Z M225 710 C262 710 283 695 283 639 C283 625 282 610 279 591 C265 495 239 472 192 472 C155 472 134 487 134 541 C134 555 135 571 138 591 C151 687 178 710 225 710 L225 710 Z M531 733 L66 54 L117 17 L581 695 L531 733 Z M477 339 C383 339 337 289 320 165 C317 145 316 127 316 110 C316 28 351 -8 427 -8 C520 -8 589 57 589 221 C589 308 550 339 477 339 L477 339 Z M469 284 C507 284 527 269 527 214 C527 200 526 184 523 165 C509 69 483 46 436 46 C399 46 378 61 378 115 C378 129 379 145 382 165 C395 261 422 284 469 284 L469 284 Z M772 339 C678 339 632 289 615 165 C612 145 611 126 611 110 C611 27 647 -8 723 -8 C811 -8 863 42 881 165 C884 185 885 204 885 220 C885 307 845 339 772 339 L772 339 Z M764 284 C802 284 823 269 823 213 C823 199 822 184 819 165 C805 69 779 46 731 46 C694 46 674 61 674 115 C674 129 675 145 678 165 C691 261 717 284 764 284 L764 284 Z " />
<glyph glyph-name="guilsinglleft" unicode="&#x2039;" horiz-adv-x="377" d="M326 442 L335 512 L38 329 L37 321 L283 138 L293 208 L128 325 L326 442 Z " />
<glyph glyph-name="guilsinglright" unicode="&#x203a;" horiz-adv-x="377" d="M32 138 L330 321 L331 329 L84 512 L75 442 L238 325 L42 208 L32 138 Z " />
<glyph glyph-name="fraction" unicode="&#x2044;" horiz-adv-x="269" d="M400 750 L-170 0 L-102 0 L468 750 L400 750 Z " />
<glyph glyph-name="uni2070" unicode="&#x2070;" horiz-adv-x="337" d="M245 895 C147 895 96 840 75 693 C71 667 70 644 70 624 C70 531 107 491 187 491 C283 491 335 551 355 693 C359 720 361 744 361 765 C361 858 323 895 245 895 L245 895 Z M237 843 C274 843 296 827 296 763 C296 744 294 722 290 694 C273 571 243 543 194 543 C155 543 133 560 133 624 C133 643 135 666 139 693 C156 816 186 843 237 843 L237 843 Z " />
<glyph glyph-name="uni2074" unicode="&#x2074;" horiz-adv-x="337" d="M350 579 L359 628 L316 628 L353 890 L274 890 L62 618 L61 579 L249 579 L238 496 L298 496 L309 579 L350 579 Z M257 628 L130 628 C140 639 148 648 157 660 L265 799 C273 809 282 822 289 833 L291 832 C288 819 285 804 283 791 L257 628 Z " />
<glyph glyph-name="uni2075" unicode="&#x2075;" horiz-adv-x="337" d="M358 890 L143 890 L99 699 L123 681 C146 691 179 698 210 698 C258 698 278 680 278 645 C278 573 248 541 185 541 C146 541 120 551 90 568 L72 519 C101 501 139 491 184 491 C284 491 343 550 343 656 C343 717 305 746 233 746 C210 746 187 742 165 737 L186 837 L352 837 L358 890 Z " />
<glyph glyph-name="uni2076" unicode="&#x2076;" horiz-adv-x="337" d="M358 880 C333 890 306 895 273 895 C165 895 97 828 77 681 C74 658 72 638 72 620 C72 525 116 491 192 491 C281 491 348 546 348 658 C348 720 311 749 240 749 C207 749 175 739 147 720 L146 721 C164 803 200 842 271 842 C302 842 323 838 346 828 L358 880 Z M223 702 C264 702 282 685 282 650 C282 573 243 541 200 541 C159 541 139 562 139 618 C139 632 140 649 143 668 C160 689 199 702 223 702 L223 702 Z " />
<glyph glyph-name="uni2077" unicode="&#x2077;" horiz-adv-x="337" d="M380 890 L111 890 L99 833 L303 833 L304 831 C296 821 289 810 282 799 L98 496 L175 496 L372 836 L380 890 Z " />
<glyph glyph-name="uni2078" unicode="&#x2078;" horiz-adv-x="337" d="M188 491 C283 491 343 535 343 624 C343 667 319 689 289 703 L289 705 C332 729 356 766 356 814 C356 867 321 895 245 895 C151 895 103 850 103 775 C103 740 118 719 142 705 L142 703 C90 677 62 636 62 582 C62 521 102 491 188 491 L188 491 Z M191 679 C235 665 277 651 277 611 C277 560 238 540 196 540 C149 540 127 555 127 590 C127 632 154 659 191 679 L191 679 Z M238 848 C276 848 295 831 295 800 C295 765 275 742 238 723 C200 736 165 748 165 782 C165 824 194 848 238 848 L238 848 Z " />
<glyph glyph-name="uni2079" unicode="&#x2079;" horiz-adv-x="337" d="M238 896 C141 896 87 833 87 747 C87 689 120 653 199 653 C233 653 263 664 288 684 L290 682 C270 576 232 541 167 541 C136 541 116 547 91 558 L74 509 C100 498 124 491 165 491 C269 491 331 553 353 711 C356 731 357 749 357 766 C357 854 319 896 238 896 L238 896 Z M230 845 C271 845 293 827 293 772 C293 760 292 747 290 732 C274 711 242 700 213 700 C168 700 150 720 150 756 C150 817 183 845 230 845 L230 845 Z " />
<glyph glyph-name="uni207A" unicode="&#x207a;" horiz-adv-x="339" d="M348 670 L348 725 L243 725 L243 833 L187 833 L187 725 L85 725 L85 670 L187 670 L187 564 L243 564 L243 670 L348 670 Z " />
<glyph glyph-name="uni207B" unicode="&#x207b;" horiz-adv-x="339" d="M341 674 L349 728 L95 728 L87 674 L341 674 Z " />
<glyph glyph-name="uni207C" unicode="&#x207c;" horiz-adv-x="339" d="M342 732 L342 779 L90 779 L90 732 L342 732 Z M342 621 L342 669 L90 669 L90 621 L342 621 Z " />
<glyph glyph-name="uni207D" unicode="&#x207d;" horiz-adv-x="194" d="M214 922 C141 843 96 742 96 616 C96 545 113 483 146 435 L194 438 C170 491 155 549 155 614 C155 727 197 833 262 918 L214 922 Z " />
<glyph glyph-name="uni207E" unicode="&#x207e;" horiz-adv-x="194" d="M87 918 C112 865 126 808 126 744 C126 626 81 524 19 438 L68 435 C141 510 187 625 187 744 C187 813 170 871 136 922 L87 918 Z " />
<glyph glyph-name="uni2080" unicode="&#x2080;" horiz-adv-x="337" d="M156 255 C58 255 7 200 -14 53 C-18 27 -19 4 -19 -16 C-19 -109 18 -149 98 -149 C194 -149 246 -89 266 53 C270 80 272 104 272 125 C272 218 234 255 156 255 L156 255 Z M148 203 C185 203 207 187 207 123 C207 104 205 82 201 54 C184 -69 154 -97 105 -97 C66 -97 44 -80 44 -16 C44 3 46 26 50 53 C67 176 97 203 148 203 L148 203 Z " />
<glyph glyph-name="uni2081" unicode="&#x2081;" horiz-adv-x="248" d="M175 252 L132 252 L12 173 L12 117 L63 147 C74 153 86 162 97 170 L99 168 C96 155 94 141 92 128 L54 -144 L120 -144 L175 252 Z " />
<glyph glyph-name="uni2082" unicode="&#x2082;" horiz-adv-x="324" d="M151 255 C99 255 53 237 17 215 L27 165 C59 186 92 201 128 201 C176 201 192 181 192 152 C192 82 89 -4 -26 -102 L-31 -144 L222 -144 L230 -90 L57 -90 L57 -87 C176 3 263 78 263 166 C263 221 226 255 151 255 L151 255 Z " />
<glyph glyph-name="uni2083" unicode="&#x2083;" horiz-adv-x="324" d="M148 255 C100 255 52 238 21 214 L30 168 C63 191 95 203 136 203 C178 203 203 188 203 158 C203 112 171 87 87 87 L81 41 C157 41 185 26 185 -11 C185 -61 153 -99 91 -99 C52 -99 21 -89 -6 -71 L-27 -119 C3 -139 37 -149 85 -149 C190 -149 248 -93 248 -9 C248 31 227 53 189 64 L189 66 C233 82 265 114 265 171 C265 226 221 255 148 255 L148 255 Z " />
<glyph glyph-name="uni2084" unicode="&#x2084;" horiz-adv-x="337" d="M261 -61 L270 -12 L227 -12 L264 250 L185 250 L-27 -22 L-28 -61 L160 -61 L149 -144 L209 -144 L220 -61 L261 -61 Z M168 -12 L41 -12 C51 -1 59 8 68 20 L176 159 C184 169 193 182 200 193 L202 192 C199 179 196 164 194 151 L168 -12 Z " />
<glyph glyph-name="uni2085" unicode="&#x2085;" horiz-adv-x="337" d="M269 250 L54 250 L10 59 L34 41 C57 51 90 58 121 58 C169 58 189 40 189 5 C189 -67 159 -99 96 -99 C57 -99 31 -89 1 -72 L-17 -121 C12 -139 50 -149 95 -149 C195 -149 254 -90 254 16 C254 77 216 106 144 106 C121 106 98 102 76 97 L97 197 L263 197 L269 250 Z " />
<glyph glyph-name="uni2086" unicode="&#x2086;" horiz-adv-x="337" d="M269 240 C244 250 217 255 184 255 C76 255 8 188 -12 41 C-15 18 -17 -2 -17 -20 C-17 -115 27 -149 103 -149 C192 -149 259 -94 259 18 C259 80 222 109 151 109 C118 109 86 99 58 80 L57 81 C75 163 111 202 182 202 C213 202 234 198 257 188 L269 240 Z M134 62 C175 62 193 45 193 10 C193 -67 154 -99 111 -99 C70 -99 50 -78 50 -22 C50 -8 51 9 54 28 C71 49 110 62 134 62 L134 62 Z " />
<glyph glyph-name="uni2087" unicode="&#x2087;" horiz-adv-x="337" d="M291 250 L22 250 L10 193 L214 193 L215 191 C207 181 200 170 193 159 L9 -144 L86 -144 L283 196 L291 250 Z " />
<glyph glyph-name="uni2088" unicode="&#x2088;" horiz-adv-x="337" d="M99 -149 C194 -149 254 -105 254 -16 C254 27 230 49 200 63 L200 65 C243 89 267 126 267 174 C267 227 232 255 156 255 C62 255 14 210 14 135 C14 100 29 79 53 65 L53 63 C1 37 -27 -4 -27 -58 C-27 -119 13 -149 99 -149 L99 -149 Z M102 39 C146 25 188 11 188 -29 C188 -80 149 -100 107 -100 C60 -100 38 -85 38 -50 C38 -8 65 19 102 39 L102 39 Z M149 208 C187 208 206 191 206 160 C206 125 186 102 149 83 C111 96 76 108 76 142 C76 184 105 208 149 208 L149 208 Z " />
<glyph glyph-name="uni2089" unicode="&#x2089;" horiz-adv-x="337" d="M149 256 C52 256 -2 193 -2 107 C-2 49 31 13 110 13 C144 13 174 24 199 44 L201 42 C181 -64 143 -99 78 -99 C47 -99 27 -93 2 -82 L-15 -131 C11 -142 35 -149 76 -149 C180 -149 242 -87 264 71 C267 91 268 109 268 126 C268 214 230 256 149 256 L149 256 Z M141 205 C182 205 204 187 204 132 C204 120 203 107 201 92 C185 71 153 60 124 60 C79 60 61 80 61 116 C61 177 94 205 141 205 L141 205 Z " />
<glyph glyph-name="uni208A" unicode="&#x208a;" horiz-adv-x="339" d="M259 30 L259 85 L154 85 L154 193 L98 193 L98 85 L-4 85 L-4 30 L98 30 L98 -76 L154 -76 L154 30 L259 30 Z " />
<glyph glyph-name="uni208B" unicode="&#x208b;" horiz-adv-x="339" d="M251 34 L259 88 L5 88 L-3 34 L251 34 Z " />
<glyph glyph-name="uni208C" unicode="&#x208c;" horiz-adv-x="339" d="M253 92 L253 139 L1 139 L1 92 L253 92 Z M253 -19 L253 29 L1 29 L1 -19 L253 -19 Z " />
<glyph glyph-name="uni208D" unicode="&#x208d;" horiz-adv-x="194" d="M125 282 C52 203 7 102 7 -24 C7 -95 24 -157 57 -205 L105 -202 C81 -149 66 -91 66 -26 C66 87 108 193 173 278 L125 282 Z " />
<glyph glyph-name="uni208E" unicode="&#x208e;" horiz-adv-x="194" d="M-2 278 C23 225 37 168 37 104 C37 -14 -8 -116 -70 -202 L-21 -205 C52 -130 98 -15 98 104 C98 173 81 231 47 282 L-2 278 Z " />
<glyph glyph-name="franc" unicode="&#x20a3;" horiz-adv-x="591" d="M-2 175 L-11 112 L68 112 L53 0 L150 0 L165 112 L249 112 L258 175 L174 175 L199 349 L458 349 L469 427 L210 427 L243 668 L572 668 L582 750 L158 750 L77 175 L-2 175 Z " />
<glyph glyph-name="lira" unicode="&#x20a4;" horiz-adv-x="591" d="M86 404 L134 404 C136 384 140 364 141 342 L79 342 L74 288 L141 288 C134 191 99 104 18 75 L12 -5 C111 4 184 8 271 8 C347 8 413 3 491 -6 L507 78 C447 85 388 90 322 90 C247 90 187 86 128 74 L127 76 C189 115 222 183 230 288 L451 288 L459 342 L231 342 C230 364 227 384 225 404 L467 404 L475 458 L219 458 C218 472 217 487 217 502 C217 598 265 678 397 678 C453 678 504 663 536 645 L560 724 C522 745 467 760 397 760 C193 760 123 641 123 507 C123 490 124 474 126 458 L91 458 L86 404 Z " />
<glyph glyph-name="peseta" unicode="&#x20a7;" horiz-adv-x="591" d="M583 494 L591 544 L537 544 C538 559 539 572 539 585 C539 704 476 750 340 750 L135 750 L106 544 L51 544 L44 494 L99 494 L30 0 L120 0 L161 292 L276 292 C428 292 503 354 530 494 L583 494 Z M214 673 L329 673 C407 673 445 647 445 570 C445 562 445 553 444 544 L196 544 L214 673 Z M286 365 L171 365 L189 494 L437 494 C417 393 370 365 286 365 L286 365 Z " />
<glyph glyph-name="Euro" unicode="&#x20ac;" horiz-adv-x="591" d="M455 344 L204 344 C206 362 209 387 213 408 L486 408 L506 462 L224 462 C262 606 338 675 463 675 C513 675 548 667 585 648 L614 722 C578 743 520 756 457 756 C289 756 173 654 126 462 L47 462 L40 408 L116 408 C112 387 109 362 107 344 L31 344 L24 292 L104 292 C103 279 103 266 103 254 C103 73 179 -8 342 -8 C412 -8 479 11 529 41 L530 112 C482 84 428 68 375 68 C261 68 200 121 200 267 C200 275 201 283 201 292 L436 292 L455 344 Z " />
<glyph glyph-name="trademark" unicode="&#x2122;" horiz-adv-x="617" d="M593 505 L631 774 L563 774 L473 602 C466 588 459 576 455 566 L453 566 C451 579 448 593 445 606 L404 774 L333 774 L295 505 L343 505 L367 674 C369 687 371 702 371 715 L373 715 L424 505 L465 505 L576 715 L578 715 C574 702 571 686 569 673 L545 505 L593 505 Z M292 727 L298 774 L86 774 L80 727 L158 727 L126 505 L182 505 L214 727 L292 727 Z " />
<glyph glyph-name="Omega" unicode="&#x2126;" horiz-adv-x="671" d="M391 761 C215 761 104 662 71 434 C68 411 66 387 66 365 C66 251 107 150 194 77 L193 74 L16 74 L6 0 L251 0 L265 104 C205 168 167 254 167 361 C167 383 169 406 172 430 C198 613 260 682 380 682 C478 682 526 636 526 519 C526 338 448 198 333 104 L319 0 L565 0 L575 74 L397 74 L397 77 C556 187 627 353 627 525 C627 691 543 761 391 761 L391 761 Z " />
<glyph glyph-name="uni2150" unicode="&#x2150;" horiz-adv-x="854" d="M245 752 L202 752 L82 673 L82 617 L133 647 C144 653 156 662 167 670 L169 668 C166 655 164 641 162 628 L124 356 L190 356 L245 752 Z M648 750 L78 0 L146 0 L716 750 L648 750 Z M828 394 L559 394 L547 337 L751 337 L752 335 C744 325 737 314 730 303 L546 0 L623 0 L820 340 L828 394 Z " />
<glyph glyph-name="uni2151" unicode="&#x2151;" horiz-adv-x="854" d="M245 752 L202 752 L82 673 L82 617 L133 647 C144 653 156 662 167 670 L169 668 C166 655 164 641 162 628 L124 356 L190 356 L245 752 Z M648 750 L78 0 L146 0 L716 750 L648 750 Z M686 400 C589 400 535 337 535 251 C535 193 568 157 647 157 C681 157 711 168 736 188 L738 186 C718 80 680 45 615 45 C584 45 564 51 539 62 L522 13 C548 2 572 -5 613 -5 C717 -5 779 57 801 215 C804 235 805 253 805 270 C805 358 767 400 686 400 L686 400 Z M678 349 C719 349 741 331 741 276 C741 264 740 251 738 236 C722 215 690 204 661 204 C616 204 598 224 598 260 C598 321 631 349 678 349 L678 349 Z " />
<glyph glyph-name="uni2152" unicode="&#x2152;" horiz-adv-x="1102" d="M245 752 L202 752 L82 673 L82 617 L133 647 C144 653 156 662 167 670 L169 668 C166 655 164 641 162 628 L124 356 L190 356 L245 752 Z M648 750 L78 0 L146 0 L716 750 L648 750 Z M712 396 L669 396 L549 317 L549 261 L600 291 C611 297 623 306 634 314 L636 312 C633 299 631 285 629 272 L591 0 L657 0 L712 396 Z M941 399 C843 399 792 344 771 197 C767 171 766 148 766 128 C766 35 803 -5 883 -5 C979 -5 1031 55 1051 197 C1055 224 1057 248 1057 269 C1057 362 1019 399 941 399 L941 399 Z M933 347 C970 347 992 331 992 267 C992 248 990 226 986 198 C969 75 939 47 890 47 C851 47 829 64 829 128 C829 147 831 170 835 197 C852 320 882 347 933 347 L933 347 Z " />
<glyph glyph-name="onethird" unicode="&#x2153;" horiz-adv-x="799" d="M603 399 C555 399 507 382 476 358 L485 312 C518 335 550 347 591 347 C633 347 658 332 658 302 C658 256 626 231 542 231 L536 185 C612 185 640 170 640 133 C640 83 608 45 546 45 C507 45 476 55 449 73 L428 25 C458 5 492 -5 540 -5 C645 -5 703 51 703 135 C703 175 682 197 644 208 L644 210 C688 226 720 258 720 315 C720 370 676 399 603 399 L603 399 Z M306 752 L263 752 L143 673 L143 617 L194 647 C205 653 217 662 228 670 L230 668 C227 655 225 641 223 628 L185 356 L251 356 L306 752 Z M641 750 L71 0 L139 0 L709 750 L641 750 Z " />
<glyph glyph-name="twothirds" unicode="&#x2154;" horiz-adv-x="799" d="M607 399 C559 399 511 382 480 358 L489 312 C522 335 554 347 595 347 C637 347 662 332 662 302 C662 256 630 231 546 231 L540 185 C616 185 644 170 644 133 C644 83 612 45 550 45 C511 45 480 55 453 73 L432 25 C462 5 496 -5 544 -5 C649 -5 707 51 707 135 C707 175 686 197 648 208 L648 210 C692 226 724 258 724 315 C724 370 680 399 607 399 L607 399 Z M238 755 C186 755 140 737 104 715 L114 665 C146 686 179 701 215 701 C263 701 279 681 279 652 C279 582 176 496 61 398 L56 356 L309 356 L317 410 L144 410 L144 413 C263 503 350 578 350 666 C350 721 313 755 238 755 L238 755 Z M650 750 L80 0 L148 0 L718 750 L650 750 Z " />
<glyph glyph-name="uni2155" unicode="&#x2155;" horiz-adv-x="854" d="M245 752 L202 752 L82 673 L82 617 L133 647 C144 653 156 662 167 670 L169 668 C166 655 164 641 162 628 L124 356 L190 356 L245 752 Z M648 750 L78 0 L146 0 L716 750 L648 750 Z M806 394 L591 394 L547 203 L571 185 C594 195 627 202 658 202 C706 202 726 184 726 149 C726 77 696 45 633 45 C594 45 568 55 538 72 L520 23 C549 5 587 -5 632 -5 C732 -5 791 54 791 160 C791 221 753 250 681 250 C658 250 635 246 613 241 L634 341 L800 341 L806 394 Z " />
<glyph glyph-name="uni2156" unicode="&#x2156;" horiz-adv-x="930" d="M221 755 C169 755 123 737 87 715 L97 665 C129 686 162 701 198 701 C246 701 262 681 262 652 C262 582 159 496 44 398 L39 356 L292 356 L300 410 L127 410 L127 413 C246 503 333 578 333 666 C333 721 296 755 221 755 L221 755 Z M724 750 L154 0 L222 0 L792 750 L724 750 Z M882 394 L667 394 L623 203 L647 185 C670 195 703 202 734 202 C782 202 802 184 802 149 C802 77 772 45 709 45 C670 45 644 55 614 72 L596 23 C625 5 663 -5 708 -5 C808 -5 867 54 867 160 C867 221 829 250 757 250 C734 250 711 246 689 241 L710 341 L876 341 L882 394 Z " />
<glyph glyph-name="uni2157" unicode="&#x2157;" horiz-adv-x="930" d="M218 755 C170 755 122 738 91 714 L100 668 C133 691 165 703 206 703 C248 703 273 688 273 658 C273 612 241 587 157 587 L151 541 C227 541 255 526 255 489 C255 439 223 401 161 401 C122 401 91 411 64 429 L43 381 C73 361 107 351 155 351 C260 351 318 407 318 491 C318 531 297 553 259 564 L259 566 C303 582 335 614 335 671 C335 726 291 755 218 755 L218 755 Z M724 750 L154 0 L222 0 L792 750 L724 750 Z M882 394 L667 394 L623 203 L647 185 C670 195 703 202 734 202 C782 202 802 184 802 149 C802 77 772 45 709 45 C670 45 644 55 614 72 L596 23 C625 5 663 -5 708 -5 C808 -5 867 54 867 160 C867 221 829 250 757 250 C734 250 711 246 689 241 L710 341 L876 341 L882 394 Z " />
<glyph glyph-name="uni2158" unicode="&#x2158;" horiz-adv-x="943" d="M331 439 L340 488 L297 488 L334 750 L255 750 L43 478 L42 439 L230 439 L219 356 L279 356 L290 439 L331 439 Z M238 488 L111 488 C121 499 129 508 138 520 L246 659 C254 669 263 682 270 693 L272 692 C269 679 266 664 264 651 L238 488 Z M737 750 L167 0 L235 0 L805 750 L737 750 Z M895 394 L680 394 L636 203 L660 185 C683 195 716 202 747 202 C795 202 815 184 815 149 C815 77 785 45 722 45 C683 45 657 55 627 72 L609 23 C638 5 676 -5 721 -5 C821 -5 880 54 880 160 C880 221 842 250 770 250 C747 250 724 246 702 241 L723 341 L889 341 L895 394 Z " />
<glyph glyph-name="uni2159" unicode="&#x2159;" horiz-adv-x="854" d="M245 752 L202 752 L82 673 L82 617 L133 647 C144 653 156 662 167 670 L169 668 C166 655 164 641 162 628 L124 356 L190 356 L245 752 Z M648 750 L78 0 L146 0 L716 750 L648 750 Z M806 384 C781 394 754 399 721 399 C613 399 545 332 525 185 C522 162 520 142 520 124 C520 29 564 -5 640 -5 C729 -5 796 50 796 162 C796 224 759 253 688 253 C655 253 623 243 595 224 L594 225 C612 307 648 346 719 346 C750 346 771 342 794 332 L806 384 Z M671 206 C712 206 730 189 730 154 C730 77 691 45 648 45 C607 45 587 66 587 122 C587 136 588 153 591 172 C608 193 647 206 671 206 L671 206 Z " />
<glyph glyph-name="uni215A" unicode="&#x215a;" horiz-adv-x="943" d="M339 750 L124 750 L80 559 L104 541 C127 551 160 558 191 558 C239 558 259 540 259 505 C259 433 229 401 166 401 C127 401 101 411 71 428 L53 379 C82 361 120 351 165 351 C265 351 324 410 324 516 C324 577 286 606 214 606 C191 606 168 602 146 597 L167 697 L333 697 L339 750 Z M737 750 L167 0 L235 0 L805 750 L737 750 Z M895 384 C870 394 843 399 810 399 C702 399 634 332 614 185 C611 162 609 142 609 124 C609 29 653 -5 729 -5 C818 -5 885 50 885 162 C885 224 848 253 777 253 C744 253 712 243 684 224 L683 225 C701 307 737 346 808 346 C839 346 860 342 883 332 L895 384 Z M760 206 C801 206 819 189 819 154 C819 77 780 45 737 45 C696 45 676 66 676 122 C676 136 677 153 680 172 C697 193 736 206 760 206 L760 206 Z " />
<glyph glyph-name="oneeighth" unicode="&#x215b;" horiz-adv-x="799" d="M554 -5 C649 -5 709 39 709 128 C709 171 685 193 655 207 L655 209 C698 233 722 270 722 318 C722 371 687 399 611 399 C517 399 469 354 469 279 C469 244 484 223 508 209 L508 207 C456 181 428 140 428 86 C428 25 468 -5 554 -5 L554 -5 Z M557 183 C601 169 643 155 643 115 C643 64 604 44 562 44 C515 44 493 59 493 94 C493 136 520 163 557 183 L557 183 Z M604 352 C642 352 661 335 661 304 C661 269 641 246 604 227 C566 240 531 252 531 286 C531 328 560 352 604 352 L604 352 Z M306 752 L263 752 L143 673 L143 617 L194 647 C205 653 217 662 228 670 L230 668 C227 655 225 641 223 628 L185 356 L251 356 L306 752 Z M641 750 L71 0 L139 0 L709 750 L641 750 Z " />
<glyph glyph-name="threeeighths" unicode="&#x215c;" horiz-adv-x="799" d="M558 -5 C653 -5 713 39 713 128 C713 171 689 193 659 207 L659 209 C702 233 726 270 726 318 C726 371 691 399 615 399 C521 399 473 354 473 279 C473 244 488 223 512 209 L512 207 C460 181 432 140 432 86 C432 25 472 -5 558 -5 L558 -5 Z M561 183 C605 169 647 155 647 115 C647 64 608 44 566 44 C519 44 497 59 497 94 C497 136 524 163 561 183 L561 183 Z M608 352 C646 352 665 335 665 304 C665 269 645 246 608 227 C570 240 535 252 535 286 C535 328 564 352 608 352 L608 352 Z M238 755 C190 755 142 738 111 714 L120 668 C153 691 185 703 226 703 C268 703 293 688 293 658 C293 612 261 587 177 587 L171 541 C247 541 275 526 275 489 C275 439 243 401 181 401 C142 401 111 411 84 429 L63 381 C93 361 127 351 175 351 C280 351 338 407 338 491 C338 531 317 553 279 564 L279 566 C323 582 355 614 355 671 C355 726 311 755 238 755 L238 755 Z M650 750 L80 0 L148 0 L718 750 L650 750 Z " />
<glyph glyph-name="fiveeighths" unicode="&#x215d;" horiz-adv-x="799" d="M558 -5 C653 -5 713 39 713 128 C713 171 689 193 659 207 L659 209 C702 233 726 270 726 318 C726 371 691 399 615 399 C521 399 473 354 473 279 C473 244 488 223 512 209 L512 207 C460 181 432 140 432 86 C432 25 472 -5 558 -5 L558 -5 Z M561 183 C605 169 647 155 647 115 C647 64 608 44 566 44 C519 44 497 59 497 94 C497 136 524 163 561 183 L561 183 Z M608 352 C646 352 665 335 665 304 C665 269 645 246 608 227 C570 240 535 252 535 286 C535 328 564 352 608 352 L608 352 Z M359 750 L144 750 L100 559 L124 541 C147 551 180 558 211 558 C259 558 279 540 279 505 C279 433 249 401 186 401 C147 401 121 411 91 428 L73 379 C102 361 140 351 185 351 C285 351 344 410 344 516 C344 577 306 606 234 606 C211 606 188 602 166 597 L187 697 L353 697 L359 750 Z M650 750 L80 0 L148 0 L718 750 L650 750 Z " />
<glyph glyph-name="seveneighths" unicode="&#x215e;" horiz-adv-x="799" d="M554 -5 C649 -5 709 39 709 128 C709 171 685 193 655 207 L655 209 C698 233 722 270 722 318 C722 371 687 399 611 399 C517 399 469 354 469 279 C469 244 484 223 508 209 L508 207 C456 181 428 140 428 86 C428 25 468 -5 554 -5 L554 -5 Z M557 183 C601 169 643 155 643 115 C643 64 604 44 562 44 C515 44 493 59 493 94 C493 136 520 163 557 183 L557 183 Z M604 352 C642 352 661 335 661 304 C661 269 641 246 604 227 C566 240 531 252 531 286 C531 328 560 352 604 352 L604 352 Z M422 750 L153 750 L141 693 L345 693 L346 691 C338 681 331 670 324 659 L140 356 L217 356 L414 696 L422 750 Z M641 750 L71 0 L139 0 L709 750 L641 750 Z " />
<glyph glyph-name="uni215F" unicode="&#x215f;" horiz-adv-x="517" d="M245 752 L202 752 L82 673 L82 617 L133 647 C144 653 156 662 167 670 L169 668 C166 655 164 641 162 628 L124 356 L190 356 L245 752 Z M648 750 L78 0 L146 0 L716 750 L648 750 Z " />
<glyph glyph-name="uni2189" unicode="&#x2189;" horiz-adv-x="901" d="M226 755 C128 755 77 700 56 553 C52 527 51 504 51 484 C51 391 88 351 168 351 C264 351 316 411 336 553 C340 580 342 604 342 625 C342 718 304 755 226 755 L226 755 Z M218 703 C255 703 277 687 277 623 C277 604 275 582 271 554 C254 431 224 403 175 403 C136 403 114 420 114 484 C114 503 116 526 120 553 C137 676 167 703 218 703 L218 703 Z M708 750 L138 0 L206 0 L776 750 L708 750 Z M745 399 C697 399 649 382 618 358 L627 312 C660 335 692 347 733 347 C775 347 800 332 800 302 C800 256 768 231 684 231 L678 185 C754 185 782 170 782 133 C782 83 750 45 688 45 C649 45 618 55 591 73 L570 25 C600 5 634 -5 682 -5 C787 -5 845 51 845 135 C845 175 824 197 786 208 L786 210 C830 226 862 258 862 315 C862 370 818 399 745 399 L745 399 Z " />
<glyph glyph-name="partialdiff" unicode="&#x2202;" horiz-adv-x="575" d="M325 566 C168 566 57 443 26 221 C23 200 21 180 21 161 C21 48 78 -13 196 -13 C381 -13 506 178 540 422 C544 454 547 483 547 510 C547 684 459 759 340 759 C245 759 180 728 121 682 L137 621 C189 662 243 684 316 684 C416 684 462 630 464 514 L462 513 C431 546 383 566 325 566 L325 566 Z M439 387 C414 211 332 57 215 57 C148 57 113 94 113 170 C113 184 114 198 116 214 C142 404 223 498 330 498 C404 498 440 452 440 402 C440 397 440 392 439 387 L439 387 Z " />
<glyph glyph-name="Delta" unicode="&#x2206;" horiz-adv-x="681" d="M428 754 L362 754 L-9 0 L590 0 L428 754 Z M379 618 C381 605 382 593 385 578 L476 70 L120 71 L361 581 C367 593 372 605 377 618 L379 618 Z " />
<glyph glyph-name="product" unicode="&#x220f;" horiz-adv-x="674" d="M221 -148 L221 673 L455 673 L455 -148 L539 -148 L539 679 L618 686 L620 750 L56 750 L58 686 L138 679 L138 -148 L221 -148 Z " />
<glyph glyph-name="summation" unicode="&#x2211;" horiz-adv-x="626" d="M447 300 L447 320 L243 605 L195 668 L196 670 L566 670 L564 750 L83 750 L83 691 L355 311 L83 -94 L83 -148 L579 -148 L582 -70 L190 -70 L189 -67 L236 -4 L447 300 Z " />
<glyph glyph-name="minus" unicode="&#x2212;" horiz-adv-x="545" d="M466 301 L477 380 L75 380 L64 301 L466 301 Z " />
<glyph glyph-name="uni2219" unicode="&#x2219;" horiz-adv-x="545" d="M290 453 C196 453 141 401 141 294 C141 227 178 195 254 195 C348 195 404 245 404 355 C404 421 366 453 290 453 L290 453 Z " />
<glyph glyph-name="radical" unicode="&#x221a;" horiz-adv-x="537" d="M15 414 L91 414 L163 0 L272 0 L595 797 L500 797 L243 135 C238 123 233 109 229 97 L227 97 C226 110 224 125 222 138 L168 493 L26 493 L15 414 Z " />
<glyph glyph-name="infinity" unicode="&#x221e;" horiz-adv-x="674" d="M483 176 C579 176 632 247 632 348 C632 459 568 522 483 522 C408 522 368 484 339 436 C304 490 259 522 191 522 C94 522 42 451 42 349 C42 239 106 176 192 176 C266 176 306 214 335 261 C370 208 415 176 483 176 L483 176 Z M194 254 C150 254 115 288 115 351 C115 407 144 449 196 449 C247 449 279 421 307 372 C280 311 255 254 194 254 L194 254 Z M480 444 C524 444 558 410 558 347 C558 291 530 249 478 249 C426 249 394 276 367 324 C394 386 418 444 480 444 L480 444 Z " />
<glyph glyph-name="integral" unicode="&#x222b;" horiz-adv-x="290" d="M190 613 C190 696 226 736 286 737 L284 799 C160 798 100 735 100 614 L100 32 C100 -54 69 -92 3 -94 L5 -154 C132 -154 190 -94 190 35 L190 613 Z " />
<glyph glyph-name="approxequal" unicode="&#x2248;" horiz-adv-x="591" d="M394 362 C434 362 468 375 496 394 L496 463 C465 443 434 430 394 430 C331 430 264 481 194 481 C156 481 122 469 93 450 L93 380 C124 401 156 413 194 413 C256 413 322 362 394 362 L394 362 Z M394 195 C434 195 468 208 496 227 L496 296 C465 276 434 263 394 263 C331 263 264 315 194 315 C156 315 122 301 93 282 L93 213 C124 234 156 246 194 246 C256 246 322 195 394 195 L394 195 Z " />
<glyph glyph-name="notequal" unicode="&#x2260;" horiz-adv-x="591" d="M373 574 L316 457 L93 457 L93 389 L282 389 L232 286 L93 286 L93 217 L199 217 L153 122 L214 96 L273 217 L496 217 L496 286 L306 286 L356 389 L496 389 L496 457 L389 457 L433 547 L373 574 Z " />
<glyph glyph-name="lessequal" unicode="&#x2264;" horiz-adv-x="591" d="M492 521 L492 607 L87 430 L87 350 L492 180 L492 263 L191 374 C178 378 164 384 151 388 L151 390 C162 393 177 398 188 403 L492 521 Z M492 61 L492 132 L91 132 L91 61 L492 61 Z " />
<glyph glyph-name="greaterequal" unicode="&#x2265;" horiz-adv-x="591" d="M87 180 L492 350 L492 430 L87 607 L87 521 L388 404 C409 396 415 394 428 390 L428 388 C417 385 402 380 391 376 L87 263 L87 180 Z M488 61 L488 132 L87 132 L87 61 L488 61 Z " />
<glyph glyph-name="dotmath" unicode="&#x22c5;" horiz-adv-x="545" d="M281 401 C236 401 212 376 212 332 C212 302 229 289 265 289 C308 289 333 315 333 357 C333 385 316 401 281 401 L281 401 Z " />
<glyph glyph-name="lozenge" unicode="&#x25ca;" horiz-adv-x="555" d="M28 329 L277 7 L526 329 L277 651 L28 329 Z M121 329 L277 530 L433 329 L276 129 L121 329 Z " />
<glyph glyph-name="fi" unicode="&#xfb01;" horiz-adv-x="567" d="M42 529 L120 529 L46 0 L137 0 L211 529 L421 529 L347 0 L437 0 L521 599 C493 596 463 593 430 593 L220 593 C237 717 286 737 378 737 L381 803 C218 803 152 750 129 593 L54 593 L42 529 Z M500 797 C457 797 433 776 433 738 C433 711 451 701 486 701 C527 701 551 719 551 758 C551 783 535 797 500 797 L500 797 Z " />
<glyph glyph-name="fl" unicode="&#xfb02;" horiz-adv-x="544" d="M42 529 L120 529 L46 0 L137 0 L211 529 L340 529 L351 593 L220 593 C235 703 281 741 396 741 C411 741 423 740 433 739 L330 0 L420 0 L531 793 C499 798 457 803 406 803 C235 803 152 751 129 593 L54 593 L42 529 Z " />
</font>
</svg>
