<?xml version="1.0" encoding="UTF-8"?>
<svg xmlns="http://www.w3.org/2000/svg" xmlns:xlink="http://www.w3.org/1999/xlink" version="1.2" >
<font id="Clan Pro Narrow Ultra Italic">
<font-face  font-family="Clan Pro" units-per-em="1000" ascent="787" descent="-213" font-style="italic" font-weight="950" font-stretch="semi-condensed" slope="-8" cap-height="750" x-height="616" underline-position="-50" underline-thickness="100" />
<missing-glyph  horiz-adv-x="596" d="M-12 0 L608 0 L608 750 L-12 750 L-12 0 Z M107 119 L107 631 L489 631 L489 119 L107 119 Z " />
<glyph glyph-name=".null" d="" />
<glyph glyph-name="CR" unicode="&#xd;" horiz-adv-x="200" d="" />
<glyph glyph-name="space" unicode="&#x20;" horiz-adv-x="200" d="" />
<glyph glyph-name="exclam" unicode="&#x21;" horiz-adv-x="284" d="M208 232 L313 750 L81 750 L41 232 L208 232 Z M121 181 C37 181 -6 136 -6 62 C-6 10 26 -12 94 -12 C180 -12 220 36 220 104 C220 153 190 181 121 181 L121 181 Z " />
<glyph glyph-name="quotedbl" unicode="&#x22;" horiz-adv-x="432" d="M283 766 L270 467 L406 467 L481 766 L283 766 Z M64 766 L51 467 L187 467 L262 766 L64 766 Z " />
<glyph glyph-name="numbersign" unicode="&#x23;" horiz-adv-x="589" d="M32 312 L11 162 L61 162 L21 0 L188 0 L227 162 L277 162 L238 0 L402 0 L441 162 L526 162 L547 312 L476 312 L506 427 L564 427 L585 579 L541 579 L584 750 L419 750 L377 579 L329 579 L372 750 L204 750 L162 579 L70 579 L49 427 L127 427 L96 312 L32 312 Z M293 427 L342 427 L312 312 L263 312 L293 427 Z " />
<glyph glyph-name="dollar" unicode="&#x24;" horiz-adv-x="589" d="M502 815 L377 824 L356 761 C159 754 46 657 46 493 C46 379 128 330 206 296 L165 166 C119 176 73 192 34 214 C13 144 1 99 -18 32 C13 14 61 2 112 -5 L92 -69 L205 -78 L232 -13 C411 -8 506 71 528 227 C530 241 531 254 531 266 C531 374 455 422 383 453 L423 575 C460 570 498 563 529 556 L565 733 C544 742 514 749 481 753 L502 815 Z M298 254 C326 239 337 226 337 204 C337 173 312 159 268 157 L298 254 Z M316 583 L289 492 C266 503 251 515 251 535 C251 553 263 580 316 583 L316 583 Z " />
<glyph glyph-name="percent" unicode="&#x25;" horiz-adv-x="728" d="M229 756 C110 756 40 689 40 541 C40 457 83 410 179 410 C293 410 371 487 371 627 C371 718 321 756 229 756 L229 756 Z M212 637 C223 637 230 630 230 608 C230 542 211 531 198 531 C187 531 181 536 181 557 C181 622 198 637 212 637 L212 637 Z M554 689 L59 143 L164 49 L660 595 L554 689 Z M550 337 C432 337 360 266 360 121 C360 36 404 -11 500 -11 C617 -11 692 66 692 206 C692 297 642 337 550 337 L550 337 Z M533 215 C544 215 550 209 550 189 C550 119 532 109 519 109 C508 109 501 114 501 137 C501 201 519 215 533 215 L533 215 Z " />
<glyph glyph-name="ampersand" unicode="&#x26;" horiz-adv-x="704" d="M356 761 C173 761 92 661 92 546 C92 507 105 461 129 412 C50 355 -18 282 -18 170 C-18 72 39 -14 189 -14 C283 -14 365 18 434 66 C478 35 524 9 568 -8 L674 180 C643 190 613 204 584 220 C633 288 664 359 676 411 L494 411 C482 380 466 348 449 318 C424 340 402 363 382 386 C473 447 567 515 567 614 C567 706 477 761 356 761 L356 761 Z M305 175 C287 168 269 164 249 164 C220 164 205 177 205 203 C205 222 214 244 227 262 C251 232 277 203 305 175 L305 175 Z M331 610 C340 610 352 602 352 584 C352 561 330 540 299 518 C294 533 291 547 291 559 C291 595 310 610 331 610 L331 610 Z " />
<glyph glyph-name="quotesingle" unicode="&#x27;" horiz-adv-x="234" d="M75 766 L62 467 L198 467 L273 766 L75 766 Z " />
<glyph glyph-name="parenleft" unicode="&#x28;" horiz-adv-x="372" d="M272 784 C123 643 41 415 41 199 C41 68 73 -53 142 -141 L301 -128 C261 -43 246 57 246 159 C246 345 293 592 427 772 L272 784 Z " />
<glyph glyph-name="parenright" unicode="&#x29;" horiz-adv-x="372" d="M60 772 C100 687 116 586 116 484 C116 298 68 52 -65 -128 L90 -141 C238 0 320 230 320 446 C320 576 289 696 220 784 L60 772 Z " />
<glyph glyph-name="asterisk" unicode="&#x2a;" horiz-adv-x="388" d="M207 776 L176 682 L89 702 L40 609 L119 564 L63 477 L130 426 L217 495 L282 427 L361 481 L326 564 L418 609 L397 702 L305 682 L303 776 L207 776 Z " />
<glyph glyph-name="plus" unicode="&#x2b;" horiz-adv-x="571" d="M523 237 L523 420 L378 420 L378 567 L189 567 L189 420 L45 420 L45 237 L189 237 L189 90 L378 90 L378 237 L523 237 Z " />
<glyph glyph-name="comma" unicode="&#x2c;" horiz-adv-x="266" d="M108 199 C30 199 -19 146 -19 66 C-19 22 5 -4 45 -7 C29 -41 9 -76 -11 -106 L50 -144 C134 -84 207 14 207 103 C207 164 172 199 108 199 L108 199 Z " />
<glyph glyph-name="hyphen" unicode="&#x2d;" horiz-adv-x="347" d="M36 417 L15 269 L306 269 L327 417 L36 417 Z " />
<glyph glyph-name="period" unicode="&#x2e;" horiz-adv-x="272" d="M114 201 C25 201 -18 150 -18 67 C-18 11 14 -12 84 -12 C171 -12 215 40 215 116 C215 170 185 201 114 201 L114 201 Z " />
<glyph glyph-name="slash" unicode="&#x2f;" horiz-adv-x="450" d="M343 778 L-88 -113 L88 -113 L526 778 L343 778 Z " />
<glyph glyph-name="zero" unicode="0" horiz-adv-x="575" d="M344 757 C152 757 59 655 19 370 C12 321 8 277 8 238 C8 66 78 -11 233 -11 C420 -11 522 106 560 370 C567 422 571 467 571 507 C571 688 496 757 344 757 L344 757 Z M319 578 C340 578 353 570 353 518 C353 487 349 442 339 373 C312 182 295 164 260 164 C237 164 224 171 224 225 C224 256 228 302 238 372 C264 557 282 578 319 578 L319 578 Z " />
<glyph glyph-name="one" unicode="1" horiz-adv-x="589" d="M82 0 L471 0 L491 146 L411 146 L496 749 L363 749 L120 612 L120 433 L192 469 C203 475 217 482 228 489 L230 487 C226 474 224 461 222 447 L180 146 L102 146 L82 0 Z " />
<glyph glyph-name="two" unicode="2" horiz-adv-x="589" d="M352 758 C246 758 160 729 92 684 L119 513 C174 546 226 571 280 571 C321 571 340 556 340 526 C340 433 205 315 26 139 L7 0 L489 0 L518 182 L299 182 L299 185 C472 330 577 435 577 574 C577 688 503 758 352 758 L352 758 Z " />
<glyph glyph-name="three" unicode="3" horiz-adv-x="589" d="M331 758 C244 758 153 729 88 685 L114 520 C167 556 226 577 288 577 C339 577 355 563 355 538 C355 484 332 457 205 457 L183 303 C294 303 316 275 316 244 C316 195 282 166 224 166 C167 166 117 179 67 204 L5 40 C54 10 129 -10 208 -10 C410 -10 516 81 536 226 C538 237 538 247 538 257 C538 316 511 358 462 384 L462 386 C534 426 569 497 569 574 C569 688 484 758 331 758 L331 758 Z " />
<glyph glyph-name="four" unicode="4" horiz-adv-x="589" d="M542 124 L571 300 L518 300 L581 750 L313 750 L-4 264 L-4 124 L285 124 L268 0 L476 0 L493 124 L542 124 Z M317 300 L222 300 L221 302 C229 312 236 323 243 334 L336 485 C343 496 350 509 357 521 L359 520 C355 507 352 493 350 480 L317 300 Z " />
<glyph glyph-name="five" unicode="5" horiz-adv-x="589" d="M567 750 L146 750 L67 379 L127 294 C164 304 209 308 242 308 C292 308 317 293 317 256 C317 202 295 167 223 167 C160 167 119 179 66 204 L6 41 C66 6 143 -10 223 -10 C421 -10 520 96 543 261 C545 277 546 292 546 306 C546 422 470 481 341 481 C321 481 303 480 285 478 L301 560 L548 560 L567 750 Z " />
<glyph glyph-name="six" unicode="6" horiz-adv-x="589" d="M365 500 C328 500 295 492 265 479 L264 480 C285 542 324 579 410 579 C455 579 495 573 535 559 L575 733 C528 753 474 760 410 760 C191 760 59 614 24 363 C18 320 15 281 15 246 C15 59 102 -10 255 -10 C413 -10 528 73 555 269 C558 288 559 306 559 322 C559 440 491 500 365 500 L365 500 Z M296 338 C325 338 338 328 338 297 C338 290 337 282 336 273 C324 191 304 165 277 165 C250 165 236 177 236 228 C236 249 239 278 244 315 C253 329 283 338 296 338 L296 338 Z " />
<glyph glyph-name="seven" unicode="7" horiz-adv-x="589" d="M612 748 L93 748 L55 549 L369 549 L370 547 C362 536 355 527 348 515 L35 0 L285 0 L587 571 L612 748 Z " />
<glyph glyph-name="eight" unicode="8" horiz-adv-x="589" d="M352 760 C164 760 69 659 69 504 C69 454 83 418 104 390 C27 335 2 250 2 181 C2 58 80 -11 244 -11 C422 -11 525 70 548 228 C550 243 551 256 551 269 C551 335 526 375 491 402 C543 449 575 513 575 591 C575 694 509 760 352 760 L352 760 Z M256 295 C297 276 331 257 331 220 C331 166 299 154 273 154 C238 154 219 164 219 203 C219 237 229 267 256 295 L256 295 Z M329 598 C360 598 373 585 373 555 C373 516 359 491 336 469 C302 482 278 499 278 531 C278 581 303 598 329 598 L329 598 Z " />
<glyph glyph-name="nine" unicode="9" horiz-adv-x="589" d="M344 759 C165 759 62 660 41 494 C39 477 37 460 37 446 C37 331 103 261 229 261 C266 261 300 266 331 280 L333 278 C312 207 278 169 198 169 C144 169 104 178 63 196 L9 25 C57 2 107 -10 194 -10 C407 -10 530 111 570 397 C575 435 578 470 578 502 C578 682 494 759 344 759 L344 759 Z M357 464 C350 442 328 427 297 427 C266 427 254 439 254 472 C254 557 284 582 315 582 C344 582 361 570 361 518 C361 503 360 486 357 464 L357 464 Z " />
<glyph glyph-name="colon" unicode="&#x3a;" horiz-adv-x="272" d="M166 572 C77 572 34 521 34 438 C34 382 66 359 136 359 C223 359 267 411 267 487 C267 541 237 572 166 572 L166 572 Z M114 201 C25 201 -18 150 -18 67 C-18 11 14 -12 84 -12 C171 -12 215 40 215 116 C215 170 185 201 114 201 L114 201 Z " />
<glyph glyph-name="semicolon" unicode="&#x3b;" horiz-adv-x="272" d="M166 572 C77 572 34 521 34 438 C34 382 66 359 136 359 C223 359 267 411 267 487 C267 541 237 572 166 572 L166 572 Z M114 199 C36 199 -13 146 -13 66 C-13 22 11 -4 51 -7 C35 -41 15 -76 -5 -106 L56 -144 C140 -84 213 14 213 103 C213 164 178 199 114 199 L114 199 Z " />
<glyph glyph-name="less" unicode="&#x3c;" horiz-adv-x="571" d="M493 402 L493 608 L75 376 L75 272 L493 40 L493 237 L358 304 C346 310 333 317 321 321 L321 323 C333 328 346 333 358 339 L493 402 Z " />
<glyph glyph-name="equal" unicode="&#x3d;" horiz-adv-x="571" d="M499 347 L499 502 L69 502 L69 347 L499 347 Z M499 131 L499 287 L69 287 L69 131 L499 131 Z " />
<glyph glyph-name="greater" unicode="&#x3e;" horiz-adv-x="571" d="M75 40 L494 272 L494 376 L75 608 L75 402 L210 339 C222 333 235 328 247 323 L247 321 C235 316 221 310 210 304 L75 237 L75 40 Z " />
<glyph glyph-name="question" unicode="&#x3f;" horiz-adv-x="466" d="M273 758 C188 758 101 732 49 694 L99 529 C129 554 170 568 211 568 C244 568 261 552 261 532 C261 478 201 436 132 403 L119 232 L283 232 L304 329 C408 386 487 474 487 595 C487 693 416 758 273 758 L273 758 Z M192 181 C108 181 65 136 65 62 C65 10 97 -12 165 -12 C251 -12 291 36 291 104 C291 153 261 181 192 181 L192 181 Z " />
<glyph glyph-name="at" unicode="&#x40;" horiz-adv-x="879" d="M469 607 C326 607 186 434 186 245 C186 144 238 90 312 90 C381 90 430 117 466 152 C487 114 527 90 591 90 C700 90 832 177 865 412 C868 435 870 457 870 479 C870 669 745 803 532 803 C203 803 12 537 12 251 C12 9 162 -114 403 -114 C550 -114 685 -63 757 -10 L724 90 C652 42 554 -4 421 -4 C222 -4 134 105 134 271 C134 505 266 690 514 690 C675 690 749 599 749 468 C749 450 748 431 745 412 C725 271 675 223 625 223 C598 223 589 240 589 262 C589 281 595 302 600 319 L680 595 L571 602 L550 572 C532 595 505 607 469 607 L469 607 Z M446 321 C432 267 408 236 383 236 C365 236 358 250 358 271 C358 359 413 466 461 466 C472 466 479 460 480 453 L446 321 Z " />
<glyph glyph-name="A" unicode="A" horiz-adv-x="699" d="M401 0 L657 0 L542 750 L261 750 L-58 0 L184 0 L226 123 L394 123 L401 0 Z M371 547 C371 533 371 521 372 506 L384 296 L285 296 L357 508 C362 522 366 535 369 547 L371 547 Z " />
<glyph glyph-name="B" unicode="B" horiz-adv-x="645" d="M404 750 L93 750 L-12 0 L293 0 C503 0 611 104 611 259 C611 328 580 374 519 397 L519 399 C587 430 634 491 634 584 C634 684 558 750 404 750 L404 750 Z M252 303 L336 303 C369 303 380 292 380 266 C380 190 359 175 321 175 L234 175 L252 303 Z M291 572 L370 572 C397 572 408 563 408 537 C408 474 391 458 354 458 L275 458 L291 572 Z " />
<glyph glyph-name="C" unicode="C" horiz-adv-x="540" d="M421 763 C183 763 59 626 25 378 C19 339 17 303 17 270 C17 77 112 -13 299 -13 C356 -13 427 0 476 21 L480 196 C445 182 404 174 359 174 C284 174 257 197 257 275 C257 302 260 336 266 377 C288 531 312 574 413 574 C458 574 499 567 530 557 L575 736 C536 752 473 763 421 763 L421 763 Z " />
<glyph glyph-name="D" unicode="D" horiz-adv-x="672" d="M93 750 L-12 0 L274 0 C489 0 614 105 653 380 C659 420 662 457 662 490 C662 673 573 750 374 750 L93 750 Z M296 560 L349 560 C400 560 422 548 422 484 C422 459 418 425 412 381 C388 207 367 190 296 190 L244 190 L296 560 Z " />
<glyph glyph-name="E" unicode="E" horiz-adv-x="563" d="M244 185 L259 297 L474 297 L498 467 L283 467 L297 563 L561 563 L584 750 L93 750 L-12 0 L491 0 L521 185 L244 185 Z " />
<glyph glyph-name="F" unicode="F" horiz-adv-x="540" d="M558 560 L582 750 L93 750 L-12 0 L218 0 L255 266 L471 266 L498 445 L280 445 L296 560 L558 560 Z " />
<glyph glyph-name="G" unicode="G" horiz-adv-x="617" d="M591 411 L387 411 L354 175 C348 174 343 174 338 174 C279 174 254 190 254 263 C254 292 258 329 265 378 C287 535 308 575 425 575 C475 575 539 565 586 546 L632 731 C578 752 503 763 437 763 C185 763 59 633 24 376 C18 336 16 300 16 266 C16 84 100 -14 318 -14 C395 -14 484 0 536 21 L591 411 Z " />
<glyph glyph-name="H" unicode="H" horiz-adv-x="674" d="M585 0 L690 750 L460 750 L421 474 L284 474 L323 750 L93 750 L-12 0 L218 0 L258 285 L395 285 L355 0 L585 0 Z " />
<glyph glyph-name="I" unicode="I" horiz-adv-x="328" d="M-4 0 L232 0 L337 750 L101 750 L-4 0 Z " />
<glyph glyph-name="J" unicode="J" horiz-adv-x="493" d="M510 750 L275 750 L209 282 C197 198 159 172 82 172 C46 172 16 177 -1 185 L-37 8 C-1 -6 42 -14 97 -14 C283 -14 412 53 445 286 L510 750 Z " />
<glyph glyph-name="K" unicode="K" horiz-adv-x="682" d="M635 0 L518 397 L730 750 L474 750 L315 469 L283 469 L323 750 L93 750 L-12 0 L218 0 L259 296 L290 296 L365 0 L635 0 Z " />
<glyph glyph-name="L" unicode="L" horiz-adv-x="516" d="M247 190 L326 750 L93 750 L-12 0 L451 0 L482 190 L247 190 Z " />
<glyph glyph-name="M" unicode="M" horiz-adv-x="861" d="M93 750 L-12 0 L190 0 L231 295 C233 308 234 323 235 336 L237 336 L302 0 L449 0 L611 339 L613 338 C609 325 606 310 604 297 L563 0 L773 0 L878 750 L626 750 L445 381 C439 369 432 355 428 344 L426 344 C424 357 422 370 419 384 L345 750 L93 750 Z " />
<glyph glyph-name="N" unicode="N" horiz-adv-x="679" d="M591 0 L696 750 L496 750 L453 441 C451 428 449 413 449 400 L447 400 L284 750 L93 750 L-12 0 L188 0 L235 337 C237 350 238 365 238 378 L240 378 L428 0 L591 0 Z " />
<glyph glyph-name="O" unicode="O" horiz-adv-x="698" d="M677 375 C683 417 686 455 686 490 C686 680 597 762 406 762 C179 762 62 647 24 375 C18 334 15 298 15 264 C15 71 108 -13 297 -13 C523 -13 638 94 677 375 L677 375 Z M436 375 C412 203 390 173 323 173 C276 173 255 188 255 256 C255 285 259 323 266 375 C290 547 312 575 379 575 C426 575 448 563 448 496 C448 467 444 428 436 375 L436 375 Z " />
<glyph glyph-name="P" unicode="P" horiz-adv-x="629" d="M93 750 L-12 0 L218 0 L248 217 L288 217 C534 217 637 338 637 543 C637 684 556 750 363 750 L93 750 Z M298 571 L337 571 C382 571 398 562 398 523 C398 512 396 496 394 478 C384 399 365 389 312 389 L272 389 L298 571 Z " />
<glyph glyph-name="Q" unicode="Q" horiz-adv-x="698" d="M677 375 C683 417 686 455 686 490 C686 680 597 762 406 762 C179 762 62 647 24 375 C18 334 15 297 15 263 C15 79 100 -5 273 -12 L323 -147 L571 -81 L471 17 C585 66 650 178 677 375 L677 375 Z M436 375 C412 203 390 173 323 173 C276 173 255 188 255 256 C255 285 259 323 266 375 C290 547 312 575 379 575 C426 575 448 563 448 496 C448 467 444 428 436 375 L436 375 Z " />
<glyph glyph-name="R" unicode="R" horiz-adv-x="648" d="M93 750 L-12 0 L218 0 L253 253 L295 253 L344 0 L609 0 L514 299 C587 336 638 436 638 554 C638 691 545 750 365 750 L93 750 Z M298 572 L345 572 C383 572 399 564 399 527 C399 518 398 508 396 495 C386 426 368 417 323 417 L276 417 L298 572 Z " />
<glyph glyph-name="S" unicode="S" horiz-adv-x="543" d="M358 762 C148 762 41 632 41 481 C41 281 289 292 289 220 C289 189 266 174 215 174 C151 174 91 193 32 222 L-22 38 C37 4 116 -13 196 -13 C382 -13 515 97 515 270 C515 466 268 456 268 526 C268 553 282 572 349 572 C395 572 452 562 508 546 L558 726 C504 750 428 762 358 762 L358 762 Z " />
<glyph glyph-name="T" unicode="T" horiz-adv-x="568" d="M588 560 L611 750 L66 750 L35 560 L195 560 L117 0 L350 0 L428 560 L588 560 Z " />
<glyph glyph-name="U" unicode="U" horiz-adv-x="661" d="M684 750 L455 750 L384 249 C376 196 359 176 306 176 C261 176 245 192 245 227 C245 233 246 241 247 249 L318 750 L88 750 L18 256 C15 237 14 219 14 202 C14 63 101 -13 280 -13 C481 -13 589 82 614 256 L684 750 Z " />
<glyph glyph-name="V" unicode="V" horiz-adv-x="673" d="M501 750 L340 287 C335 274 331 260 328 248 L326 248 C326 261 326 276 325 289 L297 750 L45 750 L155 0 L417 0 L738 750 L501 750 Z " />
<glyph glyph-name="W" unicode="W" horiz-adv-x="985" d="M430 750 L294 277 C290 264 287 250 284 238 L282 238 C282 251 283 266 283 279 L283 750 L54 750 L104 0 L379 0 L498 438 C501 450 506 465 508 478 L510 478 C509 465 509 450 509 437 L509 0 L780 0 L1041 750 L812 750 L688 283 C684 270 681 256 679 243 L677 243 C677 256 678 271 678 284 L678 750 L430 750 Z " />
<glyph glyph-name="X" unicode="X" horiz-adv-x="672" d="M727 750 L468 750 L385 591 C378 578 372 566 368 554 L366 554 C364 567 361 581 358 594 L322 750 L55 750 L174 387 L-51 0 L210 0 L300 183 C307 197 313 209 317 220 L319 220 C321 207 324 192 327 180 L366 0 L623 0 L503 392 L727 750 Z " />
<glyph glyph-name="Y" unicode="Y" horiz-adv-x="669" d="M45 750 L200 220 L170 0 L405 0 L435 220 L735 750 L486 750 L369 481 C363 468 358 455 354 443 L352 443 C351 456 349 468 346 483 L300 750 L45 750 Z " />
<glyph glyph-name="Z" unicode="Z" horiz-adv-x="570" d="M496 0 L524 190 L270 190 L269 192 C277 200 286 211 294 222 L578 590 L601 750 L83 750 L50 560 L308 560 L309 558 C300 548 292 538 284 528 L-12 146 L-32 0 L496 0 Z " />
<glyph glyph-name="bracketleft" unicode="&#x5b;" horiz-adv-x="361" d="M-14 -135 L289 -135 L308 5 L199 5 L288 636 L397 636 L417 779 L114 779 L-14 -135 Z " />
<glyph glyph-name="backslash" unicode="&#x5c;" horiz-adv-x="347" d="M22 778 L167 -113 L337 -113 L193 778 L22 778 Z " />
<glyph glyph-name="bracketright" unicode="&#x5d;" horiz-adv-x="360" d="M364 779 L61 779 L41 636 L150 636 L61 5 L-48 5 L-66 -135 L236 -135 L364 779 Z " />
<glyph glyph-name="asciicircum" unicode="&#x5e;" horiz-adv-x="589" d="M414 467 L580 467 L390 805 L248 805 L54 467 L223 467 L299 603 C307 617 313 630 317 639 L319 639 C325 627 331 614 338 603 L414 467 Z " />
<glyph glyph-name="underscore" unicode="&#x5f;" horiz-adv-x="381" d="M-53 -31 L-70 -150 L309 -150 L326 -31 L-53 -31 Z " />
<glyph glyph-name="grave" unicode="&#x60;" horiz-adv-x="396" d="M375 651 L347 796 L110 796 L217 651 L375 651 Z " />
<glyph glyph-name="a" unicode="a" horiz-adv-x="593" d="M363 625 C146 625 -2 445 -2 195 C-2 55 59 -11 177 -11 C227 -11 281 4 327 41 L339 0 L505 0 L591 614 L544 614 C469 614 441 625 363 625 L363 625 Z M256 160 C227 160 215 169 215 208 C215 225 218 249 222 279 C241 418 287 452 334 452 C341 452 348 452 354 451 L326 253 C318 197 293 160 256 160 L256 160 Z " />
<glyph glyph-name="b" unicode="b" horiz-adv-x="597" d="M410 626 C368 626 326 617 288 595 L287 596 C290 607 292 621 294 636 L314 781 L100 773 L0 58 L-1 57 C81 11 157 -12 259 -12 C442 -12 582 105 582 421 C582 567 526 626 410 626 L410 626 Z M325 451 C352 451 364 443 364 400 C364 379 362 350 356 309 C337 177 315 158 267 158 C252 158 239 160 228 165 L254 353 C262 412 289 451 325 451 L325 451 Z " />
<glyph glyph-name="c" unicode="c" horiz-adv-x="455" d="M320 626 C152 626 41 528 9 313 C4 282 3 253 3 227 C3 55 93 -12 215 -12 C295 -12 359 8 415 63 L358 189 C339 172 313 158 281 158 C244 158 220 174 220 240 C220 257 222 278 225 302 C242 427 283 447 336 447 C360 447 380 444 398 434 L474 586 C434 611 385 626 320 626 L320 626 Z " />
<glyph glyph-name="d" unicode="d" horiz-adv-x="595" d="M308 625 C141 625 0 507 0 195 C0 49 55 -11 172 -11 C226 -11 281 3 327 40 L339 0 L505 0 L614 781 L399 773 L378 620 C356 623 333 625 308 625 L308 625 Z M257 160 C229 160 216 168 216 210 C216 229 218 254 223 289 C240 412 273 448 323 448 C334 448 344 447 353 446 L326 253 C318 197 292 160 257 160 L257 160 Z " />
<glyph glyph-name="e" unicode="e" horiz-adv-x="511" d="M325 628 C149 628 39 525 9 313 C5 284 3 257 3 232 C3 61 95 -11 229 -11 C332 -11 409 25 458 68 L403 196 C370 174 332 162 290 162 C243 162 218 174 214 222 C417 253 513 332 513 473 C513 568 443 628 325 628 L325 628 Z M304 466 C319 466 324 458 324 444 C324 413 297 383 228 366 C245 445 267 466 304 466 L304 466 Z " />
<glyph glyph-name="f" unicode="f" horiz-adv-x="376" d="M26 456 L78 456 L14 0 L227 0 L291 456 L382 456 L410 605 L312 605 C316 637 331 653 420 653 L430 807 C192 807 117 726 99 605 L53 605 L26 456 Z " />
<glyph glyph-name="g" unicode="g" horiz-adv-x="588" d="M586 616 L533 616 C469 616 409 626 347 626 C129 626 12 469 12 248 C12 98 83 46 180 46 C223 46 263 56 297 83 L299 81 C284 21 239 1 171 1 C134 1 94 8 50 23 L11 -131 C61 -152 124 -164 189 -164 C347 -164 487 -88 512 87 L586 616 Z M263 213 C239 213 228 225 228 264 C228 378 269 459 329 459 C337 459 344 459 351 458 L328 298 C319 238 290 213 263 213 L263 213 Z " />
<glyph glyph-name="h" unicode="h" horiz-adv-x="600" d="M520 0 L573 379 C576 402 578 424 578 444 C578 564 521 628 414 628 C367 628 324 616 288 595 L287 596 C290 606 292 621 294 636 L314 781 L100 772 L-8 0 L205 0 L254 354 C262 408 291 444 326 444 C349 444 360 433 360 402 C360 394 359 384 358 374 L306 0 L520 0 Z " />
<glyph glyph-name="i" unicode="i" horiz-adv-x="300" d="M207 0 L293 619 L78 610 L-7 0 L207 0 Z M209 808 C126 808 85 774 85 711 C85 665 117 646 186 646 C270 646 312 679 312 741 C312 785 281 808 209 808 L209 808 Z " />
<glyph glyph-name="j" unicode="j" horiz-adv-x="305" d="M298 619 L83 610 L10 86 C-1 8 -26 -9 -81 -16 L-87 -165 C73 -159 199 -90 224 87 L298 619 Z M213 808 C130 808 89 774 89 711 C89 665 121 646 190 646 C274 646 316 679 316 741 C316 785 285 808 213 808 L213 808 Z " />
<glyph glyph-name="k" unicode="k" horiz-adv-x="624" d="M205 0 L238 236 C259 386 320 444 358 444 C372 444 380 438 380 424 C380 382 332 320 262 285 C265 95 373 -8 544 -8 L591 154 C532 166 501 192 480 241 C558 311 595 398 595 484 C595 579 547 628 449 628 C394 628 337 610 285 573 L284 574 C287 584 289 599 291 614 L314 781 L100 772 L-8 0 L205 0 Z " />
<glyph glyph-name="l" unicode="l" horiz-adv-x="297" d="M205 0 L314 781 L100 772 L-8 0 L205 0 Z " />
<glyph glyph-name="m" unicode="m" horiz-adv-x="890" d="M292 0 L505 0 L553 348 C561 408 585 441 618 441 C640 441 650 430 650 401 C650 392 649 381 647 369 L596 0 L810 0 L861 369 C864 395 866 419 866 441 C866 560 817 628 713 628 C643 628 584 603 538 557 C514 603 471 628 409 628 C348 628 293 608 253 572 L250 572 L242 620 L73 611 L-12 0 L201 0 L250 353 C258 409 281 442 314 442 C336 442 346 431 346 401 C346 392 345 382 343 369 L292 0 Z " />
<glyph glyph-name="n" unicode="n" horiz-adv-x="596" d="M302 0 L516 0 L569 379 C572 402 574 424 574 444 C574 564 517 628 410 628 C347 628 293 608 253 573 L250 573 L242 620 L73 611 L-12 0 L201 0 L250 355 C258 410 287 444 323 444 C346 444 356 432 356 401 C356 393 355 383 354 372 L302 0 Z " />
<glyph glyph-name="o" unicode="o" horiz-adv-x="577" d="M303 456 C332 456 347 449 347 401 C347 380 344 350 338 309 C318 166 301 151 257 151 C230 151 216 157 216 206 C216 228 219 259 225 302 C244 441 262 456 303 456 L303 456 Z M331 628 C135 628 39 526 9 312 C4 277 2 244 2 215 C2 67 66 -12 232 -12 C428 -12 523 89 553 303 C558 339 561 372 561 402 C561 549 496 628 331 628 L331 628 Z " />
<glyph glyph-name="p" unicode="p" horiz-adv-x="593" d="M407 628 C352 628 297 613 252 575 L249 575 L242 620 L73 611 L-34 -153 L179 -153 L202 14 C235 -2 273 -12 318 -12 C443 -12 537 75 569 303 C575 348 579 387 579 422 C579 568 522 628 407 628 L407 628 Z M322 451 C348 451 360 441 360 398 C360 377 358 348 352 309 C334 184 315 161 269 161 C252 161 238 165 225 173 L250 353 C258 411 286 451 322 451 L322 451 Z " />
<glyph glyph-name="q" unicode="q" horiz-adv-x="593" d="M363 625 C146 625 -2 445 -2 195 C-2 55 59 -11 177 -11 C215 -11 255 -2 293 20 L295 18 C291 5 289 -8 287 -22 L269 -153 L483 -153 L591 616 L565 616 C469 616 455 625 363 625 L363 625 Z M257 159 C228 159 216 169 216 210 C216 227 218 249 222 279 C242 420 288 454 335 454 C342 454 348 454 354 453 L325 244 C318 193 292 159 257 159 L257 159 Z " />
<glyph glyph-name="r" unicode="r" horiz-adv-x="441" d="M403 628 C343 628 293 598 250 546 L248 547 C247 560 246 573 244 587 L240 619 L73 610 L-12 0 L201 0 L238 269 C251 365 304 416 361 416 C384 416 401 412 416 401 L474 609 C459 620 431 628 403 628 L403 628 Z " />
<glyph glyph-name="s" unicode="s" horiz-adv-x="445" d="M296 628 C121 628 26 524 26 395 C26 235 207 244 207 188 C207 167 193 156 164 156 C126 156 78 168 37 196 L-27 44 C20 11 88 -11 162 -11 C367 -11 413 138 413 232 C413 385 233 370 233 426 C233 442 244 454 269 454 C307 454 346 450 374 437 L453 589 C413 614 358 628 296 628 L296 628 Z " />
<glyph glyph-name="t" unicode="t" horiz-adv-x="395" d="M3 444 L63 444 L31 215 C28 196 27 178 27 162 C27 52 87 -7 198 -7 C242 -7 300 5 329 20 L335 178 C319 171 297 168 285 168 C258 168 244 179 244 207 C244 212 245 218 246 224 L277 444 L386 444 L417 605 L300 605 L321 759 L153 743 L106 605 L34 605 L3 444 Z " />
<glyph glyph-name="u" unicode="u" horiz-adv-x="589" d="M594 614 L381 614 L326 221 C320 181 304 165 268 165 C237 165 223 177 223 204 C223 209 224 215 225 221 L281 620 L66 611 L12 225 C9 207 8 191 8 175 C8 53 85 -10 242 -10 C419 -10 516 65 539 225 L594 614 Z " />
<glyph glyph-name="v" unicode="v" horiz-adv-x="580" d="M567 638 L363 596 C364 584 364 570 364 553 C364 287 287 187 260 187 C252 187 236 198 236 262 C236 287 239 321 245 365 L280 619 L66 611 L32 365 C27 331 25 301 25 273 C25 46 166 -10 211 -10 C288 -10 526 104 568 400 C572 430 574 471 574 514 C574 557 572 601 567 638 L567 638 Z " />
<glyph glyph-name="w" unicode="w" horiz-adv-x="876" d="M864 638 L660 596 C661 584 661 570 661 553 C661 271 584 197 564 197 C557 197 541 206 541 270 C541 294 543 326 549 368 L584 612 L371 612 L339 390 C317 241 274 198 258 198 C252 198 236 206 236 267 C236 291 239 324 245 368 L280 619 L66 611 L32 369 C27 334 25 301 25 272 C25 47 156 -11 198 -11 C239 -11 320 30 391 117 L392 117 C427 21 492 -10 521 -10 C598 -10 825 118 865 400 C869 430 871 471 871 514 C871 557 869 601 864 638 L864 638 Z " />
<glyph glyph-name="x" unicode="x" horiz-adv-x="604" d="M175 0 L251 147 C258 160 265 173 269 183 L271 183 C273 170 276 155 280 143 L318 0 L553 0 L440 305 L636 616 L414 616 L343 480 C334 463 329 454 325 444 L323 444 C321 457 318 471 315 484 L282 619 L41 611 L152 324 L-50 0 L175 0 Z " />
<glyph glyph-name="y" unicode="y" horiz-adv-x="580" d="M384 616 C366 521 339 427 306 342 L304 342 C304 351 302 367 300 383 L272 621 L35 604 L141 105 C101 60 53 23 2 -3 L77 -155 C332 -29 517 245 592 616 L384 616 Z " />
<glyph glyph-name="z" unicode="z" horiz-adv-x="493" d="M482 473 L502 616 L66 616 L36 450 L236 450 L237 448 C228 438 219 429 211 419 L-12 146 L-32 0 L422 0 L450 164 L233 164 L232 166 C241 175 250 185 258 195 L482 473 Z " />
<glyph glyph-name="braceleft" unicode="&#x7b;" horiz-adv-x="389" d="M301 435 C313 531 296 636 393 636 L426 636 L447 787 L424 787 C216 787 140 706 122 582 C116 540 119 475 113 435 C108 398 81 374 55 361 L45 287 C65 275 82 254 82 225 C82 187 56 112 50 66 C48 51 47 37 47 24 C47 -76 110 -139 294 -139 L317 -139 L338 11 L305 11 C261 11 244 40 244 75 C244 122 271 173 271 236 C271 273 257 303 231 323 C268 348 294 386 301 435 L301 435 Z " />
<glyph glyph-name="bar" unicode="&#x7c;" horiz-adv-x="292" d="M63 -177 L227 -177 L227 806 L63 806 L63 -177 Z " />
<glyph glyph-name="braceright" unicode="&#x7d;" horiz-adv-x="389" d="M79 213 C73 166 74 128 69 91 C63 45 32 11 -13 11 L-47 11 L-67 -139 L-45 -139 C163 -139 239 -58 257 66 C263 108 261 173 266 213 C271 249 298 274 324 287 L334 361 C315 372 297 392 297 422 C297 459 322 535 329 582 C331 597 332 611 332 624 C332 724 269 787 85 787 L62 787 L41 636 L75 636 C116 636 136 606 136 571 C136 525 109 474 109 411 C109 373 123 344 148 323 C112 299 86 261 79 213 L79 213 Z " />
<glyph glyph-name="asciitilde" unicode="&#x7e;" horiz-adv-x="589" d="M208 572 C210 593 228 614 254 614 C306 614 364 557 443 557 C543 557 598 634 598 779 L481 779 C480 761 464 737 440 737 C387 737 326 794 247 794 C146 794 92 722 91 572 L208 572 Z " />
<glyph glyph-name="uni00A0" unicode="&#xa0;" horiz-adv-x="200" d="" />
<glyph glyph-name="exclamdown" unicode="&#xa1;" horiz-adv-x="282" d="M65 426 L-39 -130 L182 -130 L235 426 L65 426 Z M180 657 C94 657 54 610 54 543 C54 493 83 464 153 464 C238 464 280 509 280 585 C280 635 248 657 180 657 L180 657 Z " />
<glyph glyph-name="cent" unicode="&#xa2;" horiz-adv-x="589" d="M334 724 L311 620 C181 595 95 496 69 313 C65 282 62 252 62 226 C62 97 113 28 190 1 L166 -112 L325 -112 L348 -5 C395 5 437 26 475 63 L418 189 C399 172 373 158 341 158 C304 158 280 174 280 240 C280 257 282 278 285 302 C302 427 343 447 396 447 C420 447 440 444 458 434 L534 586 C515 598 493 608 469 615 L493 724 L334 724 Z " />
<glyph glyph-name="sterling" unicode="&#xa3;" horiz-adv-x="589" d="M43 288 L124 288 C120 232 70 191 21 188 L7 -6 C111 4 186 6 272 6 C347 6 419 2 491 -8 L528 190 C486 197 453 201 401 201 C362 201 314 197 271 186 L270 188 C304 210 328 245 334 288 L498 288 L520 446 L318 446 C315 458 314 470 314 483 C314 533 332 572 421 572 C462 572 500 564 530 555 L580 741 C543 753 495 766 419 766 C188 766 90 641 90 513 C90 489 94 468 100 446 L56 446 L43 288 Z " />
<glyph glyph-name="currency" unicode="&#xa4;" horiz-adv-x="589" d="M322 556 C297 556 273 552 251 544 L188 617 L63 508 L123 437 C105 404 93 364 93 327 C93 314 95 302 97 290 L23 224 L117 114 L187 176 C211 165 237 160 266 160 C294 160 322 166 348 176 L402 115 L526 224 L470 289 C485 319 494 353 494 386 C494 404 491 421 486 438 L567 508 L473 618 L388 544 C368 552 346 556 322 556 L322 556 Z M302 424 C335 424 358 401 358 369 C358 330 323 296 284 296 C251 296 229 320 229 350 C229 391 263 424 302 424 L302 424 Z " />
<glyph glyph-name="yen" unicode="&#xa5;" horiz-adv-x="589" d="M66 373 L49 251 L159 251 L155 222 L45 222 L28 100 L138 100 L124 0 L368 0 L382 100 L500 100 L517 222 L399 222 L403 251 L521 251 L538 373 L460 373 L642 750 L396 750 L314 464 C310 451 307 437 304 425 L302 425 C302 438 303 453 303 466 L303 750 L55 750 L134 373 L66 373 Z " />
<glyph glyph-name="brokenbar" unicode="&#xa6;" horiz-adv-x="292" d="M63 380 L227 380 L227 806 L63 806 L63 380 Z M63 -153 L227 -153 L227 265 L63 265 L63 -153 Z " />
<glyph glyph-name="section" unicode="&#xa7;" horiz-adv-x="536" d="M345 772 C157 772 67 676 67 559 C67 520 84 489 108 463 C46 418 12 350 12 283 C12 110 236 98 236 46 C236 28 215 19 187 19 C134 19 86 27 28 46 L-6 -105 C40 -128 119 -139 180 -139 C317 -139 458 -84 458 74 C458 113 442 143 417 170 C480 215 512 283 512 351 C512 523 289 532 289 585 C289 603 308 614 338 614 C391 614 439 606 497 587 L532 738 C485 761 406 772 345 772 L345 772 Z M243 368 C277 347 303 328 303 304 C303 289 294 274 281 264 C243 287 222 306 222 333 C224 347 231 359 243 368 L243 368 Z " />
<glyph glyph-name="dieresis" unicode="&#xa8;" horiz-adv-x="396" d="M162 808 C98 808 63 773 63 707 C63 664 88 646 139 646 C202 646 237 680 237 745 C237 786 214 808 162 808 L162 808 Z M361 808 C298 808 262 773 262 707 C262 664 288 646 338 646 C401 646 436 680 436 745 C436 786 413 808 361 808 L361 808 Z " />
<glyph glyph-name="copyright" unicode="&#xa9;" horiz-adv-x="829" d="M473 769 C239 769 22 562 22 323 C22 133 166 -14 363 -14 C595 -14 813 192 813 432 C813 622 670 769 473 769 L473 769 Z M457 659 C601 659 704 552 704 416 C704 242 547 89 377 89 C232 89 129 198 129 336 C129 507 285 659 457 659 L457 659 Z M456 629 C284 629 160 485 160 336 C160 213 247 118 381 118 C453 118 529 152 568 184 L569 324 C549 315 503 303 469 303 C409 303 381 322 381 361 C381 410 413 448 484 448 C518 448 559 438 584 424 L620 569 C585 603 530 629 456 629 L456 629 Z " />
<glyph glyph-name="ordfeminine" unicode="&#xaa;" horiz-adv-x="526" d="M344 825 C160 825 38 673 38 463 C38 344 91 291 182 291 C224 291 270 305 308 340 L320 300 L460 300 L532 815 L506 815 C448 815 410 825 344 825 L344 825 Z M254 433 C235 433 226 440 226 468 C226 482 229 505 233 535 C249 652 282 682 318 682 L327 682 L304 514 C297 466 278 433 254 433 L254 433 Z " />
<glyph glyph-name="guillemotleft" unicode="&#xab;" horiz-adv-x="649" d="M624 393 L645 546 L287 317 L285 305 L579 75 L601 229 L488 311 L624 393 Z M346 393 L367 546 L9 317 L7 305 L301 75 L323 229 L210 311 L346 393 Z " />
<glyph glyph-name="logicalnot" unicode="&#xac;" horiz-adv-x="589" d="M347 247 L347 111 L518 111 L518 416 L70 416 L70 247 L347 247 Z " />
<glyph glyph-name="uni00AD" unicode="&#xad;" horiz-adv-x="347" d="M36 417 L15 269 L306 269 L327 417 L36 417 Z " />
<glyph glyph-name="registered" unicode="&#xae;" horiz-adv-x="417" d="M276 831 C158 831 47 727 47 605 C47 508 119 434 220 434 C338 434 447 539 447 661 C447 757 374 831 276 831 L276 831 Z M267 775 C339 775 391 721 391 652 C391 565 312 490 227 490 C155 490 102 543 102 612 C102 699 183 775 267 775 L267 775 Z M169 736 L141 536 L226 536 L234 597 L239 597 L247 536 L334 536 L317 610 C342 624 353 651 353 676 C353 711 327 736 266 736 L169 736 Z M245 672 L258 672 C266 671 269 667 269 662 C269 654 264 646 253 646 L241 646 L245 672 Z " />
<glyph glyph-name="macron" unicode="&#xaf;" horiz-adv-x="396" d="M430 785 L87 785 L70 664 L413 664 L430 785 Z " />
<glyph glyph-name="degree" unicode="&#xb0;" horiz-adv-x="330" d="M57 668 C56 661 55 654 55 647 C55 573 109 518 187 518 C279 518 359 596 359 690 C359 764 306 819 230 819 C145 819 69 753 57 668 L57 668 Z M217 728 C248 728 268 709 268 679 C268 638 238 609 200 609 C168 609 148 628 148 658 C148 698 179 728 217 728 L217 728 Z " />
<glyph glyph-name="plusminus" unicode="&#xb1;" horiz-adv-x="589" d="M524 312 L524 483 L387 483 L387 613 L199 613 L199 483 L63 483 L63 312 L199 312 L199 184 L387 184 L387 312 L524 312 Z M522 6 L522 156 L64 156 L64 6 L522 6 Z " />
<glyph glyph-name="twosuperior" unicode="&#xb2;" horiz-adv-x="372" d="M261 879 C196 879 140 865 89 839 L106 733 C146 752 178 765 213 765 C238 765 248 757 248 745 C248 705 178 661 61 568 L49 480 L357 480 L375 595 L253 595 L253 598 C344 653 402 698 402 775 C402 834 359 879 261 879 L261 879 Z " />
<glyph glyph-name="threesuperior" unicode="&#xb3;" horiz-adv-x="372" d="M248 879 C194 879 135 864 92 839 L109 739 C147 761 182 770 224 770 C256 770 265 761 265 753 C265 736 257 724 175 724 L162 632 C231 632 247 624 247 609 C247 589 231 581 197 581 C159 581 124 591 91 606 L49 506 C81 486 133 475 185 475 C315 475 387 526 387 613 C387 644 370 666 341 679 L341 681 C382 702 402 735 402 776 C402 839 349 879 248 879 L248 879 Z " />
<glyph glyph-name="acute" unicode="&#xb4;" horiz-adv-x="396" d="M228 796 L165 651 L322 651 L465 796 L228 796 Z " />
<glyph glyph-name="mu" unicode="&#xb5;" horiz-adv-x="594" d="M234 -8 C281 -8 317 12 346 40 L366 -6 L515 5 L601 616 L388 616 L336 245 C329 199 297 168 266 168 C239 168 230 184 230 204 C230 208 230 212 231 217 L287 616 L74 616 L-35 -162 L169 -148 C169 -90 172 -35 174 22 C188 -1 211 -8 234 -8 L234 -8 Z " />
<glyph glyph-name="paragraph" unicode="&#xb6;" horiz-adv-x="697" d="M271 -160 L376 590 L450 590 L345 -160 L530 -160 L635 590 L701 590 L732 750 L223 750 C106 750 33 676 33 578 C33 495 91 454 173 450 L87 -160 L271 -160 Z " />
<glyph glyph-name="periodcentered" unicode="&#xb7;" horiz-adv-x="292" d="M159 452 C70 452 27 401 27 318 C27 262 59 239 129 239 C216 239 260 291 260 367 C260 421 230 452 159 452 L159 452 Z " />
<glyph glyph-name="cedilla" unicode="&#xb8;" horiz-adv-x="396" d="M7 -184 L192 -184 L252 23 L114 23 L7 -184 Z " />
<glyph glyph-name="onesuperior" unicode="&#xb9;" horiz-adv-x="284" d="M318 874 L228 874 L81 796 L76 678 L114 695 C126 700 139 707 150 714 L152 712 C149 699 147 685 145 672 L118 480 L263 480 L318 874 Z " />
<glyph glyph-name="ordmasculine" unicode="&#xba;" horiz-adv-x="489" d="M496 556 C500 586 502 613 502 638 C502 772 440 824 309 824 C157 824 76 751 49 556 C45 526 42 499 42 474 C42 341 107 292 235 292 C390 292 468 360 496 556 L496 556 Z M235 556 C251 667 261 678 289 678 C308 678 318 673 318 638 C318 620 315 593 310 556 C294 448 283 434 255 434 C236 434 227 439 227 473 C227 491 229 518 235 556 L235 556 Z " />
<glyph glyph-name="guillemotright" unicode="&#xbb;" horiz-adv-x="649" d="M269 75 L627 305 L629 317 L335 546 L314 393 L427 311 L291 229 L269 75 Z M-9 75 L349 305 L351 317 L57 546 L36 393 L149 311 L13 229 L-9 75 Z " />
<glyph glyph-name="onequarter" unicode="&#xbc;" horiz-adv-x="859" d="M761 59 L779 164 L747 164 L779 394 L607 394 L409 141 L409 59 L599 59 L591 0 L724 0 L732 59 L761 59 Z M619 164 L563 164 L562 166 C571 175 579 185 587 196 L613 232 C620 242 630 255 637 266 L639 265 C635 252 632 238 630 225 L619 164 Z M333 750 L243 750 L96 672 L91 554 L129 571 C141 576 154 583 165 590 L167 588 C164 575 162 561 160 548 L133 356 L278 356 L333 750 Z M632 750 L57 0 L204 0 L780 750 L632 750 Z " />
<glyph glyph-name="onehalf" unicode="&#xbd;" horiz-adv-x="859" d="M667 399 C602 399 546 385 495 359 L512 253 C552 272 584 285 619 285 C644 285 654 277 654 265 C654 225 584 181 467 88 L455 0 L763 0 L781 115 L659 115 L659 118 C750 173 808 218 808 295 C808 354 765 399 667 399 L667 399 Z M333 750 L243 750 L96 672 L91 554 L129 571 C141 576 154 583 165 590 L167 588 C164 575 162 561 160 548 L133 356 L278 356 L333 750 Z M625 750 L50 0 L197 0 L773 750 L625 750 Z " />
<glyph glyph-name="threequarters" unicode="&#xbe;" horiz-adv-x="859" d="M235 755 C181 755 122 740 79 715 L96 615 C134 637 169 646 211 646 C243 646 252 637 252 629 C252 612 244 600 162 600 L149 508 C218 508 234 500 234 485 C234 465 218 457 184 457 C146 457 111 467 78 482 L36 382 C68 362 120 351 172 351 C302 351 374 402 374 489 C374 520 357 542 328 555 L328 557 C369 578 389 611 389 652 C389 715 336 755 235 755 L235 755 Z M761 59 L779 164 L747 164 L779 394 L607 394 L409 141 L409 59 L599 59 L591 0 L724 0 L732 59 L761 59 Z M619 164 L563 164 L562 166 C571 175 579 185 587 196 L613 232 C620 242 630 255 637 266 L639 265 C635 252 632 238 630 225 L619 164 Z M652 750 L77 0 L224 0 L800 750 L652 750 Z " />
<glyph glyph-name="questiondown" unicode="&#xbf;" horiz-adv-x="453" d="M182 -99 C267 -99 353 -73 405 -36 L356 129 C325 104 285 90 243 90 C209 90 194 106 194 127 C194 180 255 222 322 256 L335 426 L171 426 L151 329 C46 272 -31 183 -31 64 C-31 -34 38 -99 182 -99 L182 -99 Z M290 670 C204 670 163 623 163 556 C163 506 193 477 263 477 C348 477 390 522 390 598 C390 648 358 670 290 670 L290 670 Z " />
<glyph glyph-name="Agrave" unicode="&#xc0;" horiz-adv-x="699" d="M401 0 L657 0 L542 750 L261 750 L-58 0 L184 0 L226 123 L394 123 L401 0 Z M371 547 C371 533 371 521 372 506 L384 296 L285 296 L357 508 C362 522 366 535 369 547 L371 547 Z M504 787 L463 906 L217 906 L333 787 L504 787 Z " />
<glyph glyph-name="Aacute" unicode="&#xc1;" horiz-adv-x="699" d="M401 0 L657 0 L542 750 L261 750 L-58 0 L184 0 L226 123 L394 123 L401 0 Z M371 547 C371 533 371 521 372 506 L384 296 L285 296 L357 508 C362 522 366 535 369 547 L371 547 Z M375 906 L312 787 L480 787 L638 906 L375 906 Z " />
<glyph glyph-name="Acircumflex" unicode="&#xc2;" horiz-adv-x="699" d="M401 0 L657 0 L542 750 L261 750 L-58 0 L184 0 L226 123 L394 123 L401 0 Z M371 547 C371 533 371 521 372 506 L384 296 L285 296 L357 508 C362 522 366 535 369 547 L371 547 Z M317 907 L210 787 L389 787 L418 824 L437 787 L619 787 L542 907 L317 907 Z " />
<glyph glyph-name="Atilde" unicode="&#xc3;" horiz-adv-x="699" d="M401 0 L657 0 L542 750 L261 750 L-58 0 L184 0 L226 123 L394 123 L401 0 Z M371 547 C371 533 371 521 372 506 L384 296 L285 296 L357 508 C362 522 366 535 369 547 L371 547 Z M321 787 C323 795 333 801 346 801 C375 801 410 778 479 778 C554 778 606 827 618 908 L525 908 C523 897 518 894 503 894 C474 894 432 917 363 917 C284 917 234 866 222 787 L321 787 Z " />
<glyph glyph-name="Adieresis" unicode="&#xc4;" horiz-adv-x="699" d="M401 0 L657 0 L542 750 L261 750 L-58 0 L184 0 L226 123 L394 123 L401 0 Z M371 547 C371 533 371 521 372 506 L384 296 L285 296 L357 508 C362 522 366 535 369 547 L371 547 Z M327 931 C266 931 231 897 231 837 C231 797 257 781 306 781 C368 781 402 813 402 871 C402 910 378 931 327 931 L327 931 Z M524 931 C463 931 428 897 428 837 C428 797 454 781 503 781 C565 781 599 813 599 871 C599 910 575 931 524 931 L524 931 Z " />
<glyph glyph-name="Aring" unicode="&#xc5;" horiz-adv-x="699" d="M417 914 C279 914 240 858 240 773 C240 754 243 739 251 727 L-58 0 L184 0 L226 123 L394 123 L401 0 L657 0 L544 737 C559 758 566 786 566 821 C566 877 527 914 417 914 L417 914 Z M371 547 C371 533 371 521 372 506 L384 296 L285 296 L357 508 C362 522 366 535 369 547 L371 547 Z M411 825 C448 825 457 817 457 801 C457 773 446 764 402 764 C359 764 351 771 351 786 C351 813 360 825 411 825 L411 825 Z " />
<glyph glyph-name="AE" unicode="&#xc6;" horiz-adv-x="981" d="M979 564 L1001 750 L389 750 L-58 0 L209 0 L270 124 L436 124 L421 0 L908 0 L938 186 L676 186 L689 297 L891 297 L915 467 L710 467 L723 564 L979 564 Z M458 296 L355 296 L476 540 C483 554 489 566 494 578 L496 577 C493 563 491 550 489 536 L458 296 Z " />
<glyph glyph-name="Ccedilla" unicode="&#xc7;" horiz-adv-x="540" d="M127 -184 L312 -184 L362 -8 C403 -3 443 7 476 21 L480 196 C445 182 404 174 359 174 C284 174 257 197 257 275 C257 302 260 336 266 377 C288 531 312 574 413 574 C458 574 499 567 530 557 L575 736 C536 752 473 763 421 763 C183 763 59 626 25 378 C19 339 17 303 17 270 C17 106 85 17 219 -6 L127 -184 Z " />
<glyph glyph-name="Egrave" unicode="&#xc8;" horiz-adv-x="563" d="M244 185 L259 297 L474 297 L498 467 L283 467 L297 563 L561 563 L584 750 L93 750 L-12 0 L491 0 L521 185 L244 185 Z M449 787 L408 906 L162 906 L278 787 L449 787 Z " />
<glyph glyph-name="Eacute" unicode="&#xc9;" horiz-adv-x="563" d="M244 185 L259 297 L474 297 L498 467 L283 467 L297 563 L561 563 L584 750 L93 750 L-12 0 L491 0 L521 185 L244 185 Z M320 906 L257 787 L425 787 L583 906 L320 906 Z " />
<glyph glyph-name="Ecircumflex" unicode="&#xca;" horiz-adv-x="563" d="M244 185 L259 297 L474 297 L498 467 L283 467 L297 563 L561 563 L584 750 L93 750 L-12 0 L491 0 L521 185 L244 185 Z M253 907 L146 787 L325 787 L354 824 L373 787 L555 787 L478 907 L253 907 Z " />
<glyph glyph-name="Edieresis" unicode="&#xcb;" horiz-adv-x="563" d="M244 185 L259 297 L474 297 L498 467 L283 467 L297 563 L561 563 L584 750 L93 750 L-12 0 L491 0 L521 185 L244 185 Z M272 931 C211 931 176 897 176 837 C176 797 202 781 251 781 C313 781 347 813 347 871 C347 910 323 931 272 931 L272 931 Z M469 931 C408 931 373 897 373 837 C373 797 399 781 448 781 C510 781 544 813 544 871 C544 910 520 931 469 931 L469 931 Z " />
<glyph glyph-name="Igrave" unicode="&#xcc;" horiz-adv-x="328" d="M-4 0 L232 0 L337 750 L101 750 L-4 0 Z M322 787 L281 906 L35 906 L151 787 L322 787 Z " />
<glyph glyph-name="Iacute" unicode="&#xcd;" horiz-adv-x="328" d="M-4 0 L232 0 L337 750 L101 750 L-4 0 Z M193 906 L130 787 L298 787 L456 906 L193 906 Z " />
<glyph glyph-name="Icircumflex" unicode="&#xce;" horiz-adv-x="328" d="M-4 0 L232 0 L337 750 L101 750 L-4 0 Z M127 907 L20 787 L199 787 L228 824 L247 787 L429 787 L352 907 L127 907 Z " />
<glyph glyph-name="Idieresis" unicode="&#xcf;" horiz-adv-x="328" d="M-4 0 L232 0 L337 750 L101 750 L-4 0 Z M145 931 C84 931 49 897 49 837 C49 797 75 781 124 781 C186 781 220 813 220 871 C220 910 196 931 145 931 L145 931 Z M342 931 C281 931 246 897 246 837 C246 797 272 781 321 781 C383 781 417 813 417 871 C417 910 393 931 342 931 L342 931 Z " />
<glyph glyph-name="Eth" unicode="&#xd0;" horiz-adv-x="685" d="M106 750 L64 452 L22 452 L4 322 L46 322 L1 0 L287 0 C502 0 627 105 666 380 C672 420 675 457 675 490 C675 673 586 750 387 750 L106 750 Z M309 560 L362 560 C413 560 435 548 435 484 C435 459 431 425 425 381 C401 207 380 190 309 190 L257 190 L276 322 L330 322 L348 452 L294 452 L309 560 Z " />
<glyph glyph-name="Ntilde" unicode="&#xd1;" horiz-adv-x="679" d="M591 0 L696 750 L496 750 L453 441 C451 428 449 413 449 400 L447 400 L284 750 L93 750 L-12 0 L188 0 L235 337 C237 350 238 365 238 378 L240 378 L428 0 L591 0 Z M305 787 C307 795 317 801 330 801 C359 801 394 778 463 778 C538 778 590 827 602 908 L509 908 C507 897 502 894 487 894 C458 894 416 917 347 917 C268 917 218 866 206 787 L305 787 Z " />
<glyph glyph-name="Ograve" unicode="&#xd2;" horiz-adv-x="698" d="M677 375 C683 417 686 455 686 490 C686 680 597 762 406 762 C179 762 62 647 24 375 C18 334 15 298 15 264 C15 71 108 -13 297 -13 C523 -13 638 94 677 375 L677 375 Z M436 375 C412 203 390 173 323 173 C276 173 255 188 255 256 C255 285 259 323 266 375 C290 547 312 575 379 575 C426 575 448 563 448 496 C448 467 444 428 436 375 L436 375 Z M513 787 L472 906 L226 906 L342 787 L513 787 Z " />
<glyph glyph-name="Oacute" unicode="&#xd3;" horiz-adv-x="698" d="M677 375 C683 417 686 455 686 490 C686 680 597 762 406 762 C179 762 62 647 24 375 C18 334 15 298 15 264 C15 71 108 -13 297 -13 C523 -13 638 94 677 375 L677 375 Z M436 375 C412 203 390 173 323 173 C276 173 255 188 255 256 C255 285 259 323 266 375 C290 547 312 575 379 575 C426 575 448 563 448 496 C448 467 444 428 436 375 L436 375 Z M379 906 L316 787 L484 787 L642 906 L379 906 Z " />
<glyph glyph-name="Ocircumflex" unicode="&#xd4;" horiz-adv-x="698" d="M677 375 C683 417 686 455 686 490 C686 680 597 762 406 762 C179 762 62 647 24 375 C18 334 15 298 15 264 C15 71 108 -13 297 -13 C523 -13 638 94 677 375 L677 375 Z M436 375 C412 203 390 173 323 173 C276 173 255 188 255 256 C255 285 259 323 266 375 C290 547 312 575 379 575 C426 575 448 563 448 496 C448 467 444 428 436 375 L436 375 Z M314 907 L207 787 L386 787 L415 824 L434 787 L616 787 L539 907 L314 907 Z " />
<glyph glyph-name="Otilde" unicode="&#xd5;" horiz-adv-x="698" d="M677 375 C683 417 686 455 686 490 C686 680 597 762 406 762 C179 762 62 647 24 375 C18 334 15 298 15 264 C15 71 108 -13 297 -13 C523 -13 638 94 677 375 L677 375 Z M436 375 C412 203 390 173 323 173 C276 173 255 188 255 256 C255 285 259 323 266 375 C290 547 312 575 379 575 C426 575 448 563 448 496 C448 467 444 428 436 375 L436 375 Z M316 787 C318 795 328 801 341 801 C370 801 405 778 474 778 C549 778 601 827 613 908 L520 908 C518 897 513 894 498 894 C469 894 427 917 358 917 C279 917 229 866 217 787 L316 787 Z " />
<glyph glyph-name="Odieresis" unicode="&#xd6;" horiz-adv-x="698" d="M677 375 C683 417 686 455 686 490 C686 680 597 762 406 762 C179 762 62 647 24 375 C18 334 15 298 15 264 C15 71 108 -13 297 -13 C523 -13 638 94 677 375 L677 375 Z M436 375 C412 203 390 173 323 173 C276 173 255 188 255 256 C255 285 259 323 266 375 C290 547 312 575 379 575 C426 575 448 563 448 496 C448 467 444 428 436 375 L436 375 Z M331 931 C270 931 235 897 235 837 C235 797 261 781 310 781 C372 781 406 813 406 871 C406 910 382 931 331 931 L331 931 Z M528 931 C467 931 432 897 432 837 C432 797 458 781 507 781 C569 781 603 813 603 871 C603 910 579 931 528 931 L528 931 Z " />
<glyph glyph-name="multiply" unicode="&#xd7;" horiz-adv-x="571" d="M519 209 L406 319 L523 434 L400 558 L285 442 L170 557 L47 432 L161 319 L51 208 L174 84 L283 196 L395 85 L519 209 Z " />
<glyph glyph-name="Oslash" unicode="&#xd8;" horiz-adv-x="698" d="M66 -18 L112 31 C157 1 219 -13 297 -13 C523 -13 638 94 677 375 C683 417 686 455 686 490 C686 536 681 575 670 609 L731 675 L637 765 L592 717 C547 748 485 762 406 762 C179 762 62 647 24 375 C18 334 15 297 15 263 C15 215 21 173 33 138 L-31 68 L66 -18 Z M263 355 C287 535 310 562 376 562 C407 562 427 557 437 536 L263 355 Z M438 391 C419 215 390 185 326 185 C295 185 275 191 265 211 L438 391 Z " />
<glyph glyph-name="Ugrave" unicode="&#xd9;" horiz-adv-x="661" d="M684 750 L455 750 L384 249 C376 196 359 176 306 176 C261 176 245 192 245 227 C245 233 246 241 247 249 L318 750 L88 750 L18 256 C15 237 14 219 14 202 C14 63 101 -13 280 -13 C481 -13 589 82 614 256 L684 750 Z M491 787 L450 906 L204 906 L320 787 L491 787 Z " />
<glyph glyph-name="Uacute" unicode="&#xda;" horiz-adv-x="661" d="M684 750 L455 750 L384 249 C376 196 359 176 306 176 C261 176 245 192 245 227 C245 233 246 241 247 249 L318 750 L88 750 L18 256 C15 237 14 219 14 202 C14 63 101 -13 280 -13 C481 -13 589 82 614 256 L684 750 Z M362 906 L299 787 L467 787 L625 906 L362 906 Z " />
<glyph glyph-name="Ucircumflex" unicode="&#xdb;" horiz-adv-x="661" d="M684 750 L455 750 L384 249 C376 196 359 176 306 176 C261 176 245 192 245 227 C245 233 246 241 247 249 L318 750 L88 750 L18 256 C15 237 14 219 14 202 C14 63 101 -13 280 -13 C481 -13 589 82 614 256 L684 750 Z M296 907 L189 787 L368 787 L397 824 L416 787 L598 787 L521 907 L296 907 Z " />
<glyph glyph-name="Udieresis" unicode="&#xdc;" horiz-adv-x="661" d="M684 750 L455 750 L384 249 C376 196 359 176 306 176 C261 176 245 192 245 227 C245 233 246 241 247 249 L318 750 L88 750 L18 256 C15 237 14 219 14 202 C14 63 101 -13 280 -13 C481 -13 589 82 614 256 L684 750 Z M314 931 C253 931 218 897 218 837 C218 797 244 781 293 781 C355 781 389 813 389 871 C389 910 365 931 314 931 L314 931 Z M511 931 C450 931 415 897 415 837 C415 797 441 781 490 781 C552 781 586 813 586 871 C586 910 562 931 511 931 L511 931 Z " />
<glyph glyph-name="Yacute" unicode="&#xdd;" horiz-adv-x="669" d="M45 750 L200 220 L170 0 L405 0 L435 220 L735 750 L486 750 L369 481 C363 468 358 455 354 443 L352 443 C351 456 349 468 346 483 L300 750 L45 750 Z M369 906 L306 787 L474 787 L632 906 L369 906 Z " />
<glyph glyph-name="Thorn" unicode="&#xde;" horiz-adv-x="632" d="M308 644 L323 750 L93 750 L-12 0 L218 0 L233 112 L272 112 C521 112 622 233 622 437 C622 578 541 644 347 644 L308 644 Z M283 463 L322 463 C367 463 383 454 383 415 C383 403 381 389 379 372 C368 293 350 284 296 284 L257 284 L283 463 Z " />
<glyph glyph-name="germandbls" unicode="&#xdf;" horiz-adv-x="640" d="M0 86 C-11 8 -36 -9 -91 -16 L-98 -165 C63 -159 189 -90 214 87 L271 498 C282 576 296 594 333 594 C356 594 368 586 368 570 C368 531 278 476 278 398 C278 314 387 280 387 220 C387 180 355 173 323 173 C297 173 270 180 258 188 L225 15 C251 -3 297 -10 336 -10 C481 -10 609 91 609 255 C609 376 511 409 511 439 C515 471 578 510 578 595 C578 691 497 762 362 762 C182 762 81 667 55 481 L0 86 Z " />
<glyph glyph-name="agrave" unicode="&#xe0;" horiz-adv-x="593" d="M363 625 C146 625 -2 445 -2 195 C-2 55 59 -11 177 -11 C227 -11 281 4 327 41 L339 0 L505 0 L591 614 L544 614 C469 614 441 625 363 625 L363 625 Z M256 160 C227 160 215 169 215 208 C215 225 218 249 222 279 C241 418 287 452 334 452 C341 452 348 452 354 451 L326 253 C318 197 293 160 256 160 L256 160 Z M507 651 L479 796 L242 796 L349 651 L507 651 Z " />
<glyph glyph-name="aacute" unicode="&#xe1;" horiz-adv-x="593" d="M363 625 C146 625 -2 445 -2 195 C-2 55 59 -11 177 -11 C227 -11 281 4 327 41 L339 0 L505 0 L591 614 L544 614 C469 614 441 625 363 625 L363 625 Z M256 160 C227 160 215 169 215 208 C215 225 218 249 222 279 C241 418 287 452 334 452 C341 452 348 452 354 451 L326 253 C318 197 293 160 256 160 L256 160 Z M360 796 L297 651 L454 651 L597 796 L360 796 Z " />
<glyph glyph-name="acircumflex" unicode="&#xe2;" horiz-adv-x="593" d="M363 625 C146 625 -2 445 -2 195 C-2 55 59 -11 177 -11 C227 -11 281 4 327 41 L339 0 L505 0 L591 614 L544 614 C469 614 441 625 363 625 L363 625 Z M256 160 C227 160 215 169 215 208 C215 225 218 249 222 279 C241 418 287 452 334 452 C341 452 348 452 354 451 L326 253 C318 197 293 160 256 160 L256 160 Z M318 796 L208 651 L361 651 L378 678 C385 689 388 694 394 706 L396 706 L415 651 L569 651 L496 796 L318 796 Z " />
<glyph glyph-name="atilde" unicode="&#xe3;" horiz-adv-x="593" d="M363 625 C146 625 -2 445 -2 195 C-2 55 59 -11 177 -11 C227 -11 281 4 327 41 L339 0 L505 0 L591 614 L544 614 C469 614 441 625 363 625 L363 625 Z M256 160 C227 160 215 169 215 208 C215 225 218 249 222 279 C241 418 287 452 334 452 C341 452 348 452 354 451 L326 253 C318 197 293 160 256 160 L256 160 Z M468 643 C544 643 595 703 609 796 L493 796 C490 776 482 768 473 768 C449 768 430 803 362 803 C286 803 235 742 221 650 L337 650 C341 669 348 678 357 678 C381 678 400 643 468 643 L468 643 Z " />
<glyph glyph-name="adieresis" unicode="&#xe4;" horiz-adv-x="593" d="M363 625 C146 625 -2 445 -2 195 C-2 55 59 -11 177 -11 C227 -11 281 4 327 41 L339 0 L505 0 L591 614 L544 614 C469 614 441 625 363 625 L363 625 Z M256 160 C227 160 215 169 215 208 C215 225 218 249 222 279 C241 418 287 452 334 452 C341 452 348 452 354 451 L326 253 C318 197 293 160 256 160 L256 160 Z M321 808 C257 808 222 773 222 707 C222 664 247 646 298 646 C361 646 396 680 396 745 C396 786 373 808 321 808 L321 808 Z M520 808 C457 808 421 773 421 707 C421 664 447 646 497 646 C560 646 595 680 595 745 C595 786 572 808 520 808 L520 808 Z " />
<glyph glyph-name="aring" unicode="&#xe5;" horiz-adv-x="593" d="M363 625 C146 625 -2 445 -2 195 C-2 55 59 -11 177 -11 C227 -11 281 4 327 41 L339 0 L505 0 L591 614 L544 614 C469 614 441 625 363 625 L363 625 Z M256 160 C227 160 215 169 215 208 C215 225 218 249 222 279 C241 418 287 452 334 452 C341 452 348 452 354 451 L326 253 C318 197 293 160 256 160 L256 160 Z M420 836 C302 836 259 790 259 720 C259 663 303 642 393 642 C502 642 553 676 553 755 C553 804 514 836 420 836 L420 836 Z M412 762 C446 762 454 755 454 743 C454 723 443 716 405 716 C369 716 361 721 361 733 C361 752 370 762 412 762 L412 762 Z " />
<glyph glyph-name="ae" unicode="&#xe6;" horiz-adv-x="836" d="M650 628 C590 628 540 616 501 592 C462 612 413 625 347 625 C169 625 -2 485 -2 192 C-2 54 56 -11 172 -11 C246 -11 323 16 374 92 L376 92 C405 20 467 -11 554 -11 C657 -11 734 25 783 68 L728 196 C695 174 657 162 616 162 C571 162 547 172 539 212 C736 245 838 337 838 473 C838 569 767 628 650 628 L650 628 Z M256 160 C227 160 215 169 215 209 C215 226 218 249 222 280 C240 412 287 461 340 461 L355 461 L325 244 C318 193 291 160 256 160 L256 160 Z M628 466 C643 466 650 459 650 447 C650 412 623 383 553 366 C570 447 592 466 628 466 L628 466 Z " />
<glyph glyph-name="ccedilla" unicode="&#xe7;" horiz-adv-x="455" d="M64 -184 L249 -184 L301 -2 C343 9 381 29 415 63 L358 189 C339 172 313 158 281 158 C244 158 220 174 220 240 C220 257 222 278 225 302 C242 427 283 447 336 447 C360 447 380 444 398 434 L474 586 C434 611 385 626 320 626 C152 626 41 528 9 313 C4 282 3 253 3 227 C3 84 65 13 156 -6 L64 -184 Z " />
<glyph glyph-name="egrave" unicode="&#xe8;" horiz-adv-x="511" d="M325 628 C149 628 39 525 9 313 C5 284 3 257 3 232 C3 61 95 -11 229 -11 C332 -11 409 25 458 68 L403 196 C370 174 332 162 290 162 C243 162 218 174 214 222 C417 253 513 332 513 473 C513 568 443 628 325 628 L325 628 Z M304 466 C319 466 324 458 324 444 C324 413 297 383 228 366 C245 445 267 466 304 466 L304 466 Z M419 651 L391 796 L154 796 L261 651 L419 651 Z " />
<glyph glyph-name="eacute" unicode="&#xe9;" horiz-adv-x="511" d="M325 628 C149 628 39 525 9 313 C5 284 3 257 3 232 C3 61 95 -11 229 -11 C332 -11 409 25 458 68 L403 196 C370 174 332 162 290 162 C243 162 218 174 214 222 C417 253 513 332 513 473 C513 568 443 628 325 628 L325 628 Z M304 466 C319 466 324 458 324 444 C324 413 297 383 228 366 C245 445 267 466 304 466 L304 466 Z M295 796 L232 651 L389 651 L532 796 L295 796 Z " />
<glyph glyph-name="ecircumflex" unicode="&#xea;" horiz-adv-x="511" d="M325 628 C149 628 39 525 9 313 C5 284 3 257 3 232 C3 61 95 -11 229 -11 C332 -11 409 25 458 68 L403 196 C370 174 332 162 290 162 C243 162 218 174 214 222 C417 253 513 332 513 473 C513 568 443 628 325 628 L325 628 Z M304 466 C319 466 324 458 324 444 C324 413 297 383 228 366 C245 445 267 466 304 466 L304 466 Z M260 796 L150 651 L303 651 L320 678 C327 689 330 694 336 706 L338 706 L357 651 L511 651 L438 796 L260 796 Z " />
<glyph glyph-name="edieresis" unicode="&#xeb;" horiz-adv-x="511" d="M325 628 C149 628 39 525 9 313 C5 284 3 257 3 232 C3 61 95 -11 229 -11 C332 -11 409 25 458 68 L403 196 C370 174 332 162 290 162 C243 162 218 174 214 222 C417 253 513 332 513 473 C513 568 443 628 325 628 L325 628 Z M304 466 C319 466 324 458 324 444 C324 413 297 383 228 366 C245 445 267 466 304 466 L304 466 Z M244 808 C180 808 145 773 145 707 C145 664 170 646 221 646 C284 646 319 680 319 745 C319 786 296 808 244 808 L244 808 Z M443 808 C380 808 344 773 344 707 C344 664 370 646 420 646 C483 646 518 680 518 745 C518 786 495 808 443 808 L443 808 Z " />
<glyph glyph-name="igrave" unicode="&#xec;" horiz-adv-x="300" d="M211 0 L298 620 L78 611 L-7 0 L211 0 Z M289 651 L261 796 L24 796 L131 651 L289 651 Z " />
<glyph glyph-name="iacute" unicode="&#xed;" horiz-adv-x="300" d="M211 0 L298 620 L78 611 L-7 0 L211 0 Z M165 796 L102 651 L259 651 L402 796 L165 796 Z " />
<glyph glyph-name="icircumflex" unicode="&#xee;" horiz-adv-x="300" d="M211 0 L298 620 L78 611 L-7 0 L211 0 Z M126 796 L16 651 L169 651 L186 678 C193 689 196 694 202 706 L204 706 L223 651 L377 651 L304 796 L126 796 Z " />
<glyph glyph-name="idieresis" unicode="&#xef;" horiz-adv-x="300" d="M211 0 L298 620 L78 611 L-7 0 L211 0 Z M113 808 C49 808 14 773 14 707 C14 664 39 646 90 646 C153 646 188 680 188 745 C188 786 165 808 113 808 L113 808 Z M312 808 C249 808 213 773 213 707 C213 664 239 646 289 646 C352 646 387 680 387 745 C387 786 364 808 312 808 L312 808 Z " />
<glyph glyph-name="eth" unicode="&#xf0;" horiz-adv-x="591" d="M542 700 L486 790 L399 747 C380 764 359 780 339 793 L170 704 C193 692 214 678 233 662 L165 628 L224 547 L304 585 C316 567 327 548 337 527 L335 526 C313 534 287 537 260 537 C117 537 0 432 0 211 C0 38 106 -10 246 -10 C443 -10 537 87 572 337 C574 353 575 369 575 385 C575 486 533 586 473 667 L542 700 Z M292 367 C328 367 344 353 344 311 C344 302 344 291 342 278 C328 179 313 159 261 159 C235 159 220 168 220 215 C220 230 222 250 225 274 C235 346 250 367 292 367 L292 367 Z " />
<glyph glyph-name="ntilde" unicode="&#xf1;" horiz-adv-x="596" d="M302 0 L516 0 L569 379 C572 402 574 424 574 444 C574 564 517 628 410 628 C347 628 293 608 253 573 L250 573 L242 620 L73 611 L-12 0 L201 0 L250 355 C258 410 287 444 323 444 C346 444 356 432 356 401 C356 393 355 383 354 372 L302 0 Z M412 643 C488 643 539 703 553 796 L437 796 C434 776 426 768 417 768 C393 768 374 803 306 803 C230 803 179 742 165 650 L281 650 C285 669 292 678 301 678 C325 678 344 643 412 643 L412 643 Z " />
<glyph glyph-name="ograve" unicode="&#xf2;" horiz-adv-x="577" d="M303 456 C332 456 347 449 347 401 C347 380 344 350 338 309 C318 166 301 151 257 151 C230 151 216 157 216 206 C216 228 219 259 225 302 C244 441 262 456 303 456 L303 456 Z M331 628 C135 628 39 526 9 312 C4 277 2 244 2 215 C2 67 66 -12 232 -12 C428 -12 523 89 553 303 C558 339 561 372 561 402 C561 549 496 628 331 628 L331 628 Z M424 651 L396 796 L159 796 L266 651 L424 651 Z " />
<glyph glyph-name="oacute" unicode="&#xf3;" horiz-adv-x="577" d="M303 456 C332 456 347 449 347 401 C347 380 344 350 338 309 C318 166 301 151 257 151 C230 151 216 157 216 206 C216 228 219 259 225 302 C244 441 262 456 303 456 L303 456 Z M331 628 C135 628 39 526 9 312 C4 277 2 244 2 215 C2 67 66 -12 232 -12 C428 -12 523 89 553 303 C558 339 561 372 561 402 C561 549 496 628 331 628 L331 628 Z M303 796 L240 651 L397 651 L540 796 L303 796 Z " />
<glyph glyph-name="ocircumflex" unicode="&#xf4;" horiz-adv-x="577" d="M303 456 C332 456 347 449 347 401 C347 380 344 350 338 309 C318 166 301 151 257 151 C230 151 216 157 216 206 C216 228 219 259 225 302 C244 441 262 456 303 456 L303 456 Z M331 628 C135 628 39 526 9 312 C4 277 2 244 2 215 C2 67 66 -12 232 -12 C428 -12 523 89 553 303 C558 339 561 372 561 402 C561 549 496 628 331 628 L331 628 Z M267 796 L157 651 L310 651 L327 678 C334 689 337 694 343 706 L345 706 L364 651 L518 651 L445 796 L267 796 Z " />
<glyph glyph-name="otilde" unicode="&#xf5;" horiz-adv-x="577" d="M303 456 C332 456 347 449 347 401 C347 380 344 350 338 309 C318 166 301 151 257 151 C230 151 216 157 216 206 C216 228 219 259 225 302 C244 441 262 456 303 456 L303 456 Z M331 628 C135 628 39 526 9 312 C4 277 2 244 2 215 C2 67 66 -12 232 -12 C428 -12 523 89 553 303 C558 339 561 372 561 402 C561 549 496 628 331 628 L331 628 Z M404 643 C480 643 531 703 545 796 L429 796 C426 776 418 768 409 768 C385 768 366 803 298 803 C222 803 171 742 157 650 L273 650 C277 669 284 678 293 678 C317 678 336 643 404 643 L404 643 Z " />
<glyph glyph-name="odieresis" unicode="&#xf6;" horiz-adv-x="577" d="M303 456 C332 456 347 449 347 401 C347 380 344 350 338 309 C318 166 301 151 257 151 C230 151 216 157 216 206 C216 228 219 259 225 302 C244 441 262 456 303 456 L303 456 Z M331 628 C135 628 39 526 9 312 C4 277 2 244 2 215 C2 67 66 -12 232 -12 C428 -12 523 89 553 303 C558 339 561 372 561 402 C561 549 496 628 331 628 L331 628 Z M260 808 C196 808 161 773 161 707 C161 664 186 646 237 646 C300 646 335 680 335 745 C335 786 312 808 260 808 L260 808 Z M459 808 C396 808 360 773 360 707 C360 664 386 646 436 646 C499 646 534 680 534 745 C534 786 511 808 459 808 L459 808 Z " />
<glyph glyph-name="divide" unicode="&#xf7;" horiz-adv-x="571" d="M412 539 C412 604 366 637 285 637 C207 637 159 604 159 540 C159 466 205 444 285 444 C366 444 412 476 412 539 L412 539 Z M412 118 C412 183 366 215 285 215 C207 215 159 183 159 119 C159 44 205 23 285 23 C366 23 412 55 412 118 L412 118 Z M523 237 L523 420 L45 420 L45 237 L523 237 Z " />
<glyph glyph-name="oslash" unicode="&#xf8;" horiz-adv-x="577" d="M331 628 C135 628 39 526 9 312 C4 277 2 245 2 215 C2 171 7 133 20 101 L-28 51 L50 -21 L88 20 C123 -1 171 -12 232 -12 C428 -12 523 89 553 303 C558 338 561 370 561 399 C561 440 556 476 545 506 L597 562 L521 634 L481 592 C444 615 395 628 331 628 L331 628 Z M302 456 C326 456 339 451 344 426 L225 308 C243 439 263 456 302 456 L302 456 Z M257 151 C236 151 223 155 218 179 L338 298 C318 167 300 151 257 151 L257 151 Z " />
<glyph glyph-name="ugrave" unicode="&#xf9;" horiz-adv-x="589" d="M594 614 L381 614 L326 221 C320 181 304 165 268 165 C237 165 223 177 223 204 C223 209 224 215 225 221 L281 620 L66 611 L12 225 C9 207 8 191 8 175 C8 53 85 -10 242 -10 C419 -10 516 65 539 225 L594 614 Z M430 651 L402 796 L165 796 L272 651 L430 651 Z " />
<glyph glyph-name="uacute" unicode="&#xfa;" horiz-adv-x="589" d="M594 614 L381 614 L326 221 C320 181 304 165 268 165 C237 165 223 177 223 204 C223 209 224 215 225 221 L281 620 L66 611 L12 225 C9 207 8 191 8 175 C8 53 85 -10 242 -10 C419 -10 516 65 539 225 L594 614 Z M298 796 L235 651 L392 651 L535 796 L298 796 Z " />
<glyph glyph-name="ucircumflex" unicode="&#xfb;" horiz-adv-x="589" d="M594 614 L381 614 L326 221 C320 181 304 165 268 165 C237 165 223 177 223 204 C223 209 224 215 225 221 L281 620 L66 611 L12 225 C9 207 8 191 8 175 C8 53 85 -10 242 -10 C419 -10 516 65 539 225 L594 614 Z M267 796 L157 651 L310 651 L327 678 C334 689 337 694 343 706 L345 706 L364 651 L518 651 L445 796 L267 796 Z " />
<glyph glyph-name="udieresis" unicode="&#xfc;" horiz-adv-x="589" d="M594 614 L381 614 L326 221 C320 181 304 165 268 165 C237 165 223 177 223 204 C223 209 224 215 225 221 L281 620 L66 611 L12 225 C9 207 8 191 8 175 C8 53 85 -10 242 -10 C419 -10 516 65 539 225 L594 614 Z M259 808 C195 808 160 773 160 707 C160 664 185 646 236 646 C299 646 334 680 334 745 C334 786 311 808 259 808 L259 808 Z M458 808 C395 808 359 773 359 707 C359 664 385 646 435 646 C498 646 533 680 533 745 C533 786 510 808 458 808 L458 808 Z " />
<glyph glyph-name="yacute" unicode="&#xfd;" horiz-adv-x="580" d="M384 616 C366 521 339 427 306 342 L304 342 C304 351 302 367 300 383 L272 621 L35 604 L141 105 C101 60 53 23 2 -3 L77 -155 C332 -29 517 245 592 616 L384 616 Z M319 796 L256 651 L413 651 L556 796 L319 796 Z " />
<glyph glyph-name="thorn" unicode="&#xfe;" horiz-adv-x="597" d="M409 626 C368 626 326 618 288 596 L287 597 C290 607 292 622 294 637 L314 782 L100 771 L-30 -153 L183 -153 L207 17 C240 0 276 -9 322 -9 C447 -9 541 75 573 303 C579 347 582 387 582 421 C582 567 526 626 409 626 L409 626 Z M326 451 C352 451 364 440 364 397 C364 376 361 348 356 309 C338 186 319 163 273 163 C257 163 242 168 229 175 L255 361 C262 413 291 451 326 451 L326 451 Z " />
<glyph glyph-name="ydieresis" unicode="&#xff;" horiz-adv-x="580" d="M384 616 C366 521 339 427 306 342 L304 342 C304 351 302 367 300 383 L272 621 L35 604 L141 105 C101 60 53 23 2 -3 L77 -155 C332 -29 517 245 592 616 L384 616 Z M270 808 C206 808 171 773 171 707 C171 664 196 646 247 646 C310 646 345 680 345 745 C345 786 322 808 270 808 L270 808 Z M469 808 C406 808 370 773 370 707 C370 664 396 646 446 646 C509 646 544 680 544 745 C544 786 521 808 469 808 L469 808 Z " />
<glyph glyph-name="Amacron" unicode="&#x100;" horiz-adv-x="699" d="M401 0 L657 0 L542 750 L261 750 L-58 0 L184 0 L226 123 L394 123 L401 0 Z M371 547 C371 533 371 521 372 506 L384 296 L285 296 L357 508 C362 522 366 535 369 547 L371 547 Z M590 898 L247 898 L233 798 L576 798 L590 898 Z " />
<glyph glyph-name="amacron" unicode="&#x101;" horiz-adv-x="593" d="M363 625 C146 625 -2 445 -2 195 C-2 55 59 -11 177 -11 C227 -11 281 4 327 41 L339 0 L505 0 L591 614 L544 614 C469 614 441 625 363 625 L363 625 Z M256 160 C227 160 215 169 215 208 C215 225 218 249 222 279 C241 418 287 452 334 452 C341 452 348 452 354 451 L326 253 C318 197 293 160 256 160 L256 160 Z M583 785 L240 785 L223 664 L566 664 L583 785 Z " />
<glyph glyph-name="Abreve" unicode="&#x102;" horiz-adv-x="699" d="M401 0 L657 0 L542 750 L261 750 L-58 0 L184 0 L226 123 L394 123 L401 0 Z M371 547 C371 533 371 521 372 506 L384 296 L285 296 L357 508 C362 522 366 535 369 547 L371 547 Z M448 906 C445 886 432 882 419 882 C405 882 396 886 396 899 C396 901 396 903 397 906 L242 906 C241 898 240 890 240 882 C240 819 283 780 404 780 C531 780 593 825 605 906 L448 906 Z " />
<glyph glyph-name="abreve" unicode="&#x103;" horiz-adv-x="593" d="M363 625 C146 625 -2 445 -2 195 C-2 55 59 -11 177 -11 C227 -11 281 4 327 41 L339 0 L505 0 L591 614 L544 614 C469 614 441 625 363 625 L363 625 Z M256 160 C227 160 215 169 215 208 C215 225 218 249 222 279 C241 418 287 452 334 452 C341 452 348 452 354 451 L326 253 C318 197 293 160 256 160 L256 160 Z M446 796 C440 753 425 745 409 745 C393 745 383 752 383 781 C383 785 383 790 384 796 L248 796 C246 783 245 771 245 760 C245 686 285 642 395 642 C515 642 572 697 586 796 L446 796 Z " />
<glyph glyph-name="Aogonek" unicode="&#x104;" horiz-adv-x="699" d="M401 0 L473 0 C437 -21 409 -56 409 -106 C409 -154 449 -188 532 -188 C580 -188 616 -179 648 -164 L647 -58 C636 -63 624 -65 610 -65 C584 -65 575 -58 575 -43 C575 -23 598 0 628 0 L657 0 L542 750 L261 750 L-58 0 L184 0 L226 123 L394 123 L401 0 Z M371 547 C371 533 371 521 372 506 L384 296 L285 296 L357 508 C362 522 366 535 369 547 L371 547 Z " />
<glyph glyph-name="aogonek" unicode="&#x105;" horiz-adv-x="593" d="M407 -188 C454 -188 490 -179 522 -164 L521 -58 C510 -63 500 -65 484 -65 C458 -65 449 -58 449 -43 C449 -21 465 -5 505 0 L591 614 L544 614 C469 614 441 625 363 625 C146 625 -2 445 -2 195 C-2 55 59 -11 177 -11 C227 -11 281 4 327 41 L349 -2 C311 -21 282 -57 282 -105 C282 -154 322 -188 407 -188 L407 -188 Z M256 160 C227 160 215 169 215 208 C215 225 218 249 222 279 C241 418 287 452 334 452 C341 452 348 452 354 451 L326 253 C318 197 293 160 256 160 L256 160 Z " />
<glyph glyph-name="Cacute" unicode="&#x106;" horiz-adv-x="540" d="M421 763 C183 763 59 626 25 378 C19 339 17 303 17 270 C17 77 112 -13 299 -13 C356 -13 427 0 476 21 L480 196 C445 182 404 174 359 174 C284 174 257 197 257 275 C257 302 260 336 266 377 C288 531 312 574 413 574 C458 574 499 567 530 557 L575 736 C536 752 473 763 421 763 L421 763 Z M361 906 L298 787 L466 787 L624 906 L361 906 Z " />
<glyph glyph-name="cacute" unicode="&#x107;" horiz-adv-x="455" d="M320 626 C152 626 41 528 9 313 C4 282 3 253 3 227 C3 55 93 -12 215 -12 C295 -12 359 8 415 63 L358 189 C339 172 313 158 281 158 C244 158 220 174 220 240 C220 257 222 278 225 302 C242 427 283 447 336 447 C360 447 380 444 398 434 L474 586 C434 611 385 626 320 626 L320 626 Z M289 796 L226 651 L383 651 L526 796 L289 796 Z " />
<glyph glyph-name="Ccircumflex" unicode="&#x108;" horiz-adv-x="540" d="M421 763 C183 763 59 626 25 378 C19 339 17 303 17 270 C17 77 112 -13 299 -13 C356 -13 427 0 476 21 L480 196 C445 182 404 174 359 174 C284 174 257 197 257 275 C257 302 260 336 266 377 C288 531 312 574 413 574 C458 574 499 567 530 557 L575 736 C536 752 473 763 421 763 L421 763 Z M290 907 L183 787 L362 787 L391 824 L410 787 L592 787 L515 907 L290 907 Z " />
<glyph glyph-name="ccircumflex" unicode="&#x109;" horiz-adv-x="455" d="M320 626 C152 626 41 528 9 313 C4 282 3 253 3 227 C3 55 93 -12 215 -12 C295 -12 359 8 415 63 L358 189 C339 172 313 158 281 158 C244 158 220 174 220 240 C220 257 222 278 225 302 C242 427 283 447 336 447 C360 447 380 444 398 434 L474 586 C434 611 385 626 320 626 L320 626 Z M247 796 L137 651 L290 651 L307 678 C314 689 317 694 323 706 L325 706 L344 651 L498 651 L425 796 L247 796 Z " />
<glyph glyph-name="Cdotaccent" unicode="&#x10a;" horiz-adv-x="540" d="M421 763 C183 763 59 626 25 378 C19 339 17 303 17 270 C17 77 112 -13 299 -13 C356 -13 427 0 476 21 L480 196 C445 182 404 174 359 174 C284 174 257 197 257 275 C257 302 260 336 266 377 C288 531 312 574 413 574 C458 574 499 567 530 557 L575 736 C536 752 473 763 421 763 L421 763 Z M410 919 C313 919 280 889 280 834 C280 793 310 778 390 778 C487 778 520 806 520 860 C520 898 492 919 410 919 L410 919 Z " />
<glyph glyph-name="cdotaccent" unicode="&#x10b;" horiz-adv-x="455" d="M320 626 C152 626 41 528 9 313 C4 282 3 253 3 227 C3 55 93 -12 215 -12 C295 -12 359 8 415 63 L358 189 C339 172 313 158 281 158 C244 158 220 174 220 240 C220 257 222 278 225 302 C242 427 283 447 336 447 C360 447 380 444 398 434 L474 586 C434 611 385 626 320 626 L320 626 Z M345 808 C262 808 221 774 221 711 C221 665 253 646 322 646 C406 646 448 679 448 741 C448 785 417 808 345 808 L345 808 Z " />
<glyph glyph-name="Ccaron" unicode="&#x10c;" horiz-adv-x="540" d="M421 763 C183 763 59 626 25 378 C19 339 17 303 17 270 C17 77 112 -13 299 -13 C356 -13 427 0 476 21 L480 196 C445 182 404 174 359 174 C284 174 257 197 257 275 C257 302 260 336 266 377 C288 531 312 574 413 574 C458 574 499 567 530 557 L575 736 C536 752 473 763 421 763 L421 763 Z M518 787 L629 907 L449 907 L421 867 L416 867 L401 907 L220 907 L294 787 L518 787 Z " />
<glyph glyph-name="ccaron" unicode="&#x10d;" horiz-adv-x="455" d="M320 626 C152 626 41 528 9 313 C4 282 3 253 3 227 C3 55 93 -12 215 -12 C295 -12 359 8 415 63 L358 189 C339 172 313 158 281 158 C244 158 220 174 220 240 C220 257 222 278 225 302 C242 427 283 447 336 447 C360 447 380 444 398 434 L474 586 C434 611 385 626 320 626 L320 626 Z M408 651 L520 796 L365 796 L348 765 C341 753 337 745 332 734 L330 734 C328 746 324 759 320 773 L313 796 L159 796 L228 651 L408 651 Z " />
<glyph glyph-name="Dcaron" unicode="&#x10e;" horiz-adv-x="672" d="M93 750 L-12 0 L274 0 C489 0 614 105 653 380 C659 420 662 457 662 490 C662 673 573 750 374 750 L93 750 Z M296 560 L349 560 C400 560 422 548 422 484 C422 459 418 425 412 381 C388 207 367 190 296 190 L244 190 L296 560 Z M452 787 L563 907 L383 907 L355 867 L350 867 L335 907 L154 907 L228 787 L452 787 Z " />
<glyph glyph-name="dcaron" unicode="&#x10f;" horiz-adv-x="595" d="M308 625 C141 625 0 507 0 195 C0 49 55 -11 172 -11 C226 -11 281 3 327 40 L339 0 L505 0 L614 781 L399 773 L378 620 C356 623 333 625 308 625 L308 625 Z M257 160 C229 160 216 168 216 210 C216 229 218 254 223 289 C240 412 273 448 323 448 C334 448 344 447 353 446 L326 253 C318 197 292 160 257 160 L257 160 Z M722 810 C659 810 630 776 630 734 C630 708 646 692 673 688 C664 674 654 661 643 647 L689 626 C749 659 797 699 797 748 C797 786 772 810 722 810 L722 810 Z " />
<glyph glyph-name="Dcroat" unicode="&#x110;" horiz-adv-x="685" d="M106 750 L64 452 L22 452 L4 322 L46 322 L1 0 L287 0 C502 0 627 105 666 380 C672 420 675 457 675 490 C675 673 586 750 387 750 L106 750 Z M309 560 L362 560 C413 560 435 548 435 484 C435 459 431 425 425 381 C401 207 380 190 309 190 L257 190 L276 322 L330 322 L348 452 L294 452 L309 560 Z " />
<glyph glyph-name="dcroat" unicode="&#x111;" horiz-adv-x="597" d="M308 625 C141 625 0 507 0 195 C0 49 55 -11 172 -11 C226 -11 281 3 327 40 L339 0 L505 0 L593 630 L628 630 L643 739 L608 739 L614 781 L399 773 L394 739 L339 739 L325 639 L380 633 L378 620 C356 623 333 625 308 625 L308 625 Z M257 160 C229 160 216 168 216 210 C216 229 218 254 223 289 C240 412 273 448 323 448 C334 448 344 447 353 446 L326 253 C318 197 292 160 257 160 L257 160 Z " />
<glyph glyph-name="Emacron" unicode="&#x112;" horiz-adv-x="563" d="M244 185 L259 297 L474 297 L498 467 L283 467 L297 563 L561 563 L584 750 L93 750 L-12 0 L491 0 L521 185 L244 185 Z M528 898 L185 898 L171 798 L514 798 L528 898 Z " />
<glyph glyph-name="emacron" unicode="&#x113;" horiz-adv-x="511" d="M325 628 C149 628 39 525 9 313 C5 284 3 257 3 232 C3 61 95 -11 229 -11 C332 -11 409 25 458 68 L403 196 C370 174 332 162 290 162 C243 162 218 174 214 222 C417 253 513 332 513 473 C513 568 443 628 325 628 L325 628 Z M304 466 C319 466 324 458 324 444 C324 413 297 383 228 366 C245 445 267 466 304 466 L304 466 Z M520 785 L177 785 L160 664 L503 664 L520 785 Z " />
<glyph glyph-name="Ebreve" unicode="&#x114;" horiz-adv-x="563" d="M244 185 L259 297 L474 297 L498 467 L283 467 L297 563 L561 563 L584 750 L93 750 L-12 0 L491 0 L521 185 L244 185 Z M393 906 C390 886 377 882 364 882 C350 882 341 886 341 899 C341 901 341 903 342 906 L187 906 C186 898 185 890 185 882 C185 819 228 780 349 780 C476 780 538 825 550 906 L393 906 Z " />
<glyph glyph-name="ebreve" unicode="&#x115;" horiz-adv-x="511" d="M325 628 C149 628 39 525 9 313 C5 284 3 257 3 232 C3 61 95 -11 229 -11 C332 -11 409 25 458 68 L403 196 C370 174 332 162 290 162 C243 162 218 174 214 222 C417 253 513 332 513 473 C513 568 443 628 325 628 L325 628 Z M304 466 C319 466 324 458 324 444 C324 413 297 383 228 366 C245 445 267 466 304 466 L304 466 Z M378 796 C372 753 357 745 341 745 C325 745 315 752 315 781 C315 785 315 790 316 796 L180 796 C178 783 177 771 177 760 C177 686 217 642 327 642 C447 642 504 697 518 796 L378 796 Z " />
<glyph glyph-name="Edotaccent" unicode="&#x116;" horiz-adv-x="563" d="M244 185 L259 297 L474 297 L498 467 L283 467 L297 563 L561 563 L584 750 L93 750 L-12 0 L491 0 L521 185 L244 185 Z M369 919 C272 919 239 889 239 834 C239 793 269 778 349 778 C446 778 479 806 479 860 C479 898 451 919 369 919 L369 919 Z " />
<glyph glyph-name="edotaccent" unicode="&#x117;" horiz-adv-x="511" d="M325 628 C149 628 39 525 9 313 C5 284 3 257 3 232 C3 61 95 -11 229 -11 C332 -11 409 25 458 68 L403 196 C370 174 332 162 290 162 C243 162 218 174 214 222 C417 253 513 332 513 473 C513 568 443 628 325 628 L325 628 Z M304 466 C319 466 324 458 324 444 C324 413 297 383 228 366 C245 445 267 466 304 466 L304 466 Z M352 808 C269 808 228 774 228 711 C228 665 260 646 329 646 C413 646 455 679 455 741 C455 785 424 808 352 808 L352 808 Z " />
<glyph glyph-name="Eogonek" unicode="&#x118;" horiz-adv-x="563" d="M244 185 L259 297 L474 297 L498 467 L283 467 L297 563 L561 563 L584 750 L93 750 L-12 0 L303 0 C267 -21 239 -56 239 -106 C239 -154 279 -188 362 -188 C410 -188 446 -179 478 -164 L477 -58 C466 -63 454 -65 440 -65 C414 -65 405 -58 405 -43 C405 -23 428 0 458 0 L491 0 L521 185 L244 185 Z " />
<glyph glyph-name="eogonek" unicode="&#x119;" horiz-adv-x="511" d="M243 -188 C290 -188 326 -179 358 -164 L357 -58 C346 -63 336 -65 320 -65 C300 -65 285 -58 285 -39 C285 -20 296 -5 330 4 C386 19 423 37 458 68 L403 196 C370 174 332 162 290 162 C243 162 218 174 214 222 C417 253 513 332 513 473 C513 568 443 628 325 628 C149 628 39 525 9 313 C5 284 3 257 3 232 C3 89 65 13 184 -4 C146 -28 118 -57 118 -105 C118 -154 158 -188 243 -188 L243 -188 Z M304 466 C319 466 324 458 324 444 C324 413 297 383 228 366 C245 445 267 466 304 466 L304 466 Z " />
<glyph glyph-name="Ecaron" unicode="&#x11a;" horiz-adv-x="563" d="M244 185 L259 297 L474 297 L498 467 L283 467 L297 563 L561 563 L584 750 L93 750 L-12 0 L491 0 L521 185 L244 185 Z M446 787 L557 907 L377 907 L349 867 L344 867 L329 907 L148 907 L222 787 L446 787 Z " />
<glyph glyph-name="ecaron" unicode="&#x11b;" horiz-adv-x="511" d="M325 628 C149 628 39 525 9 313 C5 284 3 257 3 232 C3 61 95 -11 229 -11 C332 -11 409 25 458 68 L403 196 C370 174 332 162 290 162 C243 162 218 174 214 222 C417 253 513 332 513 473 C513 568 443 628 325 628 L325 628 Z M304 466 C319 466 324 458 324 444 C324 413 297 383 228 366 C245 445 267 466 304 466 L304 466 Z M420 651 L532 796 L377 796 L360 765 C353 753 349 745 344 734 L342 734 C340 746 336 759 332 773 L325 796 L171 796 L240 651 L420 651 Z " />
<glyph glyph-name="Gcircumflex" unicode="&#x11c;" horiz-adv-x="617" d="M591 411 L387 411 L354 175 C348 174 343 174 338 174 C279 174 254 190 254 263 C254 292 258 329 265 378 C287 535 308 575 425 575 C475 575 539 565 586 546 L632 731 C578 752 503 763 437 763 C185 763 59 633 24 376 C18 336 16 300 16 266 C16 84 100 -14 318 -14 C395 -14 484 0 536 21 L591 411 Z M314 907 L207 787 L386 787 L415 824 L434 787 L616 787 L539 907 L314 907 Z " />
<glyph glyph-name="gcircumflex" unicode="&#x11d;" horiz-adv-x="588" d="M586 616 L533 616 C469 616 409 626 347 626 C129 626 12 469 12 248 C12 98 83 46 180 46 C223 46 263 56 297 83 L299 81 C284 21 239 1 171 1 C134 1 94 8 50 23 L11 -131 C61 -152 124 -164 189 -164 C347 -164 487 -88 512 87 L586 616 Z M263 213 C239 213 228 225 228 264 C228 378 269 459 329 459 C337 459 344 459 351 458 L328 298 C319 238 290 213 263 213 L263 213 Z M308 796 L198 651 L351 651 L368 678 C375 689 378 694 384 706 L386 706 L405 651 L559 651 L486 796 L308 796 Z " />
<glyph glyph-name="Gbreve" unicode="&#x11e;" horiz-adv-x="617" d="M591 411 L387 411 L354 175 C348 174 343 174 338 174 C279 174 254 190 254 263 C254 292 258 329 265 378 C287 535 308 575 425 575 C475 575 539 565 586 546 L632 731 C578 752 503 763 437 763 C185 763 59 633 24 376 C18 336 16 300 16 266 C16 84 100 -14 318 -14 C395 -14 484 0 536 21 L591 411 Z M458 906 C455 886 442 882 429 882 C415 882 406 886 406 899 C406 901 406 903 407 906 L252 906 C251 898 250 890 250 882 C250 819 293 780 414 780 C541 780 603 825 615 906 L458 906 Z " />
<glyph glyph-name="gbreve" unicode="&#x11f;" horiz-adv-x="588" d="M586 616 L533 616 C469 616 409 626 347 626 C129 626 12 469 12 248 C12 98 83 46 180 46 C223 46 263 56 297 83 L299 81 C284 21 239 1 171 1 C134 1 94 8 50 23 L11 -131 C61 -152 124 -164 189 -164 C347 -164 487 -88 512 87 L586 616 Z M263 213 C239 213 228 225 228 264 C228 378 269 459 329 459 C337 459 344 459 351 458 L328 298 C319 238 290 213 263 213 L263 213 Z M434 796 C428 753 413 745 397 745 C381 745 371 752 371 781 C371 785 371 790 372 796 L236 796 C234 783 233 771 233 760 C233 686 273 642 383 642 C503 642 560 697 574 796 L434 796 Z " />
<glyph glyph-name="Gdotaccent" unicode="&#x120;" horiz-adv-x="617" d="M591 411 L387 411 L354 175 C348 174 343 174 338 174 C279 174 254 190 254 263 C254 292 258 329 265 378 C287 535 308 575 425 575 C475 575 539 565 586 546 L632 731 C578 752 503 763 437 763 C185 763 59 633 24 376 C18 336 16 300 16 266 C16 84 100 -14 318 -14 C395 -14 484 0 536 21 L591 411 Z M447 919 C350 919 317 889 317 834 C317 793 347 778 427 778 C524 778 557 806 557 860 C557 898 529 919 447 919 L447 919 Z " />
<glyph glyph-name="gdotaccent" unicode="&#x121;" horiz-adv-x="588" d="M586 616 L533 616 C469 616 409 626 347 626 C129 626 12 469 12 248 C12 98 83 46 180 46 C223 46 263 56 297 83 L299 81 C284 21 239 1 171 1 C134 1 94 8 50 23 L11 -131 C61 -152 124 -164 189 -164 C347 -164 487 -88 512 87 L586 616 Z M263 213 C239 213 228 225 228 264 C228 378 269 459 329 459 C337 459 344 459 351 458 L328 298 C319 238 290 213 263 213 L263 213 Z M416 808 C333 808 292 774 292 711 C292 665 324 646 393 646 C477 646 519 679 519 741 C519 785 488 808 416 808 L416 808 Z " />
<glyph glyph-name="Gcommaaccent" unicode="&#x122;" horiz-adv-x="617" d="M591 411 L387 411 L354 175 C348 174 343 174 338 174 C279 174 254 190 254 263 C254 292 258 329 265 378 C287 535 308 575 425 575 C475 575 539 565 586 546 L632 731 C578 752 503 763 437 763 C185 763 59 633 24 376 C18 336 16 300 16 266 C16 84 100 -14 318 -14 C395 -14 484 0 536 21 L591 411 Z M320 -27 C234 -27 201 -59 201 -98 C201 -125 227 -141 267 -142 L269 -142 C259 -154 247 -169 233 -182 L273 -206 C358 -176 422 -134 422 -85 C422 -50 391 -27 320 -27 L320 -27 Z " />
<glyph glyph-name="gcommaaccent" unicode="&#x123;" horiz-adv-x="588" d="M586 616 L533 616 C469 616 409 626 347 626 C129 626 12 469 12 248 C12 98 83 46 180 46 C223 46 263 56 297 83 L299 81 C284 21 239 1 171 1 C134 1 94 8 50 23 L11 -131 C61 -152 124 -164 189 -164 C347 -164 487 -88 512 87 L586 616 Z M263 213 C239 213 228 225 228 264 C228 378 269 459 329 459 C337 459 344 459 351 458 L328 298 C319 238 290 213 263 213 L263 213 Z M381 646 C444 646 472 680 472 721 C472 746 456 762 430 767 C439 781 449 794 460 809 L414 829 C354 796 306 757 306 707 C306 670 331 646 381 646 L381 646 Z " />
<glyph glyph-name="Hcircumflex" unicode="&#x124;" horiz-adv-x="674" d="M585 0 L690 750 L460 750 L421 474 L284 474 L323 750 L93 750 L-12 0 L218 0 L258 285 L395 285 L355 0 L585 0 Z M299 907 L192 787 L371 787 L400 824 L419 787 L601 787 L524 907 L299 907 Z " />
<glyph glyph-name="hcircumflex" unicode="&#x125;" horiz-adv-x="600" d="M520 0 L573 379 C576 402 578 424 578 444 C578 564 521 628 414 628 C367 628 324 616 288 595 L287 596 C290 606 292 621 294 636 L314 781 L100 772 L-8 0 L205 0 L254 354 C262 408 291 444 326 444 C349 444 360 433 360 402 C360 394 359 384 358 374 L306 0 L520 0 Z M136 929 L29 809 L208 809 L237 846 L256 809 L438 809 L361 929 L136 929 Z " />
<glyph glyph-name="Hbar" unicode="&#x126;" horiz-adv-x="674" d="M585 0 L661 547 L704 547 L721 664 L678 664 L690 750 L460 750 L448 664 L311 664 L323 750 L93 750 L81 664 L55 664 L38 547 L64 547 L-12 0 L218 0 L258 285 L395 285 L355 0 L585 0 Z M284 474 L294 547 L431 547 L421 474 L284 474 Z " />
<glyph glyph-name="hbar" unicode="&#x127;" horiz-adv-x="602" d="M208 0 L255 340 C263 394 291 430 326 430 C350 430 360 419 360 389 C360 381 359 371 358 360 L308 0 L522 0 L573 365 C576 388 578 410 578 430 C578 550 521 614 414 614 C367 614 325 603 291 581 L289 582 L296 628 L349 628 L364 737 L311 737 L317 781 L102 772 L97 737 L54 737 L39 628 L82 628 L-6 0 L208 0 Z " />
<glyph glyph-name="Itilde" unicode="&#x128;" horiz-adv-x="328" d="M-4 0 L232 0 L337 750 L101 750 L-4 0 Z M137 787 C139 795 149 801 162 801 C191 801 226 778 295 778 C370 778 422 827 434 908 L341 908 C339 897 334 894 319 894 C290 894 248 917 179 917 C100 917 50 866 38 787 L137 787 Z " />
<glyph glyph-name="itilde" unicode="&#x129;" horiz-adv-x="300" d="M211 0 L298 620 L78 611 L-7 0 L211 0 Z M261 643 C337 643 388 703 402 796 L286 796 C283 776 275 768 266 768 C242 768 223 803 155 803 C79 803 28 742 14 650 L130 650 C134 669 141 678 150 678 C174 678 193 643 261 643 L261 643 Z " />
<glyph glyph-name="Imacron" unicode="&#x12a;" horiz-adv-x="328" d="M-4 0 L232 0 L337 750 L101 750 L-4 0 Z M410 898 L67 898 L53 798 L396 798 L410 898 Z " />
<glyph glyph-name="imacron" unicode="&#x12b;" horiz-adv-x="300" d="M211 0 L298 620 L78 611 L-7 0 L211 0 Z M379 785 L36 785 L19 664 L362 664 L379 785 Z " />
<glyph glyph-name="Ibreve" unicode="&#x12c;" horiz-adv-x="328" d="M-4 0 L232 0 L337 750 L101 750 L-4 0 Z M266 906 C263 886 250 882 237 882 C223 882 214 886 214 899 C214 901 214 903 215 906 L60 906 C59 898 58 890 58 882 C58 819 101 780 222 780 C349 780 411 825 423 906 L266 906 Z " />
<glyph glyph-name="ibreve" unicode="&#x12d;" horiz-adv-x="300" d="M211 0 L298 620 L78 611 L-7 0 L211 0 Z M239 796 C233 753 218 745 202 745 C186 745 176 752 176 781 C176 785 176 790 177 796 L41 796 C39 783 38 771 38 760 C38 686 78 642 188 642 C308 642 365 697 379 796 L239 796 Z " />
<glyph glyph-name="Iogonek" unicode="&#x12e;" horiz-adv-x="328" d="M-4 0 L52 0 C16 -21 -12 -56 -12 -106 C-12 -154 28 -188 111 -188 C159 -188 195 -179 227 -164 L226 -58 C215 -63 203 -65 189 -65 C163 -65 154 -58 154 -43 C154 -23 177 0 207 0 L232 0 L337 750 L101 750 L-4 0 Z " />
<glyph glyph-name="iogonek" unicode="&#x12f;" horiz-adv-x="300" d="M89 -188 C136 -188 172 -179 204 -164 L203 -58 C192 -63 182 -65 166 -65 C140 -65 131 -58 131 -43 C131 -27 147 0 184 0 L207 0 L293 619 L78 610 L-7 0 L30 0 C-7 -21 -36 -57 -36 -105 C-36 -154 4 -188 89 -188 L89 -188 Z M209 808 C126 808 85 774 85 711 C85 665 117 646 186 646 C270 646 312 679 312 741 C312 785 281 808 209 808 L209 808 Z " />
<glyph glyph-name="Idotaccent" unicode="&#x130;" horiz-adv-x="328" d="M-4 0 L232 0 L337 750 L101 750 L-4 0 Z M242 919 C145 919 112 889 112 834 C112 793 142 778 222 778 C319 778 352 806 352 860 C352 898 324 919 242 919 L242 919 Z " />
<glyph glyph-name="dotlessi" unicode="&#x131;" horiz-adv-x="300" d="M211 0 L298 620 L78 611 L-7 0 L211 0 Z " />
<glyph glyph-name="IJ" unicode="&#x132;" horiz-adv-x="815" d="M-4 0 L232 0 L337 750 L101 750 L-4 0 Z M831 750 L596 750 L530 282 C518 198 480 172 403 172 C367 172 337 177 320 185 L284 8 C320 -6 363 -14 418 -14 C604 -14 733 53 766 286 L831 750 Z " />
<glyph glyph-name="ij" unicode="&#x133;" horiz-adv-x="593" d="M207 0 L293 619 L78 610 L-7 0 L207 0 Z M586 619 L371 610 L298 86 C287 8 262 -9 206 -16 L200 -165 C361 -159 487 -90 512 87 L586 619 Z M209 808 C126 808 85 774 85 711 C85 665 117 646 186 646 C270 646 312 679 312 741 C312 785 281 808 209 808 L209 808 Z M502 808 C419 808 378 774 378 711 C378 665 410 646 479 646 C563 646 605 679 605 741 C605 785 574 808 502 808 L502 808 Z " />
<glyph glyph-name="Jcircumflex" unicode="&#x134;" horiz-adv-x="493" d="M510 750 L275 750 L209 282 C197 198 159 172 82 172 C46 172 16 177 -1 185 L-37 8 C-1 -6 42 -14 97 -14 C283 -14 412 53 445 286 L510 750 Z M290 907 L183 787 L362 787 L391 824 L410 787 L592 787 L515 907 L290 907 Z " />
<glyph glyph-name="jcircumflex" unicode="&#x135;" horiz-adv-x="305" d="M298 619 L83 610 L10 86 C-1 8 -26 -9 -81 -16 L-87 -165 C73 -159 199 -90 224 87 L298 619 Z M118 796 L8 651 L161 651 L178 678 C185 689 188 694 194 706 L196 706 L215 651 L369 651 L296 796 L118 796 Z " />
<glyph glyph-name="Kcommaaccent" unicode="&#x136;" horiz-adv-x="682" d="M635 0 L518 397 L730 750 L474 750 L315 469 L283 469 L323 750 L93 750 L-12 0 L218 0 L259 296 L290 296 L365 0 L635 0 Z M282 -27 C196 -27 163 -59 163 -98 C163 -125 189 -141 229 -142 L231 -142 C221 -154 209 -169 195 -182 L235 -206 C320 -176 384 -134 384 -85 C384 -50 353 -27 282 -27 L282 -27 Z " />
<glyph glyph-name="kcommaaccent" unicode="&#x137;" horiz-adv-x="624" d="M205 0 L238 236 C259 386 320 444 358 444 C372 444 380 438 380 424 C380 382 332 320 262 285 C265 95 373 -8 544 -8 L591 154 C532 166 501 192 480 241 C558 311 595 398 595 484 C595 579 547 628 449 628 C394 628 337 610 285 573 L284 574 C287 584 289 599 291 614 L314 781 L100 772 L-8 0 L205 0 Z M285 -27 C199 -27 166 -59 166 -98 C166 -125 192 -141 232 -142 L234 -142 C224 -154 212 -169 198 -182 L238 -206 C323 -176 387 -134 387 -85 C387 -50 356 -27 285 -27 L285 -27 Z " />
<glyph glyph-name="kgreenlandic" unicode="&#x138;" horiz-adv-x="595" d="M201 0 L235 244 C237 257 238 272 239 285 L241 285 C266 95 364 -8 512 -8 L563 155 C500 166 460 222 436 313 C526 402 592 534 604 616 L405 616 C394 548 317 419 253 372 L252 372 C254 379 257 400 259 413 L288 621 L74 612 L-12 0 L201 0 Z " />
<glyph glyph-name="Lacute" unicode="&#x139;" horiz-adv-x="516" d="M247 190 L326 750 L93 750 L-12 0 L451 0 L482 190 L247 190 Z M203 906 L140 787 L308 787 L466 906 L203 906 Z " />
<glyph glyph-name="lacute" unicode="&#x13a;" horiz-adv-x="297" d="M205 0 L314 781 L100 772 L-8 0 L205 0 Z M171 923 L108 804 L276 804 L434 923 L171 923 Z " />
<glyph glyph-name="Lcommaaccent" unicode="&#x13b;" horiz-adv-x="516" d="M247 190 L326 750 L93 750 L-12 0 L451 0 L482 190 L247 190 Z M229 -27 C143 -27 110 -59 110 -98 C110 -125 136 -141 176 -142 L178 -142 C168 -154 156 -169 142 -182 L182 -206 C267 -176 331 -134 331 -85 C331 -50 300 -27 229 -27 L229 -27 Z " />
<glyph glyph-name="lcommaaccent" unicode="&#x13c;" horiz-adv-x="297" d="M205 0 L314 781 L100 772 L-8 0 L205 0 Z M90 -27 C4 -27 -29 -59 -29 -98 C-29 -125 -3 -141 37 -142 L39 -142 C29 -154 17 -169 3 -182 L43 -206 C128 -176 192 -134 192 -85 C192 -50 161 -27 90 -27 L90 -27 Z " />
<glyph glyph-name="Lcaron" unicode="&#x13d;" horiz-adv-x="516" d="M247 190 L326 750 L93 750 L-12 0 L451 0 L482 190 L247 190 Z M455 756 C392 756 363 722 363 680 C363 654 379 638 406 634 C397 620 387 607 376 593 L422 572 C482 605 530 645 530 694 C530 732 505 756 455 756 L455 756 Z " />
<glyph glyph-name="lcaron" unicode="&#x13e;" horiz-adv-x="297" d="M205 0 L314 781 L100 772 L-8 0 L205 0 Z M421 810 C358 810 329 776 329 734 C329 708 345 692 372 688 C363 674 353 661 342 647 L388 626 C448 659 496 699 496 748 C496 786 471 810 421 810 L421 810 Z " />
<glyph glyph-name="Ldot" unicode="&#x13f;" horiz-adv-x="516" d="M247 190 L326 750 L93 750 L-12 0 L451 0 L482 190 L247 190 Z M436 506 C363 506 326 464 326 397 C326 350 353 331 411 331 C484 331 519 375 519 437 C519 480 494 506 436 506 L436 506 Z " />
<glyph glyph-name="ldot" unicode="&#x140;" horiz-adv-x="452" d="M208 0 L317 781 L103 772 L-5 0 L208 0 Z M395 489 C329 489 296 451 296 388 C296 346 321 329 373 329 C439 329 471 368 471 425 C471 466 448 489 395 489 L395 489 Z " />
<glyph glyph-name="Lslash" unicode="&#x141;" horiz-adv-x="558" d="M288 190 L309 344 L474 405 L481 587 L336 531 L367 750 L134 750 L91 448 L17 418 L8 242 L66 265 L29 0 L492 0 L523 190 L288 190 Z " />
<glyph glyph-name="lslash" unicode="&#x142;" horiz-adv-x="361" d="M3 285 L68 313 L24 0 L237 0 L292 399 L364 430 L389 599 L316 570 L346 781 L132 772 L92 486 L26 459 L3 285 Z " />
<glyph glyph-name="Nacute" unicode="&#x143;" horiz-adv-x="679" d="M591 0 L696 750 L496 750 L453 441 C451 428 449 413 449 400 L447 400 L284 750 L93 750 L-12 0 L188 0 L235 337 C237 350 238 365 238 378 L240 378 L428 0 L591 0 Z M369 906 L306 787 L474 787 L632 906 L369 906 Z " />
<glyph glyph-name="nacute" unicode="&#x144;" horiz-adv-x="596" d="M302 0 L516 0 L569 379 C572 402 574 424 574 444 C574 564 517 628 410 628 C347 628 293 608 253 573 L250 573 L242 620 L73 611 L-12 0 L201 0 L250 355 C258 410 287 444 323 444 C346 444 356 432 356 401 C356 393 355 383 354 372 L302 0 Z M303 796 L240 651 L397 651 L540 796 L303 796 Z " />
<glyph glyph-name="Ncommaaccent" unicode="&#x145;" horiz-adv-x="679" d="M591 0 L696 750 L496 750 L453 441 C451 428 449 413 449 400 L447 400 L284 750 L93 750 L-12 0 L188 0 L235 337 C237 350 238 365 238 378 L240 378 L428 0 L591 0 Z M298 -27 C212 -27 179 -59 179 -98 C179 -125 205 -141 245 -142 L247 -142 C237 -154 225 -169 211 -182 L251 -206 C336 -176 400 -134 400 -85 C400 -50 369 -27 298 -27 L298 -27 Z " />
<glyph glyph-name="ncommaaccent" unicode="&#x146;" horiz-adv-x="596" d="M302 0 L516 0 L569 379 C572 402 574 424 574 444 C574 564 517 628 410 628 C347 628 293 608 253 573 L250 573 L242 620 L73 611 L-12 0 L201 0 L250 355 C258 410 287 444 323 444 C346 444 356 432 356 401 C356 393 355 383 354 372 L302 0 Z M241 -27 C155 -27 122 -59 122 -98 C122 -125 148 -141 188 -142 L190 -142 C180 -154 168 -169 154 -182 L194 -206 C279 -176 343 -134 343 -85 C343 -50 312 -27 241 -27 L241 -27 Z " />
<glyph glyph-name="Ncaron" unicode="&#x147;" horiz-adv-x="679" d="M591 0 L696 750 L496 750 L453 441 C451 428 449 413 449 400 L447 400 L284 750 L93 750 L-12 0 L188 0 L235 337 C237 350 238 365 238 378 L240 378 L428 0 L591 0 Z M500 787 L611 907 L431 907 L403 867 L398 867 L383 907 L202 907 L276 787 L500 787 Z " />
<glyph glyph-name="ncaron" unicode="&#x148;" horiz-adv-x="596" d="M302 0 L516 0 L569 379 C572 402 574 424 574 444 C574 564 517 628 410 628 C347 628 293 608 253 573 L250 573 L242 620 L73 611 L-12 0 L201 0 L250 355 C258 410 287 444 323 444 C346 444 356 432 356 401 C356 393 355 383 354 372 L302 0 Z M426 651 L538 796 L383 796 L366 765 C359 753 355 745 350 734 L348 734 C346 746 342 759 338 773 L331 796 L177 796 L246 651 L426 651 Z " />
<glyph glyph-name="napostrophe" unicode="&#x149;" horiz-adv-x="654" d="M360 0 L574 0 L627 379 C630 402 632 424 632 444 C632 564 575 628 468 628 C405 628 351 608 311 573 L308 573 L300 620 L131 611 L46 0 L259 0 L308 355 C316 410 345 444 381 444 C404 444 414 432 414 401 C414 393 413 383 412 372 L360 0 Z M93 810 C30 810 1 776 1 734 C1 708 17 692 44 688 C35 674 25 661 14 647 L60 626 C120 659 168 699 168 748 C168 786 143 810 93 810 L93 810 Z " />
<glyph glyph-name="Eng" unicode="&#x14a;" horiz-adv-x="679" d="M696 750 L496 750 L454 450 C452 437 450 422 450 409 L448 409 L284 750 L93 750 L-12 0 L188 0 L236 346 C238 359 239 374 239 387 L241 387 L402 76 C396 8 366 -12 328 -12 C313 -12 295 -10 283 -4 L255 -140 C280 -152 323 -159 365 -159 C494 -159 578 -88 602 83 L696 750 Z " />
<glyph glyph-name="eng" unicode="&#x14b;" horiz-adv-x="596" d="M238 -14 L230 -161 C384 -156 503 -88 528 87 L569 379 C572 402 574 424 574 444 C574 564 517 628 410 628 C347 628 293 608 253 573 L250 573 L242 620 L73 611 L-12 0 L201 0 L250 354 C258 408 287 442 322 442 C346 442 356 430 356 400 C356 392 355 383 354 372 L314 86 C302 4 283 -10 238 -14 L238 -14 Z " />
<glyph glyph-name="Omacron" unicode="&#x14c;" horiz-adv-x="698" d="M677 375 C683 417 686 455 686 490 C686 680 597 762 406 762 C179 762 62 647 24 375 C18 334 15 298 15 264 C15 71 108 -13 297 -13 C523 -13 638 94 677 375 L677 375 Z M436 375 C412 203 390 173 323 173 C276 173 255 188 255 256 C255 285 259 323 266 375 C290 547 312 575 379 575 C426 575 448 563 448 496 C448 467 444 428 436 375 L436 375 Z M595 898 L252 898 L238 798 L581 798 L595 898 Z " />
<glyph glyph-name="omacron" unicode="&#x14d;" horiz-adv-x="577" d="M303 456 C332 456 347 449 347 401 C347 380 344 350 338 309 C318 166 301 151 257 151 C230 151 216 157 216 206 C216 228 219 259 225 302 C244 441 262 456 303 456 L303 456 Z M331 628 C135 628 39 526 9 312 C4 277 2 244 2 215 C2 67 66 -12 232 -12 C428 -12 523 89 553 303 C558 339 561 372 561 402 C561 549 496 628 331 628 L331 628 Z M527 785 L184 785 L167 664 L510 664 L527 785 Z " />
<glyph glyph-name="Obreve" unicode="&#x14e;" horiz-adv-x="698" d="M677 375 C683 417 686 455 686 490 C686 680 597 762 406 762 C179 762 62 647 24 375 C18 334 15 298 15 264 C15 71 108 -13 297 -13 C523 -13 638 94 677 375 L677 375 Z M436 375 C412 203 390 173 323 173 C276 173 255 188 255 256 C255 285 259 323 266 375 C290 547 312 575 379 575 C426 575 448 563 448 496 C448 467 444 428 436 375 L436 375 Z M453 906 C450 886 437 882 424 882 C410 882 401 886 401 899 C401 901 401 903 402 906 L247 906 C246 898 245 890 245 882 C245 819 288 780 409 780 C536 780 598 825 610 906 L453 906 Z " />
<glyph glyph-name="obreve" unicode="&#x14f;" horiz-adv-x="577" d="M303 456 C332 456 347 449 347 401 C347 380 344 350 338 309 C318 166 301 151 257 151 C230 151 216 157 216 206 C216 228 219 259 225 302 C244 441 262 456 303 456 L303 456 Z M331 628 C135 628 39 526 9 312 C4 277 2 244 2 215 C2 67 66 -12 232 -12 C428 -12 523 89 553 303 C558 339 561 372 561 402 C561 549 496 628 331 628 L331 628 Z M385 796 C379 753 364 745 348 745 C332 745 322 752 322 781 C322 785 322 790 323 796 L187 796 C185 783 184 771 184 760 C184 686 224 642 334 642 C454 642 511 697 525 796 L385 796 Z " />
<glyph glyph-name="Ohungarumlaut" unicode="&#x150;" horiz-adv-x="698" d="M677 375 C683 417 686 455 686 490 C686 680 597 762 406 762 C179 762 62 647 24 375 C18 334 15 298 15 264 C15 71 108 -13 297 -13 C523 -13 638 94 677 375 L677 375 Z M436 375 C412 203 390 173 323 173 C276 173 255 188 255 256 C255 285 259 323 266 375 C290 547 312 575 379 575 C426 575 448 563 448 496 C448 467 444 428 436 375 L436 375 Z M278 906 L255 787 L387 787 L484 906 L278 906 Z M501 906 L436 787 L584 787 L712 906 L501 906 Z " />
<glyph glyph-name="ohungarumlaut" unicode="&#x151;" horiz-adv-x="577" d="M303 456 C332 456 347 449 347 401 C347 380 344 350 338 309 C318 166 301 151 257 151 C230 151 216 157 216 206 C216 228 219 259 225 302 C244 441 262 456 303 456 L303 456 Z M331 628 C135 628 39 526 9 312 C4 277 2 244 2 215 C2 67 66 -12 232 -12 C428 -12 523 89 553 303 C558 339 561 372 561 402 C561 549 496 628 331 628 L331 628 Z M213 796 L164 651 L297 651 L421 796 L213 796 Z M438 796 L356 651 L505 651 L651 796 L438 796 Z " />
<glyph glyph-name="OE" unicode="&#x152;" horiz-adv-x="954" d="M882 0 L912 185 L636 185 L651 297 L865 297 L889 467 L675 467 L689 563 L953 563 L975 750 L507 750 L502 716 L500 716 C462 747 412 762 358 762 C179 762 62 647 24 375 C18 333 15 295 15 260 C15 70 101 -13 246 -13 C308 -13 361 0 404 34 L406 33 L402 0 L882 0 Z M436 375 C413 207 390 177 323 177 C276 177 255 191 255 258 C255 286 259 325 266 375 C290 542 312 570 379 570 C426 570 447 557 447 492 C447 464 443 426 436 375 L436 375 Z " />
<glyph glyph-name="oe" unicode="&#x153;" horiz-adv-x="846" d="M331 628 C135 628 39 526 9 312 C4 277 2 244 2 215 C2 67 66 -12 232 -12 C307 -12 365 7 410 48 C444 7 496 -11 563 -11 C666 -11 743 25 793 68 L737 196 C705 174 667 162 625 162 C581 162 557 172 549 212 C746 245 847 338 847 473 C847 568 777 628 660 628 C585 628 526 609 483 571 C451 608 402 628 331 628 L331 628 Z M303 453 C332 453 346 446 346 398 C346 377 343 348 338 309 C318 169 301 154 258 154 C230 154 216 161 216 209 C216 231 219 260 225 302 C244 438 261 453 303 453 L303 453 Z M638 464 C653 464 658 456 658 443 C658 411 633 383 563 366 C580 444 602 464 638 464 L638 464 Z " />
<glyph glyph-name="Racute" unicode="&#x154;" horiz-adv-x="648" d="M93 750 L-12 0 L218 0 L253 253 L295 253 L344 0 L609 0 L514 299 C587 336 638 436 638 554 C638 691 545 750 365 750 L93 750 Z M298 572 L345 572 C383 572 399 564 399 527 C399 518 398 508 396 495 C386 426 368 417 323 417 L276 417 L298 572 Z M324 906 L261 787 L429 787 L587 906 L324 906 Z " />
<glyph glyph-name="racute" unicode="&#x155;" horiz-adv-x="441" d="M403 628 C343 628 293 598 250 546 L248 547 C247 560 246 573 244 587 L240 619 L73 610 L-12 0 L201 0 L238 269 C251 365 304 416 361 416 C384 416 401 412 416 401 L474 609 C459 620 431 628 403 628 L403 628 Z M222 796 L159 651 L316 651 L459 796 L222 796 Z " />
<glyph glyph-name="Rcommaaccent" unicode="&#x156;" horiz-adv-x="648" d="M93 750 L-12 0 L218 0 L253 253 L295 253 L344 0 L609 0 L514 299 C587 336 638 436 638 554 C638 691 545 750 365 750 L93 750 Z M298 572 L345 572 C383 572 399 564 399 527 C399 518 398 508 396 495 C386 426 368 417 323 417 L276 417 L298 572 Z M264 -27 C178 -27 145 -59 145 -98 C145 -125 171 -141 211 -142 L213 -142 C203 -154 191 -169 177 -182 L217 -206 C302 -176 366 -134 366 -85 C366 -50 335 -27 264 -27 L264 -27 Z " />
<glyph glyph-name="rcommaaccent" unicode="&#x157;" horiz-adv-x="441" d="M403 628 C343 628 293 598 250 546 L248 547 C247 560 246 573 244 587 L240 619 L73 610 L-12 0 L201 0 L238 269 C251 365 304 416 361 416 C384 416 401 412 416 401 L474 609 C459 620 431 628 403 628 L403 628 Z M95 -27 C9 -27 -24 -59 -24 -98 C-24 -125 2 -141 42 -142 L44 -142 C34 -154 22 -169 8 -182 L48 -206 C133 -176 197 -134 197 -85 C197 -50 166 -27 95 -27 L95 -27 Z " />
<glyph glyph-name="Rcaron" unicode="&#x158;" horiz-adv-x="648" d="M93 750 L-12 0 L218 0 L253 253 L295 253 L344 0 L609 0 L514 299 C587 336 638 436 638 554 C638 691 545 750 365 750 L93 750 Z M298 572 L345 572 C383 572 399 564 399 527 C399 518 398 508 396 495 C386 426 368 417 323 417 L276 417 L298 572 Z M443 787 L554 907 L374 907 L346 867 L341 867 L326 907 L145 907 L219 787 L443 787 Z " />
<glyph glyph-name="rcaron" unicode="&#x159;" horiz-adv-x="441" d="M409 628 C349 628 299 598 256 546 L254 547 C253 560 252 573 250 587 L246 619 L79 610 L-6 0 L207 0 L244 269 C257 365 310 416 367 416 C390 416 407 412 422 401 L480 609 C465 620 437 628 409 628 L409 628 Z M368 651 L480 796 L325 796 L308 765 C301 753 297 745 292 734 L290 734 C288 746 284 759 280 773 L273 796 L119 796 L188 651 L368 651 Z " />
<glyph glyph-name="Sacute" unicode="&#x15a;" horiz-adv-x="543" d="M358 762 C148 762 41 632 41 481 C41 281 289 292 289 220 C289 189 266 174 215 174 C151 174 91 193 32 222 L-22 38 C37 4 116 -13 196 -13 C382 -13 515 97 515 270 C515 466 268 456 268 526 C268 553 282 572 349 572 C395 572 452 562 508 546 L558 726 C504 750 428 762 358 762 L358 762 Z M323 906 L260 787 L428 787 L586 906 L323 906 Z " />
<glyph glyph-name="sacute" unicode="&#x15b;" horiz-adv-x="445" d="M296 628 C121 628 26 524 26 395 C26 235 207 244 207 188 C207 167 193 156 164 156 C126 156 78 168 37 196 L-27 44 C20 11 88 -11 162 -11 C367 -11 413 138 413 232 C413 385 233 370 233 426 C233 442 244 454 269 454 C307 454 346 450 374 437 L453 589 C413 614 358 628 296 628 L296 628 Z M251 796 L188 651 L345 651 L488 796 L251 796 Z " />
<glyph glyph-name="Scircumflex" unicode="&#x15c;" horiz-adv-x="543" d="M358 762 C148 762 41 632 41 481 C41 281 289 292 289 220 C289 189 266 174 215 174 C151 174 91 193 32 222 L-22 38 C37 4 116 -13 196 -13 C382 -13 515 97 515 270 C515 466 268 456 268 526 C268 553 282 572 349 572 C395 572 452 562 508 546 L558 726 C504 750 428 762 358 762 L358 762 Z M254 907 L147 787 L326 787 L355 824 L374 787 L556 787 L479 907 L254 907 Z " />
<glyph glyph-name="scircumflex" unicode="&#x15d;" horiz-adv-x="445" d="M296 628 C121 628 26 524 26 395 C26 235 207 244 207 188 C207 167 193 156 164 156 C126 156 78 168 37 196 L-27 44 C20 11 88 -11 162 -11 C367 -11 413 138 413 232 C413 385 233 370 233 426 C233 442 244 454 269 454 C307 454 346 450 374 437 L453 589 C413 614 358 628 296 628 L296 628 Z M214 796 L104 651 L257 651 L274 678 C281 689 284 694 290 706 L292 706 L311 651 L465 651 L392 796 L214 796 Z " />
<glyph glyph-name="Scedilla" unicode="&#x15e;" horiz-adv-x="543" d="M43 -184 L228 -184 L280 -5 C418 22 515 124 515 270 C515 466 268 456 268 526 C268 553 282 572 349 572 C395 572 452 562 508 546 L558 726 C504 750 428 762 358 762 C148 762 41 632 41 481 C41 281 289 292 289 220 C289 189 266 174 215 174 C151 174 91 193 32 222 L-22 38 C21 13 75 -3 132 -9 L43 -184 Z " />
<glyph glyph-name="scedilla" unicode="&#x15f;" horiz-adv-x="445" d="M0 -184 L185 -184 L237 -4 C350 20 413 111 413 232 C413 385 233 370 233 426 C233 442 244 454 269 454 C307 454 346 450 374 437 L453 589 C413 614 358 628 296 628 C121 628 26 524 26 395 C26 235 207 244 207 188 C207 167 193 156 164 156 C126 156 78 168 37 196 L-27 44 C4 21 46 4 92 -4 L0 -184 Z " />
<glyph glyph-name="Scaron" unicode="&#x160;" horiz-adv-x="543" d="M358 762 C148 762 41 632 41 481 C41 281 289 292 289 220 C289 189 266 174 215 174 C151 174 91 193 32 222 L-22 38 C37 4 116 -13 196 -13 C382 -13 515 97 515 270 C515 466 268 456 268 526 C268 553 282 572 349 572 C395 572 452 562 508 546 L558 726 C504 750 428 762 358 762 L358 762 Z M469 787 L580 907 L400 907 L372 867 L367 867 L352 907 L171 907 L245 787 L469 787 Z " />
<glyph glyph-name="scaron" unicode="&#x161;" horiz-adv-x="445" d="M296 628 C121 628 26 524 26 395 C26 235 207 244 207 188 C207 167 193 156 164 156 C126 156 78 168 37 196 L-27 44 C20 11 88 -11 162 -11 C367 -11 413 138 413 232 C413 385 233 370 233 426 C233 442 244 454 269 454 C307 454 346 450 374 437 L453 589 C413 614 358 628 296 628 L296 628 Z M375 651 L487 796 L332 796 L315 765 C308 753 304 745 299 734 L297 734 C295 746 291 759 287 773 L280 796 L126 796 L195 651 L375 651 Z " />
<glyph glyph-name="Tcommaaccent" unicode="&#x162;" horiz-adv-x="568" d="M67 -184 L252 -184 L305 0 L350 0 L428 560 L588 560 L611 750 L66 750 L35 560 L195 560 L117 0 L162 0 L67 -184 Z " />
<glyph glyph-name="tcommaaccent" unicode="&#x163;" horiz-adv-x="395" d="M3 444 L63 444 L31 215 C28 196 27 178 27 162 C27 76 63 22 131 2 L35 -184 L220 -184 L274 2 C295 7 315 13 329 20 L335 178 C319 171 297 168 285 168 C258 168 244 179 244 207 C244 212 245 218 246 224 L277 444 L386 444 L417 605 L300 605 L321 759 L153 743 L106 605 L34 605 L3 444 Z " />
<glyph glyph-name="Tcaron" unicode="&#x164;" horiz-adv-x="568" d="M588 560 L611 750 L66 750 L35 560 L195 560 L117 0 L350 0 L428 560 L588 560 Z M440 787 L551 907 L371 907 L343 867 L338 867 L323 907 L142 907 L216 787 L440 787 Z " />
<glyph glyph-name="tcaron" unicode="&#x165;" horiz-adv-x="395" d="M3 444 L63 444 L31 215 C28 196 27 178 27 162 C27 52 87 -7 198 -7 C242 -7 300 5 329 20 L335 178 C319 171 297 168 285 168 C258 168 244 179 244 207 C244 212 245 218 246 224 L277 444 L386 444 L417 605 L300 605 L321 759 L153 743 L106 605 L34 605 L3 444 Z M450 810 C387 810 358 776 358 734 C358 708 374 692 401 688 C392 674 382 661 371 647 L417 626 C477 659 525 699 525 748 C525 786 500 810 450 810 L450 810 Z " />
<glyph glyph-name="Tbar" unicode="&#x166;" horiz-adv-x="568" d="M588 560 L611 750 L66 750 L35 560 L195 560 L183 475 L93 475 L73 334 L163 334 L117 0 L350 0 L396 334 L497 334 L517 475 L416 475 L428 560 L588 560 Z " />
<glyph glyph-name="tbar" unicode="&#x167;" horiz-adv-x="395" d="M10 457 L65 457 L59 419 L12 419 L-13 273 L39 273 L31 215 C28 196 27 178 27 162 C27 52 87 -7 198 -7 C243 -7 300 5 329 20 L335 178 C319 171 297 168 285 168 C258 168 244 179 244 207 C244 212 245 218 246 224 L253 273 L355 273 L381 419 L273 419 L279 457 L388 457 L417 605 L300 605 L321 759 L153 743 L106 605 L39 605 L10 457 Z " />
<glyph glyph-name="Utilde" unicode="&#x168;" horiz-adv-x="661" d="M684 750 L455 750 L384 249 C376 196 359 176 306 176 C261 176 245 192 245 227 C245 233 246 241 247 249 L318 750 L88 750 L18 256 C15 237 14 219 14 202 C14 63 101 -13 280 -13 C481 -13 589 82 614 256 L684 750 Z M299 787 C301 795 311 801 324 801 C353 801 388 778 457 778 C532 778 584 827 596 908 L503 908 C501 897 496 894 481 894 C452 894 410 917 341 917 C262 917 212 866 200 787 L299 787 Z " />
<glyph glyph-name="utilde" unicode="&#x169;" horiz-adv-x="589" d="M594 614 L381 614 L326 221 C320 181 304 165 268 165 C237 165 223 177 223 204 C223 209 224 215 225 221 L281 620 L66 611 L12 225 C9 207 8 191 8 175 C8 53 85 -10 242 -10 C419 -10 516 65 539 225 L594 614 Z M408 643 C484 643 535 703 549 796 L433 796 C430 776 422 768 413 768 C389 768 370 803 302 803 C226 803 175 742 161 650 L277 650 C281 669 288 678 297 678 C321 678 340 643 408 643 L408 643 Z " />
<glyph glyph-name="Umacron" unicode="&#x16a;" horiz-adv-x="661" d="M684 750 L455 750 L384 249 C376 196 359 176 306 176 C261 176 245 192 245 227 C245 233 246 241 247 249 L318 750 L88 750 L18 256 C15 237 14 219 14 202 C14 63 101 -13 280 -13 C481 -13 589 82 614 256 L684 750 Z M576 898 L233 898 L219 798 L562 798 L576 898 Z " />
<glyph glyph-name="umacron" unicode="&#x16b;" horiz-adv-x="589" d="M594 614 L381 614 L326 221 C320 181 304 165 268 165 C237 165 223 177 223 204 C223 209 224 215 225 221 L281 620 L66 611 L12 225 C9 207 8 191 8 175 C8 53 85 -10 242 -10 C419 -10 516 65 539 225 L594 614 Z M524 785 L181 785 L164 664 L507 664 L524 785 Z " />
<glyph glyph-name="Ubreve" unicode="&#x16c;" horiz-adv-x="661" d="M684 750 L455 750 L384 249 C376 196 359 176 306 176 C261 176 245 192 245 227 C245 233 246 241 247 249 L318 750 L88 750 L18 256 C15 237 14 219 14 202 C14 63 101 -13 280 -13 C481 -13 589 82 614 256 L684 750 Z M435 906 C432 886 419 882 406 882 C392 882 383 886 383 899 C383 901 383 903 384 906 L229 906 C228 898 227 890 227 882 C227 819 270 780 391 780 C518 780 580 825 592 906 L435 906 Z " />
<glyph glyph-name="ubreve" unicode="&#x16d;" horiz-adv-x="589" d="M594 614 L381 614 L326 221 C320 181 304 165 268 165 C237 165 223 177 223 204 C223 209 224 215 225 221 L281 620 L66 611 L12 225 C9 207 8 191 8 175 C8 53 85 -10 242 -10 C419 -10 516 65 539 225 L594 614 Z M385 796 C379 753 364 745 348 745 C332 745 322 752 322 781 C322 785 322 790 323 796 L187 796 C185 783 184 771 184 760 C184 686 224 642 334 642 C454 642 511 697 525 796 L385 796 Z " />
<glyph glyph-name="Uring" unicode="&#x16e;" horiz-adv-x="661" d="M403 908 C265 908 226 852 226 767 C226 761 226 755 227 750 L88 750 L18 256 C15 237 14 219 14 202 C14 63 101 -13 280 -13 C481 -13 589 82 614 256 L684 750 L540 750 C548 768 552 789 552 815 C552 871 513 908 403 908 L403 908 Z M306 176 C261 176 245 192 245 227 C245 233 246 241 247 249 L308 683 C326 680 347 679 371 679 C400 679 424 681 446 685 L384 249 C376 196 359 176 306 176 L306 176 Z M397 819 C434 819 443 811 443 795 C443 767 432 758 388 758 C345 758 337 765 337 780 C337 807 346 819 397 819 L397 819 Z " />
<glyph glyph-name="uring" unicode="&#x16f;" horiz-adv-x="589" d="M594 614 L381 614 L326 221 C320 181 304 165 268 165 C237 165 223 177 223 204 C223 209 224 215 225 221 L281 620 L66 611 L12 225 C9 207 8 191 8 175 C8 53 85 -10 242 -10 C419 -10 516 65 539 225 L594 614 Z M364 836 C246 836 203 790 203 720 C203 663 247 642 337 642 C446 642 497 676 497 755 C497 804 458 836 364 836 L364 836 Z M356 762 C390 762 398 755 398 743 C398 723 387 716 349 716 C313 716 305 721 305 733 C305 752 314 762 356 762 L356 762 Z " />
<glyph glyph-name="Uhungarumlaut" unicode="&#x170;" horiz-adv-x="661" d="M684 750 L455 750 L384 249 C376 196 359 176 306 176 C261 176 245 192 245 227 C245 233 246 241 247 249 L318 750 L88 750 L18 256 C15 237 14 219 14 202 C14 63 101 -13 280 -13 C481 -13 589 82 614 256 L684 750 Z M258 906 L235 787 L367 787 L464 906 L258 906 Z M481 906 L416 787 L564 787 L692 906 L481 906 Z " />
<glyph glyph-name="uhungarumlaut" unicode="&#x171;" horiz-adv-x="589" d="M594 614 L381 614 L326 221 C320 181 304 165 268 165 C237 165 223 177 223 204 C223 209 224 215 225 221 L281 620 L66 611 L12 225 C9 207 8 191 8 175 C8 53 85 -10 242 -10 C419 -10 516 65 539 225 L594 614 Z M219 796 L170 651 L303 651 L427 796 L219 796 Z M444 796 L362 651 L511 651 L657 796 L444 796 Z " />
<glyph glyph-name="Uogonek" unicode="&#x172;" horiz-adv-x="661" d="M309 -188 C356 -188 392 -179 424 -164 L423 -58 C412 -63 402 -65 386 -65 C360 -65 351 -58 351 -43 C351 -21 367 -7 397 0 C524 30 594 119 614 256 L684 750 L455 750 L384 249 C376 196 359 176 306 176 C261 176 245 192 245 227 C245 233 246 241 247 249 L318 750 L88 750 L18 256 C15 237 14 219 14 202 C14 75 86 1 234 -9 C205 -31 184 -64 184 -105 C184 -154 224 -188 309 -188 L309 -188 Z " />
<glyph glyph-name="uogonek" unicode="&#x173;" horiz-adv-x="589" d="M248 -188 C295 -188 331 -179 363 -164 L362 -58 C351 -63 341 -65 325 -65 C299 -65 290 -58 290 -43 C290 -22 301 -8 332 -2 C453 20 521 95 539 225 L594 614 L381 614 L326 221 C320 181 304 165 268 165 C237 165 223 177 223 204 C223 209 224 215 225 221 L281 620 L66 611 L12 225 C10 208 8 191 8 175 C8 70 64 10 180 -4 C149 -27 123 -61 123 -105 C123 -154 163 -188 248 -188 L248 -188 Z " />
<glyph glyph-name="Wcircumflex" unicode="&#x174;" horiz-adv-x="985" d="M430 750 L294 277 C290 264 287 250 284 238 L282 238 C282 251 283 266 283 279 L283 750 L54 750 L104 0 L379 0 L498 438 C501 450 506 465 508 478 L510 478 C509 465 509 450 509 437 L509 0 L780 0 L1041 750 L812 750 L688 283 C684 270 681 256 679 243 L677 243 C677 256 678 271 678 284 L678 750 L430 750 Z M459 907 L352 787 L531 787 L560 824 L579 787 L761 787 L684 907 L459 907 Z " />
<glyph glyph-name="wcircumflex" unicode="&#x175;" horiz-adv-x="876" d="M398 796 L288 651 L441 651 L458 678 C465 689 468 694 474 706 L476 706 L495 651 L649 651 L576 796 L398 796 Z M864 638 L660 596 C661 584 661 570 661 553 C661 271 584 197 564 197 C557 197 541 206 541 270 C541 294 543 326 549 368 L584 612 L371 612 L339 390 C317 241 274 198 258 198 C252 198 236 206 236 267 C236 291 239 324 245 368 L280 619 L66 611 L32 369 C27 334 25 301 25 272 C25 47 156 -11 198 -11 C239 -11 320 30 391 117 L392 117 C427 21 492 -10 521 -10 C598 -10 825 118 865 400 C869 430 871 471 871 514 C871 557 869 601 864 638 L864 638 Z " />
<glyph glyph-name="Ycircumflex" unicode="&#x176;" horiz-adv-x="669" d="M45 750 L200 220 L170 0 L405 0 L435 220 L735 750 L486 750 L369 481 C363 468 358 455 354 443 L352 443 C351 456 349 468 346 483 L300 750 L45 750 Z M300 907 L193 787 L372 787 L401 824 L420 787 L602 787 L525 907 L300 907 Z " />
<glyph glyph-name="ycircumflex" unicode="&#x177;" horiz-adv-x="580" d="M384 616 C366 521 339 427 306 342 L304 342 C304 351 302 367 300 383 L272 621 L35 604 L141 105 C101 60 53 23 2 -3 L77 -155 C332 -29 517 245 592 616 L384 616 Z M267 796 L157 651 L310 651 L327 678 C334 689 337 694 343 706 L345 706 L364 651 L518 651 L445 796 L267 796 Z " />
<glyph glyph-name="Ydieresis" unicode="&#x178;" horiz-adv-x="669" d="M45 750 L200 220 L170 0 L405 0 L435 220 L735 750 L486 750 L369 481 C363 468 358 455 354 443 L352 443 C351 456 349 468 346 483 L300 750 L45 750 Z M321 931 C260 931 225 897 225 837 C225 797 251 781 300 781 C362 781 396 813 396 871 C396 910 372 931 321 931 L321 931 Z M518 931 C457 931 422 897 422 837 C422 797 448 781 497 781 C559 781 593 813 593 871 C593 910 569 931 518 931 L518 931 Z " />
<glyph glyph-name="Zacute" unicode="&#x179;" horiz-adv-x="570" d="M496 0 L524 190 L270 190 L269 192 C277 200 286 211 294 222 L578 590 L601 750 L83 750 L50 560 L308 560 L309 558 C300 548 292 538 284 528 L-12 146 L-32 0 L496 0 Z M307 906 L244 787 L412 787 L570 906 L307 906 Z " />
<glyph glyph-name="zacute" unicode="&#x17a;" horiz-adv-x="493" d="M482 473 L502 616 L66 616 L36 450 L236 450 L237 448 C228 438 219 429 211 419 L-12 146 L-32 0 L422 0 L450 164 L233 164 L232 166 C241 175 250 185 258 195 L482 473 Z M254 796 L191 651 L348 651 L491 796 L254 796 Z " />
<glyph glyph-name="Zdotaccent" unicode="&#x17b;" horiz-adv-x="570" d="M496 0 L524 190 L270 190 L269 192 C277 200 286 211 294 222 L578 590 L601 750 L83 750 L50 560 L308 560 L309 558 C300 548 292 538 284 528 L-12 146 L-32 0 L496 0 Z M370 919 C273 919 240 889 240 834 C240 793 270 778 350 778 C447 778 480 806 480 860 C480 898 452 919 370 919 L370 919 Z " />
<glyph glyph-name="zdotaccent" unicode="&#x17c;" horiz-adv-x="493" d="M482 473 L502 616 L66 616 L36 450 L236 450 L237 448 C228 438 219 429 211 419 L-12 146 L-32 0 L422 0 L450 164 L233 164 L232 166 C241 175 250 185 258 195 L482 473 Z M310 808 C227 808 186 774 186 711 C186 665 218 646 287 646 C371 646 413 679 413 741 C413 785 382 808 310 808 L310 808 Z " />
<glyph glyph-name="Zcaron" unicode="&#x17d;" horiz-adv-x="570" d="M496 0 L524 190 L270 190 L269 192 C277 200 286 211 294 222 L578 590 L601 750 L83 750 L50 560 L308 560 L309 558 C300 548 292 538 284 528 L-12 146 L-32 0 L496 0 Z M457 787 L568 907 L388 907 L360 867 L355 867 L340 907 L159 907 L233 787 L457 787 Z " />
<glyph glyph-name="zcaron" unicode="&#x17e;" horiz-adv-x="493" d="M482 473 L502 616 L66 616 L36 450 L236 450 L237 448 C228 438 219 429 211 419 L-12 146 L-32 0 L422 0 L450 164 L233 164 L232 166 C241 175 250 185 258 195 L482 473 Z M378 651 L490 796 L335 796 L318 765 C311 753 307 745 302 734 L300 734 C298 746 294 759 290 773 L283 796 L129 796 L198 651 L378 651 Z " />
<glyph glyph-name="longs" unicode="&#x17f;" horiz-adv-x="340" d="M26 456 L77 456 L26 86 C15 8 -10 -9 -65 -16 L-72 -165 C89 -159 214 -90 239 87 L311 604 C315 637 330 653 420 653 L430 807 C192 807 116 726 98 605 L53 605 L26 456 Z " />
<glyph glyph-name="uni018F" unicode="&#x18f;" horiz-adv-x="693" d="M115 551 C177 566 248 574 315 574 C408 574 441 558 441 476 L441 461 L43 461 C26 392 16 322 16 253 C16 71 100 -13 292 -13 C524 -13 636 109 673 375 C678 414 681 449 681 481 C681 685 573 762 378 762 C273 762 204 753 120 726 L115 551 Z M319 173 C271 173 252 193 252 251 C252 267 253 286 256 308 L422 308 C401 195 374 173 319 173 L319 173 Z " />
<glyph glyph-name="florin" unicode="&#x192;" horiz-adv-x="422" d="M97 -152 L310 460 L402 460 L457 615 L365 615 L372 636 C376 649 387 657 419 657 C433 657 447 655 460 652 L519 787 C494 794 458 799 421 799 C282 798 186 725 160 643 L151 615 L95 615 L40 460 L96 460 L-114 -152 L97 -152 Z " />
<glyph glyph-name="uni01B5" unicode="&#x1b5;" horiz-adv-x="570" d="M496 0 L524 190 L270 190 L269 192 C277 200 286 211 294 222 L369 319 L526 319 L551 450 L470 450 L578 590 L601 750 L83 750 L50 560 L308 560 L309 558 C300 548 292 538 284 528 L223 450 L57 450 L31 319 L122 319 L-12 146 L-32 0 L496 0 Z " />
<glyph glyph-name="uni01B6" unicode="&#x1b6;" horiz-adv-x="493" d="M482 473 L502 616 L66 616 L36 450 L236 450 L237 448 C228 438 219 429 211 419 L177 378 L48 378 L25 257 L78 257 L-12 146 L-32 0 L422 0 L450 164 L233 164 L232 166 C241 175 250 185 258 195 L308 257 L437 257 L460 378 L405 378 L482 473 Z " />
<glyph glyph-name="Aringacute" unicode="&#x1fa;" horiz-adv-x="699" d="M387 949 L361 900 C267 887 239 835 239 763 C239 746 242 732 248 720 L-58 0 L184 0 L226 123 L394 123 L401 0 L657 0 L545 730 C559 750 565 777 565 811 C565 833 558 853 543 868 L650 949 L387 949 Z M371 547 C371 533 371 521 372 506 L384 296 L285 296 L357 508 C362 522 366 535 369 547 L371 547 Z M410 815 C447 815 456 807 456 791 C456 763 445 754 401 754 C358 754 350 761 350 776 C350 803 359 815 410 815 L410 815 Z " />
<glyph glyph-name="aringacute" unicode="&#x1fb;" horiz-adv-x="593" d="M408 913 L372 831 C295 818 266 777 266 719 C266 662 310 641 400 641 C509 641 560 675 560 754 C560 774 553 791 538 805 L645 913 L408 913 Z M419 761 C453 761 461 754 461 742 C461 722 450 715 412 715 C376 715 368 720 368 732 C368 751 377 761 419 761 L419 761 Z M363 625 C146 625 -2 445 -2 195 C-2 55 59 -11 177 -11 C227 -11 281 4 327 41 L339 0 L505 0 L591 614 L544 614 C469 614 441 625 363 625 L363 625 Z M256 160 C227 160 215 169 215 208 C215 225 218 249 222 279 C241 418 287 452 334 452 C341 452 348 452 354 451 L326 253 C318 197 293 160 256 160 L256 160 Z " />
<glyph glyph-name="AEacute" unicode="&#x1fc;" horiz-adv-x="981" d="M979 564 L1001 750 L389 750 L-58 0 L209 0 L270 124 L436 124 L421 0 L908 0 L938 186 L676 186 L689 297 L891 297 L915 467 L710 467 L723 564 L979 564 Z M458 296 L355 296 L476 540 C483 554 489 566 494 578 L496 577 C493 563 491 550 489 536 L458 296 Z M624 906 L561 787 L729 787 L887 906 L624 906 Z " />
<glyph glyph-name="aeacute" unicode="&#x1fd;" horiz-adv-x="836" d="M650 628 C590 628 540 616 501 592 C462 612 413 625 347 625 C169 625 -2 485 -2 192 C-2 54 56 -11 172 -11 C246 -11 323 16 374 92 L376 92 C405 20 467 -11 554 -11 C657 -11 734 25 783 68 L728 196 C695 174 657 162 616 162 C571 162 547 172 539 212 C736 245 838 337 838 473 C838 569 767 628 650 628 L650 628 Z M256 160 C227 160 215 169 215 209 C215 226 218 249 222 280 C240 412 287 461 340 461 L355 461 L325 244 C318 193 291 160 256 160 L256 160 Z M628 466 C643 466 650 459 650 447 C650 412 623 383 553 366 C570 447 592 466 628 466 L628 466 Z M426 796 L363 651 L520 651 L663 796 L426 796 Z " />
<glyph glyph-name="Oslashacute" unicode="&#x1fe;" horiz-adv-x="698" d="M368 906 L305 787 L473 787 L631 906 L368 906 Z M66 -18 L112 31 C157 1 219 -13 297 -13 C523 -13 638 94 677 375 C683 417 686 455 686 490 C686 536 681 575 670 609 L731 675 L637 765 L592 717 C547 748 485 762 406 762 C179 762 62 647 24 375 C18 334 15 297 15 263 C15 215 21 173 33 138 L-31 68 L66 -18 Z M263 355 C287 535 310 562 376 562 C407 562 427 557 437 536 L263 355 Z M438 391 C419 215 390 185 326 185 C295 185 275 191 265 211 L438 391 Z " />
<glyph glyph-name="oslashacute" unicode="&#x1ff;" horiz-adv-x="577" d="M304 796 L241 651 L398 651 L541 796 L304 796 Z M331 628 C135 628 39 526 9 312 C4 277 2 245 2 215 C2 171 7 133 20 101 L-28 51 L50 -21 L88 20 C123 -1 171 -12 232 -12 C428 -12 523 89 553 303 C558 338 561 370 561 399 C561 440 556 476 545 506 L597 562 L521 634 L481 592 C444 615 395 628 331 628 L331 628 Z M302 456 C326 456 339 451 344 426 L225 308 C243 439 263 456 302 456 L302 456 Z M257 151 C236 151 223 155 218 179 L338 298 C318 167 300 151 257 151 L257 151 Z " />
<glyph glyph-name="Scommaaccent" unicode="&#x218;" horiz-adv-x="543" d="M358 762 C148 762 41 632 41 481 C41 281 289 292 289 220 C289 189 266 174 215 174 C151 174 91 193 32 222 L-22 38 C37 4 116 -13 196 -13 C382 -13 515 97 515 270 C515 466 268 456 268 526 C268 553 282 572 349 572 C395 572 452 562 508 546 L558 726 C504 750 428 762 358 762 L358 762 Z M207 -27 C121 -27 88 -59 88 -98 C88 -125 114 -141 154 -142 L156 -142 C146 -154 134 -169 120 -182 L160 -206 C245 -176 309 -134 309 -85 C309 -50 278 -27 207 -27 L207 -27 Z " />
<glyph glyph-name="scommaaccent" unicode="&#x219;" horiz-adv-x="445" d="M296 628 C121 628 26 524 26 395 C26 235 207 244 207 188 C207 167 193 156 164 156 C126 156 78 168 37 196 L-27 44 C20 11 88 -11 162 -11 C367 -11 413 138 413 232 C413 385 233 370 233 426 C233 442 244 454 269 454 C307 454 346 450 374 437 L453 589 C413 614 358 628 296 628 L296 628 Z M180 -27 C94 -27 61 -59 61 -98 C61 -125 87 -141 127 -142 L129 -142 C119 -154 107 -169 93 -182 L133 -206 C218 -176 282 -134 282 -85 C282 -50 251 -27 180 -27 L180 -27 Z " />
<glyph glyph-name="uni021A" unicode="&#x21a;" horiz-adv-x="568" d="M588 560 L611 750 L66 750 L35 560 L195 560 L117 0 L350 0 L428 560 L588 560 Z M228 -27 C142 -27 109 -59 109 -98 C109 -125 135 -141 175 -142 L177 -142 C167 -154 155 -169 141 -182 L181 -206 C266 -176 330 -134 330 -85 C330 -50 299 -27 228 -27 L228 -27 Z " />
<glyph glyph-name="uni021B" unicode="&#x21b;" horiz-adv-x="395" d="M3 444 L63 444 L31 215 C28 196 27 178 27 162 C27 52 87 -7 198 -7 C242 -7 300 5 329 20 L335 178 C319 171 297 168 285 168 C258 168 244 179 244 207 C244 212 245 218 246 224 L277 444 L386 444 L417 605 L300 605 L321 759 L153 743 L106 605 L34 605 L3 444 Z M175 -27 C89 -27 56 -59 56 -98 C56 -125 82 -141 122 -142 L124 -142 C114 -154 102 -169 88 -182 L128 -206 C213 -176 277 -134 277 -85 C277 -50 246 -27 175 -27 L175 -27 Z " />
<glyph glyph-name="uni0237" unicode="&#x237;" horiz-adv-x="305" d="M298 619 L83 610 L10 86 C-1 8 -26 -9 -81 -16 L-87 -165 C73 -159 199 -90 224 87 L298 619 Z " />
<glyph glyph-name="uni0259" unicode="&#x259;" horiz-adv-x="511" d="M181 -11 C357 -11 466 91 496 304 C500 333 502 361 502 386 C502 556 411 628 278 628 C175 628 98 592 48 549 L104 420 C136 442 173 455 215 455 C257 455 284 444 293 407 C86 374 -6 287 -6 146 C-6 49 63 -11 181 -11 L181 -11 Z M204 151 C189 151 182 157 182 171 C182 207 208 244 282 263 C265 173 241 151 204 151 L204 151 Z " />
<glyph glyph-name="uni02BB" unicode="&#x2bb;" horiz-adv-x="260" d="M148 477 C226 477 275 529 275 608 C275 653 250 679 211 683 C228 717 247 752 267 782 L207 820 C123 758 50 660 50 573 C50 512 84 477 148 477 L148 477 Z " />
<glyph glyph-name="afii57929" unicode="&#x2bc;" horiz-adv-x="260" d="M187 776 C109 776 59 723 59 643 C59 599 83 573 123 570 C107 536 87 501 67 471 L128 433 C212 493 285 592 285 680 C285 741 251 776 187 776 L187 776 Z " />
<glyph glyph-name="circumflex" unicode="&#x2c6;" horiz-adv-x="396" d="M170 796 L60 651 L213 651 L230 678 C237 689 240 694 246 706 L248 706 L267 651 L421 651 L348 796 L170 796 Z " />
<glyph glyph-name="caron" unicode="&#x2c7;" horiz-adv-x="396" d="M330 651 L442 796 L287 796 L270 765 C263 753 259 745 254 734 L252 734 C250 746 246 759 242 773 L235 796 L81 796 L150 651 L330 651 Z " />
<glyph glyph-name="breve" unicode="&#x2d8;" horiz-adv-x="396" d="M288 796 C282 753 267 745 251 745 C235 745 225 752 225 781 C225 785 225 790 226 796 L90 796 C88 783 87 771 87 760 C87 686 127 642 237 642 C357 642 414 697 428 796 L288 796 Z " />
<glyph glyph-name="dotaccent" unicode="&#x2d9;" horiz-adv-x="396" d="M262 808 C179 808 138 774 138 711 C138 665 170 646 239 646 C323 646 365 679 365 741 C365 785 334 808 262 808 L262 808 Z " />
<glyph glyph-name="ring" unicode="&#x2da;" horiz-adv-x="396" d="M267 836 C149 836 106 790 106 720 C106 663 150 642 240 642 C349 642 400 676 400 755 C400 804 361 836 267 836 L267 836 Z M259 762 C293 762 301 755 301 743 C301 723 290 716 252 716 C216 716 208 721 208 733 C208 752 217 762 259 762 L259 762 Z " />
<glyph glyph-name="ogonek" unicode="&#x2db;" horiz-adv-x="396" d="M198 -188 C245 -188 281 -179 313 -164 L312 -58 C301 -63 291 -65 275 -65 C249 -65 240 -58 240 -43 C240 -21 256 -5 286 0 L207 26 C135 9 73 -31 73 -105 C73 -154 113 -188 198 -188 L198 -188 Z " />
<glyph glyph-name="tilde" unicode="&#x2dc;" horiz-adv-x="396" d="M311 643 C387 643 438 703 452 796 L336 796 C333 776 325 768 316 768 C292 768 273 803 205 803 C129 803 78 742 64 650 L180 650 C184 669 191 678 200 678 C224 678 243 643 311 643 L311 643 Z " />
<glyph glyph-name="hungarumlaut" unicode="&#x2dd;" horiz-adv-x="396" d="M125 796 L76 651 L209 651 L333 796 L125 796 Z M350 796 L268 651 L417 651 L563 796 L350 796 Z " />
<glyph glyph-name="uni0394" unicode="&#x394;" horiz-adv-x="670" d="M465 753 L315 753 L-41 0 L610 0 L465 753 Z M349 457 C350 446 350 437 353 416 L384 169 L225 169 L332 419 C338 433 343 445 347 457 L349 457 Z " />
<glyph glyph-name="uni03A9" unicode="&#x3a9;" horiz-adv-x="692" d="M402 760 C194 760 31 638 31 385 C31 295 61 224 121 174 L120 171 L-1 171 L-25 0 L280 0 L314 249 C291 269 271 299 271 368 C271 389 273 413 277 442 C292 551 323 576 376 576 C419 576 443 560 443 496 C443 481 442 463 439 442 C421 318 385 276 346 249 L312 0 L618 0 L642 171 L517 171 L517 174 C625 251 687 373 687 518 C687 689 576 760 402 760 L402 760 Z " />
<glyph glyph-name="uni03BC" unicode="&#x3bc;" horiz-adv-x="594" d="M234 -8 C281 -8 317 12 346 40 L366 -6 L515 5 L601 616 L388 616 L336 245 C329 199 297 168 266 168 C239 168 230 184 230 204 C230 208 230 212 231 217 L287 616 L74 616 L-35 -162 L169 -148 C169 -90 172 -35 174 22 C188 -1 211 -8 234 -8 L234 -8 Z " />
<glyph glyph-name="pi" unicode="&#x3c0;" horiz-adv-x="641" d="M329 183 C326 165 325 149 325 134 C325 35 383 -6 556 -6 L577 145 C552 145 542 151 542 171 C542 174 542 178 543 183 L579 441 L626 441 L651 616 L197 616 C124 616 63 605 28 588 L47 428 C58 433 72 437 92 439 L31 0 L244 0 L305 441 L365 441 L329 183 Z " />
<glyph glyph-name="Wgrave" unicode="&#x1e80;" horiz-adv-x="985" d="M430 750 L294 277 C290 264 287 250 284 238 L282 238 C282 251 283 266 283 279 L283 750 L54 750 L104 0 L379 0 L498 438 C501 450 506 465 508 478 L510 478 C509 465 509 450 509 437 L509 0 L780 0 L1041 750 L812 750 L688 283 C684 270 681 256 679 243 L677 243 C677 256 678 271 678 284 L678 750 L430 750 Z M655 787 L614 906 L368 906 L484 787 L655 787 Z " />
<glyph glyph-name="wgrave" unicode="&#x1e81;" horiz-adv-x="876" d="M562 651 L534 796 L297 796 L404 651 L562 651 Z M864 638 L660 596 C661 584 661 570 661 553 C661 271 584 197 564 197 C557 197 541 206 541 270 C541 294 543 326 549 368 L584 612 L371 612 L339 390 C317 241 274 198 258 198 C252 198 236 206 236 267 C236 291 239 324 245 368 L280 619 L66 611 L32 369 C27 334 25 301 25 272 C25 47 156 -11 198 -11 C239 -11 320 30 391 117 L392 117 C427 21 492 -10 521 -10 C598 -10 825 118 865 400 C869 430 871 471 871 514 C871 557 869 601 864 638 L864 638 Z " />
<glyph glyph-name="Wacute" unicode="&#x1e82;" horiz-adv-x="985" d="M430 750 L294 277 C290 264 287 250 284 238 L282 238 C282 251 283 266 283 279 L283 750 L54 750 L104 0 L379 0 L498 438 C501 450 506 465 508 478 L510 478 C509 465 509 450 509 437 L509 0 L780 0 L1041 750 L812 750 L688 283 C684 270 681 256 679 243 L677 243 C677 256 678 271 678 284 L678 750 L430 750 Z M528 906 L465 787 L633 787 L791 906 L528 906 Z " />
<glyph glyph-name="wacute" unicode="&#x1e83;" horiz-adv-x="876" d="M449 796 L386 651 L543 651 L686 796 L449 796 Z M864 638 L660 596 C661 584 661 570 661 553 C661 271 584 197 564 197 C557 197 541 206 541 270 C541 294 543 326 549 368 L584 612 L371 612 L339 390 C317 241 274 198 258 198 C252 198 236 206 236 267 C236 291 239 324 245 368 L280 619 L66 611 L32 369 C27 334 25 301 25 272 C25 47 156 -11 198 -11 C239 -11 320 30 391 117 L392 117 C427 21 492 -10 521 -10 C598 -10 825 118 865 400 C869 430 871 471 871 514 C871 557 869 601 864 638 L864 638 Z " />
<glyph glyph-name="Wdieresis" unicode="&#x1e84;" horiz-adv-x="985" d="M430 750 L294 277 C290 264 287 250 284 238 L282 238 C282 251 283 266 283 279 L283 750 L54 750 L104 0 L379 0 L498 438 C501 450 506 465 508 478 L510 478 C509 465 509 450 509 437 L509 0 L780 0 L1041 750 L812 750 L688 283 C684 270 681 256 679 243 L677 243 C677 256 678 271 678 284 L678 750 L430 750 Z M474 931 C413 931 378 897 378 837 C378 797 404 781 453 781 C515 781 549 813 549 871 C549 910 525 931 474 931 L474 931 Z M671 931 C610 931 575 897 575 837 C575 797 601 781 650 781 C712 781 746 813 746 871 C746 910 722 931 671 931 L671 931 Z " />
<glyph glyph-name="wdieresis" unicode="&#x1e85;" horiz-adv-x="876" d="M405 808 C341 808 306 773 306 707 C306 664 331 646 382 646 C445 646 480 680 480 745 C480 786 457 808 405 808 L405 808 Z M604 808 C541 808 505 773 505 707 C505 664 531 646 581 646 C644 646 679 680 679 745 C679 786 656 808 604 808 L604 808 Z M864 638 L660 596 C661 584 661 570 661 553 C661 271 584 197 564 197 C557 197 541 206 541 270 C541 294 543 326 549 368 L584 612 L371 612 L339 390 C317 241 274 198 258 198 C252 198 236 206 236 267 C236 291 239 324 245 368 L280 619 L66 611 L32 369 C27 334 25 301 25 272 C25 47 156 -11 198 -11 C239 -11 320 30 391 117 L392 117 C427 21 492 -10 521 -10 C598 -10 825 118 865 400 C869 430 871 471 871 514 C871 557 869 601 864 638 L864 638 Z " />
<glyph glyph-name="uni1E8A" unicode="&#x1e8a;" horiz-adv-x="672" d="M727 750 L468 750 L385 591 C378 578 372 566 368 554 L366 554 C364 567 361 581 358 594 L322 750 L55 750 L174 387 L-51 0 L210 0 L300 183 C307 197 313 209 317 220 L319 220 C321 207 324 192 327 180 L366 0 L623 0 L503 392 L727 750 Z M414 919 C317 919 284 889 284 834 C284 793 314 778 394 778 C491 778 524 806 524 860 C524 898 496 919 414 919 L414 919 Z " />
<glyph glyph-name="uni1E8B" unicode="&#x1e8b;" horiz-adv-x="604" d="M175 0 L251 147 C258 160 265 173 269 183 L271 183 C273 170 276 155 280 143 L318 0 L553 0 L440 305 L636 616 L414 616 L343 480 C334 463 329 454 325 444 L323 444 C321 457 318 471 315 484 L282 619 L41 611 L152 324 L-50 0 L175 0 Z M364 808 C281 808 240 774 240 711 C240 665 272 646 341 646 C425 646 467 679 467 741 C467 785 436 808 364 808 L364 808 Z " />
<glyph glyph-name="Ygrave" unicode="&#x1ef2;" horiz-adv-x="669" d="M45 750 L200 220 L170 0 L405 0 L435 220 L735 750 L486 750 L369 481 C363 468 358 455 354 443 L352 443 C351 456 349 468 346 483 L300 750 L45 750 Z M498 787 L457 906 L211 906 L327 787 L498 787 Z " />
<glyph glyph-name="ygrave" unicode="&#x1ef3;" horiz-adv-x="580" d="M384 616 C366 521 339 427 306 342 L304 342 C304 351 302 367 300 383 L272 621 L35 604 L141 105 C101 60 53 23 2 -3 L77 -155 C332 -29 517 245 592 616 L384 616 Z M441 651 L413 796 L176 796 L283 651 L441 651 Z " />
<glyph glyph-name="uni2007" unicode="&#x2007;" horiz-adv-x="575" d="" />
<glyph glyph-name="uni2008" unicode="&#x2008;" horiz-adv-x="272" d="" />
<glyph glyph-name="uni200B" unicode="&#x200b;" d="" />
<glyph glyph-name="endash" unicode="&#x2013;" horiz-adv-x="461" d="M37 417 L16 269 L419 269 L440 417 L37 417 Z " />
<glyph glyph-name="emdash" unicode="&#x2014;" horiz-adv-x="641" d="M37 417 L16 269 L598 269 L619 417 L37 417 Z " />
<glyph glyph-name="quoteleft" unicode="&#x2018;" horiz-adv-x="260" d="M148 477 C226 477 275 529 275 608 C275 653 250 679 211 683 C228 717 247 752 267 782 L207 820 C123 758 50 660 50 573 C50 512 84 477 148 477 L148 477 Z " />
<glyph glyph-name="quoteright" unicode="&#x2019;" horiz-adv-x="260" d="M187 776 C109 776 59 723 59 643 C59 599 83 573 123 570 C107 536 87 501 67 471 L128 433 C212 493 285 592 285 680 C285 741 251 776 187 776 L187 776 Z " />
<glyph glyph-name="quotesinglbase" unicode="&#x201a;" horiz-adv-x="260" d="M105 199 C27 199 -22 146 -22 66 C-22 22 2 -4 42 -7 C26 -41 6 -76 -14 -106 L47 -144 C131 -84 204 14 204 103 C204 164 169 199 105 199 L105 199 Z " />
<glyph glyph-name="quotedblleft" unicode="&#x201c;" horiz-adv-x="504" d="M148 477 C226 477 275 529 275 608 C275 653 250 679 211 683 C228 717 247 752 267 782 L207 820 C123 758 50 660 50 573 C50 512 84 477 148 477 L148 477 Z M393 477 C471 477 520 529 520 608 C520 653 495 679 456 683 C473 717 492 752 512 782 L452 820 C368 758 295 660 295 573 C295 512 329 477 393 477 L393 477 Z " />
<glyph glyph-name="quotedblright" unicode="&#x201d;" horiz-adv-x="504" d="M186 773 C109 773 58 720 58 641 C58 596 83 570 122 567 C106 533 86 498 66 468 L128 430 C211 490 285 588 285 677 C285 738 250 773 186 773 L186 773 Z M430 774 C354 774 303 722 303 643 C303 598 327 571 366 568 C351 534 331 499 310 469 L372 431 C456 491 529 589 529 678 C529 739 494 774 430 774 L430 774 Z " />
<glyph glyph-name="quotedblbase" unicode="&#x201e;" horiz-adv-x="504" d="M349 199 C271 199 222 146 222 66 C222 22 246 -4 286 -7 C270 -41 250 -76 230 -106 L291 -144 C375 -84 448 14 448 103 C448 164 413 199 349 199 L349 199 Z M105 199 C27 199 -22 146 -22 66 C-22 22 2 -4 42 -7 C26 -41 6 -76 -14 -106 L47 -144 C131 -84 204 14 204 103 C204 164 169 199 105 199 L105 199 Z " />
<glyph glyph-name="dagger" unicode="&#x2020;" horiz-adv-x="458" d="M50 627 L24 444 L154 458 L50 -140 L267 -140 L335 458 L458 444 L484 627 L357 612 L395 775 L178 775 L178 612 L50 627 Z " />
<glyph glyph-name="daggerdbl" unicode="&#x2021;" horiz-adv-x="458" d="M423 198 L297 185 L335 458 L458 444 L484 627 L357 612 L395 775 L178 775 L178 612 L50 627 L24 444 L154 458 L118 185 L-11 198 L-36 15 L94 31 L50 -140 L267 -140 L275 31 L398 15 L423 198 Z " />
<glyph glyph-name="bullet" unicode="&#x2022;" horiz-adv-x="405" d="M18 320 C16 305 15 291 15 278 C15 187 65 142 170 142 C299 142 378 215 378 361 C378 453 324 497 220 497 C100 497 35 440 18 320 L18 320 Z " />
<glyph glyph-name="ellipsis" unicode="&#x2026;" horiz-adv-x="787" d="M629 201 C540 201 497 150 497 67 C497 11 529 -12 599 -12 C686 -12 730 40 730 116 C730 170 700 201 629 201 L629 201 Z M373 201 C284 201 241 150 241 67 C241 11 273 -12 343 -12 C430 -12 474 40 474 116 C474 170 444 201 373 201 L373 201 Z M114 201 C25 201 -18 150 -18 67 C-18 11 14 -12 84 -12 C171 -12 215 40 215 116 C215 170 185 201 114 201 L114 201 Z " />
<glyph glyph-name="perthousand" unicode="&#x2030;" horiz-adv-x="1067" d="M229 756 C110 756 40 689 40 541 C40 457 83 410 179 410 C293 410 371 487 371 627 C371 718 321 756 229 756 L229 756 Z M212 637 C223 637 230 630 230 608 C230 542 211 531 197 531 C187 531 181 536 181 557 C181 622 198 637 212 637 L212 637 Z M554 689 L59 143 L164 49 L660 595 L554 689 Z M550 337 C432 337 360 266 360 121 C360 36 404 -11 500 -11 C617 -11 692 66 692 206 C692 297 642 337 550 337 L550 337 Z M534 215 C544 215 550 209 550 189 C550 119 532 109 519 109 C508 109 501 114 501 137 C501 201 520 215 534 215 L534 215 Z M889 337 C771 337 699 266 699 121 C699 36 743 -11 839 -11 C956 -11 1031 66 1031 206 C1031 297 981 337 889 337 L889 337 Z M873 215 C883 215 889 209 889 189 C889 119 871 109 858 109 C847 109 840 114 840 136 C840 200 858 215 873 215 L873 215 Z " />
<glyph glyph-name="guilsinglleft" unicode="&#x2039;" horiz-adv-x="366" d="M344 393 L365 546 L7 317 L5 305 L299 75 L321 229 L208 311 L344 393 Z " />
<glyph glyph-name="guilsinglright" unicode="&#x203a;" horiz-adv-x="366" d="M-13 75 L345 305 L347 317 L53 546 L32 393 L145 311 L9 229 L-13 75 Z " />
<glyph glyph-name="fraction" unicode="&#x2044;" horiz-adv-x="313" d="M394 750 L-181 0 L-34 0 L542 750 L394 750 Z " />
<glyph glyph-name="uni2070" unicode="&#x2070;" horiz-adv-x="378" d="M262 879 C139 879 79 817 59 674 C56 654 55 635 55 618 C55 523 101 475 204 475 C326 475 389 542 408 674 C411 696 413 716 413 734 C413 835 365 879 262 879 L262 879 Z M246 767 C261 767 271 761 271 728 C271 715 269 698 266 676 C255 595 242 585 219 585 C204 585 195 590 195 620 C195 633 197 651 200 675 C211 755 223 767 246 767 L246 767 Z " />
<glyph glyph-name="uni2074" unicode="&#x2074;" horiz-adv-x="378" d="M393 539 L411 644 L379 644 L411 874 L239 874 L41 621 L41 539 L231 539 L223 480 L356 480 L364 539 L393 539 Z M251 644 L195 644 L194 646 C203 655 211 665 219 676 L245 712 C252 722 262 735 269 746 L271 745 C267 732 264 718 262 705 L251 644 Z " />
<glyph glyph-name="uni2075" unicode="&#x2075;" horiz-adv-x="378" d="M402 874 L132 874 L82 671 L124 628 C148 632 182 633 207 633 C237 633 249 623 249 610 C249 593 237 582 198 582 C156 582 129 589 86 604 L51 500 C94 481 146 475 197 475 C331 475 394 545 394 638 C394 701 345 735 260 735 C246 735 235 734 224 733 L230 760 L391 760 L402 874 Z " />
<glyph glyph-name="uni2076" unicode="&#x2076;" horiz-adv-x="378" d="M406 864 C375 876 340 880 296 880 C142 880 53 775 53 625 C53 522 110 475 212 475 C320 475 403 529 403 644 C403 709 355 743 271 743 C250 743 231 739 214 733 L213 734 C226 755 251 767 299 767 C332 767 356 763 382 755 L406 864 Z M232 648 C253 648 260 640 260 628 C260 593 243 580 228 580 C207 580 198 589 198 616 C198 623 199 631 200 641 C206 646 225 648 232 648 L232 648 Z " />
<glyph glyph-name="uni2077" unicode="&#x2077;" horiz-adv-x="378" d="M431 873 L92 873 L69 752 L263 752 L264 750 C255 740 247 729 240 719 L69 480 L233 480 L415 758 L431 873 Z " />
<glyph glyph-name="uni2078" unicode="&#x2078;" horiz-adv-x="378" d="M262 880 C141 880 84 826 84 745 C84 720 91 701 102 686 C57 657 44 614 44 582 C44 514 94 474 205 474 C329 474 400 528 400 622 C400 656 386 678 366 693 C391 716 408 746 408 784 C408 840 366 880 262 880 L262 880 Z M202 629 C239 618 257 612 257 593 C255 579 240 576 223 576 C198 576 184 581 184 597 C184 608 191 619 202 629 L202 629 Z M249 779 C270 779 277 772 277 759 C277 747 272 740 261 731 C234 738 219 744 219 761 C221 774 230 779 249 779 L249 779 Z " />
<glyph glyph-name="uni2079" unicode="&#x2079;" horiz-adv-x="378" d="M257 880 C133 880 63 810 63 715 C63 654 104 614 197 614 C223 614 246 618 266 629 L268 627 C255 593 226 580 179 580 C144 580 116 586 88 597 L52 494 C86 482 117 475 176 475 C312 475 389 545 409 689 C411 706 413 723 413 738 C413 833 363 880 257 880 L257 880 Z M240 772 C262 772 271 766 271 744 C271 730 270 708 233 708 C210 708 202 714 202 731 C202 763 215 772 240 772 L240 772 Z " />
<glyph glyph-name="uni207A" unicode="&#x207a;" horiz-adv-x="378" d="M388 619 L388 740 L294 740 L294 836 L170 836 L170 740 L77 740 L77 619 L170 619 L170 523 L294 523 L294 619 L388 619 Z " />
<glyph glyph-name="uni207B" unicode="&#x207b;" horiz-adv-x="378" d="M369 626 L386 742 L92 742 L75 626 L369 626 Z " />
<glyph glyph-name="uni207C" unicode="&#x207c;" horiz-adv-x="378" d="M372 703 L372 803 L94 803 L94 703 L372 703 Z M372 561 L372 660 L94 660 L94 561 L372 561 Z " />
<glyph glyph-name="uni207D" unicode="&#x207d;" horiz-adv-x="223" d="M215 903 C125 834 79 714 79 601 C79 529 101 464 147 418 L242 427 C218 473 208 528 208 585 C208 689 241 809 308 893 L215 903 Z " />
<glyph glyph-name="uni207E" unicode="&#x207e;" horiz-adv-x="223" d="M63 893 C87 849 96 795 96 738 C96 636 67 515 -2 427 L92 418 C180 488 225 604 225 720 C225 792 206 857 160 903 L63 893 Z " />
<glyph glyph-name="uni2080" unicode="&#x2080;" horiz-adv-x="378" d="M174 246 C51 246 -9 184 -29 41 C-32 21 -33 2 -33 -15 C-33 -110 13 -158 116 -158 C238 -158 301 -91 320 41 C323 63 325 83 325 101 C325 202 277 246 174 246 L174 246 Z M158 134 C173 134 183 128 183 95 C183 82 181 65 178 43 C167 -38 154 -48 131 -48 C116 -48 107 -43 107 -13 C107 0 109 18 112 42 C123 122 135 134 158 134 L158 134 Z " />
<glyph glyph-name="uni2081" unicode="&#x2081;" horiz-adv-x="284" d="M230 241 L140 241 L-7 163 L-12 45 L26 62 C38 67 51 74 62 81 L64 79 C61 66 59 52 57 39 L30 -153 L175 -153 L230 241 Z " />
<glyph glyph-name="uni2082" unicode="&#x2082;" horiz-adv-x="372" d="M173 246 C108 246 52 232 1 206 L18 100 C58 119 90 132 125 132 C150 132 160 124 160 112 C160 72 90 28 -27 -65 L-39 -153 L269 -153 L287 -38 L165 -38 L165 -35 C256 20 314 65 314 142 C314 201 271 246 173 246 L173 246 Z " />
<glyph glyph-name="uni2083" unicode="&#x2083;" horiz-adv-x="372" d="M160 246 C106 246 47 231 4 206 L21 106 C59 128 94 137 136 137 C168 137 177 128 177 120 C177 103 169 91 87 91 L74 -1 C143 -1 159 -9 159 -24 C159 -44 143 -52 109 -52 C71 -52 36 -42 3 -27 L-39 -127 C-7 -147 45 -158 97 -158 C227 -158 299 -107 299 -20 C299 11 282 33 253 46 L253 48 C294 69 314 102 314 143 C314 206 261 246 160 246 L160 246 Z " />
<glyph glyph-name="uni2084" unicode="&#x2084;" horiz-adv-x="378" d="M305 -94 L323 11 L291 11 L323 241 L151 241 L-47 -12 L-47 -94 L143 -94 L135 -153 L268 -153 L276 -94 L305 -94 Z M163 11 L107 11 L106 13 C115 22 123 32 131 43 L157 79 C164 89 174 102 181 113 L183 112 C179 99 176 85 174 72 L163 11 Z " />
<glyph glyph-name="uni2085" unicode="&#x2085;" horiz-adv-x="378" d="M314 241 L44 241 L-6 38 L36 -5 C60 -1 94 0 119 0 C149 0 161 -10 161 -23 C161 -40 149 -51 110 -51 C68 -51 41 -44 -2 -29 L-37 -133 C6 -152 58 -158 109 -158 C243 -158 306 -88 306 5 C306 68 257 102 172 102 C158 102 147 101 136 100 L142 127 L303 127 L314 241 Z " />
<glyph glyph-name="uni2086" unicode="&#x2086;" horiz-adv-x="378" d="M318 231 C287 243 252 247 208 247 C54 247 -35 142 -35 -8 C-35 -111 22 -158 124 -158 C232 -158 315 -104 315 11 C315 76 267 110 183 110 C162 110 143 106 126 100 L125 101 C138 122 163 134 211 134 C244 134 268 130 294 122 L318 231 Z M144 15 C165 15 172 7 172 -5 C172 -40 155 -53 140 -53 C119 -53 110 -44 110 -17 C110 -10 111 -2 112 8 C118 13 137 15 144 15 L144 15 Z " />
<glyph glyph-name="uni2087" unicode="&#x2087;" horiz-adv-x="378" d="M343 240 L4 240 L-19 119 L175 119 L176 117 C167 107 159 96 152 86 L-19 -153 L145 -153 L327 125 L343 240 Z " />
<glyph glyph-name="uni2088" unicode="&#x2088;" horiz-adv-x="378" d="M174 247 C53 247 -4 193 -4 112 C-4 87 3 68 14 53 C-31 24 -44 -19 -44 -51 C-44 -119 6 -159 117 -159 C241 -159 312 -105 312 -11 C312 23 298 45 278 60 C303 83 320 113 320 151 C320 207 278 247 174 247 L174 247 Z M114 -4 C151 -15 169 -21 169 -40 C167 -54 152 -57 135 -57 C110 -57 96 -52 96 -36 C96 -25 103 -14 114 -4 L114 -4 Z M161 146 C182 146 189 139 189 126 C189 114 184 107 173 98 C146 105 131 111 131 128 C133 141 142 146 161 146 L161 146 Z " />
<glyph glyph-name="uni2089" unicode="&#x2089;" horiz-adv-x="378" d="M169 247 C45 247 -25 177 -25 82 C-25 21 16 -19 109 -19 C135 -19 158 -15 178 -4 L180 -6 C167 -40 138 -53 91 -53 C56 -53 28 -47 0 -36 L-36 -139 C-2 -151 29 -158 88 -158 C224 -158 301 -88 321 56 C323 73 325 90 325 105 C325 200 275 247 169 247 L169 247 Z M152 139 C174 139 183 133 183 111 C183 97 182 75 145 75 C122 75 114 81 114 98 C114 130 127 139 152 139 L152 139 Z " />
<glyph glyph-name="uni208A" unicode="&#x208a;" horiz-adv-x="378" d="M300 -14 L300 107 L206 107 L206 203 L82 203 L82 107 L-11 107 L-11 -14 L82 -14 L82 -110 L206 -110 L206 -14 L300 -14 Z " />
<glyph glyph-name="uni208B" unicode="&#x208b;" horiz-adv-x="378" d="M281 -7 L297 109 L3 109 L-13 -7 L281 -7 Z " />
<glyph glyph-name="uni208C" unicode="&#x208c;" horiz-adv-x="378" d="M284 70 L284 170 L6 170 L6 70 L284 70 Z M284 -72 L284 27 L6 27 L6 -72 L284 -72 Z " />
<glyph glyph-name="uni208D" unicode="&#x208d;" horiz-adv-x="223" d="M127 270 C37 201 -9 81 -9 -32 C-9 -104 13 -169 59 -215 L154 -206 C130 -160 120 -105 120 -48 C120 56 153 176 220 260 L127 270 Z " />
<glyph glyph-name="uni208E" unicode="&#x208e;" horiz-adv-x="223" d="M-25 260 C-1 216 8 162 8 105 C8 3 -21 -118 -90 -206 L4 -215 C92 -145 137 -29 137 87 C137 159 118 224 72 270 L-25 260 Z " />
<glyph glyph-name="franc" unicode="&#x20a3;" horiz-adv-x="589" d="M-2 220 L-22 77 L27 77 L17 0 L247 0 L257 77 L317 77 L337 220 L277 220 L287 287 L485 287 L512 467 L312 467 L325 560 L591 560 L615 750 L122 750 L47 220 L-2 220 Z " />
<glyph glyph-name="lira" unicode="&#x20a4;" horiz-adv-x="589" d="M64 383 L119 383 C122 374 124 364 124 355 L63 355 L53 247 L115 247 C97 216 60 190 24 188 L10 -6 C114 4 188 6 275 6 C350 6 422 2 494 -8 L531 190 C488 197 456 201 404 201 C365 201 316 197 274 186 L273 188 C296 202 313 223 324 247 L495 247 L510 355 L337 355 C337 365 335 374 333 383 L514 383 L530 494 L316 494 C320 534 353 572 424 572 C464 572 503 564 533 555 L583 741 C546 753 498 766 422 766 C193 766 92 642 92 515 C92 507 93 501 94 494 L71 494 L64 383 Z " />
<glyph glyph-name="peseta" unicode="&#x20a7;" horiz-adv-x="589" d="M610 424 L624 526 L594 526 L594 549 C594 688 522 750 345 750 L98 750 L66 526 L39 526 L25 424 L52 424 L-7 0 L206 0 L235 212 L269 212 C455 212 546 285 579 424 L610 424 Z M286 570 L319 570 C358 570 372 561 373 526 L279 526 L286 570 Z M293 384 L259 384 L265 424 L358 424 C346 390 327 384 293 384 L293 384 Z " />
<glyph glyph-name="Euro" unicode="&#x20ac;" horiz-adv-x="589" d="M481 352 L316 352 C317 362 318 371 320 381 L492 381 L532 492 L352 492 C380 541 422 561 488 561 C510 561 534 558 550 552 L615 728 C575 744 528 753 462 753 C297 753 172 650 115 492 L42 492 L27 381 L87 381 C85 371 84 362 83 352 L23 352 L7 245 L79 245 C88 72 181 -10 345 -10 C414 -10 466 0 511 20 L519 181 C491 173 460 165 431 165 C372 165 329 183 316 245 L443 245 L481 352 Z " />
<glyph glyph-name="trademark" unicode="&#x2122;" horiz-adv-x="696" d="M695 458 L736 751 L582 751 L536 642 C531 630 526 616 522 604 L520 604 C519 617 517 632 515 645 L498 751 L341 751 L300 458 L407 458 L421 558 C423 571 424 586 425 599 L427 599 L452 458 L543 458 L608 603 L610 602 C607 591 603 574 601 561 L587 458 L695 458 Z M306 645 L321 751 L60 751 L45 645 L111 645 L85 458 L215 458 L241 645 L306 645 Z " />
<glyph glyph-name="Omega" unicode="&#x2126;" horiz-adv-x="692" d="M402 760 C194 760 31 638 31 385 C31 295 61 224 121 174 L120 171 L-1 171 L-25 0 L280 0 L314 249 C291 269 271 299 271 368 C271 389 273 413 277 442 C292 551 323 576 376 576 C419 576 443 560 443 496 C443 481 442 463 439 442 C421 318 385 276 346 249 L312 0 L618 0 L642 171 L517 171 L517 174 C625 251 687 373 687 518 C687 689 576 760 402 760 L402 760 Z " />
<glyph glyph-name="uni2150" unicode="&#x2150;" horiz-adv-x="975" d="M301 750 L211 750 L64 672 L59 554 L97 571 C109 576 122 583 133 590 L135 588 C132 575 130 561 128 548 L101 356 L246 356 L301 750 Z M678 750 L103 0 L250 0 L826 750 L678 750 Z M961 393 L622 393 L599 272 L793 272 L794 270 C785 260 777 249 770 239 L599 0 L763 0 L945 278 L961 393 Z " />
<glyph glyph-name="uni2151" unicode="&#x2151;" horiz-adv-x="975" d="M301 750 L211 750 L64 672 L59 554 L97 571 C109 576 122 583 133 590 L135 588 C132 575 130 561 128 548 L101 356 L246 356 L301 750 Z M678 750 L103 0 L250 0 L826 750 L678 750 Z M787 400 C663 400 593 330 593 235 C593 174 634 134 727 134 C753 134 776 138 796 149 L798 147 C785 113 756 100 709 100 C674 100 646 106 618 117 L582 14 C616 2 647 -5 706 -5 C842 -5 919 65 939 209 C941 226 943 243 943 258 C943 353 893 400 787 400 L787 400 Z M770 292 C792 292 801 286 801 264 C801 250 800 228 763 228 C740 228 732 234 732 251 C732 283 745 292 770 292 L770 292 Z " />
<glyph glyph-name="uni2152" unicode="&#x2152;" horiz-adv-x="1259" d="M301 750 L211 750 L64 672 L59 554 L97 571 C109 576 122 583 133 590 L135 588 C132 575 130 561 128 548 L101 356 L246 356 L301 750 Z M678 750 L103 0 L250 0 L826 750 L678 750 Z M848 394 L758 394 L611 316 L606 198 L644 215 C656 220 669 227 680 234 L682 232 C679 219 677 205 675 192 L648 0 L793 0 L848 394 Z M1076 399 C953 399 893 337 873 194 C870 174 869 155 869 138 C869 43 915 -5 1018 -5 C1140 -5 1203 62 1222 194 C1225 216 1227 236 1227 254 C1227 355 1179 399 1076 399 L1076 399 Z M1060 287 C1075 287 1085 281 1085 248 C1085 235 1083 218 1080 196 C1069 115 1056 105 1033 105 C1018 105 1009 110 1009 140 C1009 153 1011 171 1014 195 C1025 275 1037 287 1060 287 L1060 287 Z " />
<glyph glyph-name="onethird" unicode="&#x2153;" horiz-adv-x="859" d="M654 399 C600 399 541 384 498 359 L515 259 C553 281 588 290 630 290 C662 290 671 281 671 273 C671 256 663 244 581 244 L568 152 C637 152 653 144 653 129 C653 109 637 101 603 101 C565 101 530 111 497 126 L455 26 C487 6 539 -5 591 -5 C721 -5 793 46 793 133 C793 164 776 186 747 199 L747 201 C788 222 808 255 808 296 C808 359 755 399 654 399 L654 399 Z M333 750 L243 750 L96 672 L91 554 L129 571 C141 576 154 583 165 590 L167 588 C164 575 162 561 160 548 L133 356 L278 356 L333 750 Z M625 750 L50 0 L197 0 L773 750 L625 750 Z " />
<glyph glyph-name="twothirds" unicode="&#x2154;" horiz-adv-x="859" d="M664 399 C610 399 551 384 508 359 L525 259 C563 281 598 290 640 290 C672 290 681 281 681 273 C681 256 673 244 591 244 L578 152 C647 152 663 144 663 129 C663 109 647 101 613 101 C575 101 540 111 507 126 L465 26 C497 6 549 -5 601 -5 C731 -5 803 46 803 133 C803 164 786 186 757 199 L757 201 C798 222 818 255 818 296 C818 359 765 399 664 399 L664 399 Z M241 755 C176 755 120 741 69 715 L86 609 C126 628 158 641 193 641 C218 641 228 633 228 621 C228 581 158 537 41 444 L29 356 L337 356 L355 471 L233 471 L233 474 C324 529 382 574 382 651 C382 710 339 755 241 755 L241 755 Z M651 750 L76 0 L223 0 L799 750 L651 750 Z " />
<glyph glyph-name="uni2155" unicode="&#x2155;" horiz-adv-x="975" d="M301 750 L211 750 L64 672 L59 554 L97 571 C109 576 122 583 133 590 L135 588 C132 575 130 561 128 548 L101 356 L246 356 L301 750 Z M678 750 L103 0 L250 0 L826 750 L678 750 Z M932 394 L662 394 L612 191 L654 148 C678 152 712 153 737 153 C767 153 779 143 779 130 C779 113 767 102 728 102 C686 102 659 109 616 124 L581 20 C624 1 676 -5 727 -5 C861 -5 924 65 924 158 C924 221 875 255 790 255 C776 255 765 254 754 253 L760 280 L921 280 L932 394 Z " />
<glyph glyph-name="uni2156" unicode="&#x2156;" horiz-adv-x="1063" d="M244 755 C179 755 123 741 72 715 L89 609 C129 628 161 641 196 641 C221 641 231 633 231 621 C231 581 161 537 44 444 L32 356 L340 356 L358 471 L236 471 L236 474 C327 529 385 574 385 651 C385 710 342 755 244 755 L244 755 Z M766 750 L191 0 L338 0 L914 750 L766 750 Z M1020 394 L750 394 L700 191 L742 148 C766 152 800 153 825 153 C855 153 867 143 867 130 C867 113 855 102 816 102 C774 102 747 109 704 124 L669 20 C712 1 764 -5 815 -5 C949 -5 1012 65 1012 158 C1012 221 963 255 878 255 C864 255 853 254 842 253 L848 280 L1009 280 L1020 394 Z " />
<glyph glyph-name="uni2157" unicode="&#x2157;" horiz-adv-x="1063" d="M231 755 C177 755 118 740 75 715 L92 615 C130 637 165 646 207 646 C239 646 248 637 248 629 C248 612 240 600 158 600 L145 508 C214 508 230 500 230 485 C230 465 214 457 180 457 C142 457 107 467 74 482 L32 382 C64 362 116 351 168 351 C298 351 370 402 370 489 C370 520 353 542 324 555 L324 557 C365 578 385 611 385 652 C385 715 332 755 231 755 L231 755 Z M766 750 L191 0 L338 0 L914 750 L766 750 Z M1020 394 L750 394 L700 191 L742 148 C766 152 800 153 825 153 C855 153 867 143 867 130 C867 113 855 102 816 102 C774 102 747 109 704 124 L669 20 C712 1 764 -5 815 -5 C949 -5 1012 65 1012 158 C1012 221 963 255 878 255 C864 255 853 254 842 253 L848 280 L1009 280 L1020 394 Z " />
<glyph glyph-name="uni2158" unicode="&#x2158;" horiz-adv-x="1069" d="M376 415 L394 520 L362 520 L394 750 L222 750 L24 497 L24 415 L214 415 L206 356 L339 356 L347 415 L376 415 Z M234 520 L178 520 L177 522 C186 531 194 541 202 552 L228 588 C235 598 245 611 252 622 L254 621 C250 608 247 594 245 581 L234 520 Z M772 750 L197 0 L344 0 L920 750 L772 750 Z M1026 394 L756 394 L706 191 L748 148 C772 152 806 153 831 153 C861 153 873 143 873 130 C873 113 861 102 822 102 C780 102 753 109 710 124 L675 20 C718 1 770 -5 821 -5 C955 -5 1018 65 1018 158 C1018 221 969 255 884 255 C870 255 859 254 848 253 L854 280 L1015 280 L1026 394 Z " />
<glyph glyph-name="uni2159" unicode="&#x2159;" horiz-adv-x="975" d="M301 750 L211 750 L64 672 L59 554 L97 571 C109 576 122 583 133 590 L135 588 C132 575 130 561 128 548 L101 356 L246 356 L301 750 Z M678 750 L103 0 L250 0 L826 750 L678 750 Z M936 384 C905 396 870 400 826 400 C672 400 583 295 583 145 C583 42 640 -5 742 -5 C850 -5 933 49 933 164 C933 229 885 263 801 263 C780 263 761 259 744 253 L743 254 C756 275 781 287 829 287 C862 287 886 283 912 275 L936 384 Z M762 168 C783 168 790 160 790 148 C790 113 773 100 758 100 C737 100 728 109 728 136 C728 143 729 151 730 161 C736 166 755 168 762 168 L762 168 Z " />
<glyph glyph-name="uni215A" unicode="&#x215a;" horiz-adv-x="1069" d="M385 750 L115 750 L65 547 L107 504 C131 508 165 509 190 509 C220 509 232 499 232 486 C232 469 220 458 181 458 C139 458 112 465 69 480 L34 376 C77 357 129 351 180 351 C314 351 377 421 377 514 C377 577 328 611 243 611 C229 611 218 610 207 609 L213 636 L374 636 L385 750 Z M772 750 L197 0 L344 0 L920 750 L772 750 Z M1030 384 C999 396 964 400 920 400 C766 400 677 295 677 145 C677 42 734 -5 836 -5 C944 -5 1027 49 1027 164 C1027 229 979 263 895 263 C874 263 855 259 838 253 L837 254 C850 275 875 287 923 287 C956 287 980 283 1006 275 L1030 384 Z M856 168 C877 168 884 160 884 148 C884 113 867 100 852 100 C831 100 822 109 822 136 C822 143 823 151 824 161 C830 166 849 168 856 168 L856 168 Z " />
<glyph glyph-name="oneeighth" unicode="&#x215b;" horiz-adv-x="859" d="M668 400 C547 400 490 346 490 265 C490 240 497 221 508 206 C463 177 450 134 450 102 C450 34 500 -6 611 -6 C735 -6 806 48 806 142 C806 176 792 198 772 213 C797 236 814 266 814 304 C814 360 772 400 668 400 L668 400 Z M608 149 C645 138 663 132 663 113 C661 99 646 96 629 96 C604 96 590 101 590 117 C590 128 597 139 608 149 L608 149 Z M655 299 C676 299 683 292 683 279 C683 267 678 260 667 251 C640 258 625 264 625 281 C627 294 636 299 655 299 L655 299 Z M333 750 L243 750 L96 672 L91 554 L129 571 C141 576 154 583 165 590 L167 588 C164 575 162 561 160 548 L133 356 L278 356 L333 750 Z M625 750 L50 0 L197 0 L773 750 L625 750 Z " />
<glyph glyph-name="threeeighths" unicode="&#x215c;" horiz-adv-x="859" d="M678 400 C557 400 500 346 500 265 C500 240 507 221 518 206 C473 177 460 134 460 102 C460 34 510 -6 621 -6 C745 -6 816 48 816 142 C816 176 802 198 782 213 C807 236 824 266 824 304 C824 360 782 400 678 400 L678 400 Z M618 149 C655 138 673 132 673 113 C671 99 656 96 639 96 C614 96 600 101 600 117 C600 128 607 139 618 149 L618 149 Z M665 299 C686 299 693 292 693 279 C693 267 688 260 677 251 C650 258 635 264 635 281 C637 294 646 299 665 299 L665 299 Z M235 755 C181 755 122 740 79 715 L96 615 C134 637 169 646 211 646 C243 646 252 637 252 629 C252 612 244 600 162 600 L149 508 C218 508 234 500 234 485 C234 465 218 457 184 457 C146 457 111 467 78 482 L36 382 C68 362 120 351 172 351 C302 351 374 402 374 489 C374 520 357 542 328 555 L328 557 C369 578 389 611 389 652 C389 715 336 755 235 755 L235 755 Z M651 750 L76 0 L223 0 L799 750 L651 750 Z " />
<glyph glyph-name="fiveeighths" unicode="&#x215d;" horiz-adv-x="859" d="M678 400 C557 400 500 346 500 265 C500 240 507 221 518 206 C473 177 460 134 460 102 C460 34 510 -6 621 -6 C745 -6 816 48 816 142 C816 176 802 198 782 213 C807 236 824 266 824 304 C824 360 782 400 678 400 L678 400 Z M618 149 C655 138 673 132 673 113 C671 99 656 96 639 96 C614 96 600 101 600 117 C600 128 607 139 618 149 L618 149 Z M665 299 C686 299 693 292 693 279 C693 267 688 260 677 251 C650 258 635 264 635 281 C637 294 646 299 665 299 L665 299 Z M389 750 L119 750 L69 547 L111 504 C135 508 169 509 194 509 C224 509 236 499 236 486 C236 469 224 458 185 458 C143 458 116 465 73 480 L38 376 C81 357 133 351 184 351 C318 351 381 421 381 514 C381 577 332 611 247 611 C233 611 222 610 211 609 L217 636 L378 636 L389 750 Z M651 750 L76 0 L223 0 L799 750 L651 750 Z " />
<glyph glyph-name="seveneighths" unicode="&#x215e;" horiz-adv-x="859" d="M668 400 C547 400 490 346 490 265 C490 240 497 221 508 206 C463 177 450 134 450 102 C450 34 500 -6 611 -6 C735 -6 806 48 806 142 C806 176 792 198 772 213 C797 236 814 266 814 304 C814 360 772 400 668 400 L668 400 Z M608 149 C645 138 663 132 663 113 C661 99 646 96 629 96 C604 96 590 101 590 117 C590 128 597 139 608 149 L608 149 Z M655 299 C676 299 683 292 683 279 C683 267 678 260 667 251 C640 258 625 264 625 281 C627 294 636 299 655 299 L655 299 Z M446 749 L107 749 L84 628 L278 628 L279 626 C270 616 262 605 255 595 L84 356 L248 356 L430 634 L446 749 Z M625 750 L50 0 L197 0 L773 750 L625 750 Z " />
<glyph glyph-name="uni215F" unicode="&#x215f;" horiz-adv-x="597" d="M301 750 L211 750 L64 672 L59 554 L97 571 C109 576 122 583 133 590 L135 588 C132 575 130 561 128 548 L101 356 L246 356 L301 750 Z M678 750 L103 0 L250 0 L826 750 L678 750 Z " />
<glyph glyph-name="uni2189" unicode="&#x2189;" horiz-adv-x="981" d="M245 755 C122 755 62 693 42 550 C39 530 38 511 38 494 C38 399 84 351 187 351 C309 351 372 418 391 550 C394 572 396 592 396 610 C396 711 348 755 245 755 L245 755 Z M229 643 C244 643 254 637 254 604 C254 591 252 574 249 552 C238 471 225 461 202 461 C187 461 178 466 178 496 C178 509 180 527 183 551 C194 631 206 643 229 643 L229 643 Z M690 750 L115 0 L262 0 L838 750 L690 750 Z M790 399 C736 399 677 384 634 359 L651 259 C689 281 724 290 766 290 C798 290 807 281 807 273 C807 256 799 244 717 244 L704 152 C773 152 789 144 789 129 C789 109 773 101 739 101 C701 101 666 111 633 126 L591 26 C623 6 675 -5 727 -5 C857 -5 929 46 929 133 C929 164 912 186 883 199 L883 201 C924 222 944 255 944 296 C944 359 891 399 790 399 L790 399 Z " />
<glyph glyph-name="partialdiff" unicode="&#x2202;" horiz-adv-x="605" d="M301 536 C146 536 29 443 -1 230 C-4 211 -5 194 -5 177 C-5 52 71 -14 210 -14 C443 -14 558 149 594 399 C598 427 600 453 600 477 C600 682 468 760 350 760 C237 760 166 735 87 689 L117 545 C175 572 227 587 290 587 C354 587 385 561 394 515 L392 514 C365 528 333 536 301 536 L301 536 Z M314 380 C343 380 356 364 356 337 C356 301 330 148 258 148 C229 148 213 162 213 193 C213 197 213 202 214 208 C231 334 270 380 314 380 L314 380 Z " />
<glyph glyph-name="Delta" unicode="&#x2206;" horiz-adv-x="670" d="M465 753 L315 753 L-41 0 L610 0 L465 753 Z M349 457 C350 446 350 437 353 416 L384 169 L225 169 L332 419 C338 433 343 445 347 457 L349 457 Z " />
<glyph glyph-name="product" unicode="&#x220f;" horiz-adv-x="709" d="M307 -160 L307 582 L404 582 L404 -160 L609 -160 L609 598 L691 609 L694 750 L15 750 L19 608 L102 597 L102 -160 L307 -160 Z " />
<glyph glyph-name="summation" unicode="&#x2211;" horiz-adv-x="626" d="M536 285 L536 325 L373 513 L319 571 L320 573 L594 573 L590 750 L34 750 L34 623 L312 305 L34 -47 L34 -160 L602 -160 L606 14 L309 14 L308 17 L360 75 L536 285 Z " />
<glyph glyph-name="minus" unicode="&#x2212;" horiz-adv-x="571" d="M495 237 L521 420 L67 420 L41 237 L495 237 Z " />
<glyph glyph-name="uni2219" unicode="&#x2219;" horiz-adv-x="571" d="M107 320 C105 305 104 291 104 278 C104 187 154 142 259 142 C388 142 467 215 467 361 C467 453 413 497 309 497 C189 497 124 440 107 320 L107 320 Z " />
<glyph glyph-name="radical" unicode="&#x221a;" horiz-adv-x="610" d="M0 328 L62 328 L115 0 L375 0 L689 778 L463 778 L287 285 C282 272 278 258 275 246 L273 246 C272 258 272 271 270 287 L247 515 L25 515 L0 328 Z " />
<glyph glyph-name="infinity" unicode="&#x221e;" horiz-adv-x="742" d="M515 135 C650 135 715 217 715 336 C715 462 628 537 512 537 C443 537 397 517 366 490 C332 520 286 537 227 537 C91 537 26 454 26 336 C26 210 114 135 229 135 C298 135 343 154 375 182 C409 151 454 135 515 135 L515 135 Z M239 304 C219 304 203 314 203 339 C203 365 218 380 243 380 C265 380 280 372 292 362 C278 329 265 304 239 304 L239 304 Z M503 368 C522 368 538 358 538 333 C538 307 525 292 499 292 C477 292 461 299 449 309 C463 342 476 368 503 368 L503 368 Z " />
<glyph glyph-name="integral" unicode="&#x222b;" horiz-adv-x="323" d="M273 601 C273 652 290 669 321 669 L317 798 C130 798 52 736 52 601 L52 35 C52 -21 32 -38 2 -38 L7 -168 C192 -168 271 -109 271 44 L273 601 Z " />
<glyph glyph-name="approxequal" unicode="&#x2248;" horiz-adv-x="589" d="M396 328 C438 328 473 337 508 354 L508 510 C474 492 438 483 396 483 C333 483 273 518 192 518 C153 518 114 509 79 492 L79 336 C113 354 153 363 192 363 C255 363 315 328 396 328 L396 328 Z M396 113 C438 113 473 122 508 139 L508 295 C474 277 438 268 396 268 C333 268 273 303 192 303 C153 303 114 294 79 277 L79 121 C113 139 153 148 192 148 C255 148 315 113 396 113 L396 113 Z " />
<glyph glyph-name="notequal" unicode="&#x2260;" horiz-adv-x="589" d="M349 614 L298 502 L79 502 L79 347 L229 347 L202 287 L79 287 L79 131 L132 131 L108 77 L242 17 L293 131 L508 131 L508 287 L363 287 L390 347 L508 347 L508 502 L460 502 L483 553 L349 614 Z " />
<glyph glyph-name="lessequal" unicode="&#x2264;" horiz-adv-x="589" d="M523 471 L523 669 L63 531 L63 336 L523 198 L523 392 L290 424 C277 426 262 428 249 429 L249 431 C262 432 277 434 290 436 L523 471 Z M523 22 L523 186 L66 186 L66 22 L523 22 Z " />
<glyph glyph-name="greaterequal" unicode="&#x2265;" horiz-adv-x="589" d="M63 198 L523 336 L523 531 L63 669 L63 471 L295 436 C308 434 323 432 336 431 L336 429 C323 428 308 426 295 424 L63 392 L63 198 Z M520 22 L520 186 L63 186 L63 22 L520 22 Z " />
<glyph glyph-name="dotmath" unicode="&#x22c5;" horiz-adv-x="571" d="M301 452 C212 452 169 401 169 318 C169 262 201 239 271 239 C358 239 402 291 402 367 C402 421 372 452 301 452 L301 452 Z " />
<glyph glyph-name="lozenge" unicode="&#x25ca;" horiz-adv-x="595" d="M15 354 L297 1 L580 354 L297 705 L15 354 Z M368 355 L296 267 L226 355 L297 444 L368 355 Z " />
<glyph glyph-name="fi" unicode="&#xfb01;" horiz-adv-x="661" d="M26 456 L78 456 L14 0 L227 0 L291 456 L418 456 L354 0 L568 0 L654 619 C581 611 519 605 439 605 L312 605 C316 638 326 652 422 652 L430 807 C192 807 117 726 99 605 L53 605 L26 456 Z M572 808 C489 808 448 774 448 711 C448 665 480 646 549 646 C633 646 675 679 675 741 C675 785 644 808 572 808 L572 808 Z " />
<glyph glyph-name="fl" unicode="&#xfb02;" horiz-adv-x="644" d="M26 456 L78 456 L14 0 L227 0 L291 456 L363 456 L388 605 L312 605 C317 641 333 657 421 657 L431 657 L339 0 L552 0 L662 783 C596 794 514 802 439 802 C201 802 116 725 99 605 L53 605 L26 456 Z " />
</font>
</svg>
